<svg width="40" height="40" viewBox="0 0 40 40" fill="none" xmlns="http://www.w3.org/2000/svg">
<circle cx="20" cy="20" r="20" fill="#FF480E"/>
<path d="M24.1873 29.1204C27.7614 27.5527 30.2665 24.1458 30.2665 20C30.2665 15.8543 27.7614 12.4473 24.1873 10.8796V12.9064C26.6062 14.3109 28.2397 17.0075 28.2397 20C28.2397 22.9925 26.6062 25.6891 24.1873 27.0937V29.1204Z" fill="white"/>
<path d="M24.1873 14.9331V25.0669C25.4287 23.9522 26.214 21.7947 26.214 20C26.214 18.2053 25.4287 16.0478 24.1873 14.9331ZM12.0268 25.0669H14.7598L22.1605 30V10L14.7598 14.9331H12.0268C10.909 14.9331 10 15.8421 10 16.9599V23.0401C10 24.1579 10.909 25.0669 12.0268 25.0669Z" fill="white"/>
</svg>
