<svg width="40" height="40" viewBox="0 0 40 40" fill="none" xmlns="http://www.w3.org/2000/svg">
<circle cx="20" cy="20" r="20" fill="#EF6C23"/>
<path d="M29.1736 24.3821C29.1732 25.6932 28.7251 26.9648 27.9034 27.9864C27.0817 29.008 25.9358 29.7184 24.6554 30L24.0437 28.1651C24.6038 28.0728 25.1365 27.8575 25.6033 27.5346C26.0701 27.2116 26.4595 26.7891 26.7434 26.2976H24.3802C23.8717 26.2976 23.384 26.0956 23.0244 25.736C22.6649 25.3764 22.4629 24.8887 22.4629 24.3802V20.5455C22.4629 20.037 22.6649 19.5493 23.0244 19.1897C23.384 18.8301 23.8717 18.6281 24.3802 18.6281H27.1968C26.9629 16.7749 26.0607 15.0707 24.6596 13.8354C23.2585 12.6 21.4547 11.9184 19.5868 11.9184C17.7189 11.9184 15.9151 12.6 14.514 13.8354C13.1129 15.0707 12.2107 16.7749 11.9768 18.6281H14.7934C15.3019 18.6281 15.7896 18.8301 16.1492 19.1897C16.5088 19.5493 16.7108 20.037 16.7108 20.5455V24.3802C16.7108 24.8887 16.5088 25.3764 16.1492 25.736C15.7896 26.0956 15.3019 26.2976 14.7934 26.2976H11.9174C11.4088 26.2976 10.9212 26.0956 10.5616 25.736C10.202 25.3764 10 24.8887 10 24.3802V19.5868C10 14.292 14.292 10 19.5868 10C24.8816 10 29.1736 14.292 29.1736 19.5868V24.3821Z" fill="white"/>
</svg>
