<svg width="40" height="40" viewBox="0 0 40 40" fill="none" xmlns="http://www.w3.org/2000/svg">
<circle cx="20" cy="20" r="20" fill="#FF8D0E"/>
<path d="M29.3318 26.2125L29.1226 26.028C28.5293 25.4993 28.0099 24.8931 27.5786 24.2256C27.1075 23.3044 26.8251 22.2984 26.7481 21.2667V18.2278C26.7522 16.6072 26.1643 15.0409 25.095 13.8232C24.0257 12.6055 22.5485 11.8202 20.941 11.6148V10.8212C20.941 10.6034 20.8545 10.3945 20.7005 10.2405C20.5464 10.0865 20.3376 10 20.1197 10C19.9019 10 19.6931 10.0865 19.539 10.2405C19.385 10.3945 19.2985 10.6034 19.2985 10.8212V11.6271C17.7054 11.8473 16.2461 12.6373 15.1908 13.851C14.1355 15.0646 13.5558 16.6195 13.5591 18.2278V21.2667C13.482 22.2984 13.1997 23.3044 12.7286 24.2256C12.3047 24.8914 11.7937 25.4976 11.2092 26.028L11 26.2125V27.9473H29.3318V26.2125Z" fill="white"/>
<path d="M18.5481 28.5931C18.602 28.9831 18.7953 29.3403 19.0921 29.5989C19.3889 29.8575 19.7692 29.9999 20.1629 29.9999C20.5565 29.9999 20.9369 29.8575 21.2337 29.5989C21.5305 29.3403 21.7237 28.9831 21.7777 28.5931H18.5481Z" fill="white"/>
</svg>
