<svg width="40" height="40" viewBox="0 0 40 40" fill="none" xmlns="http://www.w3.org/2000/svg">
<circle cx="20" cy="20" r="20" fill="#FFB057"/>
<path d="M25.7656 33.1797C25.7656 32.7263 25.3987 32.3594 24.9453 32.3594H15.1016C14.6481 32.3594 14.2812 32.7263 14.2812 33.1797C14.2812 33.6331 14.6481 34 15.1016 34H24.9453C25.3987 34 25.7656 33.6331 25.7656 33.1797Z" fill="white"/>
<path d="M20.0234 6C15.0479 6 11 10.0479 11 15.0234C11 21.8471 19.099 30.134 19.4435 30.4784C19.6037 30.6386 19.8136 30.7187 20.0234 30.7187C20.2333 30.7187 20.4432 30.6386 20.6034 30.4784C20.9479 30.134 29.0469 21.8471 29.0469 15.0234C29.0469 10.0479 24.999 6 20.0234 6ZM25.6278 15.4784C25.3806 15.8499 24.8739 15.9602 24.4903 15.7059L24.1249 15.4624V19.9453C24.1249 20.3987 23.758 20.7656 23.3046 20.7656H16.7422C16.2888 20.7656 15.9219 20.3987 15.9219 19.9453V15.4624L15.5566 15.7059C15.1776 15.9551 14.669 15.8541 14.419 15.4784C14.1674 15.1011 14.2692 14.5924 14.6465 14.3409L19.5684 11.0596C19.844 10.8754 20.2029 10.8754 20.4784 11.0596L25.4003 14.3409C25.7777 14.5924 25.8794 15.1011 25.6278 15.4784Z" fill="white"/>
<path d="M17.5625 14.3688V19.125H22.4844V14.3688L20.0234 12.7283L17.5625 14.3688Z" fill="white"/>
</svg>
