<svg width="5" height="9" viewBox="0 0 5 9" fill="none" xmlns="http://www.w3.org/2000/svg">
<path d="M0.746707 8.99996C0.842737 9.00028 0.93762 8.97909 1.02438 8.93793C1.11115 8.89677 1.18759 8.8367 1.24809 8.76212L4.35279 4.90534C4.44734 4.79033 4.49902 4.64605 4.49902 4.49717C4.49902 4.34828 4.44734 4.20401 4.35279 4.08899L1.13881 0.232212C1.02971 0.100942 0.87292 0.0183912 0.702948 0.00271999C0.532975 -0.0129512 0.363739 0.0395408 0.23247 0.148648C0.1012 0.257755 0.0186491 0.414541 0.00297785 0.584513C-0.0126934 0.754485 0.0397983 0.923721 0.148906 1.05499L3.02221 4.50038L0.245326 7.94577C0.166722 8.04012 0.116792 8.15502 0.101442 8.27686C0.0860925 8.3987 0.105966 8.52239 0.158711 8.63329C0.211456 8.74419 0.294866 8.83766 0.399069 8.90264C0.503273 8.96762 0.623911 9.00139 0.746707 8.99996Z" fill="white"/>
</svg>
