<svg width="20" height="25" viewBox="0 0 20 25" fill="none" xmlns="http://www.w3.org/2000/svg">
<path d="M9.57036 10.5283C6.99343 10.5283 4.89697 12.6248 4.89697 15.2017C4.89697 17.7786 6.99343 19.8751 9.57036 19.8751C12.1473 19.8751 14.2438 17.7786 14.2438 15.2017C14.2438 12.6248 12.1472 10.5283 9.57036 10.5283ZM8.81547 17.832L6.28537 15.3304L7.31531 14.2888L8.85429 15.8104L11.8457 13.0714L12.835 14.1519L8.81547 17.832Z" fill="#FF7D04"/>
<path d="M14.897 2.05827H11.8812L11.716 1.55402C11.4112 0.624519 10.549 0 9.57057 0C8.59209 0 7.72992 0.624519 7.42518 1.55402L7.2599 2.05827H4.24414V4.49634H14.897V2.05827Z" fill="#FF7D04"/>
<path d="M16.3617 3.24683V5.96116H2.77913V3.24683H0V25H19.1408V3.24683H16.3617ZM9.57042 21.3399C6.18576 21.3399 3.43217 18.5863 3.43217 15.2017C3.43217 11.8171 6.18576 9.06344 9.57042 9.06344C12.9551 9.06344 15.7087 11.8171 15.7087 15.2017C15.7087 18.5863 12.955 21.3399 9.57042 21.3399Z" fill="#FF7D04"/>
</svg>
