<svg width="40" height="40" viewBox="0 0 40 40" fill="none" xmlns="http://www.w3.org/2000/svg">
<circle cx="20" cy="20" r="20" fill="#FFB057"/>
<path d="M23.0859 16.1969C23.0859 16.5997 22.7581 16.9262 22.3535 16.9262C21.949 16.9262 21.6211 16.5997 21.6211 16.1969C21.6211 15.7943 21.949 15.4677 22.3535 15.4677C22.7581 15.4677 23.0859 15.7943 23.0859 16.1969Z" fill="white"/>
<path d="M25.4395 16.1969C25.4395 16.5997 25.1116 16.9262 24.707 16.9262C24.3027 16.9262 23.9746 16.5997 23.9746 16.1969C23.9746 15.7943 24.3027 15.4677 24.707 15.4677C25.1116 15.4677 25.4395 15.7943 25.4395 16.1969Z" fill="white"/>
<path d="M27.793 16.1969C27.793 16.5997 27.4649 16.9262 27.0605 16.9262C26.656 16.9262 26.3281 16.5997 26.3281 16.1969C26.3281 15.7943 26.656 15.4677 27.0605 15.4677C27.4649 15.4677 27.793 15.7943 27.793 16.1969Z" fill="white"/>
<path d="M20.4063 21.4905L22.5753 20.0506H27.4528C28.9382 20.0506 30.1465 18.8475 30.1465 17.3687V15.0254C30.1465 13.5441 28.943 12.3433 27.4528 12.3433H21.9613C20.4736 12.3433 19.2676 13.5416 19.2676 15.0254V20.8837C19.2676 21.4648 19.9201 21.8133 20.4063 21.4905ZM20.7324 15.0254C20.7324 14.6986 20.8602 14.3911 21.0921 14.1602C21.3245 13.929 21.6331 13.8018 21.9613 13.8018H27.4528C27.781 13.8018 28.0896 13.929 28.3216 14.1598C28.5539 14.3911 28.6817 14.6986 28.6817 15.0254V17.3687C28.6817 18.0432 28.1305 18.5921 27.4528 18.5921H22.3535C22.2089 18.5921 22.0676 18.6348 21.9472 18.7148L20.7324 19.5211V15.0254Z" fill="white"/>
<path d="M30.1986 10H9.80141C8.5416 10 7.5 11.0135 7.5 12.2914V26.3514C7.5 27.6057 8.51795 28.6428 9.80141 28.6428H19.2676V30.3089H16.0775C15.673 30.3089 15.3451 30.6353 15.3451 31.0381C15.3451 31.4407 15.673 31.7674 16.0775 31.7674H23.9225C24.327 31.7674 24.6549 31.4407 24.6549 31.0381C24.6549 30.6353 24.327 30.3089 23.9225 30.3089H20.7324V28.6428H30.1986C31.4584 28.6428 32.5 27.6293 32.5 26.3514V12.2914C32.5 11.0371 31.482 10 30.1986 10ZM9.80141 11.4585H30.1986C30.6604 11.4585 31.0352 11.8307 31.0352 12.2914V24.0599H18.3789V23.227C18.3789 21.8765 17.6772 20.6869 16.6181 19.9987C17.2183 19.4377 17.5945 18.6416 17.5945 17.7591C17.5945 16.0649 16.2101 14.6866 14.5084 14.6866C12.8068 14.6866 11.4225 16.0649 11.4225 17.7591C11.4225 18.6414 11.7984 19.4375 12.3985 19.9983C11.3397 20.6866 10.638 21.876 10.638 23.2262V24.0599H8.96484V12.2914C8.96484 11.8326 9.33773 11.4585 9.80141 11.4585ZM14.5084 19.3733C13.6146 19.3733 12.8873 18.6492 12.8873 17.7593C12.8873 16.8692 13.6146 16.1451 14.5084 16.1451C15.4023 16.1451 16.1296 16.8692 16.1296 17.7593C16.1296 18.6492 15.4023 19.3733 14.5084 19.3733ZM14.5084 20.8318C15.8349 20.8318 16.9141 21.9064 16.9141 23.227V24.0599H12.1028V23.2262C12.1028 21.906 13.1816 20.8318 14.5084 20.8318ZM30.1986 27.1843H9.80141C9.33964 27.1843 8.96484 26.8121 8.96484 26.3514V25.5184H31.0352V26.3514C31.0352 26.8104 30.6623 27.1843 30.1986 27.1843Z" fill="white"/>
</svg>
