<svg width="27" height="25" viewBox="0 0 27 25" fill="none" xmlns="http://www.w3.org/2000/svg">
<path d="M9.72222 18.0556V6.94444C9.72222 6.20773 10.0149 5.50119 10.5358 4.98026C11.0567 4.45932 11.7633 4.16667 12.5 4.16667H25V2.77778C25 1.25 23.75 0 22.2222 0H2.77778C2.04107 0 1.33453 0.292658 0.813592 0.813592C0.292658 1.33453 0 2.04107 0 2.77778V22.2222C0 22.9589 0.292658 23.6655 0.813592 24.1864C1.33453 24.7073 2.04107 25 2.77778 25H22.2222C23.75 25 25 23.75 25 22.2222V20.8333H12.5C11.7633 20.8333 11.0567 20.5407 10.5358 20.0197C10.0149 19.4988 9.72222 18.7923 9.72222 18.0556ZM13.8889 6.94444C13.125 6.94444 12.5 7.56944 12.5 8.33333V16.6667C12.5 17.4306 13.125 18.0556 13.8889 18.0556H26.3889V6.94444H13.8889ZM18.0556 14.5833C16.9028 14.5833 15.9722 13.6528 15.9722 12.5C15.9722 11.3472 16.9028 10.4167 18.0556 10.4167C19.2083 10.4167 20.1389 11.3472 20.1389 12.5C20.1389 13.6528 19.2083 14.5833 18.0556 14.5833Z" fill="#FF7D04"/>
</svg>
