<svg width="18" height="25" viewBox="0 0 18 25" fill="none" xmlns="http://www.w3.org/2000/svg">
<path d="M8.62176 17.6724C8.44654 18.2068 7.81518 18.6813 6.85931 18.9788C4.43183 19.7342 2.93 20.8118 2.63916 21.9828H14.6044C14.3134 20.8118 12.8117 19.7342 10.3842 18.9788C9.42833 18.6813 8.79697 18.2068 8.62176 17.6724Z" fill="#FF7D04"/>
<path d="M3.45386 5.60346C4.17746 6.9817 5.33586 8.21553 6.85849 9.18913C7.32557 9.48613 7.72422 9.87896 8.02805 10.3416C8.33188 10.8043 8.53395 11.3262 8.62088 11.8729C8.70781 11.3262 8.90989 10.8043 9.21371 10.3416C9.51754 9.87896 9.9162 9.48613 10.3833 9.18913C11.9059 8.21553 13.0643 6.9817 13.7879 5.60346H3.45386Z" fill="#FF7D04"/>
<path d="M11.3119 10.6415C14.3969 8.66918 16.3793 5.60124 16.3793 2.15517C16.6079 2.15517 16.8272 2.06435 16.9889 1.90268C17.1506 1.74101 17.2414 1.52174 17.2414 1.2931V0H0V1.23922C0.000101914 1.47268 0.0894206 1.69727 0.249676 1.86703C0.409932 2.03679 0.629008 2.13889 0.862069 2.15242V2.15517C0.862069 5.60124 2.8445 8.66918 5.92947 10.6415C7.28502 11.5082 7.28502 13.4918 5.92947 14.3585C2.8445 16.3308 0.862069 19.3988 0.862069 22.8448V22.8476C0.629008 22.8611 0.409932 22.9632 0.249676 23.133C0.0894206 23.3027 0.000101914 23.5273 0 23.7608V25H17.2414V23.7069C17.2414 23.4783 17.1506 23.259 16.9889 23.0973C16.8272 22.9357 16.6079 22.8448 16.3793 22.8448C16.3793 19.3988 14.3969 16.3308 11.3119 14.3585C9.95636 13.4918 9.95636 11.5082 11.3119 10.6415ZM9.43319 12.5C9.43179 13.0152 9.56073 13.5223 9.80802 13.9742C10.0553 14.4262 10.4129 14.8082 10.8475 15.0848C13.8152 16.9821 15.5172 19.8106 15.5172 22.8448H1.72414C1.72414 19.8106 3.42619 16.9821 6.39386 15.0848C6.8275 14.8071 7.18434 14.4249 7.4315 13.9732C7.67866 13.5215 7.80821 13.0149 7.80821 12.5C7.80821 11.9851 7.67866 11.4785 7.4315 11.0268C7.18434 10.5751 6.8275 10.1929 6.39386 9.91525C3.42619 8.01789 1.72414 5.18939 1.72414 2.15517H15.5172C15.5172 5.18939 13.8152 8.01789 10.8475 9.91525C10.4129 10.1918 10.0553 10.5738 9.80802 11.0258C9.56073 11.4777 9.43179 11.9848 9.43319 12.5Z" fill="#FF7D04"/>
<path d="M8.62065 14.1965C8.72782 14.1965 8.8306 14.154 8.90639 14.0782C8.98217 14.0024 9.02474 13.8996 9.02474 13.7924V13.3621C9.02474 13.2549 8.98217 13.1521 8.90639 13.0764C8.8306 13.0006 8.72782 12.958 8.62065 12.958C8.51347 12.958 8.41069 13.0006 8.33491 13.0764C8.25913 13.1521 8.21655 13.2549 8.21655 13.3621V13.7924C8.21655 13.8996 8.25913 14.0024 8.33491 14.0782C8.41069 14.154 8.51347 14.1965 8.62065 14.1965Z" fill="#FF7D04"/>
<path d="M8.21655 15.9476C8.21655 16.0548 8.25913 16.1576 8.33491 16.2333C8.41069 16.3091 8.51347 16.3517 8.62065 16.3517C8.72782 16.3517 8.8306 16.3091 8.90639 16.2333C8.98217 16.1576 9.02474 16.0548 9.02474 15.9476V15.5173C9.02474 15.4101 8.98217 15.3073 8.90639 15.2315C8.8306 15.1557 8.72782 15.1132 8.62065 15.1132C8.51347 15.1132 8.41069 15.1557 8.33491 15.2315C8.25913 15.3073 8.21655 15.4101 8.21655 15.5173V15.9476Z" fill="#FF7D04"/>
</svg>
