<svg width="11" height="12" viewBox="0 0 11 12" fill="none" xmlns="http://www.w3.org/2000/svg">
<path d="M5.14706 11.4579C5.36394 11.4529 5.57206 11.3714 5.73462 11.2277C5.89718 11.084 6.00369 10.8875 6.03532 10.6729H4.22437C4.25689 10.8934 4.36839 11.0945 4.53812 11.2389C4.70784 11.3833 4.92424 11.4611 5.14706 11.4579Z" fill="#FF8D0E"/>
<path d="M10.2598 9.34052L10.1427 9.23723C9.81063 8.94135 9.51996 8.60204 9.27856 8.22847C9.01491 7.71292 8.85689 7.1499 8.81377 6.57245V4.87166C8.81237 4.66507 8.79395 4.45895 8.75868 4.25539C8.1755 4.13552 7.65165 3.81781 7.27584 3.35603C6.90002 2.89426 6.69532 2.31681 6.6964 1.72143V1.50453C6.33694 1.32763 5.95073 1.2113 5.55336 1.16024V0.726439C5.55336 0.604539 5.50494 0.487632 5.41874 0.401436C5.33255 0.31524 5.21564 0.266815 5.09374 0.266815C4.97184 0.266815 4.85493 0.31524 4.76873 0.401436C4.68254 0.487632 4.63411 0.604539 4.63411 0.726439V1.17746C3.74438 1.30297 2.93009 1.74613 2.34158 2.42513C1.75307 3.10413 1.43008 3.97312 1.43224 4.87166V6.57245C1.38912 7.1499 1.2311 7.71292 0.967449 8.22847C0.730194 8.60111 0.444198 8.94037 0.117058 9.23723L0 9.34052V10.3114H10.2598V9.34052Z" fill="#FF8D0E"/>
<path d="M9.27857 3.44288C10.2293 3.44288 11 2.67216 11 1.72144C11 0.770715 10.2293 0 9.27857 0C8.32784 0 7.55713 0.770715 7.55713 1.72144C7.55713 2.67216 8.32784 3.44288 9.27857 3.44288Z" fill="#FF3B30"/>
</svg>
