<svg width="40" height="40" viewBox="0 0 40 40" fill="none" xmlns="http://www.w3.org/2000/svg">
<circle cx="20" cy="20" r="20" fill="#FFB057"/>
<path d="M30.4123 10.25H9.58767C8.43316 10.25 7.5 11.1832 7.5 12.3333V27.6111C7.5 28.7613 8.43316 29.6944 9.58767 29.6944H30.4123C31.5668 29.6944 32.5 28.7613 32.5 27.6111V12.3333C32.5 11.1832 31.5668 10.25 30.4123 10.25ZM9.84809 12.3333H30.1519C30.2951 12.3333 30.4123 12.4505 30.4123 12.5938V14.4167H9.58767V12.5938C9.58767 12.4505 9.70486 12.3333 9.84809 12.3333ZM30.1519 27.6111H9.84809C9.70486 27.6111 9.58767 27.4939 9.58767 27.3507V19.9722H30.4123V27.3507C30.4123 27.4939 30.2951 27.6111 30.1519 27.6111ZM15.8333 23.2708V25.0069C15.8333 25.2934 15.599 25.5278 15.3125 25.5278H12.1875C11.901 25.5278 11.6667 25.2934 11.6667 25.0069V23.2708C11.6667 22.9844 11.901 22.75 12.1875 22.75H15.3125C15.599 22.75 15.8333 22.9844 15.8333 23.2708ZM24.1667 23.2708V25.0069C24.1667 25.2934 23.9323 25.5278 23.6458 25.5278H17.7431C17.4566 25.5278 17.2222 25.2934 17.2222 25.0069V23.2708C17.2222 22.9844 17.4566 22.75 17.7431 22.75H23.6458C23.9323 22.75 24.1667 22.9844 24.1667 23.2708Z" fill="white"/>
</svg>
