<svg width="33" height="33" viewBox="0 0 33 33" fill="none" xmlns="http://www.w3.org/2000/svg">
<path d="M25.8383 23.6055C21.5114 22.0293 20.1282 20.6987 20.1282 17.8498C20.1282 16.1402 21.5459 15.0321 22.0292 13.5669C22.5125 12.1016 22.7921 10.3668 23.0245 9.10484C23.2569 7.84289 23.3492 7.35479 23.4756 6.01021C23.6301 4.33213 22.5067 0 16.5 0C10.4951 0 9.36812 4.33213 9.52611 6.01021C9.6525 7.35479 9.74534 7.84295 9.97722 9.10484C10.2091 10.3668 10.486 12.1015 10.969 13.5669C11.4519 15.0322 12.8717 16.1402 12.8717 17.8498C12.8717 20.6987 11.4885 22.0293 7.16163 23.6055C2.81905 25.1853 0 26.7432 0 27.8438V33H33V27.8438C33 26.7449 30.1792 25.1871 25.8383 23.6055Z" fill="black"/>
</svg>
