<svg width="40" height="40" viewBox="0 0 40 40" fill="none" xmlns="http://www.w3.org/2000/svg">
<circle cx="20" cy="20" r="20" fill="#FFB057"/>
<path d="M32.5 25.7948C32.4994 27.5081 31.9151 29.1699 30.8438 30.505C29.7724 31.8401 28.2783 32.7684 26.6088 33.1364L25.8113 30.7385C26.5415 30.6179 27.2361 30.3365 27.8447 29.9145C28.4534 29.4925 28.9611 28.9404 29.3313 28.298H26.25C25.587 28.298 24.9511 28.034 24.4822 27.5641C24.0134 27.0942 23.75 26.4569 23.75 25.7923V20.781C23.75 20.1165 24.0134 19.4792 24.4822 19.0093C24.9511 18.5394 25.587 18.2754 26.25 18.2754H29.9225C29.6175 15.8536 28.4412 13.6265 26.6143 12.0121C24.7874 10.3978 22.4356 9.50699 20 9.50699C17.5644 9.50699 15.2126 10.3978 13.3857 12.0121C11.5589 13.6265 10.3825 15.8536 10.0775 18.2754H13.75C14.413 18.2754 15.0489 18.5394 15.5178 19.0093C15.9866 19.4792 16.25 20.1165 16.25 20.781V25.7923C16.25 26.4569 15.9866 27.0942 15.5178 27.5641C15.0489 28.034 14.413 28.298 13.75 28.298H10C9.33696 28.298 8.70107 28.034 8.23223 27.5641C7.76339 27.0942 7.5 26.4569 7.5 25.7923V19.5282C7.5 12.6089 13.0963 7 20 7C26.9038 7 32.5 12.6089 32.5 19.5282V25.7948Z" fill="white"/>
</svg>
