<svg width="11" height="11" viewBox="0 0 11 11" fill="none" xmlns="http://www.w3.org/2000/svg">
<path d="M5.21554 4.00235C4.84765 4.00235 4.50314 4.14496 4.2423 4.40559C3.98269 4.66623 3.83873 5.01046 3.83873 5.37806C3.83873 5.74565 3.98269 6.08988 4.2423 6.35052C4.50314 6.60992 4.84765 6.75377 5.21554 6.75377C5.58343 6.75377 5.92794 6.60992 6.18879 6.35052C6.4484 6.08988 6.59236 5.74565 6.59236 5.37806C6.59236 5.01046 6.4484 4.66623 6.18879 4.40559C6.06138 4.27731 5.90974 4.1756 5.74266 4.10638C5.57559 4.03716 5.39641 4.00179 5.21554 4.00235ZM10.2885 6.89761L9.48379 6.21037C9.52193 5.97678 9.54162 5.73827 9.54162 5.501C9.54162 5.26372 9.52193 5.02398 9.48379 4.79163L10.2885 4.10439C10.3493 4.05239 10.3928 3.98314 10.4132 3.90583C10.4336 3.82853 10.43 3.74685 10.4029 3.67163L10.3918 3.63967C10.1704 3.0209 9.83854 2.44733 9.41243 1.94677L9.39028 1.92095C9.33854 1.86016 9.26957 1.81646 9.19248 1.79561C9.11538 1.77476 9.03378 1.77774 8.95841 1.80416L7.95933 2.15946C7.59021 1.85702 7.17926 1.61852 6.73385 1.45255L6.54068 0.408779C6.52611 0.330149 6.48793 0.25781 6.43123 0.201375C6.37453 0.144939 6.30199 0.107078 6.22324 0.0928205L6.19002 0.0866734C5.55021 -0.0288911 4.87595 -0.0288911 4.23615 0.0866734L4.20293 0.0928205C4.12418 0.107078 4.05163 0.144939 3.99493 0.201375C3.93823 0.25781 3.90006 0.330149 3.88548 0.408779L3.69108 1.45747C3.2499 1.62476 2.8389 1.86269 2.47422 2.16192L1.46775 1.80416C1.39241 1.77753 1.31074 1.77445 1.2336 1.79531C1.15646 1.81617 1.0875 1.85999 1.03588 1.92095L1.01374 1.94677C0.58838 2.44787 0.256639 3.02129 0.0343417 3.63967L0.0232681 3.67163C-0.0320997 3.82531 0.013425 3.99743 0.137695 4.10439L0.952218 4.799C0.914075 5.03013 0.895619 5.26618 0.895619 5.49977C0.895619 5.73581 0.914075 5.97186 0.952218 6.20053L0.140156 6.89515C0.0793689 6.94714 0.035863 7.0164 0.0154231 7.0937C-0.00501685 7.171 -0.00142229 7.25269 0.0257289 7.3279L0.0368025 7.35986C0.259504 7.97826 0.58802 8.54993 1.0162 9.05276L1.03835 9.07858C1.09009 9.13937 1.15905 9.18307 1.23615 9.20392C1.31324 9.22477 1.39485 9.22179 1.47021 9.19537L2.47668 8.83762C2.84334 9.13882 3.25183 9.37733 3.69354 9.54207L3.88794 10.5908C3.90252 10.6694 3.94069 10.7417 3.99739 10.7982C4.05409 10.8546 4.12664 10.8925 4.20539 10.9067L4.23861 10.9129C4.88471 11.029 5.54638 11.029 6.19248 10.9129L6.2257 10.9067C6.30445 10.8925 6.37699 10.8546 6.43369 10.7982C6.49039 10.7417 6.52857 10.6694 6.54314 10.5908L6.73631 9.54698C7.18172 9.37979 7.59267 9.14251 7.96179 8.84007L8.96087 9.19537C9.03621 9.222 9.11788 9.22509 9.19502 9.20423C9.27216 9.18336 9.34112 9.13954 9.39274 9.07858L9.41489 9.05276C9.84307 8.54747 10.1716 7.97826 10.3943 7.35986L10.4054 7.3279C10.4583 7.17545 10.4127 7.00456 10.2885 6.89761ZM5.21554 7.53936C4.02083 7.53936 3.05251 6.57181 3.05251 5.37806C3.05251 4.1843 4.02083 3.21675 5.21554 3.21675C6.41026 3.21675 7.37858 4.1843 7.37858 5.37806C7.37858 6.57181 6.41026 7.53936 5.21554 7.53936Z" fill="white"/>
</svg>
