<svg width="40" height="40" viewBox="0 0 40 40" fill="none" xmlns="http://www.w3.org/2000/svg">
<circle cx="20" cy="20" r="20" fill="#FFB057"/>
<path d="M20.0048 16.366C19.1227 16.366 18.2967 16.708 17.6713 17.3329C17.0489 17.9578 16.7037 18.7831 16.7037 19.6644C16.7037 20.5458 17.0489 21.3711 17.6713 21.996C18.2967 22.618 19.1227 22.9628 20.0048 22.9628C20.8868 22.9628 21.7128 22.618 22.3382 21.996C22.9607 21.3711 23.3059 20.5458 23.3059 19.6644C23.3059 18.7831 22.9607 17.9578 22.3382 17.3329C22.0328 17.0253 21.6692 16.7814 21.2686 16.6155C20.868 16.4495 20.4385 16.3647 20.0048 16.366ZM32.1677 23.3077L30.2384 21.66C30.3298 21.0999 30.377 20.5281 30.377 19.9592C30.377 19.3903 30.3298 18.8155 30.2384 18.2584L32.1677 16.6107C32.3134 16.486 32.4177 16.32 32.4667 16.1346C32.5157 15.9493 32.5071 15.7534 32.442 15.5731L32.4155 15.4965C31.8845 14.0129 31.0889 12.6377 30.0673 11.4376L30.0142 11.3757C29.8901 11.2299 29.7247 11.1251 29.5399 11.0752C29.3551 11.0252 29.1594 11.0323 28.9787 11.0957L26.5833 11.9475C25.6983 11.2224 24.713 10.6506 23.6451 10.2526L23.182 7.75009C23.147 7.56156 23.0555 7.38812 22.9195 7.25281C22.7836 7.1175 22.6097 7.02673 22.4209 6.99254L22.3412 6.97781C20.8072 6.70073 19.1906 6.70073 17.6566 6.97781L17.5769 6.99254C17.3881 7.02673 17.2142 7.1175 17.0783 7.25281C16.9423 7.38812 16.8508 7.56156 16.8158 7.75009L16.3497 10.2644C15.292 10.6655 14.3066 11.236 13.4322 11.9534L11.0191 11.0957C10.8384 11.0318 10.6426 11.0244 10.4577 11.0744C10.2727 11.1244 10.1074 11.2295 9.98364 11.3757L9.93054 11.4376C8.9107 12.639 8.11532 14.0138 7.58234 15.4965L7.55579 15.5731C7.42304 15.9416 7.53219 16.3542 7.83014 16.6107L9.78304 18.2761C9.69159 18.8303 9.64734 19.3962 9.64734 19.9563C9.64734 20.5222 9.69159 21.0881 9.78304 21.6364L7.83604 23.3018C7.6903 23.4265 7.58599 23.5925 7.53698 23.7779C7.48797 23.9632 7.49659 24.1591 7.56169 24.3394L7.58824 24.416C8.12219 25.8987 8.90984 27.2693 9.93644 28.4749L9.98954 28.5368C10.1136 28.6826 10.2789 28.7874 10.4638 28.8373C10.6486 28.8873 10.8443 28.8802 11.025 28.8168L13.4381 27.9591C14.3172 28.6813 15.2966 29.2531 16.3556 29.6481L16.8217 32.1624C16.8567 32.3509 16.9482 32.5244 17.0842 32.6597C17.2201 32.795 17.394 32.8858 17.5828 32.92L17.6625 32.9347C19.2116 33.2133 20.798 33.2133 22.3471 32.9347L22.4267 32.92C22.6156 32.8858 22.7895 32.795 22.9254 32.6597C23.0614 32.5244 23.1529 32.3509 23.1879 32.1624L23.651 29.6599C24.7189 29.259 25.7042 28.6901 26.5892 27.965L28.9846 28.8168C29.1652 28.8807 29.3611 28.8881 29.546 28.8381C29.731 28.7881 29.8963 28.683 30.0201 28.5368L30.0732 28.4749C31.0998 27.2634 31.8874 25.8987 32.4214 24.416L32.4479 24.3394C32.5748 23.9739 32.4656 23.5642 32.1677 23.3077ZM20.0048 24.8464C17.1403 24.8464 14.8187 22.5266 14.8187 19.6644C14.8187 16.8023 17.1403 14.4825 20.0048 14.4825C22.8693 14.4825 25.1909 16.8023 25.1909 19.6644C25.1909 22.5266 22.8693 24.8464 20.0048 24.8464Z" fill="white"/>
</svg>
