<svg width="40" height="40" viewBox="0 0 40 40" fill="none" xmlns="http://www.w3.org/2000/svg">
<circle cx="20" cy="20" r="20" fill="#FFB057"/>
<path fill-rule="evenodd" clip-rule="evenodd" d="M12.1875 11.4062C12.1875 10.3702 12.5991 9.37668 13.3316 8.64411C14.0642 7.91155 15.0577 7.5 16.0938 7.5C17.1298 7.5 18.1233 7.91155 18.8559 8.64411C19.5884 9.37668 20 10.3702 20 11.4062C20 10.3702 20.4116 9.37668 21.1441 8.64411C21.8767 7.91155 22.8702 7.5 23.9062 7.5C24.9423 7.5 25.9358 7.91155 26.6684 8.64411C27.4009 9.37668 27.8125 10.3702 27.8125 11.4062V11.4156C27.8125 11.525 27.8125 11.8375 27.7531 12.1875H30.9375C31.3519 12.1875 31.7493 12.3521 32.0424 12.6451C32.3354 12.9382 32.5 13.3356 32.5 13.75V15.3125C32.5 15.7269 32.3354 16.1243 32.0424 16.4174C31.7493 16.7104 31.3519 16.875 30.9375 16.875H9.0625C8.6481 16.875 8.25067 16.7104 7.95765 16.4174C7.66462 16.1243 7.5 15.7269 7.5 15.3125V13.75C7.5 13.3356 7.66462 12.9382 7.95765 12.6451C8.25067 12.3521 8.6481 12.1875 9.0625 12.1875H12.2469C12.2056 11.9323 12.1857 11.6741 12.1875 11.4156V11.4062ZM13.8562 12.1875H18.4375V11.4062C18.4375 11.0985 18.3769 10.7937 18.2591 10.5093C18.1413 10.225 17.9687 9.96661 17.751 9.74897C17.5334 9.53133 17.275 9.35869 16.9907 9.24091C16.7063 9.12312 16.4015 9.0625 16.0938 9.0625C15.786 9.0625 15.4812 9.12312 15.1968 9.24091C14.9125 9.35869 14.6541 9.53133 14.4365 9.74897C14.2188 9.96661 14.0462 10.225 13.9284 10.5093C13.8106 10.7937 13.75 11.0985 13.75 11.4062C13.75 11.5391 13.7531 11.8344 13.8203 12.0781C13.8297 12.1154 13.8417 12.1519 13.8562 12.1875ZM21.5625 12.1875H26.1438C26.1581 12.1519 26.1701 12.1153 26.1797 12.0781C26.2469 11.8344 26.25 11.5391 26.25 11.4062C26.25 10.7846 26.0031 10.1885 25.5635 9.74897C25.124 9.30943 24.5279 9.0625 23.9062 9.0625C23.2846 9.0625 22.6885 9.30943 22.249 9.74897C21.8094 10.1885 21.5625 10.7846 21.5625 11.4062V12.1875Z" fill="white"/>
<path d="M30.9375 18.4375V30.1562C30.9375 30.7779 30.6906 31.374 30.251 31.8135C29.8115 32.2531 29.2154 32.5 28.5938 32.5H21.5625V18.4375H30.9375ZM11.4062 32.5C10.7846 32.5 10.1885 32.2531 9.74897 31.8135C9.30943 31.374 9.0625 30.7779 9.0625 30.1562V18.4375H18.4375V32.5H11.4062Z" fill="white"/>
</svg>
