<svg width="17" height="19" viewBox="0 0 17 19" fill="none" xmlns="http://www.w3.org/2000/svg">
<path d="M8.52334 0.85C5.95144 0.85 3.85928 2.94217 3.85928 5.51406C3.85928 8.08596 5.95144 10.1781 8.52334 10.1781C11.0952 10.1781 13.1874 8.08596 13.1874 5.51406C13.1874 2.94217 11.0952 0.85 8.52334 0.85ZM8.52334 8.875C6.67025 8.875 5.1624 7.36715 5.1624 5.51406C5.1624 3.66097 6.67025 2.15312 8.52334 2.15312C10.3764 2.15312 11.8843 3.66097 11.8843 5.51406C11.8843 7.36715 10.3764 8.875 8.52334 8.875Z" fill="black" stroke="black" stroke-width="0.3"/>
<path d="M0.916794 14.3683L0.9 14.3935V14.4238V18.12V18.22H1H16.0469H16.1469V18.12V14.4238V14.3935L16.1301 14.3683C14.5862 12.0523 12.2715 10.9647 9.92223 10.9647H7.12461C4.77826 10.9647 2.46296 12.0489 0.916794 14.3683ZM14.9438 17.0169H2.10313V14.7624C3.25722 13.1343 5.12092 12.1678 7.12465 12.1678H9.92226C11.926 12.1678 13.7897 13.1343 14.9438 14.7624V17.0169Z" fill="black" stroke="black" stroke-width="0.2"/>
</svg>
