<svg width="25" height="25" viewBox="0 0 25 25" fill="none" xmlns="http://www.w3.org/2000/svg">
<path d="M23.3485 7.89975C22.8136 7.3644 21.9631 7.33076 21.388 7.79936C21.3049 7.86714 21.3693 7.80742 20.103 9.07368L23.3899 12.3606L24.5712 11.1941C25.1424 10.6229 25.1424 9.69365 24.5712 9.12246L23.3485 7.89975Z" fill="#FF7D04"/>
<path d="M13.3626 15.8764L11.4291 20.0196C11.2989 20.2988 11.3571 20.6295 11.5749 20.8473C11.7927 21.0651 12.1235 21.1233 12.4025 20.9931L16.5458 19.0595C16.7097 18.983 16.2135 19.4475 22.3476 13.3899L19.0672 10.1094C12.9853 16.1914 13.4406 15.7092 13.3626 15.8764Z" fill="#FF7D04"/>
<path d="M17.7795 19.9595C17.6001 20.1366 17.3934 20.2804 17.165 20.387L13.0217 22.3206C12.207 22.7008 11.2116 22.556 10.5389 21.8832C9.88799 21.2323 9.71216 20.2345 10.1014 19.4002L12.035 15.2568C12.1436 15.0242 12.2907 14.8141 12.4723 14.6325L18.7012 8.40361V2.19727C18.7012 0.985693 17.7155 0 16.5039 0H2.19727C0.985693 0 0 0.985693 0 2.19727V22.8027C0 24.0143 0.985693 25 2.19727 25H16.5039C17.7155 25 18.7012 24.0143 18.7012 22.8027V19.0493L17.7795 19.9595ZM3.9063 4.73633H14.8438C15.2483 4.73633 15.5762 5.06426 15.5762 5.46875C15.5762 5.87324 15.2483 6.20117 14.8438 6.20117H3.9063C3.50181 6.20117 3.17388 5.87324 3.17388 5.46875C3.17388 5.06426 3.50181 4.73633 3.9063 4.73633ZM3.9063 8.64258H12.5C12.9045 8.64258 13.2325 8.97051 13.2325 9.375C13.2325 9.77949 12.9045 10.1074 12.5 10.1074H3.9063C3.50181 10.1074 3.17388 9.77949 3.17388 9.375C3.17388 8.97051 3.50181 8.64258 3.9063 8.64258ZM3.17388 13.2812C3.17388 12.8768 3.50181 12.5488 3.9063 12.5488H10.1563C10.5608 12.5488 10.8887 12.8768 10.8887 13.2812C10.8887 13.6857 10.5608 14.0137 10.1563 14.0137H3.9063C3.50181 14.0137 3.17388 13.6857 3.17388 13.2812Z" fill="#FF7D04"/>
</svg>
