<svg width="50" height="51" viewBox="0 0 50 51" fill="none" xmlns="http://www.w3.org/2000/svg">
<rect x="5" width="40" height="40" rx="4" fill="#FFF3E7"/>
<path d="M28.2919 27.4567L24.6082 25.1155C24.3241 24.9348 23.9665 24.915 23.6641 25.0632C23.3618 25.2114 23.1582 25.5062 23.1269 25.8415C23.0282 26.8963 22.5606 27.8907 21.8102 28.6413C20.9484 29.5034 19.8025 29.9782 18.5837 29.9782C17.365 29.9782 16.2191 29.5034 15.3573 28.6413C13.578 26.8614 13.578 23.9653 15.3573 22.1854C16.09 21.4525 17.0196 21.0012 18.0458 20.8801C18.3763 20.8411 18.6637 20.6348 18.8062 20.3341C18.9488 20.0333 18.9267 19.6804 18.7477 19.3998L16.4136 15.7412C16.1765 15.3696 15.7183 15.2053 15.2991 15.3417C13.7041 15.8609 12.29 16.7297 11.0963 17.9238C6.96791 22.0535 6.96791 28.773 11.0963 32.9028C13.0962 34.9034 15.7553 36.0052 18.5838 36.0052C21.4122 36.0052 24.0713 34.9033 26.0712 32.9028C27.284 31.6897 28.1918 30.1877 28.6968 28.5591C28.8259 28.1424 28.6601 27.6908 28.2919 27.4567Z" fill="#FFE1BF"/>
<path d="M18.5838 36.0052C21.4122 36.0052 24.0713 34.9034 26.0712 32.9029C27.284 31.6898 28.1918 30.1877 28.6968 28.5591C28.8259 28.1424 28.6601 27.6908 28.2919 27.4568L24.6082 25.1155C24.3241 24.9349 23.9665 24.9151 23.6641 25.0633C23.3618 25.2115 23.1582 25.5063 23.1269 25.8416C23.0282 26.8964 22.5606 27.8907 21.8102 28.6413C20.9484 29.5035 19.8025 29.9782 18.5837 29.9782C17.3654 29.9782 16.2199 29.5037 15.3581 28.6421L11.0968 32.9034C13.0967 34.9036 15.7556 36.0052 18.5838 36.0052Z" fill="#FFD19F"/>
<path d="M35.4936 23.8556C34.9248 21.9474 33.7181 19.7207 32.0962 17.5857C31.7731 17.1604 26.8062 12.198 26.3807 11.8753C24.2503 10.26 22.0297 9.05936 20.128 8.49447C17.2866 7.65045 15.7969 8.36677 15.0475 9.11634C13.7476 10.4166 13.717 12.7447 14.9612 15.6718C16.0539 18.2426 18.0652 21.102 20.4793 23.5168C22.8934 25.9316 25.7518 27.9435 28.3219 29.0367C29.7515 29.6448 31.0381 29.9485 32.1319 29.9484C33.2771 29.9484 34.211 29.6154 34.876 28.9503C35.6268 28.1994 36.3433 26.7059 35.4936 23.8556Z" fill="#FFAB4E"/>
<path d="M32.0962 17.5857C31.9353 17.3739 30.6225 16.0367 29.2925 14.7077L20.4813 23.5188C22.895 25.9327 25.7526 27.9438 28.3219 29.0367C29.7515 29.6448 31.0381 29.9485 32.1319 29.9484C33.2771 29.9484 34.211 29.6154 34.876 28.9503C35.6267 28.1993 36.3433 26.7058 35.4936 23.8556C34.9248 21.9475 33.7182 19.7207 32.0962 17.5857Z" fill="#FF951E"/>
<path d="M38.6096 5.22277C37.0975 3.75173 35.095 2.96244 32.9697 3.00137C30.8425 3.03999 28.867 3.9025 27.4068 5.42996C26.1396 6.75551 25.3707 8.49312 25.2416 10.3227C25.085 12.5431 24.1673 14.5977 22.6577 16.1079L22.4471 16.3184C22.0696 16.696 22.0696 17.3081 22.4471 17.6857L26.2159 21.4557C26.3972 21.6372 26.6434 21.7391 26.8999 21.739C27.1564 21.7389 27.4025 21.637 27.5838 21.4554L27.6305 21.4087C29.1962 19.8424 31.3193 18.9007 33.6086 18.7569C35.5256 18.6365 37.33 17.8213 38.6894 16.4614C40.1941 14.9562 41.0146 12.9549 40.9998 10.8262C40.9851 8.69785 40.1362 6.70788 38.6096 5.22277Z" fill="#F9D857"/>
<path d="M38.6936 5.30651L24.3804 19.6197L26.2159 21.4558C26.3972 21.6372 26.6433 21.7391 26.8999 21.7391C27.1564 21.739 27.4025 21.637 27.5838 21.4555L27.6305 21.4088C29.1962 19.8425 31.3193 18.9008 33.6086 18.7569C35.5256 18.6365 37.33 17.8213 38.6894 16.4615C40.1941 14.9563 41.0146 12.955 40.9998 10.8262C40.9853 8.73749 40.167 6.78233 38.6936 5.30651Z" fill="#FFCD00"/>
<path d="M11.4561 48.6045L11.1924 48.5703C11.4951 48.2025 11.7913 47.8005 12.0811 47.3643H10.4307C10.2028 47.3643 9.96517 47.3919 9.71777 47.4473L9.55176 47.0762H12.2617C12.5286 46.6465 12.7142 46.2998 12.8184 46.0361L13.4678 46.2705C13.5557 46.2998 13.5996 46.347 13.5996 46.4121C13.5996 46.5163 13.471 46.5765 13.2139 46.5928C13.2041 46.5928 13.196 46.5928 13.1895 46.5928C13.056 46.7913 12.9453 46.9525 12.8574 47.0762H17.1934L17.6719 46.5342L18.5166 47.2373L18.4482 47.3643H16.1875C15.8783 47.9372 15.4827 48.4336 15.001 48.8535C15.3981 48.9349 15.7562 49.0163 16.0752 49.0977C16.7946 49.2865 17.278 49.4525 17.5254 49.5957C17.7077 49.6999 17.7988 49.8268 17.7988 49.9766C17.7988 50.0547 17.7744 50.123 17.7256 50.1816C17.6768 50.2402 17.6214 50.2695 17.5596 50.2695C17.4977 50.2695 17.3382 50.2077 17.0811 50.084C16.3682 49.752 15.5267 49.4508 14.5566 49.1807C14.4655 49.2393 14.3532 49.3044 14.2197 49.376C13.2562 49.8838 11.8613 50.1768 10.0352 50.2549L9.74219 50.2695L9.72266 50.1084C10.8229 49.9684 11.7002 49.8122 12.3545 49.6396C13.012 49.4606 13.5443 49.2588 13.9512 49.0342C13.2318 48.8747 12.4001 48.7314 11.4561 48.6045ZM15.543 47.3643H12.6523C12.6393 47.3805 12.6182 47.4082 12.5889 47.4473C12.5661 47.4798 12.5482 47.5042 12.5352 47.5205C12.2487 47.9144 12.0273 48.209 11.8711 48.4043L12.3789 48.4629C13.2676 48.5671 13.943 48.6598 14.4053 48.7412C14.8512 48.3962 15.2305 47.9372 15.543 47.3643ZM11.9736 44.7861C11.9443 44.8512 11.9069 44.9229 11.8613 45.001C11.6855 45.2842 11.4349 45.5413 11.1094 45.7725C10.7839 46.0036 10.32 46.2542 9.71777 46.5244L9.63965 46.3828C10.4046 45.9466 10.932 45.543 11.2217 45.1719C11.3877 44.9603 11.5033 44.7487 11.5684 44.5371C11.6335 44.3223 11.666 44.0488 11.666 43.7168V42.9697C11.6628 42.7907 11.6546 42.6491 11.6416 42.5449L12.2617 42.6523C12.3724 42.6686 12.4277 42.7044 12.4277 42.7598C12.4277 42.8184 12.3333 42.8965 12.1445 42.9941V43.5898C12.1445 44.0488 12.1055 44.402 12.0273 44.6494C12.4993 44.7894 12.8753 44.9424 13.1553 45.1084C13.4385 45.2744 13.5882 45.4648 13.6045 45.6797C13.6045 45.849 13.5345 45.9336 13.3945 45.9336C13.3327 45.9336 13.2139 45.8327 13.0381 45.6309C12.7516 45.3021 12.3968 45.0205 11.9736 44.7861ZM17.3936 46.0312L17.2227 45.8018C16.9622 45.4502 16.5993 45.1165 16.1338 44.8008C16.1175 44.8333 16.1012 44.8643 16.085 44.8936C15.9482 45.154 15.7334 45.3965 15.4404 45.6211C15.1507 45.8457 14.7454 46.0833 14.2246 46.334L14.1416 46.1924C14.8382 45.7627 15.3037 45.3607 15.5381 44.9863C15.7432 44.6576 15.8457 44.2344 15.8457 43.7168V42.9697C15.8424 42.7874 15.8343 42.6458 15.8213 42.5449L16.4414 42.6523C16.5521 42.6686 16.6074 42.7044 16.6074 42.7598C16.6074 42.8184 16.5749 42.8656 16.5098 42.9014L16.3242 42.9941V43.541C16.3242 44.0228 16.277 44.3971 16.1826 44.6641C16.736 44.8659 17.1445 45.0628 17.4082 45.2549C17.6686 45.4437 17.807 45.6504 17.8232 45.875C17.8232 46.0573 17.7467 46.1484 17.5938 46.1484C17.5189 46.1484 17.4521 46.1094 17.3936 46.0312ZM10.9873 41.876H12.8477L13.1406 41.4902L13.6875 41.8467C13.7624 41.8955 13.7998 41.9443 13.7998 41.9932C13.7998 42.042 13.7575 42.099 13.6729 42.1641L13.4727 42.3154V43.6582C13.4727 43.847 13.4808 44.1644 13.4971 44.6104L12.9795 44.752V42.1494H10.8896V44.6836L10.3672 44.8057C10.3704 44.7308 10.3753 44.5941 10.3818 44.3955C10.3916 44.1318 10.3965 43.9251 10.3965 43.7754V42.3643C10.3965 42.1852 10.3867 41.9053 10.3672 41.5244L10.9873 41.876ZM15.1963 41.876H17.0273L17.3203 41.4902L17.8672 41.8467C17.9421 41.8955 17.9795 41.9443 17.9795 41.9932C17.9795 42.042 17.9372 42.099 17.8525 42.1641L17.6523 42.3154V43.6729C17.6523 43.8617 17.6605 44.179 17.6768 44.625L17.1592 44.7666V42.1494H15.0986V44.6836L14.5762 44.8057C14.5794 44.7308 14.5843 44.5941 14.5908 44.3955C14.6006 44.1318 14.6055 43.9251 14.6055 43.7754V42.3643C14.6055 42.1852 14.5957 41.9053 14.5762 41.5244L15.1963 41.876ZM24.9082 41.124L25.6943 41.251C25.7985 41.2673 25.8506 41.3047 25.8506 41.3633C25.8506 41.4251 25.7448 41.5033 25.5332 41.5977C25.5104 41.6074 25.4941 41.6156 25.4844 41.6221V49.0537C25.4844 49.1774 25.5218 49.2637 25.5967 49.3125C25.6748 49.3646 25.8115 49.3906 26.0068 49.3906H27.2178C27.4294 49.3906 27.5742 49.3613 27.6523 49.3027C27.7337 49.2474 27.7956 49.127 27.8379 48.9414C27.9355 48.515 28.0348 48.056 28.1357 47.5645H28.2676C28.2708 47.8379 28.279 48.1813 28.292 48.5947C28.2985 48.8193 28.3099 48.9642 28.3262 49.0293C28.3457 49.0944 28.3994 49.1742 28.4873 49.2686C28.5459 49.3337 28.5752 49.3988 28.5752 49.4639C28.5752 49.7536 28.1618 49.8984 27.335 49.8984H25.8018C25.5055 49.8952 25.2891 49.8415 25.1523 49.7373C25.0189 49.6364 24.9521 49.472 24.9521 49.2441V42.0957C24.9521 41.7572 24.9375 41.4333 24.9082 41.124ZM22.1104 41.1631L22.8965 41.2852C23.0007 41.3014 23.0527 41.3389 23.0527 41.3975C23.0527 41.4593 22.9469 41.5391 22.7354 41.6367C22.7126 41.6465 22.6963 41.653 22.6865 41.6562V43.9072C22.6865 44.887 22.6572 45.6357 22.5986 46.1533C22.54 46.6676 22.4294 47.1283 22.2666 47.5352C21.8499 48.5964 20.9255 49.529 19.4932 50.333L19.415 50.1914C20.6292 49.2995 21.4219 48.3343 21.793 47.2959C21.9297 46.9183 22.0241 46.4837 22.0762 45.9922C22.1283 45.4974 22.1543 44.8073 22.1543 43.9219V42.1348C22.1543 41.7962 22.1396 41.4723 22.1104 41.1631ZM33.5068 45.1621C34.0635 45.3607 34.3418 45.5869 34.3418 45.8408C34.3418 45.9222 34.3174 45.9906 34.2686 46.0459C34.2197 46.1012 34.1579 46.1289 34.083 46.1289C33.9951 46.1289 33.9268 46.0687 33.8779 45.9482C33.7705 45.6781 33.6257 45.4437 33.4434 45.2451L33.5068 45.1621ZM34.0342 44.4736C34.4215 44.7568 34.8171 44.9928 35.2207 45.1816C35.5332 45.3249 35.9255 45.473 36.3975 45.626C37.1038 45.8538 37.8395 46.015 38.6045 46.1094V46.251C38.4287 46.2933 38.2985 46.3454 38.2139 46.4072C38.1325 46.4658 38.0625 46.5635 38.0039 46.7002C37.4863 46.557 37.0029 46.3942 36.5537 46.2119L36.6611 46.2754C36.723 46.3112 36.7539 46.3503 36.7539 46.3926C36.7539 46.4414 36.7165 46.4951 36.6416 46.5537L36.4512 46.7051V47.4131C36.4512 47.488 36.4642 47.7842 36.4902 48.3018L35.9434 48.458V48.2139H31.8955V49.5371C32.1982 49.5273 32.6263 49.4964 33.1797 49.4443C33.5931 49.4053 34.0228 49.3499 34.4688 49.2783L34.5176 49.4102C33.8958 49.6185 33.0706 49.8057 32.042 49.9717L31.7148 50.0254C31.6888 50.1361 31.6644 50.2077 31.6416 50.2402C31.6221 50.276 31.5911 50.2939 31.5488 50.2939C31.4902 50.2939 31.4447 50.2516 31.4121 50.167L31.1973 49.5664L31.3779 49.5615V46.9492V46.9199C31.3779 46.7799 31.373 46.5716 31.3633 46.2949C30.8522 46.5358 30.2093 46.7718 29.4346 47.0029L29.3857 46.8613C30.5055 46.3991 31.4723 45.888 32.2861 45.3281C32.9893 44.8431 33.471 44.3923 33.7314 43.9756L34.2637 44.3076C34.3223 44.3434 34.3516 44.3776 34.3516 44.4102C34.3516 44.472 34.3141 44.5029 34.2393 44.5029C34.2132 44.5029 34.1676 44.4964 34.1025 44.4834C34.07 44.4769 34.0472 44.4736 34.0342 44.4736ZM31.8027 46.0752L31.9834 46.168H35.8408L36.002 45.9727C35.1491 45.5723 34.4508 45.1165 33.9072 44.6055C33.5329 44.9668 33.0625 45.3249 32.4961 45.6797C32.2389 45.8392 32.0078 45.971 31.8027 46.0752ZM31.8955 47.042H35.9434V46.4561H31.8955V47.042ZM35.9434 47.3154H31.8955V47.9258H35.9434V47.3154ZM33.0674 43.1309H31.3145C31.1777 43.3132 31.0671 43.4515 30.9824 43.5459C31.2526 43.6305 31.443 43.7087 31.5537 43.7803C31.736 43.8942 31.8288 44.0342 31.832 44.2002C31.832 44.2816 31.8092 44.3499 31.7637 44.4053C31.7181 44.4606 31.6611 44.4883 31.5928 44.4883C31.5374 44.4883 31.4951 44.4753 31.4658 44.4492C31.4398 44.4199 31.3958 44.3483 31.334 44.2344C31.2135 44.0163 31.0622 43.8258 30.8799 43.6631C30.5381 44.0342 30.1475 44.3646 29.708 44.6543L29.6299 44.5664C29.9391 44.2669 30.2272 43.9316 30.4941 43.5605C30.7611 43.1895 30.958 42.8509 31.085 42.5449L31.5488 42.8574H31.8711V42.0566C31.8711 41.7148 31.8548 41.4219 31.8223 41.1777L32.5596 41.2998C32.6377 41.3128 32.6768 41.347 32.6768 41.4023C32.6768 41.4577 32.6263 41.5081 32.5254 41.5537L32.3643 41.6221V41.9492H33.2627L33.5996 41.5195L34.2637 42.1055L34.21 42.208H32.3643V42.8574H33.082L33.3652 42.5352L33.8438 42.9209C33.9154 42.9762 33.9512 43.0251 33.9512 43.0674C33.9512 43.1162 33.9268 43.1553 33.8779 43.1846C33.8291 43.2106 33.7266 43.2432 33.5703 43.2822C33.056 44.0049 32.4782 44.5729 31.8369 44.9863C31.2738 45.3477 30.6016 45.6325 29.8203 45.8408L29.7715 45.7236C30.6178 45.3656 31.3047 44.9684 31.832 44.5322C32.3073 44.1449 32.7191 43.6777 33.0674 43.1309ZM37.2129 47.6523L37.7598 48.1064C37.8053 48.1423 37.8281 48.1781 37.8281 48.2139C37.8281 48.2887 37.7874 48.3262 37.7061 48.3262C37.654 48.3262 37.571 48.3066 37.457 48.2676C37.444 48.2611 37.4359 48.2578 37.4326 48.2578C36.9346 48.5833 36.474 48.8307 36.0508 49C36.2331 49.0456 36.3991 49.0928 36.5488 49.1416C37.0404 49.2946 37.387 49.4329 37.5889 49.5566C37.7907 49.6803 37.8916 49.8154 37.8916 49.9619C37.8916 50.1279 37.8281 50.2109 37.7012 50.2109C37.6263 50.2109 37.4798 50.1475 37.2617 50.0205C36.4219 49.5322 35.2174 49.1009 33.6484 48.7266L33.6777 48.5947C34.6771 48.7184 35.3981 48.8356 35.8408 48.9463C36.4235 48.5426 36.8809 48.1113 37.2129 47.6523ZM37.1836 41.8857L37.4961 41.5195L38.043 41.9834C38.1178 42.042 38.1553 42.0924 38.1553 42.1348C38.1553 42.2259 38.0251 42.2992 37.7646 42.3545C37.7386 42.361 37.7191 42.3659 37.7061 42.3691C37.3252 42.8477 36.9964 43.2122 36.7197 43.4629C36.9932 43.5866 37.252 43.7347 37.4961 43.9072C37.8965 44.1969 38.0967 44.4574 38.0967 44.6885C38.0967 44.7633 38.0739 44.8268 38.0283 44.8789C37.986 44.9277 37.9339 44.9521 37.8721 44.9521C37.7712 44.9521 37.6312 44.8512 37.4521 44.6494C37.1364 44.3109 36.7702 44.013 36.3535 43.7559C35.9303 44.0553 35.3509 44.3532 34.6152 44.6494L34.5322 44.5029C35.1637 44.1416 35.6471 43.8226 35.9824 43.5459C35.6113 43.3538 35.1686 43.1553 34.6543 42.9502L34.7227 42.8086C35.403 42.9844 35.9238 43.1423 36.2852 43.2822C36.6204 42.9665 36.9281 42.5905 37.208 42.1543H35.4014C35.1572 42.1543 34.9196 42.1803 34.6885 42.2324L34.5322 41.8857H37.1836Z" fill="black"/>
</svg>
