<svg width="8" height="12" viewBox="0 0 8 12" fill="none" xmlns="http://www.w3.org/2000/svg">
<path d="M4 0C1.79444 0 -7.62939e-06 1.79445 -7.62939e-06 4.00001C-7.62939e-06 4.66212 0.165531 5.3186 0.480227 5.90088L3.78126 11.8711C3.8252 11.9507 3.90895 12 4 12C4.09105 12 4.1748 11.9507 4.21874 11.8711L7.52099 5.89891C7.83447 5.3186 8.00001 4.66209 8.00001 3.99998C8.00001 1.79445 6.20556 0 4 0ZM4 6C2.89722 6 2.00001 5.10279 2.00001 4.00001C2.00001 2.89723 2.89722 2.00002 4 2.00002C5.10278 2.00002 5.99999 2.89723 5.99999 4.00001C5.99999 5.10279 5.10278 6 4 6Z" fill="#FF9C2E"/>
</svg>
