<svg width="50" height="51" viewBox="0 0 50 51" fill="none" xmlns="http://www.w3.org/2000/svg">
<rect x="5" width="40" height="40" rx="4" fill="#FFF3E7"/>
<path d="M4.56152 47.8232L4.50781 47.667C5.47135 47.2633 6.34701 46.8418 7.13477 46.4023C7.125 46.2233 7.11198 46.0622 7.0957 45.9189L7.74023 46.0459C8.15365 45.8018 8.611 45.4958 9.1123 45.1279C9.2002 45.0628 9.26693 45.0124 9.3125 44.9766H5.4502C5.20931 44.9766 4.97005 45.001 4.73242 45.0498L4.56641 44.6934H8.36523V42.9648H6.53906C6.29492 42.9648 6.05566 42.9893 5.82129 43.0381L5.65527 42.6768H8.36523V41.9834C8.36523 41.736 8.35059 41.4561 8.32129 41.1436L9.10742 41.2803C9.22461 41.3031 9.2832 41.3454 9.2832 41.4072C9.2832 41.4756 9.22461 41.5342 9.10742 41.583L8.90234 41.6709V42.6768H10.0791L10.4844 42.1494L11.3242 42.8525L11.2607 42.9648H8.90234V44.6934H9.66406C10.263 44.1888 10.805 43.637 11.29 43.0381C11.7035 42.5303 12.0404 42.0046 12.3008 41.4609L12.9209 41.8613C13.0153 41.9232 13.0625 41.9736 13.0625 42.0127C13.0625 42.1104 13.0104 42.1592 12.9062 42.1592C12.8607 42.1592 12.7907 42.151 12.6963 42.1348C12.6735 42.1315 12.6556 42.1299 12.6426 42.1299C11.9818 43.1162 11.2461 43.9707 10.4355 44.6934H12.2129L12.7012 44.0781L13.5703 44.8643L13.5068 44.9766H10.1035C9.97331 45.084 9.83496 45.193 9.68848 45.3037C9.09603 45.7367 8.42383 46.1501 7.67188 46.5439V47.8818C8.51497 47.5954 9.16927 47.3545 9.63477 47.1592C10.5169 46.7881 11.207 46.4202 11.7051 46.0557L12.1396 46.4854C12.2308 46.5765 12.2764 46.653 12.2764 46.7148C12.2764 46.806 12.234 46.8516 12.1494 46.8516C12.1006 46.8516 12.0013 46.819 11.8516 46.7539C11.0117 47.1087 10.1556 47.4131 9.2832 47.667C8.86003 47.7874 8.32292 47.9225 7.67188 48.0723V49.0635C7.67188 49.2165 7.69792 49.3223 7.75 49.3809C7.80534 49.4395 7.90462 49.4704 8.04785 49.4736H11.876C12.0257 49.4736 12.1266 49.4541 12.1787 49.415C12.234 49.3792 12.2829 49.2962 12.3252 49.166C12.4229 48.8698 12.5205 48.5052 12.6182 48.0723H12.7598C12.7598 48.1048 12.7614 48.1683 12.7646 48.2627C12.7646 48.5459 12.7663 48.7477 12.7695 48.8682C12.776 48.9886 12.7907 49.0749 12.8135 49.127C12.8363 49.179 12.8851 49.2327 12.96 49.2881C13.0381 49.3499 13.0771 49.4183 13.0771 49.4932C13.0771 49.7666 12.7712 49.9098 12.1592 49.9229L8.01367 49.9326C7.6556 49.9294 7.4196 49.8773 7.30566 49.7764C7.19499 49.6787 7.13965 49.4704 7.13965 49.1514V46.915V46.8076C6.43652 47.1527 5.57715 47.4912 4.56152 47.8232ZM19.2246 44.8789V42.8379H16.749C16.3063 43.6582 15.6667 44.4346 14.8301 45.167L14.7227 44.9961C15.4844 44.1432 16.0605 43.2285 16.4512 42.252C16.6302 41.8027 16.7376 41.4382 16.7734 41.1582L17.4668 41.3291C17.5938 41.3584 17.6572 41.4089 17.6572 41.4805C17.6572 41.5781 17.5498 41.6514 17.335 41.7002C17.3089 41.7035 17.2894 41.7067 17.2764 41.71C17.1462 42.0355 17.0208 42.3154 16.9004 42.5498H21.832L22.335 41.9785L23.2432 42.7256L23.1797 42.8379H19.7568V44.8789H21.6367L22.0859 44.3467L22.9502 45.0498L22.8867 45.167H19.7568V47.374H22.2178L22.7109 46.7637L23.5801 47.5547L23.5117 47.6768H19.7568V48.7754C19.7568 48.9447 19.7617 49.2279 19.7715 49.625C19.778 49.8659 19.7812 50.0547 19.7812 50.1914L19.1953 50.3379C19.1953 50.224 19.2002 50.0156 19.21 49.7129C19.2197 49.3125 19.2246 49 19.2246 48.7754V47.6768H15.2744C15.0368 47.6768 14.7992 47.7061 14.5615 47.7646L14.3906 47.374H16.1631V45.5332C16.1631 45.1849 16.1517 44.8252 16.1289 44.4541L16.8369 44.8789H19.2246ZM19.2246 45.167H16.6855V47.374H19.2246V45.167ZM29.1367 42.6279H32.4717L32.7744 42.2568L33.3506 42.6426C33.4059 42.6816 33.4336 42.7272 33.4336 42.7793C33.4336 42.8346 33.3929 42.8916 33.3115 42.9502L33.1064 43.1016V44.6689C33.1064 44.874 33.1162 45.2077 33.1357 45.6699C33.139 45.8229 33.1423 45.945 33.1455 46.0361L32.6035 46.1924V45.5723H28.873C28.873 46.5553 28.7819 47.3691 28.5996 48.0137C28.3555 48.8633 27.8932 49.6266 27.2129 50.3037L27.0859 50.2012C27.5742 49.498 27.9176 48.7298 28.1162 47.8965C28.2757 47.2357 28.3555 46.3177 28.3555 45.1426V43.3701C28.3555 42.9209 28.3408 42.5417 28.3115 42.2324L29.1367 42.6279ZM32.6035 42.9258H28.8779V45.0205V45.2695H32.6035V42.9258ZM25.9727 43.248V42.0957C25.9727 41.7441 25.9564 41.4284 25.9238 41.1484L26.6758 41.334C26.7669 41.3568 26.8125 41.4007 26.8125 41.4658C26.8125 41.5342 26.7686 41.5911 26.6807 41.6367L26.4756 41.7441V43.248H26.8564L27.291 42.7451L28.0186 43.4336L27.9502 43.5508H26.4756V45.9629C26.9411 45.8164 27.4017 45.6553 27.8574 45.4795L27.916 45.6113C27.3496 45.9531 26.8695 46.2087 26.4756 46.3779V48.292C26.4756 48.4222 26.4805 48.6338 26.4902 48.9268C26.4967 49.1676 26.5 49.3548 26.5 49.4883C26.5 49.7617 26.4398 49.9521 26.3193 50.0596C26.1989 50.167 25.9613 50.2402 25.6064 50.2793C25.6032 50.0514 25.5413 49.9017 25.4209 49.8301C25.3135 49.765 25.0742 49.6999 24.7031 49.6348V49.4883H25.7432C25.8376 49.4883 25.8994 49.4736 25.9287 49.4443C25.958 49.415 25.9727 49.3499 25.9727 49.249V46.5928C25.7643 46.6742 25.5413 46.7604 25.3037 46.8516L25.0596 46.9492C25.0596 47.0827 25.0514 47.1706 25.0352 47.2129C25.0221 47.2552 24.9928 47.2764 24.9473 47.2764C24.8952 47.2764 24.8496 47.2308 24.8105 47.1396L24.498 46.4707C24.9538 46.3958 25.4453 46.277 25.9727 46.1143V43.5508H25.3232C25.0791 43.5508 24.8415 43.5736 24.6104 43.6191L24.4443 43.248H25.9727ZM29.8887 41.2559L29.9814 41.1387C30.4046 41.3438 30.6976 41.5228 30.8604 41.6758C31.0264 41.8255 31.1094 41.9915 31.1094 42.1738C31.1094 42.2812 31.0817 42.3691 31.0264 42.4375C30.971 42.5026 30.8994 42.5352 30.8115 42.5352C30.7432 42.5352 30.6895 42.514 30.6504 42.4717C30.6113 42.4294 30.5674 42.3415 30.5186 42.208C30.3916 41.863 30.1816 41.5456 29.8887 41.2559ZM40.2549 45.9971H38.6875V46.4268L38.1309 46.6025C38.1341 46.4495 38.1406 46.2119 38.1504 45.8896C38.1634 45.5316 38.1699 45.2598 38.1699 45.0742V42.5889C38.1699 42.2438 38.1569 41.8776 38.1309 41.4902L38.8242 41.8955H42.1885L42.501 41.4658L43.0918 41.8955C43.1699 41.9508 43.209 42.0029 43.209 42.0518C43.209 42.1136 43.1618 42.1771 43.0674 42.2422L42.8672 42.3789V45.0254C42.8672 45.2174 42.8753 45.5446 42.8916 46.0068C42.8981 46.1501 42.903 46.2689 42.9062 46.3633L42.3496 46.5293V45.9971H40.7627V47.6035H41.9785L42.457 47.0322L43.2822 47.7695L43.2188 47.8916H40.7627V49.6006H42.2861L42.8086 49.0244L43.6484 49.7666L43.585 49.8838H38.209C37.9648 49.8838 37.7256 49.9082 37.4912 49.957L37.3154 49.6006H40.2549V47.8916H38.7949C38.5475 47.8916 38.3083 47.9144 38.0771 47.96L37.8965 47.6035H40.2549V45.9971ZM42.3496 45.709V44.0732H40.7627V45.709H42.3496ZM42.3496 43.7852V42.1836H40.7627V43.7852H42.3496ZM40.2549 45.709V44.0732H38.6875V45.709H40.2549ZM40.2549 43.7852V42.1836H38.6875V43.7852H40.2549ZM36.2949 42.4521V44.874H36.6318L37.0615 44.376L37.7939 45.0449L37.7354 45.1572H36.2949V47.916C36.7181 47.8021 37.1722 47.6589 37.6572 47.4863L37.7158 47.6426C37.029 48.0137 36.1224 48.388 34.9961 48.7656C34.9863 48.8991 34.9733 48.9837 34.957 49.0195C34.9408 49.0586 34.9098 49.0781 34.8643 49.0781C34.8154 49.0781 34.7682 49.0228 34.7227 48.9121L34.4639 48.2969C34.8512 48.248 35.2923 48.165 35.7871 48.0479V45.1572H35.4062C35.1719 45.1572 34.9375 45.1816 34.7031 45.2305L34.5176 44.874H35.7871V42.4521H35.3672C35.1296 42.4521 34.8936 42.4749 34.6592 42.5205L34.4736 42.1641H36.7441L37.1885 41.6416L37.9355 42.335L37.8721 42.4521H36.2949Z" fill="black"/>
<path d="M32.6086 27.1887H33.6492V31.5267H32.6086V27.1887Z" fill="#FFCC93"/>
<path d="M33.1289 36.4824C34.677 36.4824 35.9321 35.2273 35.9321 33.6792C35.9321 32.131 34.677 30.876 33.1289 30.876C31.5807 30.876 30.3256 32.131 30.3256 33.6792C30.3256 35.2273 31.5807 36.4824 33.1289 36.4824Z" fill="#D77100"/>
<path d="M33.1288 34.5552C33.6126 34.5552 34.0049 34.163 34.0049 33.6792C34.0049 33.1954 33.6126 32.8031 33.1288 32.8031C32.645 32.8031 32.2528 33.1954 32.2528 33.6792C32.2528 34.163 32.645 34.5552 33.1288 34.5552Z" fill="#B35F00"/>
<path d="M41.0921 32.1374H37.6542C37.3863 32.1374 37.1423 31.9831 37.0274 31.741L36.0187 29.6145H41.0922C41.4754 29.6145 41.786 29.9252 41.786 30.3083V31.4437C41.7859 31.8268 41.4753 32.1374 41.0921 32.1374Z" fill="#D77100"/>
<path d="M37.1704 29.6145L35.6685 26.448C35.5823 26.2665 35.3993 26.1508 35.1983 26.1508H32.6086V27.1914H34.8693L36.0187 29.6145H37.1704Z" fill="#FFCC93"/>
<path d="M13.9465 3.98714H12.9059V3.92172C12.9059 3.43589 12.5106 3.04063 12.0248 3.04063H9.54916V2H12.0248C13.0844 2 13.9465 2.86208 13.9465 3.92172V3.98714Z" fill="#FFCC93"/>
<path d="M10.2426 2.41624V5.92875C10.2426 6.15864 10.0563 6.34499 9.82636 6.34499H8.41624C8.18635 6.34499 8 6.15864 8 5.92875V2.41624C8 2.18635 8.18635 2 8.41624 2H9.82629C10.0563 2 10.2426 2.18635 10.2426 2.41624Z" fill="#D77100"/>
<path d="M32.9554 27.1887H12.9053V17.3774H30.846C32.3942 17.3774 33.6492 18.6325 33.6492 20.1807V26.4949C33.6492 26.8781 33.3385 27.1887 32.9554 27.1887Z" fill="#FF951E"/>
<path d="M23.5178 17.3774H12.9053V23.4564C14.033 21.9778 15.8124 21.0216 17.8113 21.0216C21.2119 21.0216 23.9784 23.7882 23.9784 27.1887H29.1644C29.1643 23.0075 26.8921 19.3476 23.5178 17.3774Z" fill="#8F4C00"/>
<path d="M17.1101 17.3774H12.9053V3.92192H13.6923C15.1782 3.92192 16.4059 5.08137 16.4909 6.5649L17.1101 17.3774Z" fill="#FFCC93"/>
<path d="M16.491 6.5649C16.4075 5.10741 15.2208 3.96348 13.77 3.92383C14.5199 4.39045 15.0358 5.20174 15.0897 6.14442L15.7089 17.3774H17.1102L16.491 6.5649Z" fill="#FFC07A"/>
<path d="M25.5201 27.7092H19.9139C19.6265 27.7092 19.3936 27.4762 19.3936 27.1889C19.3936 26.9015 19.6266 26.6686 19.9139 26.6686H25.5201C25.8075 26.6686 26.0404 26.9015 26.0404 27.1889C26.0404 27.4762 25.8075 27.7092 25.5201 27.7092Z" fill="#FFCC93"/>
<path d="M17.8113 25.6066C17.5239 25.6066 17.291 25.3736 17.291 25.0863V19.4798C17.291 19.1925 17.524 18.9595 17.8113 18.9595C18.0987 18.9595 18.3316 19.1925 18.3316 19.4798V25.0863C18.3316 25.3736 18.0987 25.6066 17.8113 25.6066Z" fill="#FFCC93"/>
<path d="M17.8113 35.4179C17.5239 35.4179 17.291 35.1849 17.291 34.8976V29.2911C17.291 29.0037 17.524 28.7708 17.8113 28.7708C18.0987 28.7708 18.3316 29.0037 18.3316 29.2911V34.8975C18.3316 35.1849 18.0987 35.4179 17.8113 35.4179Z" fill="#FFCC93"/>
<path d="M16.3247 26.2224C16.1915 26.2224 16.0584 26.1716 15.9568 26.07L11.9924 22.1057C11.7892 21.9025 11.7892 21.573 11.9924 21.3698C12.1956 21.1667 12.5251 21.1667 12.7282 21.3698L16.6926 25.3342C16.8958 25.5374 16.8958 25.8668 16.6926 26.07C16.591 26.1716 16.4578 26.2224 16.3247 26.2224Z" fill="#FFCC93"/>
<path d="M23.2623 33.16C23.1291 33.16 22.996 33.1093 22.8944 33.0077L18.93 29.0433C18.7268 28.8401 18.7268 28.5106 18.93 28.3075C19.1332 28.1043 19.4627 28.1043 19.6658 28.3075L23.6302 32.2719C23.8334 32.475 23.8334 32.8045 23.6302 33.0077C23.5286 33.1092 23.3955 33.16 23.2623 33.16Z" fill="#FFCC93"/>
<path d="M15.7089 27.709H10.1024C9.81502 27.709 9.58212 27.476 9.58212 27.1887C9.58212 26.9014 9.81509 26.6684 10.1024 26.6684H15.7088C15.9962 26.6684 16.2292 26.9013 16.2292 27.1887C16.2292 27.4761 15.9962 27.709 15.7089 27.709Z" fill="#FFCC93"/>
<path d="M12.3603 33.16C12.2272 33.16 12.094 33.1093 11.9924 33.0077C11.7892 32.8045 11.7892 32.475 11.9924 32.2719L15.9568 28.3075C16.1599 28.1043 16.4894 28.1043 16.6926 28.3075C16.8958 28.5106 16.8958 28.8401 16.6926 29.0433L12.7282 33.0077C12.6266 33.1092 12.4935 33.16 12.3603 33.16Z" fill="#FFCC93"/>
<path d="M19.2979 26.2224C19.1648 26.2224 19.0316 26.1716 18.93 26.07C18.7268 25.8668 18.7268 25.5374 18.93 25.3342L22.8944 21.3698C23.0976 21.1667 23.427 21.1667 23.6302 21.3698C23.8334 21.573 23.8334 21.9025 23.6302 22.1057L19.6658 26.07C19.5643 26.1716 19.4311 26.2224 19.2979 26.2224Z" fill="#FFCC93"/>
<path d="M17.8113 17.3774C12.3927 17.3774 8 21.7701 8 27.1887C8 32.6074 12.3927 37 17.8113 37C23.2299 37 27.6226 32.6074 27.6226 27.1887C27.6226 21.7701 23.2299 17.3774 17.8113 17.3774ZM17.8113 34.8976C13.5538 34.8976 10.1024 31.4462 10.1024 27.1887C10.1024 22.9312 13.5538 19.4798 17.8113 19.4798C22.0688 19.4798 25.5202 22.9312 25.5202 27.1887C25.5202 31.4462 22.0688 34.8976 17.8113 34.8976Z" fill="#D77100"/>
<path d="M23.7975 19.4154C25.0752 21.072 25.8356 23.1479 25.8356 25.4016C25.8356 26.3228 25.7083 27.2142 25.471 28.0596C25.0704 31.621 22.2437 34.4477 18.6823 34.8483C17.8369 35.0856 16.9455 35.2129 16.0243 35.2129C13.7705 35.2129 11.6946 34.4525 10.0381 33.1748C11.8321 35.5011 14.6465 37 17.8113 37C23.2299 37 27.6226 32.6074 27.6226 27.1887C27.6226 24.0239 26.1237 21.2095 23.7975 19.4154Z" fill="#B35F00"/>
<path d="M17.8113 29.2911C18.9724 29.2911 19.9137 28.3498 19.9137 27.1887C19.9137 26.0276 18.9724 25.0863 17.8113 25.0863C16.6502 25.0863 15.7089 26.0276 15.7089 27.1887C15.7089 28.3498 16.6502 29.2911 17.8113 29.2911Z" fill="#FFCC93"/>
<path d="M18.6762 25.2726C18.7955 25.5364 18.8625 25.8291 18.8625 26.1375C18.8625 27.2987 17.9212 28.2399 16.7601 28.2399C16.4517 28.2399 16.1591 28.1729 15.8952 28.0536C16.225 28.7831 16.9586 29.2911 17.8113 29.2911C18.9725 29.2911 19.9137 28.3498 19.9137 27.1887C19.9137 26.336 19.4058 25.6025 18.6762 25.2726Z" fill="#FFC07A"/>
<path d="M27.4824 15.1349H16.2695V14.2939C16.2695 13.5198 16.897 12.8923 17.6711 12.8923H26.0808C26.8549 12.8923 27.4825 13.5198 27.4825 14.2939V15.1349H27.4824Z" fill="#D77100"/>
<path d="M12.9053 14.6145H28.7438C29.0312 14.6145 29.2641 14.8475 29.2641 15.1348V17.3774H28.2235V15.6551H12.9055L12.9053 14.6145Z" fill="#FFCC93"/>
</svg>
