<svg width="50" height="54" viewBox="0 0 50 54" fill="none" xmlns="http://www.w3.org/2000/svg">
<rect x="6" width="40" height="40" rx="4" fill="#FFF3E7"/>
<path d="M12.9531 47.8496H12.8311C12.6097 47.8496 12.3737 47.8773 12.123 47.9326L11.9668 47.6299C11.8724 47.7894 11.7406 47.9977 11.5713 48.2549L11.4199 48.167C11.8301 47.262 12.1344 46.349 12.333 45.4277C12.4372 44.9427 12.499 44.5309 12.5186 44.1924L13.1924 44.3975C13.2998 44.43 13.3682 44.4577 13.3975 44.4805C13.4268 44.5033 13.4414 44.5391 13.4414 44.5879C13.4414 44.6595 13.417 44.7067 13.3682 44.7295C13.3193 44.7523 13.2103 44.7702 13.041 44.7832C12.9303 45.2259 12.8262 45.5938 12.7285 45.8867H13.8857L14.3203 45.3154L15.1455 46.0625L15.082 46.1748H12.6309C12.4941 46.585 12.2842 47.0472 12.001 47.5615H13.8369L14.2764 47.0488L15.0186 47.7373L14.9551 47.8496H13.4756V49.4854H14.0078L14.4717 48.958L15.2139 49.6611L15.1504 49.7734H13.4756V52.1904C13.9736 52.0081 14.5775 51.751 15.2871 51.4189L15.375 51.5508C14.9974 51.8372 14.6914 52.057 14.457 52.21C14.2259 52.363 13.8906 52.5632 13.4512 52.8105C13.4512 52.8236 13.4544 52.8496 13.4609 52.8887C13.4674 52.9473 13.4707 52.9945 13.4707 53.0303C13.4707 53.1637 13.4202 53.2305 13.3193 53.2305C13.2607 53.2305 13.194 53.1719 13.1191 53.0547L12.7188 52.4297C12.8229 52.4004 12.901 52.3776 12.9531 52.3613V49.7734H12.3574C12.1361 49.7734 11.8984 49.8011 11.6445 49.8564L11.4541 49.4854H12.9531V47.8496ZM17.5723 49.666H16.0049V50.0908L15.4678 50.2568C15.5068 49.4365 15.5264 48.9482 15.5264 48.792V46.8975C15.5264 46.6859 15.5182 46.4255 15.502 46.1162L15.4971 45.9941L16.1123 46.3652H17.5723V45.1299C17.5723 45.029 17.5706 44.8988 17.5674 44.7393C17.5641 44.5863 17.5511 44.3926 17.5283 44.1582L18.29 44.2852C18.3942 44.3014 18.4463 44.3389 18.4463 44.3975C18.4463 44.4561 18.391 44.5114 18.2803 44.5635L18.0801 44.6562V46.3652H19.5498L19.8281 45.9795L20.3896 46.3652C20.4613 46.4173 20.4971 46.4661 20.4971 46.5117C20.4971 46.5573 20.4678 46.6045 20.4092 46.6533L20.1504 46.8633V48.7871C20.1504 48.9303 20.1667 49.3568 20.1992 50.0664L19.667 50.2275V49.666H18.0801V51.9316C18.0801 52.0977 18.0833 52.3434 18.0898 52.6689C18.0931 52.874 18.0964 53.0368 18.0996 53.1572L17.5479 53.3135C17.5641 52.6852 17.5723 52.1758 17.5723 51.7852V49.666ZM17.5723 49.3682V46.668H16.0049V49.3682H17.5723ZM18.0801 46.668V49.3682H19.667V46.668H18.0801ZM23.7539 47.5566H25.5996V45.1836C25.5931 44.9036 25.5801 44.6107 25.5605 44.3047C25.5573 44.2396 25.554 44.1891 25.5508 44.1533L26.3174 44.2998C26.3923 44.3128 26.4395 44.3291 26.459 44.3486C26.4818 44.3649 26.4932 44.3958 26.4932 44.4414C26.4932 44.5033 26.4411 44.5602 26.3369 44.6123L26.1318 44.71V45.7109H28.8516L29.335 45.0713L30.2139 45.8721L30.1504 45.999H26.1318V47.5566H28.373L28.666 47.1562L29.2471 47.5469C29.3252 47.599 29.3643 47.6527 29.3643 47.708C29.3643 47.7666 29.3203 47.8301 29.2324 47.8984L29.0225 48.0596V49.334C29.0225 49.5423 29.0306 49.8825 29.0469 50.3545C29.0534 50.5075 29.0566 50.6312 29.0566 50.7256L28.4902 50.916V50.3887H23.6221V50.7305L23.0508 50.9209C23.0768 50.1038 23.0898 49.5765 23.0898 49.3389V48.3623C23.0866 47.9001 23.0736 47.4948 23.0508 47.1465L23.7539 47.5566ZM28.4902 47.8447H23.6221V50.1055H28.4902V47.8447ZM28.7197 51.0381C29.2308 51.3473 29.6035 51.637 29.8379 51.9072C30.1178 52.2327 30.2578 52.5322 30.2578 52.8057C30.2578 52.9196 30.2318 53.0124 30.1797 53.084C30.1276 53.1589 30.0592 53.1963 29.9746 53.1963C29.9193 53.1963 29.8704 53.167 29.8281 53.1084C29.7891 53.0498 29.7354 52.9342 29.667 52.7617C29.4554 52.2181 29.1152 51.6729 28.6465 51.126L28.7197 51.0381ZM26.6445 51.1211C27.3704 51.7103 27.7334 52.2474 27.7334 52.7324C27.7334 52.8561 27.7041 52.9587 27.6455 53.04C27.5869 53.1247 27.5137 53.167 27.4258 53.167C27.3281 53.167 27.263 53.0889 27.2305 52.9326C27.0938 52.2979 26.8691 51.7184 26.5566 51.1943L26.6445 51.1211ZM24.3057 51.1113C25.0316 51.7038 25.3945 52.2458 25.3945 52.7373C25.3945 52.861 25.3652 52.9635 25.3066 53.0449C25.248 53.1296 25.1748 53.1719 25.0869 53.1719C24.9893 53.1719 24.9242 53.0938 24.8916 52.9375C24.7581 52.3027 24.5335 51.7184 24.2178 51.1846L24.3057 51.1113ZM22.9775 51.1406C22.9678 51.821 22.8864 52.332 22.7334 52.6738C22.5674 53.0482 22.3477 53.2354 22.0742 53.2354C21.9961 53.2354 21.931 53.2109 21.8789 53.1621C21.8268 53.1165 21.8008 53.0563 21.8008 52.9814C21.8008 52.8838 21.8936 52.7389 22.0791 52.5469C22.2646 52.3516 22.4128 52.1546 22.5234 51.9561C22.6341 51.7542 22.7432 51.4824 22.8506 51.1406H22.9775ZM36.2881 45.4619V52.3271H39.2764L39.7012 51.7461L40.5752 52.4785L40.5068 52.625H32.2988C32.071 52.625 31.8333 52.6543 31.5859 52.7129L31.4199 52.3271H35.7412V45.4619H32.7285C32.4941 45.4619 32.2549 45.4912 32.0107 45.5498L31.8496 45.1641H38.8516L39.291 44.5977L40.1553 45.3203L40.082 45.4619H36.2881Z" fill="black"/>
<path d="M25.5 3C16.4021 3 9 10.4021 9 19.5C9 28.5979 16.4021 36 25.5 36C34.5979 36 42 28.5979 42 19.5C42 10.4021 34.5979 3 25.5 3ZM25.5 33.9375C17.539 33.9375 11.0625 27.461 11.0625 19.5C11.0625 11.539 17.539 5.06251 25.5 5.06251C33.461 5.06251 39.9375 11.539 39.9375 19.5C39.9375 27.461 33.461 33.9375 25.5 33.9375Z" fill="#FFBB6E"/>
<path d="M26.5313 9.18752H24.4688V19.927L30.9584 26.4166L32.4166 24.9584L26.5313 19.073V9.18752Z" fill="#FF8D0E"/>
</svg>
