<svg width="50" height="51" viewBox="0 0 50 51" fill="none" xmlns="http://www.w3.org/2000/svg">
<rect x="6" width="40" height="40" rx="4" fill="#FFF3E7"/>
<path d="M15.5078 49.625L15.4736 49.4688C16.8148 49.026 17.9069 48.5443 18.75 48.0234C19.2448 47.7142 19.7542 47.3285 20.2783 46.8662C20.2165 46.6253 20.1481 46.3942 20.0732 46.1729C20.0505 46.1077 20.0326 46.0605 20.0195 46.0312C18.9062 46.9688 17.5114 47.6263 15.835 48.0039L15.7959 47.8428C17.5179 47.1917 18.8558 46.4268 19.8096 45.5479C19.6859 45.307 19.5426 45.0645 19.3799 44.8203C18.8949 45.1947 18.3512 45.5023 17.749 45.7432C17.2673 45.9352 16.6423 46.1305 15.874 46.3291L15.8252 46.1582C16.613 45.8717 17.3145 45.5576 17.9297 45.2158C18.5417 44.8773 19.0446 44.4948 19.4385 44.0684H17.6709C17.443 44.0684 17.207 44.096 16.9629 44.1514L16.7578 43.7803H21.6602L22.1191 43.209L22.9883 43.9561L22.9248 44.0684H20.1855C19.9967 44.2767 19.7965 44.472 19.585 44.6543C20.1253 45.2988 20.5013 45.8945 20.7129 46.4414C21.5723 45.9727 22.2656 45.5137 22.793 45.0645C22.9199 44.9538 23.0404 44.8333 23.1543 44.7031L23.6475 45.1719C23.7288 45.25 23.7695 45.3118 23.7695 45.3574C23.7695 45.4518 23.724 45.499 23.6328 45.499C23.597 45.499 23.4993 45.4746 23.3398 45.4258C22.7311 45.7969 22.1582 46.085 21.6211 46.29C21.9434 46.8695 22.3291 47.3984 22.7783 47.877C23.2536 48.3848 23.8086 48.7852 24.4434 49.0781L24.4189 49.2344H24.3652C24.3132 49.2344 24.279 49.2344 24.2627 49.2344C24.0413 49.2344 23.8786 49.2588 23.7744 49.3076C23.6702 49.3564 23.5726 49.4557 23.4814 49.6055C22.8174 48.9154 22.3161 48.2415 21.9775 47.584C21.8018 47.2487 21.6227 46.8418 21.4404 46.3633C21.2223 46.4447 20.9977 46.5228 20.7666 46.5977C20.9294 47.0859 21.014 47.6507 21.0205 48.292C21.0205 48.9788 20.8903 49.4785 20.6299 49.791C20.402 50.0645 20.0407 50.2337 19.5459 50.2988C19.5459 50.1133 19.4678 49.9831 19.3115 49.9082C19.1715 49.8431 18.8737 49.7764 18.418 49.708V49.542H19.4482C19.7738 49.542 20.0016 49.4801 20.1318 49.3564C20.3434 49.1611 20.4492 48.777 20.4492 48.2041C20.4492 47.9827 20.4281 47.7223 20.3857 47.4229C19.5915 48.0934 18.7565 48.6094 17.8809 48.9707C17.2103 49.2441 16.4193 49.4622 15.5078 49.625ZM16.5869 42.2861H19.9658C19.8942 42.2471 19.8258 42.1445 19.7607 41.9785C19.6826 41.7832 19.6094 41.6351 19.541 41.5342C19.4759 41.4333 19.3701 41.3128 19.2236 41.1729L19.292 41.0752C19.7087 41.2087 20.0033 41.3405 20.1758 41.4707C20.3483 41.5977 20.4346 41.749 20.4346 41.9248C20.4313 42.1006 20.3564 42.221 20.21 42.2861H23.2959L23.7158 41.8809L24.4287 42.4326C24.5003 42.4847 24.5361 42.5433 24.5361 42.6084C24.5361 42.6833 24.5036 42.7354 24.4385 42.7646C24.3734 42.7939 24.2513 42.8135 24.0723 42.8232C24.0397 42.8265 24.0153 42.8298 23.999 42.833C23.8102 43.0218 23.5335 43.2708 23.1689 43.5801L23.0518 43.4971C23.1559 43.2594 23.2796 42.9567 23.4229 42.5889H16.5869C16.5739 42.9274 16.5169 43.2106 16.416 43.4385C16.2923 43.7152 16.1133 43.8633 15.8789 43.8828C15.7943 43.8828 15.721 43.8519 15.6592 43.79C15.6006 43.7282 15.5713 43.6566 15.5713 43.5752C15.5713 43.471 15.6462 43.3392 15.7959 43.1797C15.9652 42.9974 16.0938 42.8151 16.1816 42.6328C16.2695 42.4473 16.3525 42.1868 16.4307 41.8516H16.5527C16.5723 42.0371 16.5837 42.182 16.5869 42.2861ZM30.5713 44.6787C30.3271 45.1572 30.0505 45.5918 29.7412 45.9824L29.6338 45.8994C30.0049 45.2321 30.3223 44.4753 30.5859 43.6289C30.8496 42.7793 31.0254 41.9525 31.1133 41.1484L31.8311 41.3682C31.9515 41.404 32.0117 41.4593 32.0117 41.5342C32.0117 41.5895 31.9857 41.6302 31.9336 41.6562C31.8815 41.679 31.779 41.6969 31.626 41.71C31.4209 42.4391 31.2467 43.0055 31.1035 43.4092H33.2715L33.7354 42.8086L34.5996 43.5898L34.5361 43.707H33.6963C33.54 45.0254 33.2275 46.1875 32.7588 47.1934C32.6156 47.4831 32.4691 47.7321 32.3193 47.9404C32.8369 48.5719 33.5938 49.179 34.5898 49.7617L34.5703 49.8789C34.541 49.8789 34.5117 49.8789 34.4824 49.8789C34.1862 49.8789 33.9583 49.988 33.7988 50.2061C33.0404 49.5387 32.443 48.9219 32.0068 48.3555C31.2646 49.2409 30.2946 49.887 29.0967 50.2939L29.043 50.1768C29.7135 49.8057 30.2718 49.4264 30.7178 49.0391C31.0889 48.7201 31.4242 48.3604 31.7236 47.96C31.6488 47.8395 31.5788 47.724 31.5137 47.6133C31.237 47.1283 31.0221 46.6302 30.8691 46.1191C30.7422 45.6992 30.6429 45.2191 30.5713 44.6787ZM33.1494 43.707H30.9912C30.9261 43.8926 30.8431 44.096 30.7422 44.3174C31.0156 45.6553 31.4388 46.7279 32.0117 47.5352C32.194 47.2292 32.36 46.8857 32.5098 46.5049C32.64 46.1566 32.7458 45.805 32.8271 45.4502C32.9085 45.0954 33.016 44.5143 33.1494 43.707ZM27.6367 42.3936H26.3184C26.0742 42.3936 25.835 42.418 25.6006 42.4668L25.4199 42.1055H28.9014L29.4043 41.5098L30.1758 42.2812L30.1123 42.3936H28.1543V44.9766H28.6377L29.0625 44.4199L29.834 45.1377L29.7656 45.2646H28.1543V48.5117C28.9648 48.3294 29.5573 48.1895 29.9316 48.0918L29.9902 48.248C28.8411 48.7103 27.6318 49.1042 26.3623 49.4297L26.0107 49.5176C25.9977 49.6706 25.9814 49.7666 25.9619 49.8057C25.9456 49.848 25.9131 49.8691 25.8643 49.8691C25.8187 49.8691 25.765 49.8105 25.7031 49.6934C25.6445 49.5794 25.5452 49.3467 25.4053 48.9951C25.682 48.9528 25.8952 48.9202 26.0449 48.8975V45.2646C26.0449 45.0042 26.0286 44.6624 25.9961 44.2393L26.7383 44.3857C26.8132 44.3988 26.862 44.415 26.8848 44.4346C26.9076 44.4508 26.9189 44.4801 26.9189 44.5225C26.9189 44.5876 26.8652 44.6445 26.7578 44.6934L26.5527 44.791V48.8193C26.9043 48.7607 27.2363 48.7005 27.5488 48.6387L27.6367 48.6191V42.3936Z" fill="black"/>
<path d="M9 35.4509V34.3509C10.5186 34.3509 11.75 33.1194 11.75 31.6008V21.1509C11.75 19.0246 13.4737 17.301 15.6 17.301H18.35V18.4009H15.6C14.0814 18.4009 12.85 19.6324 12.85 21.1509V31.6009C12.85 33.7272 11.1263 35.4509 9 35.4509Z" fill="#B35F00"/>
<path d="M42 35.4499C39.8737 35.4499 38.15 33.7263 38.15 31.6V21.15C38.15 19.6314 36.9186 18.4 35.4 18.4H32.65V17.3H35.4C37.5263 17.3 39.25 19.0236 39.25 21.1499V31.6C39.25 33.1186 40.4814 34.35 42 34.35V35.4499Z" fill="#B35F00"/>
<path d="M34.85 34.9H16.15V17.85L17.2774 16.75C19.0275 14.9999 20.0071 12.6244 19.9999 10.15H31C31 12.6288 31.99 15.0048 33.75 16.75L34.85 17.85V34.9Z" fill="#FF951E"/>
<path d="M33.563 16.5465C29.35 26.2265 20.6105 31.314 16.15 33.316V34.9H34.85V17.85L33.75 16.75C33.6675 16.6675 33.618 16.6015 33.563 16.5465Z" fill="#E97B00"/>
<path d="M32.6499 32.7H18.35V30.4999V23.9H32.6499V32.7Z" fill="#B35F00"/>
<path d="M22.7499 10.15V3L20.55 5.19998V10.15H22.7499Z" fill="#B35F00"/>
<path d="M28.25 10.15V3L30.4499 5.19998V10.15H28.25Z" fill="#B35F00"/>
<path d="M28.2499 3H22.7499V5.19998H28.2499V3Z" fill="#D77100"/>
</svg>
