<svg width="50" height="51" viewBox="0 0 50 51" fill="none" xmlns="http://www.w3.org/2000/svg">
<rect x="6" width="40" height="40" rx="4" fill="#FFF3E7"/>
<path d="M12.7979 45.2646H17.1729L17.4658 44.8838L18.0615 45.2793C18.1364 45.3314 18.1738 45.3818 18.1738 45.4307C18.1738 45.4925 18.1364 45.5511 18.0615 45.6064L17.8516 45.7529V48.5605C17.8516 48.6647 17.8548 48.8356 17.8613 49.0732C17.8678 49.2686 17.8711 49.4183 17.8711 49.5225C17.8711 49.7633 17.8011 49.9359 17.6611 50.04C17.5212 50.1475 17.2656 50.2207 16.8945 50.2598C16.888 50.0807 16.8294 49.9635 16.7188 49.9082C16.556 49.8268 16.2793 49.7633 15.8887 49.7178C15.8366 49.7113 15.7943 49.7064 15.7617 49.7031V49.5273H16.958C17.1077 49.5273 17.2038 49.5062 17.2461 49.4639C17.2917 49.4248 17.3145 49.3353 17.3145 49.1953V48.1895H12.6855V50.1572L12.1094 50.3086L12.124 49.9229C12.1436 49.4639 12.1533 49.109 12.1533 48.8584V45.7725C12.1533 45.5706 12.1387 45.2793 12.1094 44.8984L12.7979 45.2646ZM17.3145 45.5479H12.6855V46.5586H17.3145V45.5479ZM17.3145 46.8467H12.6855V47.9062H17.3145V46.8467ZM15.1221 42.3447C15.0765 42.3089 15.0244 42.2292 14.9658 42.1055C14.8063 41.7637 14.5866 41.4561 14.3066 41.1826L14.375 41.0996C15.1367 41.3991 15.5176 41.7181 15.5176 42.0566C15.5111 42.1901 15.4671 42.2861 15.3857 42.3447H18.0811L18.5986 41.6904L19.5801 42.5107L19.5117 42.6279H14.6777C14.1439 43.0186 13.6361 43.3343 13.1543 43.5752C12.8223 43.7445 12.4495 43.9105 12.0361 44.0732C13.2633 44.0407 14.3359 44.0049 15.2539 43.9658C16.2858 43.917 17.0492 43.873 17.5439 43.834C17.277 43.5964 16.9303 43.3555 16.5039 43.1113L16.5869 42.9795C17.1436 43.1585 17.6025 43.3522 17.9639 43.5605C18.488 43.86 18.75 44.1611 18.75 44.4639C18.75 44.5583 18.724 44.638 18.6719 44.7031C18.6198 44.765 18.5547 44.7959 18.4766 44.7959C18.4115 44.7959 18.361 44.7796 18.3252 44.7471C18.2894 44.7145 18.2015 44.6038 18.0615 44.415C17.9476 44.2555 17.8304 44.1156 17.71 43.9951C16.9808 44.1188 16.2402 44.2214 15.4883 44.3027C14.7396 44.3809 13.5856 44.4785 12.0264 44.5957C12.0036 44.7161 11.9792 44.7959 11.9531 44.835C11.9303 44.8708 11.8929 44.8887 11.8408 44.8887C11.7725 44.8887 11.7155 44.8301 11.6699 44.7129L11.4355 44.083H11.6309C12.0898 43.8519 12.4919 43.6273 12.8369 43.4092C13.2568 43.139 13.5986 42.8786 13.8623 42.6279H11.3721C11.1344 42.6279 10.8952 42.6523 10.6543 42.7012L10.4639 42.3447H15.1221ZM25.9082 41.124L26.6943 41.251C26.7985 41.2673 26.8506 41.3047 26.8506 41.3633C26.8506 41.4251 26.7448 41.5033 26.5332 41.5977C26.5104 41.6074 26.4941 41.6156 26.4844 41.6221V49.0537C26.4844 49.1774 26.5218 49.2637 26.5967 49.3125C26.6748 49.3646 26.8115 49.3906 27.0068 49.3906H28.2178C28.4294 49.3906 28.5742 49.3613 28.6523 49.3027C28.7337 49.2474 28.7956 49.127 28.8379 48.9414C28.9355 48.515 29.0348 48.056 29.1357 47.5645H29.2676C29.2708 47.8379 29.279 48.1813 29.292 48.5947C29.2985 48.8193 29.3099 48.9642 29.3262 49.0293C29.3457 49.0944 29.3994 49.1742 29.4873 49.2686C29.5459 49.3337 29.5752 49.3988 29.5752 49.4639C29.5752 49.7536 29.1618 49.8984 28.335 49.8984H26.8018C26.5055 49.8952 26.2891 49.8415 26.1523 49.7373C26.0189 49.6364 25.9521 49.472 25.9521 49.2441V42.0957C25.9521 41.7572 25.9375 41.4333 25.9082 41.124ZM23.1104 41.1631L23.8965 41.2852C24.0007 41.3014 24.0527 41.3389 24.0527 41.3975C24.0527 41.4593 23.9469 41.5391 23.7354 41.6367C23.7126 41.6465 23.6963 41.653 23.6865 41.6562V43.9072C23.6865 44.887 23.6572 45.6357 23.5986 46.1533C23.54 46.6676 23.4294 47.1283 23.2666 47.5352C22.8499 48.5964 21.9255 49.529 20.4932 50.333L20.415 50.1914C21.6292 49.2995 22.4219 48.3343 22.793 47.2959C22.9297 46.9183 23.0241 46.4837 23.0762 45.9922C23.1283 45.4974 23.1543 44.8073 23.1543 43.9219V42.1348C23.1543 41.7962 23.1396 41.4723 23.1104 41.1631ZM38.1689 46.6367L38.501 46.2803L39.0674 46.7295C39.1357 46.7848 39.1699 46.8402 39.1699 46.8955C39.1699 46.9964 39.0234 47.0924 38.7305 47.1836C38.4538 47.5938 38.1722 47.9421 37.8857 48.2285C37.6416 48.4694 37.3617 48.6989 37.0459 48.917C37.7002 49.2165 38.5465 49.4215 39.585 49.5322L39.5898 49.6689C39.3913 49.7145 39.2529 49.7682 39.1748 49.8301C39.0999 49.8952 39.0462 50.001 39.0137 50.1475C38.0013 49.9066 37.1826 49.5973 36.5576 49.2197C36.0368 49.5127 35.4606 49.7503 34.8291 49.9326C34.4417 50.0465 33.9502 50.1654 33.3545 50.2891L33.3057 50.1084C34.5687 49.721 35.5241 49.3369 36.1719 48.9561C36.1165 48.917 36.0514 48.8665 35.9766 48.8047C35.6217 48.4987 35.3369 48.1797 35.1221 47.8477C34.9626 47.6003 34.7965 47.2926 34.624 46.9248C34.4645 46.9313 34.2708 46.9525 34.043 46.9883L33.8525 46.6367H36.3818V45.5576H34.6582V45.8604L34.1406 46.0508C34.1634 45.3965 34.1748 44.9163 34.1748 44.6104V42.9697V42.9355C34.1748 42.5384 34.1634 42.1624 34.1406 41.8076L34.7217 42.1494C35.0602 41.9541 35.3092 41.7523 35.4688 41.5439L35.9033 41.9736C35.9554 42.029 35.9814 42.0794 35.9814 42.125C35.9814 42.2096 35.9391 42.252 35.8545 42.252C35.8122 42.252 35.7194 42.221 35.5762 42.1592C35.3125 42.234 35.0065 42.2943 34.6582 42.3398V43.7266H35.0439L35.4248 43.2529L36.1133 43.8877L36.0498 44H34.6582V45.2744H36.3818V41.9199C36.3818 41.7865 36.3688 41.5781 36.3428 41.2949C36.3395 41.2298 36.3363 41.1777 36.333 41.1387L37.0996 41.2949C37.2005 41.3145 37.251 41.36 37.251 41.4316C37.251 41.5065 37.1875 41.5716 37.0605 41.627L36.875 41.7051V45.2744H38.6035V43.9951H38.0566C37.819 43.9951 37.5749 44.0179 37.3242 44.0635L37.1631 43.7217H38.6035V42.4912H37.9883C37.7474 42.4912 37.5033 42.5156 37.2559 42.5645L37.0947 42.208H38.4229L38.7402 41.7686L39.2969 42.1787C39.3815 42.2406 39.4238 42.2959 39.4238 42.3447C39.4238 42.4001 39.3766 42.4619 39.2822 42.5303L39.0869 42.667V44.6006C39.0869 44.8024 39.0951 45.141 39.1113 45.6162C39.1146 45.7171 39.1178 45.8018 39.1211 45.8701L38.6035 46.0361V45.5576H36.875V46.6367H38.1689ZM38.2275 46.9248H34.8584C35.3141 47.641 35.8252 48.1862 36.3916 48.5605L36.416 48.5801C36.4941 48.6289 36.5544 48.6647 36.5967 48.6875L36.6162 48.6729C37.0394 48.3799 37.3942 48.0576 37.6807 47.7061C37.8597 47.488 38.042 47.2275 38.2275 46.9248ZM32.9102 43.1895L33.2422 42.7695L33.7354 43.1162C33.833 43.1878 33.8818 43.248 33.8818 43.2969C33.8818 43.3522 33.8379 43.4206 33.75 43.502L33.5791 43.6582C33.4814 44.7194 33.3691 45.5251 33.2422 46.0752C33.1087 46.6351 32.9508 47.1217 32.7686 47.5352C32.8955 47.6296 33.0176 47.7256 33.1348 47.8232C33.5286 48.1618 33.7256 48.4515 33.7256 48.6924C33.7256 48.79 33.7028 48.873 33.6572 48.9414C33.6149 49.0065 33.5612 49.0391 33.4961 49.0391C33.418 49.0391 33.3317 48.9674 33.2373 48.8242C33.055 48.5443 32.876 48.3083 32.7002 48.1162C32.6383 48.0511 32.5928 48.0023 32.5635 47.9697C32.0719 48.9072 31.3525 49.6836 30.4053 50.2988L30.2979 50.1621C31.141 49.4329 31.7773 48.5947 32.207 47.6475C31.8587 47.3577 31.3932 47.0306 30.8105 46.666C31.0384 45.8978 31.2419 44.9635 31.4209 43.8633L31.4404 43.7363C31.4567 43.6322 31.4697 43.5492 31.4795 43.4873H31.2939C31.1117 43.4873 30.9066 43.5166 30.6787 43.5752L30.498 43.1895H31.5234C31.6374 42.3984 31.7041 41.7246 31.7236 41.168L32.3096 41.29C32.4854 41.3258 32.5732 41.3877 32.5732 41.4756C32.5732 41.5667 32.4756 41.6351 32.2803 41.6807C32.2575 41.6872 32.2396 41.6921 32.2266 41.6953C32.1452 42.2943 32.0671 42.7923 31.9922 43.1895H32.9102ZM33.0566 43.4873H31.9385C31.9157 43.6045 31.888 43.7461 31.8555 43.9121C31.709 44.6217 31.4632 45.5267 31.1182 46.627C31.6846 46.8906 32.0996 47.1055 32.3633 47.2715L32.373 47.2471C32.5098 46.8825 32.6286 46.4772 32.7295 46.0312C32.8271 45.5885 32.9036 45.1328 32.959 44.6641C32.9818 44.459 33.0078 44.1465 33.0371 43.7266C33.0469 43.6224 33.0534 43.5426 33.0566 43.4873Z" fill="black"/>
<path d="M9.69173 35.3083V21.6122H23.3878V35.3083H9.69173Z" fill="#FFB35E"/>
<path d="M14.4646 28.1836V24.9325H16.3323C16.8165 24.9325 17.3698 25.0016 17.7849 25.14C18.3382 25.4167 18.6149 25.9701 18.5458 26.5234C18.5458 26.8001 18.4766 27.0768 18.3382 27.3535C18.1307 27.6994 17.854 27.9069 17.5082 28.0452C17.1623 28.1836 16.8165 28.1836 16.4706 28.1836H14.4646Z" fill="#FFB35E"/>
<path d="M14.4646 31.2963V27.8377H16.6781C17.2315 27.8377 17.7157 27.9069 18.1999 28.1836C18.6841 28.4602 18.8916 29.0136 18.8916 29.567C18.8916 30.1204 18.6841 31.2963 16.7473 31.2963H14.4646Z" fill="#FFB35E"/>
<path d="M15.9864 6.53272L28.714 1.48316L33.6944 14.2108L20.9667 19.1912L15.9864 6.53272Z" fill="#FF9116"/>
<path d="M23.1803 6.25603L27.1923 10.8214L23.3878 12.274L23.1803 6.25603Z" fill="#FF9116"/>
<path d="M25.0479 31.3655L28.5757 18.1536L41.7875 21.6814L38.2598 34.8933L25.0479 31.3655Z" fill="#EDA86B"/>
<path d="M20.1367 19.0529C20.4134 19.6754 21.1051 20.0213 21.7276 19.7446L33.4177 15.1101C34.0403 14.8334 34.3861 14.1416 34.1094 13.5191L29.4749 1.75985C29.1982 1.1373 28.5065 0.860615 27.884 1.06813L16.1247 5.70266C15.5022 5.97934 15.1563 6.67106 15.433 7.29361L20.1367 19.0529ZM28.3682 2.45157L32.8643 13.865L21.451 18.3611L16.9548 6.94775L28.3682 2.45157Z" fill="#FFD9AF"/>
<path d="M22.8344 20.9205H10.2451C9.55338 20.9205 9 21.4739 9 22.1656V34.7549C9 35.4466 9.55338 36 10.2451 36H22.8344C23.5261 36 24.0795 35.4466 24.0795 34.7549V22.1656C24.0795 21.4739 23.5261 20.9205 22.8344 20.9205ZM22.6961 34.6166H10.3834V22.3039H22.6961V34.6166Z" fill="#FFD9AF"/>
<path d="M41.4417 20.8513L29.2674 17.6002C28.5757 17.4619 27.9531 17.8078 27.7456 18.4995L24.4945 30.6738C24.287 31.2963 24.702 31.988 25.3938 32.1955L37.568 35.4466C38.1906 35.6541 38.8823 35.2391 39.0898 34.5474L42.2717 22.3731C42.4792 21.6814 42.0642 21.0588 41.4417 20.8513ZM37.7755 33.994L25.878 30.8813L29.0599 18.9837L40.9575 22.1656L37.7755 33.994Z" fill="#FFD9AF"/>
<path d="M22.7652 13.9341C22.7652 14.0725 22.7652 14.1416 22.8344 14.2108C22.9036 14.3492 23.0419 14.4875 23.1803 14.5567C23.3186 14.6258 23.5261 14.6258 23.7336 14.5567C23.872 14.4875 24.0103 14.3492 24.0795 14.2108C24.1487 13.9341 24.1487 13.6574 24.1487 13.3807V12.4123L26.9155 11.3748L27.5381 12.0665L27.8148 12.3432C27.884 12.4123 28.0223 12.4815 28.0915 12.5507C28.1606 12.6199 28.2298 12.6199 28.3682 12.6199C28.4373 12.6199 28.5757 12.6199 28.6448 12.5507C28.7832 12.4815 28.9215 12.3432 28.9907 12.2048C29.0599 12.0665 29.0599 11.859 28.9907 11.7206C28.8524 11.5131 28.714 11.2364 28.5065 11.0981L25.0479 7.43196L24.6329 7.01692C24.5637 6.87858 24.4253 6.80941 24.287 6.74024C24.1487 6.67106 24.0103 6.60189 23.872 6.60189C23.5261 6.60189 23.1803 6.74024 22.9036 6.94775C22.8344 7.0861 22.7652 7.22444 22.696 7.36278C22.6269 7.5703 22.6269 7.70864 22.6269 7.91616C22.6269 8.12368 22.6269 8.26202 22.6269 8.46954V13.5191C22.696 13.6574 22.696 13.7958 22.7652 13.9341ZM26.0163 10.4755L24.0103 11.2364L23.9411 8.12368L26.0163 10.4755Z" fill="#FFD9AF"/>
<path d="M14.6029 31.7113H16.8164C17.1623 31.7113 17.439 31.6422 17.7848 31.6422C18.0615 31.6422 18.269 31.573 18.5457 31.4347C18.8916 31.2963 19.1683 31.0196 19.3758 30.7429C19.5833 30.3971 19.7217 30.0512 19.7217 29.6362C19.7217 28.8061 19.1683 28.0452 18.269 27.9069C18.9608 27.6302 19.3758 27.0076 19.3758 26.3159C19.3758 26.1084 19.3758 25.9009 19.3066 25.6934C19.2375 25.4859 19.1683 25.3475 19.0299 25.14C18.8916 25.0016 18.7532 24.8633 18.6149 24.725C18.4074 24.5866 18.1999 24.5174 17.9232 24.4483C17.6465 24.3791 17.3006 24.3791 17.0239 24.3791H14.6029C14.3262 24.3791 14.1187 24.4483 13.9112 24.5866C13.7729 24.7941 13.7037 25.0017 13.7037 25.2783V30.6738C13.7037 30.9504 13.7729 31.158 13.9112 31.3655C14.1187 31.7113 14.3262 31.7805 14.6029 31.7113ZM15.1563 25.6242H16.3322C16.7473 25.6242 17.1623 25.6934 17.5082 25.8317C17.7848 25.9701 17.9232 26.2467 17.9232 26.5234C17.9232 26.6618 17.854 26.8693 17.7848 27.0076C17.7157 27.2152 17.5082 27.3535 17.3006 27.4227C17.0239 27.4918 16.7473 27.561 16.4706 27.561H15.1563V25.6242ZM15.1563 28.5294H16.6781C17.0931 28.5294 17.5082 28.5986 17.854 28.8061C18.1307 29.0136 18.269 29.2903 18.1999 29.567C18.1999 30.2587 17.7157 30.6046 16.7473 30.6046H15.1563V28.5294Z" fill="#FFD9AF"/>
<path d="M30.5125 28.1836C30.6508 28.4603 30.7892 28.7369 31.0659 28.9445C31.2734 29.152 31.5501 29.3595 31.8268 29.4978C32.1035 29.6362 32.4493 29.7745 32.7952 29.8437C33.2102 29.982 33.6944 29.982 34.1094 29.982C34.4553 29.9129 34.8703 29.7745 35.147 29.567C35.4237 29.4287 35.6312 29.2211 35.8387 28.9445C35.9771 28.7369 36.1154 28.5294 36.1846 28.2527C36.2538 28.1144 36.1846 27.9069 36.1154 27.7685C36.0463 27.6302 35.9079 27.4918 35.7696 27.4918C35.6312 27.4227 35.4237 27.4918 35.2854 27.561C35.147 27.6994 35.0087 27.7685 34.9395 27.976C34.732 28.3219 34.4553 28.5294 34.0403 28.6678C33.6944 28.8061 33.2794 28.8061 32.9335 28.6678C32.5877 28.5986 32.311 28.4603 32.0343 28.2527C31.8268 27.976 31.6193 27.6302 31.6193 27.2843C31.5501 26.8001 31.6192 26.3159 31.7576 25.9009C31.8959 25.2092 32.2418 24.5866 32.7952 24.1024C33.2102 23.7566 33.8328 23.6182 34.3861 23.8257C34.732 23.8949 35.0087 24.1024 35.2162 24.3099C35.4237 24.5866 35.5621 24.9325 35.6312 25.2783C35.7004 25.4859 35.7004 25.6242 35.8387 25.8317C35.9079 25.9701 36.0463 26.0392 36.1846 26.0392C36.3229 26.1084 36.5305 26.0392 36.6688 25.9701C36.8072 25.9009 36.9455 25.7625 36.9455 25.6242C37.0147 25.2783 37.0147 24.9325 36.8072 24.5866C36.6688 24.0332 36.3921 23.6182 36.0463 23.3415C35.6312 22.9957 35.147 22.7881 34.6628 22.6498C34.1786 22.5115 33.7636 22.5115 33.2794 22.5115C32.8643 22.5806 32.3801 22.719 32.0343 22.9265C31.6192 23.2032 31.2734 23.4799 30.9967 23.8949C30.72 24.3099 30.5125 24.7941 30.3742 25.3475C30.305 25.6934 30.2358 26.0392 30.2358 26.3851C30.2358 26.731 30.2358 27.0076 30.305 27.3535C30.305 27.6302 30.4433 27.9069 30.5125 28.1836Z" fill="#FFD9AF"/>
</svg>
