<svg width="167" height="74" viewBox="0 0 167 74" fill="none" xmlns="http://www.w3.org/2000/svg">
<g filter="url(#filter0_d)">
<rect x="2" width="163" height="70" rx="8" fill="url(#paint0_linear)"/>
</g>
<path opacity="0.2" d="M134.049 66.649L102.175 58.2508L122.341 49.0386L151.722 53.9622L134.049 66.649Z" fill="black"/>
<path opacity="0.3" d="M134.049 66.3716L102.175 58.0427L122.341 48.8305L151.722 53.7542L134.049 66.3716Z" fill="black"/>
<path d="M134.049 35.9503L102.175 29.3623V57.7763L134.049 66.2366L151.722 53.5571V25.4169L134.049 35.9503Z" fill="url(#paint1_linear)"/>
<path opacity="0.5" d="M102.186 56.9952V57.7763L134.06 66.2366L151.722 53.5571L151.718 52.7833L134.06 65.4555L102.186 56.9952Z" fill="#CB0404"/>
<path opacity="0.3" d="M102.175 56.3674V57.1485L134.049 65.6125L151.722 52.9293V52.1482L134.049 64.8314L102.175 56.3674Z" fill="url(#paint2_linear)"/>
<path d="M134.049 35.9393L102.175 29.3477L122.341 20.1356L151.722 25.4059L134.049 35.9393Z" fill="url(#paint3_linear)"/>
<path opacity="0.1" d="M102.175 38.9249L134.612 46.0421L151.722 35.3517V27.9352L134.612 37.6365L102.175 30.9281V38.9249Z" fill="white"/>
<path opacity="0.1444" d="M102.175 38.7716L134.612 45.8888L151.722 35.1984V27.7783L134.612 37.4795L102.175 30.7748V38.7716Z" fill="#F2E3E3"/>
<path opacity="0.1889" d="M102.175 38.6183L134.612 45.7355L151.722 35.0415V27.625L134.612 37.3263L102.175 30.6215V38.6183Z" fill="#E5C6C6"/>
<path opacity="0.2333" d="M102.175 38.465L134.612 45.5785L151.722 34.8882V27.4717L134.612 37.173L102.175 30.4646V38.465Z" fill="#D9AAAA"/>
<path opacity="0.2778" d="M102.175 38.3081L134.612 45.4253L151.722 34.7349V27.3148L134.612 37.016L102.175 30.3113V38.3081Z" fill="#CC8E8E"/>
<path opacity="0.3222" d="M102.175 38.1548L134.612 45.2719L151.722 34.5779V27.1615L134.612 36.8627L102.175 30.158V38.1548Z" fill="#BF7171"/>
<path opacity="0.3667" d="M102.175 38.0015L134.612 45.115L151.722 34.4246V27.0082L134.612 36.7094L102.175 30.001V38.0015Z" fill="#B25555"/>
<path opacity="0.4111" d="M102.175 37.8445L134.612 44.9617L151.722 34.2713V26.8512L134.612 36.5561L102.175 29.8477V37.8445Z" fill="#A63939"/>
<path opacity="0.4556" d="M102.175 37.6913L134.612 44.8084L151.722 34.1181V26.698L134.612 36.3992L102.175 29.6945V37.6913Z" fill="#991C1C"/>
<path opacity="0.5" d="M102.175 37.5379L134.612 44.6515L151.722 33.9611V26.5446L134.612 36.2459L102.175 29.5375V37.5379Z" fill="#8C0000"/>
<path opacity="0.5" d="M120.217 45.2318C120.377 42.7207 120.644 41.9725 120.804 41.4396L116.191 40.4797C116.202 41.3958 116.224 42.3922 116.253 43.4762C116.519 53.5242 116.895 60.0063 116.997 61.6487L119.782 62.386C119.782 62.3824 119.822 51.4146 120.217 45.2318Z" fill="#D95C33"/>
<path opacity="0.5" d="M120.078 43.5967C120.239 40.8483 120.505 40.0271 120.666 39.4431L116.052 38.392C116.063 39.3921 116.085 40.4834 116.114 41.6732C116.381 52.6774 116.757 59.7764 116.859 61.5721L119.644 62.3787C119.644 62.3823 119.684 50.3707 120.078 43.5967Z" fill="#D95C33"/>
<path opacity="0.2" d="M141.364 42.7171C141.232 39.9688 140.802 39.2388 140.67 38.6512L144.608 36.0963C144.597 37.0963 144.583 38.1876 144.557 39.3775C144.338 50.3817 143.776 57.2763 143.692 59.0756L142.2 60.4297C142.196 60.437 141.689 49.4912 141.364 42.7171Z" fill="#D95C33"/>
<path opacity="0.3" d="M141.502 42.5455C141.371 39.7972 140.94 39.0672 140.809 38.4796L144.747 35.9247C144.736 36.9248 144.722 38.0161 144.696 39.2059C144.477 50.2102 143.915 57.1047 143.831 58.9041L142.338 60.2581C142.335 60.2618 141.827 49.3159 141.502 42.5455Z" fill="#D95C33"/>
<path opacity="0.5" d="M141.78 42.3703C141.648 39.622 141.218 38.892 141.086 38.3044L145.025 35.7495C145.014 36.7496 144.999 37.8409 144.973 39.0307C144.754 50.035 144.192 56.9295 144.108 58.7289L142.616 60.083C142.612 60.0866 142.105 49.1444 141.78 42.3703Z" fill="#D95C33"/>
<path d="M134.612 36.0014L100.142 28.8769V36.8481L134.612 44.4106L153.718 32.472V25.1687L134.612 36.0014Z" fill="url(#paint4_linear)"/>
<path opacity="0.5" d="M100.15 36.443V36.8481L134.619 44.4106L153.729 32.472V32.0632L134.619 44.0055L100.15 36.443Z" fill="#CB0404"/>
<path opacity="0.3" d="M100.142 35.713V36.5598L134.612 44.1222L153.718 32.1836V31.3369L134.612 43.2791L100.142 35.713Z" fill="url(#paint5_linear)"/>
<path d="M134.612 35.9904L100.143 28.8623L121.947 19.453L153.718 25.1541L134.612 35.9904Z" fill="url(#paint6_linear)"/>
<path d="M113.501 31.6362C113.501 31.6362 112.8 32.8406 113.11 43.6843C113.421 54.5279 113.88 60.8786 113.88 60.8786L119.684 62.4152C119.684 62.4152 119.512 48.2283 119.614 42.0309C119.717 35.8371 120.1 32.9574 120.1 32.9574L113.501 31.6362Z" fill="url(#paint7_linear)"/>
<path opacity="0.5" d="M119.614 42.0309C119.717 35.8371 120.1 32.9574 120.1 32.9574L119.709 32.8808C119.589 34.3699 119.41 37.1876 119.344 41.4469C119.26 47.0239 119.363 58.5683 119.403 62.3422L119.684 62.4152C119.684 62.4152 119.512 48.2283 119.614 42.0309Z" fill="#F4C733"/>
<path d="M113.242 43.6232C113.023 35.9914 113.282 32.9073 113.475 31.6992C113.351 32.0496 112.837 34.1081 113.11 43.6852C113.421 54.5289 113.88 60.8796 113.88 60.8796L113.997 60.9088C113.866 58.8503 113.501 52.7514 113.242 43.6232Z" fill="#F19800"/>
<path d="M147.408 28.7346C147.408 28.7346 147.813 31.753 147.547 42.5966C147.28 53.4403 147.05 56.9113 147.05 56.9113L142.335 60.3312C142.335 60.3312 142.492 46.8377 142.404 40.644C142.316 34.4502 142.01 31.7895 142.01 31.7895L147.408 28.7346Z" fill="url(#paint8_linear)"/>
<path opacity="0.5" d="M142.506 60.2071C142.535 57.6741 142.656 45.8815 142.572 40.122C142.506 35.6108 142.335 32.8954 142.232 31.6617L142.01 31.7895C142.01 31.7895 142.313 34.4502 142.404 40.644C142.491 46.8377 142.335 60.3311 142.335 60.3311L142.506 60.2071Z" fill="url(#paint9_linear)"/>
<path opacity="0.2" d="M147.408 28.7346L147.2 28.8514C147.302 30.1032 147.521 34.0195 147.302 43.1003C147.109 50.9657 146.933 55.1812 146.842 57.0609L147.054 56.9076C147.054 56.9076 147.284 53.4366 147.55 42.593C147.813 31.753 147.408 28.7346 147.408 28.7346Z" fill="url(#paint10_linear)"/>
<path opacity="0.5" d="M153.631 27.9535C150.897 28.3002 146.817 28.7126 143.13 28.6871C136.863 28.6396 129.381 26.4242 129.381 26.4242L130.235 27.8367C130.235 27.8367 134.59 30.793 139.699 31.2529C143.499 31.596 149.371 31.0668 153.627 30.5668V27.9535H153.631Z" fill="#D95C33"/>
<path d="M130.378 27.1359C130.378 27.1359 138.002 28.793 144.254 28.3769C150.507 27.9608 157.803 26.187 157.803 26.187L160.095 28.3769C160.095 28.3769 147.59 31.2931 141.024 31.1909C135.893 31.1106 131.334 28.4827 131.334 28.4827L130.378 27.1359Z" fill="url(#paint11_linear)"/>
<path opacity="0.5" d="M157.799 26.187C157.799 26.187 157.762 26.1943 157.693 26.2125L159.861 28.282C159.861 28.282 147.357 31.1982 140.791 31.096C138.02 31.0522 135.415 30.2638 133.604 29.5521C135.418 30.2894 138.13 31.1435 141.021 31.1909C147.587 31.2967 160.091 28.3769 160.091 28.3769L157.799 26.187Z" fill="#FFFFBA"/>
<path opacity="0.7" d="M127.378 31.3734C127.378 31.3734 122.089 31.961 116.607 29.8551C111.125 27.7491 104.665 26.8586 104.665 26.8586L102 28.2126C102 28.2126 112.804 31.5851 118.709 33.3005C123.326 34.6436 126.144 32.326 126.144 32.326L127.378 31.3734Z" fill="#D95C33"/>
<path d="M123.954 30.8077C123.954 30.8077 116.665 30.2091 111.183 28.1068C105.701 26.0008 99.6644 18.2084 99.6644 18.2084L97 19.5662C97 19.5662 104.504 29.3441 113.286 31.5559C117.946 32.7275 122.72 31.7676 122.72 31.7676L123.954 30.8077Z" fill="url(#paint12_linear)"/>
<path opacity="0.5" d="M123.144 30.7274C123.483 30.7675 123.757 30.7931 123.947 30.8113L123.954 30.8077C123.954 30.8077 123.658 30.7821 123.144 30.7274ZM97.3139 19.599L99.8432 18.3143C99.7301 18.2486 99.668 18.2084 99.668 18.2084L97 19.5662C97 19.5662 104.504 29.3441 113.286 31.5559C114.18 31.7822 115.078 31.9282 115.943 32.0158C115.173 31.9245 114.384 31.7858 113.599 31.5887C104.818 29.3769 97.3139 19.599 97.3139 19.599Z" fill="#FFFFBA"/>
<path opacity="0.2" d="M131.257 25.0555C131.257 25.0555 126.498 34.0377 121.954 37.7533C117.406 41.4725 108.716 46.9253 108.716 46.9253L109.548 50.7795C109.548 50.7795 124.465 40.3556 127.264 34.5232C129.538 29.7857 131.071 25.884 131.33 26.2892L131.257 25.0555Z" fill="#D95C33"/>
<path opacity="0.2" d="M131.049 24.3621C131.049 24.3621 126.29 33.3443 121.746 37.0598C117.202 40.779 108.512 46.2319 108.512 46.2319L109.344 50.0861C109.344 50.0861 124.261 39.6622 127.06 33.8297C129.334 29.0922 130.867 25.1906 131.126 25.5957L131.049 24.3621Z" fill="#D95C33"/>
<path d="M129.067 27.7527C129.067 27.7527 124.936 33.7896 120.392 37.5051C115.848 41.2243 106.088 42.6039 106.088 42.6039L105.946 45.5895C105.946 45.5895 118.158 43.9179 124.429 37.3847C127.757 33.9173 129.29 29.2966 129.29 29.2966L129.067 27.7527Z" fill="url(#paint13_linear)"/>
<path opacity="0.5" d="M128.597 28.417C128.797 28.1433 128.958 27.917 129.067 27.7637V27.7564C129.067 27.7527 128.9 27.9973 128.597 28.417ZM106.132 45.3376L106.267 42.5054C106.15 42.5711 106.088 42.6076 106.088 42.6076L105.946 45.5931C105.946 45.5931 118.158 43.9215 124.429 37.3883C125.067 36.724 125.637 36.016 126.148 35.3079C125.688 35.932 125.177 36.5488 124.615 37.1328C118.344 43.666 106.132 45.3376 106.132 45.3376Z" fill="#FFFFBA"/>
<path opacity="0.5" d="M119.713 32.8771C119.713 32.8771 121.096 33.9648 124.41 33.4429C125.731 33.2348 126.494 32.399 126.494 32.399C126.494 32.399 127.885 33.8589 131.148 33.7896C134.414 33.7202 138.166 32.2603 138.166 32.2603L140.805 32.399C140.805 32.399 142.196 32.191 143.305 31.4245C144.178 30.8223 145.251 28.2272 145.251 28.2272L145.389 27.1834C145.389 27.1834 147.751 26.5593 149.558 25.9315C151.364 25.3074 145.389 24.957 145.389 24.957L136.564 24.0555L120.863 24.1942L116.625 23.8474C116.625 23.8474 112.041 27.114 113.848 28.5703C115.654 30.0376 119.713 32.8771 119.713 32.8771Z" fill="#D95C33"/>
<path opacity="0.5" d="M118.95 32.5997C118.95 32.5997 120.333 33.6874 123.647 33.1654C124.969 32.9574 125.731 32.1216 125.731 32.1216C125.731 32.1216 127.122 33.5815 130.385 33.5122C133.652 33.4428 137.404 31.9829 137.404 31.9829L140.042 32.1216C140.042 32.1216 141.433 31.9135 142.543 31.1471C143.415 30.5449 144.488 27.9498 144.488 27.9498L144.627 26.906C144.627 26.906 146.988 26.2819 148.795 25.6541C150.601 25.03 144.627 24.6796 144.627 24.6796L135.801 23.7781L120.103 23.9241L115.866 23.5773C115.866 23.5773 111.282 26.8439 113.088 28.3002C114.891 29.7601 118.95 32.5997 118.95 32.5997Z" fill="#D95C33"/>
<path d="M122.18 22.1941C122.18 22.1941 119.782 11.8504 117.581 9.09115C115.381 6.33188 113.399 7.92686 113.399 7.92686L111.993 10.4744C111.993 10.4744 110.818 11.8066 112.271 14.3652C113.724 16.9273 122.18 22.1941 122.18 22.1941ZM121.417 20.2961C121.417 20.2961 116.11 15.6937 113.406 12.2373L112.778 10.1277C112.778 10.1277 115.902 9.72258 117.658 12.3067C119.414 14.8907 121.417 20.2961 121.417 20.2961Z" fill="url(#paint14_linear)"/>
<path d="M111.993 10.4745L112.245 10.0219L112.775 10.1277L113.402 12.2373C115.362 14.7448 118.695 17.8544 120.377 19.3728L121.961 21.2999C122.1 21.8619 122.177 22.1977 122.177 22.1977C122.177 22.1977 113.723 16.9274 112.271 14.3652C110.818 11.8066 111.993 10.4745 111.993 10.4745Z" fill="#EBC330"/>
<path d="M120.133 29.6178L116.924 25.2818C116.924 25.2818 113.855 20.1319 113.581 18.9859C113.307 17.8398 113.72 16.7704 114.946 15.5149C116.173 14.263 116.64 14.117 117.549 13.9746C118.457 13.8323 126.458 18.1756 126.458 18.1756L120.133 29.6178Z" fill="url(#paint15_linear)"/>
<path d="M126.461 18.1756L120.133 29.6178L117.716 26.3549C117.713 26.0045 117.738 25.603 117.804 25.1468C118.198 22.413 119.651 19.5698 121.06 18.1975C121.939 17.3361 122.666 16.7485 123.326 16.5222C125.038 17.4055 126.461 18.1756 126.461 18.1756Z" fill="#E4A400"/>
<path d="M125.593 12.6169C125.359 5.8939 122.023 4.9632 121.403 4.9632C120.782 4.9632 117.833 5.8939 118.998 11.7884C120.162 17.6829 124.352 22.3364 124.352 22.3364L124.972 22.7488C124.972 22.7525 125.826 19.3399 125.593 12.6169ZM124.352 20.3728C124.352 20.3728 121.947 16.9602 120.706 14.5805C119.465 12.2008 118.844 9.61673 119.388 7.44508C119.932 5.27343 121.483 5.68586 121.483 5.68586C124.739 6.41218 124.739 8.47799 124.972 13.4454C125.206 18.4092 124.352 20.3728 124.352 20.3728Z" fill="url(#paint16_linear)"/>
<path d="M129.035 12.5439C130.633 6.0107 127.673 4.20768 127.075 4.03979C126.476 3.8719 123.388 3.96679 122.91 9.95982C122.432 15.9492 125.206 21.5663 125.206 21.5663L125.691 22.132C125.688 22.1357 127.436 19.0807 129.035 12.5439ZM125.735 19.6757C125.735 19.6757 124.345 15.7375 123.793 13.1133C123.242 10.489 123.344 7.82831 124.458 5.8866C125.571 3.94489 126.951 4.76245 126.951 4.76245C129.892 6.34283 129.33 8.33199 128.21 13.1753C127.089 18.015 125.735 19.6757 125.735 19.6757Z" fill="url(#paint17_linear)"/>
<path d="M140.725 16.3689C145.846 12.0293 144.032 8.17869 143.557 7.56917C143.083 6.95965 140.101 4.6274 136.342 9.37583C132.586 14.1243 132.115 21.0918 132.115 21.0918L132.261 21.9568C132.265 21.9568 135.604 20.7086 140.725 16.3689ZM133.666 19.891C133.666 19.891 134.52 15.4382 135.447 12.7629C136.374 10.0876 137.937 7.894 140.064 7.10199C142.192 6.30997 143.05 8.08744 143.05 8.08744C144.966 11.7373 143.338 13.0001 139.601 16.2667C135.863 19.5333 133.666 19.891 133.666 19.891Z" fill="url(#paint18_linear)"/>
<path d="M134.538 26.3366C134.538 26.3366 144.353 22.278 146.714 19.6574C149.076 17.0368 147.178 15.3397 147.178 15.3397L144.437 14.3724C144.437 14.3724 142.933 13.4308 140.645 15.2813C138.356 17.1317 134.538 26.3366 134.538 26.3366ZM136.29 25.2745C136.29 25.2745 139.962 19.2851 142.933 16.055L144.911 15.0915C144.911 15.0915 145.82 18.1099 143.557 20.2633C141.291 22.413 136.29 25.2745 136.29 25.2745Z" fill="url(#paint19_linear)"/>
<path d="M144.437 14.3725L144.926 14.544L144.908 15.0842L142.929 16.0477C140.776 18.3909 138.254 22.1868 137.028 24.092L135.385 25.9716C134.852 26.2016 134.535 26.333 134.535 26.333C134.535 26.333 138.353 17.1281 140.641 15.2776C142.933 13.4308 144.437 14.3725 144.437 14.3725Z" fill="#EBC330"/>
<path d="M130.765 26.9279C130.765 26.9279 132.56 22.8656 134.79 16.5076C135.955 13.1863 136.415 10.8577 136.415 10.8577C136.415 10.8577 136.754 9.64593 136.415 8.31374C136.06 6.93775 135.002 6.90125 135.002 6.90125L127.94 5.17123C127.94 5.17123 125.538 5.17123 124.374 11.1059C123.209 17.0405 123.914 23.4313 123.914 23.4313L130.765 26.9279Z" fill="url(#paint20_linear)"/>
<path opacity="0.5" d="M124.155 23.4313C124.155 23.4313 123.447 17.0405 124.615 11.1059C125.6 6.08004 127.476 5.30993 128.027 5.19313L127.94 5.17123C127.94 5.17123 125.538 5.17123 124.374 11.1059C123.209 17.0405 123.914 23.4313 123.914 23.4313L130.765 26.9279C130.765 26.9279 130.779 26.895 130.808 26.8257L124.155 23.4313Z" fill="url(#paint21_linear)"/>
<path d="M132.462 10.6095C131.75 14.2338 130.772 25.0519 130.611 26.8476L130.765 26.9279C130.765 26.9279 132.56 22.8656 134.79 16.5076C135.955 13.1863 136.415 10.8577 136.415 10.8577C136.415 10.8577 136.754 9.64592 136.415 8.31373C136.206 7.50347 135.754 7.15674 135.414 7.01074L135.002 6.90125C135.002 6.90125 133.236 6.65671 132.462 10.6095Z" fill="url(#paint22_linear)"/>
<path opacity="0.5" d="M136.495 8.68603C136.55 8.99991 136.568 9.30285 136.568 9.57659C136.568 9.3065 136.55 9.00356 136.495 8.68603ZM134.9 6.87206C134.9 6.87206 133.017 6.62387 132.188 10.5876C131.429 14.2155 130.385 25.0555 130.213 26.8512L130.378 26.9315C130.378 26.9315 130.476 26.7199 130.662 26.3147C130.918 23.5007 131.805 13.971 132.462 10.6168C133.239 6.66037 135.006 6.90856 135.006 6.90856L135.407 7.01441C135.385 7.00346 135.363 6.99616 135.341 6.98521L134.9 6.87206Z" fill="url(#paint23_linear)"/>
<path d="M128.896 27.344C128.896 27.344 130.024 23.0591 132.225 16.7157C133.374 13.4016 134.451 11.303 134.451 11.303C134.451 11.303 134.933 10.146 136.002 9.32841C137.108 8.48165 137.926 9.12037 137.926 9.12037L144.295 12.2264C144.295 12.2264 146.101 13.7411 143.357 19.0808C140.612 24.4241 136.181 28.9426 136.181 28.9426L128.896 27.344Z" fill="url(#paint24_linear)"/>
<path opacity="0.5" d="M135.998 28.7929C135.998 28.7929 140.429 24.2744 143.174 18.9311C145.499 14.4053 144.557 12.6278 144.218 12.1898L144.298 12.23C144.298 12.23 146.105 13.7447 143.36 19.0844C140.615 24.4277 136.185 28.9462 136.185 28.9462L128.899 27.344C128.899 27.344 128.91 27.3075 128.929 27.2381L135.998 28.7929Z" fill="url(#paint25_linear)"/>
<path d="M137.575 13.6064C135.9 16.8693 130.031 25.8881 129.056 27.3808L128.892 27.3443C128.892 27.3443 130.02 23.0594 132.221 16.716C133.371 13.402 134.447 11.3033 134.447 11.3033C134.447 11.3033 134.929 10.1463 135.998 9.32876C136.652 8.82873 137.203 8.84698 137.546 8.94553L137.926 9.12072C137.926 9.12437 139.407 10.0441 137.575 13.6064Z" fill="url(#paint26_linear)"/>
<path opacity="0.5" d="M135.119 10.2153C135.287 10.0036 135.484 9.78097 135.717 9.56928C135.48 9.78097 135.283 10.0036 135.119 10.2153ZM137.626 8.9707C137.604 8.9634 137.582 8.9561 137.561 8.95245L137.926 9.124C137.926 9.124 139.404 10.0438 137.575 13.606C136.024 16.6281 130.874 24.5883 129.348 26.9315C129.239 27.3622 129.184 27.5885 129.184 27.5885L129.356 27.6323C130.323 26.1286 136.152 17.0551 137.798 13.7593C139.593 10.1605 138.024 9.16414 138.024 9.16414L137.626 8.9707Z" fill="url(#paint27_linear)"/>
<path d="M113.84 15.4601C110.753 14.398 109.38 15.8433 109.38 15.8433L106.65 17.734C106.65 17.734 105.073 20.0589 108.475 21.8619C111.877 23.6649 123.936 24.3694 123.936 24.3694C123.936 24.3694 116.928 16.5259 113.84 15.4601ZM112.143 21.3838C108.993 20.0115 109.077 16.712 109.077 16.712L111.552 17.0003C115.811 19.2048 121.684 23.9022 121.684 23.9022C121.684 23.9022 115.297 22.7561 112.143 21.3838Z" fill="url(#paint28_linear)"/>
<path d="M109.38 15.8433L108.895 16.1791L109.081 16.712L111.556 17.0003C114.643 18.599 118.581 21.5079 120.512 22.9897L122.896 24.2964C123.553 24.3438 123.943 24.3657 123.943 24.3657C123.943 24.3657 116.928 16.5259 113.84 15.4601C110.753 14.398 109.38 15.8433 109.38 15.8433Z" fill="#EBC330"/>
<path d="M108.69 22.6795C104.778 23.7306 105.322 25.1869 105.347 25.7271C105.395 26.6651 105.924 27.4498 107.066 28.1177C108.212 28.7856 111.169 29.5485 111.169 29.5485C111.169 29.5485 113.745 29.7383 118.038 28.4024C122.33 27.0666 124.049 24.7781 124.049 24.7781C124.049 24.7781 112.599 21.6283 108.69 22.6795ZM109.453 28.501C109.453 28.501 108.117 28.2163 108.402 25.8293C108.687 23.4423 113.172 23.2525 113.172 23.2525L122.144 25.1614L109.453 28.501Z" fill="url(#paint29_linear)"/>
<path d="M123.578 25.2964C123.18 25.1322 122.812 25.0665 122.812 25.0665L122.001 25.2015L109.453 28.5046L110.993 29.5083C111.107 29.5375 111.169 29.5558 111.169 29.5558C111.169 29.5558 113.745 29.7456 118.038 28.4097C121.063 27.4644 122.812 26.0483 123.578 25.2964Z" fill="#EBC330"/>
<path d="M132.743 23.8985C132.743 23.8985 134.641 25.8403 138.849 26.5666C143.054 27.2929 145.455 26.7965 145.455 26.7965C145.455 26.7965 148.145 25.7125 149.138 24.9424C150.134 24.1723 150.532 23.3657 150.463 22.4788C150.423 21.9641 150.751 20.5297 146.941 20.0261C143.127 19.5187 132.743 23.8985 132.743 23.8985ZM134.586 24.019L142.791 21.1137C142.791 21.1137 147.036 20.7378 147.598 22.9496C148.16 25.1614 146.941 25.5921 146.941 25.5921L134.586 24.019Z" fill="url(#paint30_linear)"/>
<path d="M133.25 24.3256C133.604 24.1212 133.944 24.0117 133.944 24.0117L134.725 24.0372L146.941 25.5957L145.616 26.7308C145.514 26.7746 145.455 26.7965 145.455 26.7965C145.455 26.7965 143.054 27.2929 138.849 26.5666C135.885 26.0556 134.068 24.9387 133.25 24.3256Z" fill="#EBC330"/>
<path d="M126.596 26.9936L132.268 29.7456C132.268 29.7456 138.849 32.1618 140.225 32.2311C141.601 32.2968 142.743 31.5924 143.919 29.9135C145.094 28.2345 145.16 27.6652 145.127 26.5921C145.094 25.5191 138.378 17.2595 138.378 17.2595L126.596 26.9936Z" fill="url(#paint31_linear)"/>
<path d="M138.378 17.2595L126.596 26.9936L130.867 29.0667C131.272 28.9937 131.724 28.8806 132.235 28.7054C135.29 27.6652 138.243 25.384 139.521 23.4679C140.32 22.2707 140.842 21.3108 140.955 20.5042C139.572 18.7267 138.378 17.2595 138.378 17.2595Z" fill="#E4A400"/>
<path d="M124.246 23.4387C124.246 23.4387 124.834 20.902 127.885 17.9968C130.936 15.0915 133.768 13.4016 134.834 12.9235C135.9 12.4454 136.082 12.3724 136.082 12.3724L140.605 20.3144C140.605 20.3144 137.407 25.4242 132.517 27.3732C127.626 29.3222 126.341 27.8878 126.341 27.8878L124.246 23.4387Z" fill="url(#paint32_linear)"/>
<path d="M137.849 21.4896C135.09 22.6649 133.217 24.4314 132.188 26.0848C131.728 26.8257 131.604 27.3513 131.611 27.709C131.9 27.6104 132.203 27.4973 132.52 27.3695C136.688 25.7089 139.626 21.7488 140.404 20.6173C139.765 20.7706 138.918 21.0334 137.849 21.4896Z" fill="url(#paint33_linear)"/>
<path d="M122.958 29.5777C122.958 29.5777 125.969 32.253 128.235 33.1545C130.498 34.056 137.9 31.9172 137.9 31.9172C137.9 31.9172 139.232 30.2492 138.579 28.4426C137.926 26.6359 136.506 24.9971 134.597 25.3658C132.688 25.7344 122.958 29.5777 122.958 29.5777ZM126.618 28.7893L130.133 27.8039C130.133 27.8039 131.498 28.5995 131.203 29.5704C130.907 30.5376 126.618 28.7893 126.618 28.7893Z" fill="url(#paint34_linear)"/>
<path d="M122.958 29.5777C122.958 29.5777 123.695 29.2857 124.804 28.855L126.921 28.9098C127.903 29.2857 130.954 30.3806 131.203 29.5704C131.228 29.4828 131.243 29.3952 131.243 29.3112C131.345 29.658 131.484 30.2675 131.414 30.8588C131.308 31.7566 130.998 32.4793 130.363 33.1034C130.246 33.2202 130.108 33.3078 129.962 33.3772C129.261 33.3881 128.655 33.3261 128.232 33.1582C125.969 32.253 122.958 29.5777 122.958 29.5777Z" fill="#E6B500"/>
<path d="M116.943 23.7562C114.702 23.2635 112.983 25.1504 112.158 27.26C111.333 29.3696 112.851 31.3734 112.851 31.3734C112.851 31.3734 121.505 34.1217 124.199 33.1253C126.892 32.1326 130.52 29.0703 130.52 29.0703C130.52 29.0703 119.18 24.2489 116.943 23.7562ZM120.808 28.8112C120.49 27.6615 122.122 26.7637 122.122 26.7637L126.235 28.0301C126.235 28.0338 121.125 29.9609 120.808 28.8112Z" fill="url(#paint35_linear)"/>
<path d="M130.52 29.0704C130.52 29.0704 129.659 28.7054 128.367 28.1652H125.87C124.702 28.5776 121.074 29.7748 120.808 28.8112C120.779 28.7054 120.768 28.6032 120.768 28.501C120.636 28.9061 120.454 29.6178 120.516 30.3186C120.611 31.3807 120.957 32.2421 121.687 32.9976C121.822 33.1399 121.983 33.2494 122.155 33.3334C122.979 33.3662 123.695 33.3115 124.199 33.1253C126.892 32.1326 130.52 29.0704 130.52 29.0704Z" fill="#E6B500"/>
<path d="M130.13 27.6432C129.075 28.0557 127.104 28.7856 127.272 28.4243C127.498 27.9316 128.086 27.6177 128.962 27.1907C129.319 27.0155 129.878 26.9972 130.042 26.9169L123.658 23.143C123.658 23.143 120.246 23.6467 119.355 26.0848C118.461 28.5229 119.917 29.4353 119.917 29.4353C119.917 29.4353 126.367 30.9463 127.425 30.877C128.48 30.8113 130.728 28.9316 130.728 28.9316L130.13 27.6432Z" fill="url(#paint36_linear)"/>
<path d="M130.13 27.6432C129.075 28.0557 127.104 28.7856 127.272 28.4243C127.323 28.3112 127.396 28.1761 127.48 28.0301C126.808 29.1506 126.739 30.0229 127.045 30.596C127.118 30.7347 127.239 30.8259 127.378 30.8807C127.392 30.8807 127.407 30.8807 127.418 30.8807C128.472 30.815 130.721 28.9353 130.721 28.9353L130.13 27.6432Z" fill="#E4A72D"/>
<path d="M22.768 22.152C22.576 22.2 22.384 22.248 22.192 22.296C21.472 22.504 20.96 22.664 20.656 22.776C20.56 22.792 20.464 22.744 20.368 22.632C20.272 22.504 20.176 22.312 20.08 22.056C19.984 21.8 19.928 21.608 19.912 21.48C19.896 21.352 19.92 21.288 19.984 21.288C20.128 21.288 21.344 21.096 23.632 20.712C25.936 20.312 27.2 20.024 27.424 19.848C27.6 19.672 27.984 19.872 28.576 20.448C29.184 21.008 29.416 21.44 29.272 21.744C29.144 22 28.968 22.672 28.744 23.76C28.552 24.704 28.272 25.792 27.904 27.024C27.696 27.744 27.48 28.464 27.256 29.184C27.176 29.504 26.896 30.008 26.416 30.696C25.904 31.4 25.448 31.752 25.048 31.752C24.824 31.752 24.68 31.736 24.616 31.704C24.52 31.672 24.488 31.608 24.52 31.512C24.568 31.368 24.592 31.072 24.592 30.624C24.592 30.192 24.52 29.816 24.376 29.496C24.152 29.112 23.952 28.832 23.776 28.656C23.632 28.512 23.576 28.424 23.608 28.392C23.64 28.36 23.728 28.368 23.872 28.416C24.496 28.576 24.84 28.664 24.904 28.68C25.24 28.776 25.472 28.8 25.6 28.752C25.728 28.688 25.976 28.088 26.344 26.952C26.712 25.768 26.96 24.672 27.088 23.664C27.232 22.56 27.24 21.8 27.112 21.384C26.792 21.24 26.104 21.288 25.048 21.528C24.504 21.688 24.032 21.808 23.632 21.888C23.76 22.048 23.888 22.2 24.016 22.344C24.336 22.824 24.432 23.192 24.304 23.448C24.048 23.864 23.544 24.72 22.792 26.016C21.944 27.424 21.12 28.448 20.32 29.088C19.536 29.648 19.04 29.952 18.832 30C18.768 30 18.728 29.992 18.712 29.976C18.664 29.912 18.752 29.736 18.976 29.448C19.424 28.856 19.872 28.256 20.32 27.648C20.912 26.736 21.472 25.68 22 24.48C22.56 23.184 22.816 22.408 22.768 22.152ZM27.904 17.736C27.568 17.368 26.976 16.584 26.128 15.384C25.376 14.28 24.848 13.632 24.544 13.44C24.256 13.248 24.016 13.136 23.824 13.104C23.6 13.072 23.528 12.96 23.608 12.768C23.656 12.56 23.928 12.408 24.424 12.312C24.936 12.216 25.4 12.376 25.816 12.792L27.472 14.448C28.16 15.104 29.176 15.928 30.52 16.92C31.88 17.912 33.208 18.672 34.504 19.2C35.88 19.76 36.624 20.088 36.736 20.184C36.784 20.2 36.816 20.216 36.832 20.232C36.848 20.248 36.848 20.272 36.832 20.304C36.832 20.32 36.744 20.328 36.568 20.328C36.248 20.296 35.76 20.32 35.104 20.4C34.384 20.448 33.728 20.592 33.136 20.832C32.784 20.992 32.424 21.144 32.056 21.288C31.96 21.336 31.832 21.336 31.672 21.288C31.416 21.112 30.848 20.616 29.968 19.8C29.104 18.968 28.416 18.28 27.904 17.736ZM18.16 19.536C18.784 18.816 19.384 18.064 19.96 17.28C20.6 16.384 20.96 15.752 21.04 15.384C21.136 14.952 21.176 14.696 21.16 14.616C21.16 14.536 21.232 14.496 21.376 14.496C21.424 14.496 21.52 14.512 21.664 14.544C22 14.592 22.4 14.896 22.864 15.456C23.328 16 23.496 16.376 23.368 16.584C23.176 16.808 22.496 17.408 21.328 18.384C19.92 19.504 18.96 20.224 18.448 20.544C17.728 21.024 17.232 21.288 16.96 21.336C16.832 21.352 16.744 21.344 16.696 21.312C16.664 21.264 16.728 21.16 16.888 21C17.32 20.52 17.744 20.032 18.16 19.536ZM50.392 17.88C50.296 17.624 50.272 17.424 50.32 17.28C50.496 16.752 50.688 16.232 50.896 15.72C49.6 16.04 48.76 16.272 48.376 16.416C48.12 16.512 47.944 16.488 47.848 16.344C47.736 16.168 47.664 16.008 47.632 15.864C47.584 15.768 47.568 15.696 47.584 15.648C47.6 15.6 47.648 15.568 47.728 15.552C47.856 15.504 48.096 15.456 48.448 15.408C49.008 15.296 49.56 15.176 50.104 15.048C50.84 14.872 51.288 14.68 51.448 14.472C51.576 14.232 51.928 14.336 52.504 14.784C53.032 15.2 53.168 15.504 52.912 15.696C52.624 15.872 52.096 16.544 51.328 17.712C51.904 17.84 52.192 18.008 52.192 18.216C52.192 18.392 52.144 18.544 52.048 18.672C51.968 18.768 51.696 18.832 51.232 18.864C50.752 18.864 49.68 19.056 48.016 19.44C48.064 19.904 47.968 20.168 47.728 20.232C47.472 20.328 47.296 20.248 47.2 19.992C47.072 19.704 46.976 19.392 46.912 19.056C46.8 18.544 46.64 18.04 46.432 17.544C46.24 17.08 46.056 16.688 45.88 16.368C45.768 16.176 45.752 16.008 45.832 15.864C45.928 15.656 46.168 15.592 46.552 15.672C46.936 15.72 47.2 15.984 47.344 16.464C47.568 17.328 47.728 18 47.824 18.48L50.392 17.88ZM49.168 13.032C48.416 12.376 47.856 11.952 47.488 11.76C47.28 11.664 47.16 11.568 47.128 11.472C47.096 11.376 47.136 11.28 47.248 11.184C47.392 11.056 47.704 10.88 48.184 10.656C48.28 10.608 48.416 10.584 48.592 10.584C48.944 10.584 49.336 10.72 49.768 10.992C50.408 11.392 50.728 11.968 50.728 12.72C52.568 12.48 53.592 12.256 53.8 12.048C53.976 11.824 54.288 11.952 54.736 12.432C55.008 12.736 55.144 12.984 55.144 13.176C55.144 13.24 55.112 13.32 55.048 13.416C54.808 13.592 54.584 13.64 54.376 13.56C54.152 13.448 53.224 13.488 51.592 13.68C49.848 13.856 48.048 14.184 46.192 14.664C44.208 15.176 43.096 15.496 42.856 15.624C42.632 15.736 42.464 15.616 42.352 15.264C42.272 15.056 42.184 14.776 42.088 14.424C42.056 14.392 42.04 14.352 42.04 14.304C42.04 14.16 42.144 14.064 42.352 14.016C42.752 13.936 45.024 13.608 49.168 13.032ZM50.848 25.512C50.944 27.224 50.936 28.472 50.824 29.256C50.68 29.96 50.368 30.688 49.888 31.44C49.44 32.16 49.032 32.52 48.664 32.52H48.568C48.152 32.44 47.912 32.232 47.848 31.896C47.736 31.512 47.6 31.24 47.44 31.08C47.296 30.872 47.008 30.64 46.576 30.384C46.336 30.24 46.2 30.144 46.168 30.096C46.152 30.08 46.152 30.064 46.168 30.048C46.184 30.048 46.208 30.048 46.24 30.048H47.416C48.024 30.048 48.456 30 48.712 29.904C48.936 29.792 49.152 29.488 49.36 28.992C49.568 28.416 49.648 27.328 49.6 25.728C48.592 25.952 47.544 26.24 46.456 26.592C45.592 26.896 44.72 27.192 43.84 27.48C43.456 27.608 43.192 27.536 43.048 27.264C42.856 26.992 42.664 26.72 42.472 26.448C42.344 26.256 42.304 26.128 42.352 26.064C42.384 26.032 42.432 26.008 42.496 25.992C42.672 25.992 43.12 25.928 43.84 25.8C44.256 25.736 46.16 25.384 49.552 24.744V24.672C49.456 24.016 49.232 23.592 48.88 23.4C48.528 23.192 48.312 22.992 48.232 22.8C48.136 22.64 48.216 22.488 48.472 22.344C48.728 22.2 49 22.192 49.288 22.32C49.592 22.48 49.856 22.688 50.08 22.944L51.808 20.544C48.192 21.712 46.312 22.488 46.168 22.872C46.04 23.24 45.872 23.424 45.664 23.424C45.472 23.424 45.184 23.16 44.8 22.632C44.432 22.104 44.344 21.792 44.536 21.696C44.712 21.648 45.2 21.56 46 21.432C47.712 21.08 49.784 20.576 52.216 19.92C52.488 19.52 52.68 19.296 52.792 19.248C52.936 19.152 53.328 19.344 53.968 19.824C54.624 20.288 54.864 20.688 54.688 21.024C54.48 21.344 54.12 21.456 53.608 21.36C53.064 21.264 51.96 21.88 50.296 23.208C50.456 23.464 50.608 23.888 50.752 24.48V24.504L51.52 24.336C53.152 23.968 54.104 23.712 54.376 23.568C54.6 23.392 55.08 23.504 55.816 23.904C56.344 24.192 56.632 24.48 56.68 24.768C56.68 24.864 56.656 24.96 56.608 25.056C56.512 25.232 56.424 25.368 56.344 25.464C56.264 25.544 56.192 25.576 56.128 25.56C55.776 25.496 55.424 25.424 55.072 25.344C54.544 25.168 53.432 25.176 51.736 25.368C51.432 25.4 51.136 25.448 50.848 25.512ZM25.552 39.848C25.744 39.816 26.504 39.72 27.832 39.56C30.568 39.192 32.04 38.936 32.248 38.792C32.456 38.6 32.824 38.784 33.352 39.344C33.784 39.824 34 40.192 34 40.448C34 40.496 33.992 40.544 33.976 40.592C33.928 40.752 33.872 40.864 33.808 40.928C33.76 40.992 33.696 41.008 33.616 40.976C33.6 40.976 32.976 40.88 31.744 40.688C30.592 40.544 28.944 40.552 26.8 40.712C26.112 40.76 25.448 40.832 24.808 40.928C23.672 42.448 22.88 43.496 22.432 44.072C21.584 45.192 20.752 46.12 19.936 46.856C19.264 47.416 18.736 47.784 18.352 47.96C18.192 48.024 18.096 48.04 18.064 48.008C18.032 47.976 18.096 47.872 18.256 47.696C18.416 47.52 18.912 46.92 19.744 45.896C20.336 45.112 21.048 44.056 21.88 42.728C22.2 42.216 22.52 41.704 22.84 41.192C21.992 41.32 21.088 41.488 20.128 41.696C17.936 42.16 16.736 42.44 16.528 42.536C16.448 42.568 16.36 42.536 16.264 42.44C16.184 42.328 16.088 42.136 15.976 41.864C15.848 41.544 15.784 41.304 15.784 41.144C15.784 41.064 15.8 41.024 15.832 41.024C15.88 41.024 17.224 40.864 19.864 40.544C20.248 40.496 21.44 40.352 23.44 40.112C23.488 40.016 23.536 39.92 23.584 39.824C23.792 39.36 23.848 38.904 23.752 38.456C23.624 37.944 23.456 37.568 23.248 37.328C23.12 37.168 23.04 37.048 23.008 36.968C22.976 36.872 23 36.808 23.08 36.776C23.24 36.68 23.504 36.624 23.872 36.608C23.968 36.608 24.064 36.608 24.16 36.608C24.416 36.608 24.592 36.624 24.688 36.656C24.848 36.688 25.16 37 25.624 37.592C26.04 38.152 26.176 38.624 26.032 39.008C25.856 39.36 25.696 39.64 25.552 39.848ZM27.136 44.6C26.768 44.6 26.32 44.68 25.792 44.84C25.2 44.968 24.76 45.08 24.472 45.176C24.2 45.256 23.992 45.064 23.848 44.6C23.752 44.36 23.696 44.184 23.68 44.072C23.664 43.96 23.704 43.904 23.8 43.904C24.392 43.792 24.984 43.68 25.576 43.568C26.552 43.392 27.152 43.208 27.376 43.016C27.504 42.856 27.896 43.016 28.552 43.496C29.176 44.008 29.408 44.424 29.248 44.744C29.088 45.112 29.08 46.752 29.224 49.664C29.4 53.168 29.488 54.952 29.488 55.016C29.536 55.624 29.408 56.336 29.104 57.152C28.8 57.936 28.456 58.392 28.072 58.52C27.992 58.536 27.912 58.544 27.832 58.544C27.624 58.544 27.52 58.456 27.52 58.28C27.52 58.104 27.456 57.8 27.328 57.368C27.104 56.84 26.944 56.488 26.848 56.312C26.592 55.96 26.328 55.72 26.056 55.592C25.944 55.528 25.864 55.48 25.816 55.448C25.768 55.4 25.752 55.368 25.768 55.352C25.784 55.336 25.824 55.328 25.888 55.328C26.24 55.328 26.592 55.328 26.944 55.328C27.424 55.328 27.688 55.28 27.736 55.184C27.8 55.088 27.848 54.864 27.88 54.512C27.88 53.952 27.824 52.304 27.712 49.568C27.616 46.592 27.424 44.936 27.136 44.6ZM23.296 47.744C24.064 47.536 24.608 47.368 24.928 47.24C25.264 47.112 25.496 47 25.624 46.904C25.704 46.808 25.936 46.888 26.32 47.144C26.624 47.432 26.704 47.656 26.56 47.816C26.384 47.992 26.04 48.128 25.528 48.224C25.128 48.304 24.6 48.456 23.944 48.68C23.64 48.776 23.416 48.76 23.272 48.632C23.272 48.856 23.264 49.072 23.248 49.28C23.2 49.84 23.176 50.352 23.176 50.816C24.088 50.576 24.744 50.368 25.144 50.192C25.432 50.032 25.616 49.912 25.696 49.832C25.808 49.736 26.032 49.832 26.368 50.12C26.672 50.392 26.824 50.608 26.824 50.768C26.824 50.96 26.736 51.056 26.56 51.056C26.288 51.056 25.984 51.096 25.648 51.176C25.376 51.224 24.536 51.472 23.128 51.92C23.112 52.432 23.104 53.064 23.104 53.816C23.104 54.792 23.008 55.6 22.816 56.24C22.592 56.88 22.36 57.176 22.12 57.128C21.832 57.08 21.664 56.776 21.616 56.216C21.52 55.672 21.536 55.296 21.664 55.088C21.76 54.928 21.856 54.224 21.952 52.976C22.032 51.472 22.112 49.96 22.192 48.44C22.272 46.584 22.288 45.56 22.24 45.368C22.192 45.208 22.136 45.04 22.072 44.864C22.056 44.8 22.072 44.76 22.12 44.744C22.184 44.728 22.288 44.72 22.432 44.72C22.72 44.72 22.904 44.808 22.984 44.984C23.08 45.24 23.176 45.488 23.272 45.728C23.32 45.936 23.328 46.608 23.296 47.744ZM43.648 41.048C42.272 39.784 41.576 39.144 41.56 39.128C41.496 39.08 41.48 39.016 41.512 38.936C41.56 38.856 41.648 38.768 41.776 38.672C42.224 38.4 42.928 38.344 43.888 38.504C44.224 38.568 44.648 38.968 45.16 39.704C45.64 40.424 45.792 40.928 45.616 41.216C45.456 41.504 45.24 41.688 44.968 41.768C44.712 41.832 44.272 41.592 43.648 41.048ZM43.312 45.44C41.52 46.256 40.496 46.8 40.24 47.072C39.872 47.408 39.656 47.592 39.592 47.624C39.512 47.688 39.376 47.568 39.184 47.264C39.12 47.168 38.888 46.776 38.488 46.088C38.392 45.928 38.344 45.792 38.344 45.68C38.344 45.504 38.504 45.424 38.824 45.44C39.288 45.456 40.248 45.224 41.704 44.744C42.52 44.456 43.336 44.168 44.152 43.88C44.344 43.784 44.512 43.608 44.656 43.352C44.8 43.096 45.28 43.192 46.096 43.64C46.496 43.848 46.76 44.04 46.888 44.216C47.032 44.376 47.032 44.504 46.888 44.6C46.584 44.808 46.272 45.016 45.952 45.224C45.6 45.448 44.92 46.112 43.912 47.216L44.08 47.552C44.88 47.552 45.432 47.576 45.736 47.624C46.056 47.704 46.368 47.992 46.672 48.488C46.976 48.952 47.088 49.4 47.008 49.832C46.928 50.264 46.792 50.504 46.6 50.552C46.408 50.6 46.144 50.392 45.808 49.928C45.488 49.448 45.16 49.024 44.824 48.656C44.504 48.32 44.232 48.112 44.008 48.032C43.912 51.904 43.768 54.512 43.576 55.856C43.352 57.376 43.128 58.152 42.904 58.184C42.696 58.168 42.512 57.992 42.352 57.656C42.256 57.464 42.192 57.336 42.16 57.272C41.888 56.648 41.832 56.232 41.992 56.024C42.168 55.752 42.28 54.96 42.328 53.648C42.376 52.256 42.376 50.712 42.328 49.016C41.528 49.848 40.72 50.672 39.904 51.488C39.488 51.856 39.192 52.048 39.016 52.064C38.92 52.08 38.864 52.072 38.848 52.04C38.832 52.008 38.856 51.944 38.92 51.848C39.256 51.416 39.592 50.984 39.928 50.552C40.456 49.8 41.584 48.096 43.312 45.44ZM51.664 42.2C51.296 42.888 50.856 44.208 50.344 46.16C49.784 48.192 49.728 50.008 50.176 51.608C50.624 53.24 51.912 53.96 54.04 53.768C56.184 53.56 57.488 53.288 57.952 52.952C58.432 52.6 58.76 52.112 58.936 51.488C59.016 51.152 59.08 50.976 59.128 50.96C59.192 50.944 59.232 51.064 59.248 51.32C59.296 51.832 59.424 52.168 59.632 52.328C59.856 52.552 60.08 52.744 60.304 52.904C60.464 53.032 60.544 53.168 60.544 53.312C60.432 53.728 60.112 54.112 59.584 54.464C58.608 55.024 57 55.312 54.76 55.328C51.96 55.36 50.176 54.584 49.408 53C48.624 51.448 48.472 49.528 48.952 47.24C49.368 45.16 49.76 43.52 50.128 42.32C50.448 41.232 50.584 40.528 50.536 40.208C50.456 39.856 50.456 39.616 50.536 39.488C50.584 39.344 50.816 39.312 51.232 39.392C51.648 39.44 52.008 39.624 52.312 39.944C52.632 40.248 52.712 40.512 52.552 40.736C52.2 41.296 51.904 41.784 51.664 42.2Z" fill="white"/>
<defs>
<filter id="filter0_d" x="0" y="0" width="167" height="74" filterUnits="userSpaceOnUse" color-interpolation-filters="sRGB">
<feFlood flood-opacity="0" result="BackgroundImageFix"/>
<feColorMatrix in="SourceAlpha" type="matrix" values="0 0 0 0 0 0 0 0 0 0 0 0 0 0 0 0 0 0 127 0"/>
<feOffset dy="2"/>
<feGaussianBlur stdDeviation="1"/>
<feColorMatrix type="matrix" values="0 0 0 0 0 0 0 0 0 0 0 0 0 0 0 0 0 0 0.25 0"/>
<feBlend mode="normal" in2="BackgroundImageFix" result="effect1_dropShadow"/>
<feBlend mode="normal" in="SourceGraphic" in2="effect1_dropShadow" result="shape"/>
</filter>
<linearGradient id="paint0_linear" x1="165" y1="0" x2="-15" y2="0" gradientUnits="userSpaceOnUse">
<stop stop-color="#FFE082"/>
<stop offset="0.973459" stop-color="#FF0E0E"/>
</linearGradient>
<linearGradient id="paint1_linear" x1="102.177" y1="45.8276" x2="151.72" y2="45.8276" gradientUnits="userSpaceOnUse">
<stop stop-color="#FA231E"/>
<stop offset="0.6312" stop-color="#FF5F5C"/>
<stop offset="0.6354" stop-color="#F7474C"/>
<stop offset="0.6417" stop-color="#EC2A38"/>
<stop offset="0.6471" stop-color="#E5182C"/>
<stop offset="0.651" stop-color="#E31128"/>
<stop offset="0.749" stop-color="#E71426"/>
<stop offset="0.8423" stop-color="#F21D21"/>
<stop offset="0.8839" stop-color="#FA231E"/>
</linearGradient>
<linearGradient id="paint2_linear" x1="102.177" y1="58.8804" x2="151.72" y2="58.8804" gradientUnits="userSpaceOnUse">
<stop stop-color="#C20000"/>
<stop offset="0.4081" stop-color="#E3100D"/>
<stop offset="0.6312" stop-color="#FF5F5C"/>
<stop offset="0.6354" stop-color="#F7474C"/>
<stop offset="0.6417" stop-color="#EC2A38"/>
<stop offset="0.6471" stop-color="#E5182C"/>
<stop offset="0.651" stop-color="#E31128"/>
<stop offset="0.749" stop-color="#E71426"/>
<stop offset="0.8423" stop-color="#F21D21"/>
<stop offset="0.8839" stop-color="#FA231E"/>
</linearGradient>
<linearGradient id="paint3_linear" x1="123.27" y1="34.0993" x2="131.915" y2="18.3003" gradientUnits="userSpaceOnUse">
<stop stop-color="#FA231E"/>
<stop offset="1" stop-color="#C60202"/>
</linearGradient>
<linearGradient id="paint4_linear" x1="100.141" y1="34.7891" x2="153.719" y2="34.7891" gradientUnits="userSpaceOnUse">
<stop stop-color="#FA231E"/>
<stop offset="0.6312" stop-color="#FF5F5C"/>
<stop offset="0.6354" stop-color="#F7474C"/>
<stop offset="0.6417" stop-color="#EC2A38"/>
<stop offset="0.6471" stop-color="#E5182C"/>
<stop offset="0.651" stop-color="#E31128"/>
<stop offset="0.749" stop-color="#E71426"/>
<stop offset="0.8423" stop-color="#F21D21"/>
<stop offset="0.8839" stop-color="#FA231E"/>
</linearGradient>
<linearGradient id="paint5_linear" x1="100.141" y1="37.7301" x2="153.719" y2="37.7301" gradientUnits="userSpaceOnUse">
<stop stop-color="#C20000"/>
<stop offset="0.4081" stop-color="#E3100D"/>
<stop offset="0.6312" stop-color="#FF5F5C"/>
<stop offset="0.6354" stop-color="#F7474C"/>
<stop offset="0.6417" stop-color="#EC2A38"/>
<stop offset="0.6471" stop-color="#E5182C"/>
<stop offset="0.651" stop-color="#E31128"/>
<stop offset="0.749" stop-color="#E71426"/>
<stop offset="0.8423" stop-color="#F21D21"/>
<stop offset="0.8839" stop-color="#FA231E"/>
</linearGradient>
<linearGradient id="paint6_linear" x1="123.018" y1="34.1575" x2="132.212" y2="17.3546" gradientUnits="userSpaceOnUse">
<stop stop-color="#FA231E"/>
<stop offset="1" stop-color="#C60202"/>
</linearGradient>
<linearGradient id="paint7_linear" x1="119.705" y1="32.3194" x2="113.678" y2="60.6735" gradientUnits="userSpaceOnUse">
<stop stop-color="#E6CF3C"/>
<stop offset="0.00294646" stop-color="#E9D44B"/>
<stop offset="0.0111" stop-color="#EFE170"/>
<stop offset="0.0196" stop-color="#F5EB8F"/>
<stop offset="0.0285" stop-color="#F9F3A6"/>
<stop offset="0.0379" stop-color="#FCF9B7"/>
<stop offset="0.0483" stop-color="#FDFCC1"/>
<stop offset="0.0615" stop-color="#FEFDC4"/>
<stop offset="0.0675" stop-color="#F9F4AF"/>
<stop offset="0.0816" stop-color="#F0E282"/>
<stop offset="0.0952" stop-color="#E9D45E"/>
<stop offset="0.1079" stop-color="#E3CA45"/>
<stop offset="0.1194" stop-color="#E0C435"/>
<stop offset="0.1286" stop-color="#DFC230"/>
<stop offset="0.4762" stop-color="#F5C430"/>
<stop offset="0.7189" stop-color="#FFC530"/>
<stop offset="1" stop-color="#DD9A2D"/>
</linearGradient>
<linearGradient id="paint8_linear" x1="138.796" y1="33.5703" x2="150.358" y2="54.4299" gradientUnits="userSpaceOnUse">
<stop stop-color="#E6CF3C"/>
<stop offset="0.00139146" stop-color="#E9D44B"/>
<stop offset="0.00521994" stop-color="#EFE170"/>
<stop offset="0.00923749" stop-color="#F5EB8F"/>
<stop offset="0.0134" stop-color="#F9F3A6"/>
<stop offset="0.0179" stop-color="#FCF9B7"/>
<stop offset="0.0228" stop-color="#FDFCC1"/>
<stop offset="0.029" stop-color="#FEFDC4"/>
<stop offset="0.0336" stop-color="#F6F0AC"/>
<stop offset="0.0431" stop-color="#E7D77F"/>
<stop offset="0.0522" stop-color="#DCC35B"/>
<stop offset="0.0607" stop-color="#D4B542"/>
<stop offset="0.0684" stop-color="#CFAD32"/>
<stop offset="0.0746" stop-color="#CDAA2D"/>
<stop offset="0.3815" stop-color="#DFBB2F"/>
<stop offset="0.6378" stop-color="#E9C530"/>
<stop offset="1" stop-color="#DD9A2D"/>
</linearGradient>
<linearGradient id="paint9_linear" x1="136.222" y1="35.0565" x2="147.76" y2="55.8729" gradientUnits="userSpaceOnUse">
<stop stop-color="#E6CF3C"/>
<stop offset="0.00139146" stop-color="#E9D44B"/>
<stop offset="0.00521994" stop-color="#EFE170"/>
<stop offset="0.00923749" stop-color="#F5EB8F"/>
<stop offset="0.0134" stop-color="#F9F3A6"/>
<stop offset="0.0179" stop-color="#FCF9B7"/>
<stop offset="0.0228" stop-color="#FDFCC1"/>
<stop offset="0.029" stop-color="#FEFDC4"/>
<stop offset="0.0336" stop-color="#F6F0AC"/>
<stop offset="0.0431" stop-color="#E7D77F"/>
<stop offset="0.0522" stop-color="#DCC35B"/>
<stop offset="0.0607" stop-color="#D4B542"/>
<stop offset="0.0684" stop-color="#CFAD32"/>
<stop offset="0.0746" stop-color="#CDAA2D"/>
<stop offset="0.3815" stop-color="#DFBB2F"/>
<stop offset="0.6378" stop-color="#E9C530"/>
<stop offset="1" stop-color="#DD9A2D"/>
</linearGradient>
<linearGradient id="paint10_linear" x1="141.211" y1="32.2296" x2="152.464" y2="52.5302" gradientUnits="userSpaceOnUse">
<stop stop-color="#E6CF3C"/>
<stop offset="0.00139146" stop-color="#E9D44B"/>
<stop offset="0.00521994" stop-color="#EFE170"/>
<stop offset="0.00923749" stop-color="#F5EB8F"/>
<stop offset="0.0134" stop-color="#F9F3A6"/>
<stop offset="0.0179" stop-color="#FCF9B7"/>
<stop offset="0.0228" stop-color="#FDFCC1"/>
<stop offset="0.029" stop-color="#FEFDC4"/>
<stop offset="0.0336" stop-color="#F6F0AC"/>
<stop offset="0.0431" stop-color="#E7D77F"/>
<stop offset="0.0522" stop-color="#DCC35B"/>
<stop offset="0.0607" stop-color="#D4B542"/>
<stop offset="0.0684" stop-color="#CFAD32"/>
<stop offset="0.0746" stop-color="#CDAA2D"/>
<stop offset="0.3815" stop-color="#DFBB2F"/>
<stop offset="0.6378" stop-color="#E9C530"/>
<stop offset="1" stop-color="#DD9A2D"/>
</linearGradient>
<linearGradient id="paint11_linear" x1="158.555" y1="22.1115" x2="140.11" y2="29.9275" gradientUnits="userSpaceOnUse">
<stop stop-color="#E6CF3C"/>
<stop offset="0.0106" stop-color="#E9D44B"/>
<stop offset="0.0399" stop-color="#EFE170"/>
<stop offset="0.0706" stop-color="#F5EB8F"/>
<stop offset="0.1027" stop-color="#F9F3A6"/>
<stop offset="0.1369" stop-color="#FCF9B7"/>
<stop offset="0.1744" stop-color="#FDFCC1"/>
<stop offset="0.2219" stop-color="#FEFDC4"/>
<stop offset="0.2595" stop-color="#F6F0AC"/>
<stop offset="0.3376" stop-color="#E7D77F"/>
<stop offset="0.4126" stop-color="#DCC35B"/>
<stop offset="0.4828" stop-color="#D4B542"/>
<stop offset="0.5464" stop-color="#CFAD32"/>
<stop offset="0.5973" stop-color="#CDAA2D"/>
<stop offset="0.6247" stop-color="#D1AB25"/>
<stop offset="0.726" stop-color="#DFAD0A"/>
<stop offset="0.7858" stop-color="#E4AE00"/>
<stop offset="1" stop-color="#DD9A2D"/>
</linearGradient>
<linearGradient id="paint12_linear" x1="98.776" y1="15.7658" x2="114.755" y2="29.0783" gradientUnits="userSpaceOnUse">
<stop stop-color="#E6CF3C"/>
<stop offset="0.0106" stop-color="#E9D44B"/>
<stop offset="0.0399" stop-color="#EFE170"/>
<stop offset="0.0706" stop-color="#F5EB8F"/>
<stop offset="0.1027" stop-color="#F9F3A6"/>
<stop offset="0.1369" stop-color="#FCF9B7"/>
<stop offset="0.1744" stop-color="#FDFCC1"/>
<stop offset="0.2219" stop-color="#FEFDC4"/>
<stop offset="0.2595" stop-color="#F6F0AC"/>
<stop offset="0.3376" stop-color="#E7D77F"/>
<stop offset="0.4126" stop-color="#DCC35B"/>
<stop offset="0.4828" stop-color="#D4B542"/>
<stop offset="0.5464" stop-color="#CFAD32"/>
<stop offset="0.5973" stop-color="#CDAA2D"/>
<stop offset="0.6247" stop-color="#D1A525"/>
<stop offset="0.726" stop-color="#DF940A"/>
<stop offset="0.7858" stop-color="#E48E00"/>
<stop offset="1" stop-color="#D65700"/>
</linearGradient>
<linearGradient id="paint13_linear" x1="103.628" y1="39.3839" x2="129.466" y2="34.0086" gradientUnits="userSpaceOnUse">
<stop offset="0.1081" stop-color="#E6CF3C"/>
<stop offset="0.1138" stop-color="#E5CA38"/>
<stop offset="0.1471" stop-color="#E3B324"/>
<stop offset="0.1827" stop-color="#E1A216"/>
<stop offset="0.2219" stop-color="#DF980E"/>
<stop offset="0.2714" stop-color="#DF950B"/>
<stop offset="0.308" stop-color="#E6AE38"/>
<stop offset="0.3618" stop-color="#F1D074"/>
<stop offset="0.4077" stop-color="#F8E89F"/>
<stop offset="0.4432" stop-color="#FCF7BA"/>
<stop offset="0.4642" stop-color="#FEFDC4"/>
<stop offset="0.4752" stop-color="#FCFAC1"/>
<stop offset="0.6044" stop-color="#EBDC9C"/>
<stop offset="0.673" stop-color="#E4D18E"/>
<stop offset="0.7493" stop-color="#E4AE43"/>
<stop offset="0.8056" stop-color="#E49713"/>
<stop offset="0.8335" stop-color="#E48E00"/>
<stop offset="1" stop-color="#D65700"/>
</linearGradient>
<linearGradient id="paint14_linear" x1="111.352" y1="7.1743" x2="122.399" y2="21.3471" gradientUnits="userSpaceOnUse">
<stop stop-color="#E6CF3C"/>
<stop offset="0.0229" stop-color="#E8D24B"/>
<stop offset="0.0582" stop-color="#EAD65C"/>
<stop offset="0.0972" stop-color="#EBD866"/>
<stop offset="0.1464" stop-color="#EBD969"/>
<stop offset="0.1732" stop-color="#F0E38A"/>
<stop offset="0.2073" stop-color="#F6EEAD"/>
<stop offset="0.2395" stop-color="#FBF6C6"/>
<stop offset="0.2686" stop-color="#FDFBD6"/>
<stop offset="0.2919" stop-color="#FEFDDB"/>
<stop offset="0.3331" stop-color="#F6EEB1"/>
<stop offset="0.4059" stop-color="#EAD76C"/>
<stop offset="0.4585" stop-color="#E2C841"/>
<stop offset="0.4852" stop-color="#DFC230"/>
<stop offset="0.6628" stop-color="#F5C430"/>
<stop offset="0.7868" stop-color="#FFC530"/>
<stop offset="1" stop-color="#DD9A2D"/>
</linearGradient>
<linearGradient id="paint15_linear" x1="121.755" y1="14.6679" x2="116.77" y2="23.7065" gradientUnits="userSpaceOnUse">
<stop stop-color="#E6CF3C"/>
<stop offset="0.0181" stop-color="#E8D24B"/>
<stop offset="0.046" stop-color="#EAD65C"/>
<stop offset="0.0767" stop-color="#EBD866"/>
<stop offset="0.1156" stop-color="#EBD969"/>
<stop offset="0.1316" stop-color="#F0E285"/>
<stop offset="0.1512" stop-color="#F4EAA0"/>
<stop offset="0.1738" stop-color="#F8F1B6"/>
<stop offset="0.2002" stop-color="#FBF7C7"/>
<stop offset="0.2328" stop-color="#FDFAD2"/>
<stop offset="0.2785" stop-color="#FEFCD9"/>
<stop offset="0.4054" stop-color="#FEFDDB"/>
<stop offset="0.4139" stop-color="#FBF8CB"/>
<stop offset="0.4389" stop-color="#F4E9A2"/>
<stop offset="0.4655" stop-color="#EDDD7F"/>
<stop offset="0.4933" stop-color="#E8D362"/>
<stop offset="0.523" stop-color="#E4CC4C"/>
<stop offset="0.5552" stop-color="#E1C63C"/>
<stop offset="0.592" stop-color="#E0C333"/>
<stop offset="0.6431" stop-color="#DFC230"/>
<stop offset="0.7038" stop-color="#DFBE30"/>
<stop offset="0.7599" stop-color="#DEB32F"/>
<stop offset="0.8141" stop-color="#DDA02D"/>
<stop offset="0.8288" stop-color="#DD9A2D"/>
<stop offset="1" stop-color="#DD5700"/>
</linearGradient>
<linearGradient id="paint16_linear" x1="120.37" y1="4.96805" x2="124.972" y2="20.4026" gradientUnits="userSpaceOnUse">
<stop stop-color="#E6CF3C"/>
<stop offset="0.0208" stop-color="#E8D24B"/>
<stop offset="0.0529" stop-color="#EAD65C"/>
<stop offset="0.0883" stop-color="#EBD866"/>
<stop offset="0.133" stop-color="#EBD969"/>
<stop offset="0.1397" stop-color="#F0E285"/>
<stop offset="0.1479" stop-color="#F4EAA0"/>
<stop offset="0.1574" stop-color="#F8F1B6"/>
<stop offset="0.1684" stop-color="#FBF7C7"/>
<stop offset="0.1821" stop-color="#FDFAD2"/>
<stop offset="0.2013" stop-color="#FEFCD9"/>
<stop offset="0.2545" stop-color="#FEFDDB"/>
<stop offset="0.3026" stop-color="#F5E3AE"/>
<stop offset="0.3821" stop-color="#E8BC69"/>
<stop offset="0.4396" stop-color="#E0A33E"/>
<stop offset="0.4688" stop-color="#DD9A2D"/>
<stop offset="0.7635" stop-color="#DFC230"/>
<stop offset="0.8096" stop-color="#DFBE30"/>
<stop offset="0.8522" stop-color="#DEB32F"/>
<stop offset="0.8933" stop-color="#DDA02D"/>
<stop offset="0.9045" stop-color="#DD9A2D"/>
</linearGradient>
<linearGradient id="paint17_linear" x1="126.078" y1="3.76774" x2="126.324" y2="19.8718" gradientUnits="userSpaceOnUse">
<stop stop-color="#E6CF3C"/>
<stop offset="0.0208" stop-color="#E8D24B"/>
<stop offset="0.0529" stop-color="#EAD65C"/>
<stop offset="0.0883" stop-color="#EBD866"/>
<stop offset="0.133" stop-color="#EBD969"/>
<stop offset="0.1397" stop-color="#F0E285"/>
<stop offset="0.1479" stop-color="#F4EAA0"/>
<stop offset="0.1574" stop-color="#F8F1B6"/>
<stop offset="0.1684" stop-color="#FBF7C7"/>
<stop offset="0.1821" stop-color="#FDFAD2"/>
<stop offset="0.2013" stop-color="#FEFCD9"/>
<stop offset="0.2545" stop-color="#FEFDDB"/>
<stop offset="0.3026" stop-color="#F5E3AE"/>
<stop offset="0.3821" stop-color="#E8BC69"/>
<stop offset="0.4396" stop-color="#E0A33E"/>
<stop offset="0.4688" stop-color="#DD9A2D"/>
<stop offset="0.7635" stop-color="#DFC230"/>
<stop offset="0.8096" stop-color="#DFBE30"/>
<stop offset="0.8522" stop-color="#DEB32F"/>
<stop offset="0.8933" stop-color="#DDA02D"/>
<stop offset="0.9045" stop-color="#DD9A2D"/>
</linearGradient>
<linearGradient id="paint18_linear" x1="139.498" y1="16.1696" x2="131.369" y2="8.87475" gradientUnits="userSpaceOnUse">
<stop stop-color="#E6CF3C"/>
<stop offset="0.0208" stop-color="#E8D24B"/>
<stop offset="0.0529" stop-color="#EAD65C"/>
<stop offset="0.0883" stop-color="#EBD866"/>
<stop offset="0.133" stop-color="#EBD969"/>
<stop offset="0.1397" stop-color="#F0E285"/>
<stop offset="0.1479" stop-color="#F4EAA0"/>
<stop offset="0.1574" stop-color="#F8F1B6"/>
<stop offset="0.1684" stop-color="#FBF7C7"/>
<stop offset="0.1821" stop-color="#FDFAD2"/>
<stop offset="0.2013" stop-color="#FEFCD9"/>
<stop offset="0.2545" stop-color="#FEFDDB"/>
<stop offset="0.3026" stop-color="#F5E3AE"/>
<stop offset="0.3821" stop-color="#E8BC69"/>
<stop offset="0.4396" stop-color="#E0A33E"/>
<stop offset="0.4688" stop-color="#DD9A2D"/>
<stop offset="0.7635" stop-color="#DFC230"/>
<stop offset="0.8096" stop-color="#DFBE30"/>
<stop offset="0.8522" stop-color="#DEB32F"/>
<stop offset="0.8933" stop-color="#DDA02D"/>
<stop offset="0.9045" stop-color="#DD9A2D"/>
</linearGradient>
<linearGradient id="paint19_linear" x1="143.569" y1="12.426" x2="141.781" y2="19.6235" gradientUnits="userSpaceOnUse">
<stop stop-color="#E6CF3C"/>
<stop offset="0.0385" stop-color="#E8D24B"/>
<stop offset="0.0978" stop-color="#EAD65C"/>
<stop offset="0.1632" stop-color="#EBD866"/>
<stop offset="0.2459" stop-color="#EBD969"/>
<stop offset="0.2789" stop-color="#F0E38A"/>
<stop offset="0.321" stop-color="#F6EEAD"/>
<stop offset="0.3607" stop-color="#FBF6C6"/>
<stop offset="0.3966" stop-color="#FDFBD6"/>
<stop offset="0.4254" stop-color="#FEFDDB"/>
<stop offset="0.4622" stop-color="#F6EEB1"/>
<stop offset="0.5272" stop-color="#EAD76C"/>
<stop offset="0.5741" stop-color="#E2C841"/>
<stop offset="0.598" stop-color="#DFC230"/>
<stop offset="0.6692" stop-color="#F5C430"/>
<stop offset="0.7189" stop-color="#FFC530"/>
<stop offset="1" stop-color="#DD9A2D"/>
</linearGradient>
<linearGradient id="paint20_linear" x1="131.668" y1="6.56317" x2="126.567" y2="24.3503" gradientUnits="userSpaceOnUse">
<stop stop-color="#E6CF3C"/>
<stop offset="0.0208" stop-color="#E8D24B"/>
<stop offset="0.0529" stop-color="#EAD65C"/>
<stop offset="0.0883" stop-color="#EBD866"/>
<stop offset="0.133" stop-color="#EBD969"/>
<stop offset="0.1397" stop-color="#F0E285"/>
<stop offset="0.1479" stop-color="#F4EAA0"/>
<stop offset="0.1574" stop-color="#F8F1B6"/>
<stop offset="0.1684" stop-color="#FBF7C7"/>
<stop offset="0.1821" stop-color="#FDFAD2"/>
<stop offset="0.2013" stop-color="#FEFCD9"/>
<stop offset="0.2545" stop-color="#FEFDDB"/>
<stop offset="0.3026" stop-color="#F5E3AE"/>
<stop offset="0.3821" stop-color="#E8BC69"/>
<stop offset="0.4396" stop-color="#E0A33E"/>
<stop offset="0.4688" stop-color="#DD9A2D"/>
<stop offset="0.7635" stop-color="#DFC230"/>
<stop offset="0.8096" stop-color="#DFBE30"/>
<stop offset="0.8522" stop-color="#DEB32F"/>
<stop offset="0.8933" stop-color="#DDA02D"/>
<stop offset="0.9045" stop-color="#DD9A2D"/>
</linearGradient>
<linearGradient id="paint21_linear" x1="131.07" y1="6.69694" x2="126.045" y2="24.2208" gradientUnits="userSpaceOnUse">
<stop offset="0.1286" stop-color="#DFC230"/>
<stop offset="0.324" stop-color="#F5C430"/>
<stop offset="0.4604" stop-color="#FFC530"/>
<stop offset="1" stop-color="#DD9A2D"/>
</linearGradient>
<linearGradient id="paint22_linear" x1="134.784" y1="9.31824" x2="132.7" y2="17.8636" gradientUnits="userSpaceOnUse">
<stop offset="0.1286" stop-color="#DFC230"/>
<stop offset="0.324" stop-color="#F5C430"/>
<stop offset="0.4604" stop-color="#FFC530"/>
<stop offset="1" stop-color="#DD9A2D"/>
</linearGradient>
<linearGradient id="paint23_linear" x1="134.57" y1="9.27172" x2="132.476" y2="17.8581" gradientUnits="userSpaceOnUse">
<stop offset="0.1286" stop-color="#DFC230"/>
<stop offset="0.324" stop-color="#F5C430"/>
<stop offset="0.4604" stop-color="#FFC530"/>
<stop offset="1" stop-color="#DD9A2D"/>
</linearGradient>
<linearGradient id="paint24_linear" x1="140.711" y1="10.9483" x2="133.504" y2="27.8802" gradientUnits="userSpaceOnUse">
<stop stop-color="#E6CF3C"/>
<stop offset="0.0208" stop-color="#E8D24B"/>
<stop offset="0.0529" stop-color="#EAD65C"/>
<stop offset="0.0883" stop-color="#EBD866"/>
<stop offset="0.133" stop-color="#EBD969"/>
<stop offset="0.1397" stop-color="#F0E285"/>
<stop offset="0.1479" stop-color="#F4EAA0"/>
<stop offset="0.1574" stop-color="#F8F1B6"/>
<stop offset="0.1684" stop-color="#FBF7C7"/>
<stop offset="0.1821" stop-color="#FDFAD2"/>
<stop offset="0.2013" stop-color="#FEFCD9"/>
<stop offset="0.2545" stop-color="#FEFDDB"/>
<stop offset="0.3026" stop-color="#F5E3AE"/>
<stop offset="0.3821" stop-color="#E8BC69"/>
<stop offset="0.4396" stop-color="#E0A33E"/>
<stop offset="0.4688" stop-color="#DD9A2D"/>
<stop offset="0.7635" stop-color="#DFC230"/>
<stop offset="0.8096" stop-color="#DFBE30"/>
<stop offset="0.8522" stop-color="#DEB32F"/>
<stop offset="0.8933" stop-color="#DDA02D"/>
<stop offset="0.9045" stop-color="#DD9A2D"/>
</linearGradient>
<linearGradient id="paint25_linear" x1="141.122" y1="11.5294" x2="134.051" y2="28.1403" gradientUnits="userSpaceOnUse">
<stop offset="0.1286" stop-color="#DFC230"/>
<stop offset="0.324" stop-color="#F5C430"/>
<stop offset="0.4604" stop-color="#FFC530"/>
<stop offset="1" stop-color="#DD9A2D"/>
</linearGradient>
<linearGradient id="paint26_linear" x1="136.633" y1="11.1505" x2="132.89" y2="19.0505" gradientUnits="userSpaceOnUse">
<stop offset="0.1286" stop-color="#DFC230"/>
<stop offset="0.324" stop-color="#F5C430"/>
<stop offset="0.4604" stop-color="#FFC530"/>
<stop offset="1" stop-color="#DD9A2D"/>
</linearGradient>
<linearGradient id="paint27_linear" x1="136.815" y1="11.2399" x2="133.053" y2="19.1808" gradientUnits="userSpaceOnUse">
<stop offset="0.1286" stop-color="#DFC230"/>
<stop offset="0.324" stop-color="#F5C430"/>
<stop offset="0.4604" stop-color="#FFC530"/>
<stop offset="1" stop-color="#DD9A2D"/>
</linearGradient>
<linearGradient id="paint28_linear" x1="109.952" y1="13.4415" x2="113.989" y2="20.1596" gradientUnits="userSpaceOnUse">
<stop stop-color="#E6CF3C"/>
<stop offset="0.0385" stop-color="#E8D24B"/>
<stop offset="0.0978" stop-color="#EAD65C"/>
<stop offset="0.1632" stop-color="#EBD866"/>
<stop offset="0.2459" stop-color="#EBD969"/>
<stop offset="0.2789" stop-color="#F0E38A"/>
<stop offset="0.321" stop-color="#F6EEAD"/>
<stop offset="0.3607" stop-color="#FBF6C6"/>
<stop offset="0.3966" stop-color="#FDFBD6"/>
<stop offset="0.4254" stop-color="#FEFDDB"/>
<stop offset="0.4622" stop-color="#F6EEB1"/>
<stop offset="0.5272" stop-color="#EAD76C"/>
<stop offset="0.5741" stop-color="#E2C841"/>
<stop offset="0.598" stop-color="#DFC230"/>
<stop offset="0.6692" stop-color="#F5C430"/>
<stop offset="0.7189" stop-color="#FFC530"/>
<stop offset="1" stop-color="#DD9A2D"/>
</linearGradient>
<linearGradient id="paint29_linear" x1="112.311" y1="30.7037" x2="115.569" y2="22.6398" gradientUnits="userSpaceOnUse">
<stop stop-color="#E6CF3C"/>
<stop offset="0.0385" stop-color="#E8D24B"/>
<stop offset="0.0978" stop-color="#EAD65C"/>
<stop offset="0.1632" stop-color="#EBD866"/>
<stop offset="0.2459" stop-color="#EBD969"/>
<stop offset="0.2789" stop-color="#F0E38A"/>
<stop offset="0.321" stop-color="#F6EEAD"/>
<stop offset="0.3607" stop-color="#FBF6C6"/>
<stop offset="0.3966" stop-color="#FDFBD6"/>
<stop offset="0.4254" stop-color="#FEFDDB"/>
<stop offset="0.4622" stop-color="#F6EEB1"/>
<stop offset="0.5272" stop-color="#EAD76C"/>
<stop offset="0.5741" stop-color="#E2C841"/>
<stop offset="0.598" stop-color="#DFC230"/>
<stop offset="0.6692" stop-color="#F5C430"/>
<stop offset="0.7189" stop-color="#FFC530"/>
<stop offset="1" stop-color="#DD9A2D"/>
</linearGradient>
<linearGradient id="paint30_linear" x1="144.522" y1="28.0224" x2="140.46" y2="20.8363" gradientUnits="userSpaceOnUse">
<stop stop-color="#E6CF3C"/>
<stop offset="0.0385" stop-color="#E8D24B"/>
<stop offset="0.0978" stop-color="#EAD65C"/>
<stop offset="0.1632" stop-color="#EBD866"/>
<stop offset="0.2459" stop-color="#EBD969"/>
<stop offset="0.2789" stop-color="#F0E38A"/>
<stop offset="0.321" stop-color="#F6EEAD"/>
<stop offset="0.3607" stop-color="#FBF6C6"/>
<stop offset="0.3966" stop-color="#FDFBD6"/>
<stop offset="0.4254" stop-color="#FEFDDB"/>
<stop offset="0.4622" stop-color="#F6EEB1"/>
<stop offset="0.5272" stop-color="#EAD76C"/>
<stop offset="0.5741" stop-color="#E2C841"/>
<stop offset="0.598" stop-color="#DFC230"/>
<stop offset="0.6692" stop-color="#F5C430"/>
<stop offset="0.7189" stop-color="#FFC530"/>
<stop offset="1" stop-color="#DD9A2D"/>
</linearGradient>
<linearGradient id="paint31_linear" x1="143.423" y1="21.9115" x2="134.112" y2="29.5867" gradientUnits="userSpaceOnUse">
<stop stop-color="#E6CF3C"/>
<stop offset="0.0181" stop-color="#E8D24B"/>
<stop offset="0.046" stop-color="#EAD65C"/>
<stop offset="0.0767" stop-color="#EBD866"/>
<stop offset="0.1156" stop-color="#EBD969"/>
<stop offset="0.1316" stop-color="#F0E285"/>
<stop offset="0.1512" stop-color="#F4EAA0"/>
<stop offset="0.1738" stop-color="#F8F1B6"/>
<stop offset="0.2002" stop-color="#FBF7C7"/>
<stop offset="0.2328" stop-color="#FDFAD2"/>
<stop offset="0.2785" stop-color="#FEFCD9"/>
<stop offset="0.4054" stop-color="#FEFDDB"/>
<stop offset="0.4139" stop-color="#FBF8CB"/>
<stop offset="0.4389" stop-color="#F4E9A2"/>
<stop offset="0.4655" stop-color="#EDDD7F"/>
<stop offset="0.4933" stop-color="#E8D362"/>
<stop offset="0.523" stop-color="#E4CC4C"/>
<stop offset="0.5552" stop-color="#E1C63C"/>
<stop offset="0.592" stop-color="#E0C333"/>
<stop offset="0.6431" stop-color="#DFC230"/>
<stop offset="0.6826" stop-color="#DFBE30"/>
<stop offset="0.7191" stop-color="#DEB32F"/>
<stop offset="0.7544" stop-color="#DDA02D"/>
<stop offset="0.7639" stop-color="#DD9A2D"/>
<stop offset="1" stop-color="#B81000"/>
</linearGradient>
<linearGradient id="paint32_linear" x1="138.748" y1="17.011" x2="127.984" y2="23.7981" gradientUnits="userSpaceOnUse">
<stop offset="0.0351" stop-color="#EEDF85"/>
<stop offset="0.0509" stop-color="#EDDC77"/>
<stop offset="0.1057" stop-color="#E8D34D"/>
<stop offset="0.1336" stop-color="#E6CF3C"/>
<stop offset="0.1614" stop-color="#E8D24B"/>
<stop offset="0.2043" stop-color="#EAD65C"/>
<stop offset="0.2516" stop-color="#EBD866"/>
<stop offset="0.3114" stop-color="#EBD969"/>
<stop offset="0.3199" stop-color="#F0E285"/>
<stop offset="0.3303" stop-color="#F4EAA0"/>
<stop offset="0.3422" stop-color="#F8F1B6"/>
<stop offset="0.3561" stop-color="#FBF7C7"/>
<stop offset="0.3734" stop-color="#FDFAD2"/>
<stop offset="0.3976" stop-color="#FEFCD9"/>
<stop offset="0.4648" stop-color="#FEFDDB"/>
<stop offset="0.5718" stop-color="#E9D568"/>
<stop offset="0.6284" stop-color="#DFC230"/>
<stop offset="0.7186" stop-color="#DFBE30"/>
<stop offset="0.8021" stop-color="#DEB32F"/>
<stop offset="0.8826" stop-color="#DDA02D"/>
<stop offset="0.9045" stop-color="#DD9A2D"/>
</linearGradient>
<linearGradient id="paint33_linear" x1="134.416" y1="25.0847" x2="139.842" y2="20.7203" gradientUnits="userSpaceOnUse">
<stop offset="0.1286" stop-color="#DFC230"/>
<stop offset="0.4762" stop-color="#F5C430"/>
<stop offset="0.7189" stop-color="#FFC530"/>
<stop offset="1" stop-color="#DD9A2D"/>
</linearGradient>
<linearGradient id="paint34_linear" x1="130.307" y1="27.2065" x2="131.939" y2="33.5074" gradientUnits="userSpaceOnUse">
<stop stop-color="#E6CF3C"/>
<stop offset="0.0418" stop-color="#E8D24B"/>
<stop offset="0.1061" stop-color="#EAD65C"/>
<stop offset="0.1771" stop-color="#EBD866"/>
<stop offset="0.2669" stop-color="#EBD969"/>
<stop offset="0.2859" stop-color="#F0E285"/>
<stop offset="0.3092" stop-color="#F4EAA0"/>
<stop offset="0.336" stop-color="#F8F1B6"/>
<stop offset="0.3673" stop-color="#FBF7C7"/>
<stop offset="0.406" stop-color="#FDFAD2"/>
<stop offset="0.4602" stop-color="#FEFCD9"/>
<stop offset="0.611" stop-color="#FEFDDB"/>
<stop offset="0.6435" stop-color="#F6EEB1"/>
<stop offset="0.7009" stop-color="#EAD76C"/>
<stop offset="0.7424" stop-color="#E2C841"/>
<stop offset="0.7635" stop-color="#DFC230"/>
<stop offset="0.8002" stop-color="#DFBE30"/>
<stop offset="0.8342" stop-color="#DFB32F"/>
<stop offset="0.867" stop-color="#DEA02E"/>
<stop offset="0.899" stop-color="#DD862D"/>
<stop offset="0.9045" stop-color="#DD812D"/>
</linearGradient>
<linearGradient id="paint35_linear" x1="121.935" y1="26.0555" x2="119.821" y2="33.4278" gradientUnits="userSpaceOnUse">
<stop stop-color="#E6CF3C"/>
<stop offset="0.0418" stop-color="#E8D24B"/>
<stop offset="0.1061" stop-color="#EAD65C"/>
<stop offset="0.1771" stop-color="#EBD866"/>
<stop offset="0.2669" stop-color="#EBD969"/>
<stop offset="0.2859" stop-color="#F0E285"/>
<stop offset="0.3092" stop-color="#F4EAA0"/>
<stop offset="0.336" stop-color="#F8F1B6"/>
<stop offset="0.3673" stop-color="#FBF7C7"/>
<stop offset="0.406" stop-color="#FDFAD2"/>
<stop offset="0.4602" stop-color="#FEFCD9"/>
<stop offset="0.611" stop-color="#FEFDDB"/>
<stop offset="0.6435" stop-color="#F6EEB1"/>
<stop offset="0.7009" stop-color="#EAD76C"/>
<stop offset="0.7424" stop-color="#E2C841"/>
<stop offset="0.7635" stop-color="#DFC230"/>
<stop offset="0.8096" stop-color="#DFBE30"/>
<stop offset="0.8522" stop-color="#DEB32F"/>
<stop offset="0.8933" stop-color="#DDA02D"/>
<stop offset="0.9045" stop-color="#DD9A2D"/>
</linearGradient>
<linearGradient id="paint36_linear" x1="126.129" y1="25.0147" x2="123.488" y2="31.0394" gradientUnits="userSpaceOnUse">
<stop stop-color="#E6CF3C"/>
<stop offset="0.0316" stop-color="#E8D24B"/>
<stop offset="0.0803" stop-color="#EAD65C"/>
<stop offset="0.1341" stop-color="#EBD866"/>
<stop offset="0.202" stop-color="#EBD969"/>
<stop offset="0.2162" stop-color="#F0E285"/>
<stop offset="0.2337" stop-color="#F4EAA0"/>
<stop offset="0.2537" stop-color="#F8F1B6"/>
<stop offset="0.2772" stop-color="#FBF7C7"/>
<stop offset="0.3061" stop-color="#FDFAD2"/>
<stop offset="0.3468" stop-color="#FEFCD9"/>
<stop offset="0.4596" stop-color="#FEFDDB"/>
<stop offset="0.4956" stop-color="#F6EEB1"/>
<stop offset="0.5591" stop-color="#EAD76C"/>
<stop offset="0.6051" stop-color="#E2C841"/>
<stop offset="0.6284" stop-color="#DFC230"/>
<stop offset="0.7186" stop-color="#DFBE30"/>
<stop offset="0.8021" stop-color="#DEB32F"/>
<stop offset="0.8826" stop-color="#DDA02D"/>
<stop offset="0.9045" stop-color="#DD9A2D"/>
</linearGradient>
</defs>
</svg>
