<svg width="167" height="74" viewBox="0 0 167 74" fill="none" xmlns="http://www.w3.org/2000/svg">
<g filter="url(#filter0_d)">
<rect x="2" width="163" height="70" rx="8" fill="url(#paint0_linear)"/>
</g>
<path d="M31.944 18.88C32.392 19.088 32.56 19.296 32.448 19.504C32.352 19.664 32.128 19.928 31.776 20.296C31.408 20.632 30.76 21.424 29.832 22.672C32.152 21.808 33.424 21.296 33.648 21.136C33.808 20.992 34.136 21.04 34.632 21.28C33.896 20.416 33.496 19.96 33.432 19.912C33.384 19.864 33.376 19.824 33.408 19.792C33.456 19.744 33.552 19.704 33.696 19.672C34.016 19.624 34.4 19.6 34.848 19.6C35.344 19.6 35.856 19.856 36.384 20.368C36.912 20.88 37.152 21.464 37.104 22.12C37.056 22.76 36.912 23.12 36.672 23.2C36.432 23.264 36.216 23.192 36.024 22.984C35.816 22.824 35.448 22.4 34.92 21.712C34.968 21.84 34.904 21.968 34.728 22.096C34.632 22.144 33.536 22.624 31.44 23.536C31.824 23.76 32.056 23.984 32.136 24.208C32.216 24.432 31.888 25.184 31.152 26.464C30.416 27.712 29.4 29.072 28.104 30.544C26.808 31.984 25.976 32.792 25.608 32.968C25.512 33.016 25.44 33.04 25.392 33.04C25.36 33.04 25.344 33.024 25.344 32.992C25.344 32.912 25.448 32.76 25.656 32.536C25.896 32.28 26.624 31.344 27.84 29.728C28.864 28.304 29.632 27.088 30.144 26.08C30.688 24.992 30.992 24.368 31.056 24.208C31.088 24.064 31.104 23.96 31.104 23.896C31.104 23.816 31.08 23.776 31.032 23.776C29.16 24.8 28.04 25.504 27.672 25.888C27.336 26.272 27.04 26.416 26.784 26.32C26.544 26.208 26.312 25.848 26.088 25.24C25.832 24.536 25.688 24.144 25.656 24.064C25.624 23.968 25.632 23.904 25.68 23.872C25.728 23.84 25.824 23.824 25.968 23.824C26.24 23.824 26.624 23.752 27.12 23.608C27.456 23.496 27.784 23.376 28.104 23.248C28.296 23.152 28.744 22.632 29.448 21.688C29.912 21.064 30.368 20.44 30.816 19.816C30.96 19.512 30.984 19.304 30.888 19.192C29.464 19.528 28.52 19.792 28.056 19.984C27.608 20.176 27.312 20.248 27.168 20.2C27.024 20.152 26.816 19.824 26.544 19.216C26.272 18.608 26.184 18.248 26.28 18.136C26.392 18.008 26.544 17.984 26.736 18.064C26.896 18.096 27.704 17.992 29.16 17.752C30.68 17.48 32.072 17.16 33.336 16.792C34.696 16.36 35.456 16.024 35.616 15.784C35.824 15.48 36.288 15.576 37.008 16.072C37.696 16.552 37.92 16.912 37.68 17.152C37.456 17.376 36.848 17.632 35.856 17.92C35.2 18.128 33.896 18.448 31.944 18.88ZM33.672 25.36C33.64 25.392 33.456 25.816 33.12 26.632C32.832 27.32 32.832 28.096 33.12 28.96C33.424 29.792 34.264 30.368 35.64 30.688C36.984 30.944 38.208 31 39.312 30.856C40.336 30.696 40.96 30.504 41.184 30.28C41.376 30.056 41.536 29.688 41.664 29.176C41.808 28.536 41.88 28.088 41.88 27.832C41.88 27.704 41.888 27.624 41.904 27.592C41.92 27.544 41.936 27.528 41.952 27.544C41.984 27.544 42.032 27.624 42.096 27.784C42.304 28.248 42.456 28.608 42.552 28.864C42.68 29.216 42.88 29.448 43.152 29.56C43.376 29.656 43.616 29.912 43.872 30.328C43.952 30.488 43.992 30.632 43.992 30.76C43.992 31 43.848 31.216 43.56 31.408C43.16 31.696 41.984 31.976 40.032 32.248C38.112 32.488 36.408 32.36 34.92 31.864C33.448 31.384 32.56 30.616 32.256 29.56C31.968 28.504 31.976 27.448 32.28 26.392C32.504 25.512 32.688 24.864 32.832 24.448C32.88 24.288 32.96 24.176 33.072 24.112C33.184 24.048 33.392 24.152 33.696 24.424C34 24.68 34.096 24.872 33.984 25C33.904 25.08 33.8 25.2 33.672 25.36ZM33.216 16.192C33.136 16.144 32.848 15.776 32.352 15.088C31.888 14.432 31.416 13.928 30.936 13.576C30.488 13.208 30.336 12.968 30.48 12.856C30.656 12.744 30.936 12.64 31.32 12.544C31.368 12.496 31.456 12.472 31.584 12.472C31.92 12.472 32.296 12.608 32.712 12.88C33.256 13.248 33.632 13.584 33.84 13.888C33.968 14.176 34.048 14.584 34.08 15.112C34.08 15.624 33.984 15.96 33.792 16.12C33.568 16.264 33.376 16.288 33.216 16.192ZM63.408 28.576C64.752 28.48 65.488 28.384 65.616 28.288C65.776 28.192 66.088 28.4 66.552 28.912C66.904 29.264 67.08 29.6 67.08 29.92C67.08 30.016 67.056 30.112 67.008 30.208C66.816 30.544 66.64 30.664 66.48 30.568C66.368 30.52 65.984 30.4 65.328 30.208C64.672 30.048 63.784 29.944 62.664 29.896C61.592 29.832 59.848 29.968 57.432 30.304C55.176 30.608 53.944 30.808 53.736 30.904C53.496 30.968 53.344 30.912 53.28 30.736C53.2 30.608 53.112 30.384 53.016 30.064C52.952 29.872 52.944 29.744 52.992 29.68C53.024 29.648 53.064 29.632 53.112 29.632C54.456 29.52 55.8 29.408 57.144 29.296C57.032 29.024 56.976 28.752 56.976 28.48C57.088 23.264 57.08 20.472 56.952 20.104C56.92 20.04 56.816 19.848 56.64 19.528C56.592 19.448 56.592 19.376 56.64 19.312C56.688 19.248 56.808 19.192 57 19.144C57.304 18.984 57.616 19.04 57.936 19.312C58.4 18.528 58.72 17.68 58.896 16.768C57.84 16.944 57.208 17.104 57 17.248C56.792 17.392 56.616 17.432 56.472 17.368C56.296 17.304 56.16 17.088 56.064 16.72C55.968 16.336 55.92 16.064 55.92 15.904C55.92 15.808 55.944 15.744 55.992 15.712C56.04 15.68 56.104 15.68 56.184 15.712C56.36 15.76 56.688 15.768 57.168 15.736C57.456 15.704 58.096 15.616 59.088 15.472C59.12 15.088 58.968 14.744 58.632 14.44C58.408 14.264 58.184 14.08 57.96 13.888C57.848 13.776 57.896 13.656 58.104 13.528C58.248 13.416 58.504 13.304 58.872 13.192C58.92 13.16 58.992 13.144 59.088 13.144C59.36 13.144 59.656 13.28 59.976 13.552C60.392 13.888 60.624 14.176 60.672 14.416C60.72 14.656 60.744 14.936 60.744 15.256C61.912 15.096 62.656 14.944 62.976 14.8C63.232 14.656 63.512 14.848 63.816 15.376C64.12 15.888 64.192 16.192 64.032 16.288C63.888 16.384 63.696 16.408 63.456 16.36C63.232 16.312 62.944 16.288 62.592 16.288C62.112 16.288 61.384 16.376 60.408 16.552C60.168 17.128 59.848 17.704 59.448 18.28C59.048 18.856 58.608 19.368 58.128 19.816C58.16 20.344 58.176 21 58.176 21.784C59.232 21.336 59.776 21.088 59.808 21.04C59.888 20.928 60.056 21.024 60.312 21.328C60.584 21.6 60.664 21.816 60.552 21.976C60.456 22.12 59.656 22.368 58.152 22.72L58.128 23.704C58.464 23.624 59.064 23.464 59.928 23.224C60.024 23.128 60.2 23.192 60.456 23.416C60.648 23.64 60.72 23.824 60.672 23.968C60.56 24.096 60.416 24.192 60.24 24.256C59.952 24.336 59.656 24.408 59.352 24.472C58.904 24.584 58.664 24.648 58.632 24.664C58.552 24.712 58.384 24.688 58.128 24.592L58.104 26.008C58.328 25.976 59 25.832 60.12 25.576C60.232 25.528 60.44 25.632 60.744 25.888C61.048 26.128 61.152 26.36 61.056 26.584C60.96 26.808 60.84 26.888 60.696 26.824C60.552 26.76 60.288 26.76 59.904 26.824C59.408 26.872 58.8 26.984 58.08 27.16C58.032 28.184 57.968 28.864 57.888 29.2L62.304 28.72C62.16 28.368 62.112 27.88 62.16 27.256C62.192 26.552 62.184 25.104 62.136 22.912C62.088 20.576 62.032 19.384 61.968 19.336C61.904 19.272 61.68 19.296 61.296 19.408C61.072 19.488 60.8 19.608 60.48 19.768C60.336 19.832 60.168 19.928 59.976 20.056C59.832 20.168 59.688 20.112 59.544 19.888C59.432 19.648 59.32 19.4 59.208 19.144C59.16 19 59.144 18.888 59.16 18.808C59.176 18.728 59.208 18.688 59.256 18.688C59.336 18.672 59.824 18.536 60.72 18.28C61.584 17.992 62.072 17.816 62.184 17.752C62.296 17.64 62.568 17.824 63 18.304C63.448 18.784 63.672 19.184 63.672 19.504C63.656 19.744 63.648 21.112 63.648 23.608C63.616 26.04 63.536 27.696 63.408 28.576ZM51.36 19.768C51.76 19.752 52.064 19.816 52.272 19.96C52.448 20.104 52.536 20.352 52.536 20.704C52.536 21.024 52.512 22.528 52.464 25.216C52.416 28.08 52.352 29.784 52.272 30.328C52.144 31.032 51.96 31.592 51.72 32.008C51.56 32.2 51.44 32.296 51.36 32.296C51.232 32.296 51.128 32.168 51.048 31.912C50.872 31.352 50.856 30.728 51 30.04C51.128 29.24 51.192 27.784 51.192 25.672C51.176 24.072 51.144 22.664 51.096 21.448C51.048 20.808 50.952 20.416 50.808 20.272C49.128 21.648 47.952 22.536 47.28 22.936C46.624 23.336 46.256 23.512 46.176 23.464C46.112 23.4 46.272 23.16 46.656 22.744C47.056 22.312 47.768 21.504 48.792 20.32C49.912 19.056 50.776 17.936 51.384 16.96C52.072 15.936 52.416 15.288 52.416 15.016C52.416 14.776 52.552 14.656 52.824 14.656C53.128 14.656 53.336 14.696 53.448 14.776C53.64 14.904 53.888 15.208 54.192 15.688C54.528 16.136 54.6 16.52 54.408 16.84C54.312 16.968 53.296 17.944 51.36 19.768ZM27.024 54.288C27.584 54.16 28.792 54.4 30.648 55.008C32.552 55.616 34.016 55.92 35.04 55.92C36.576 55.888 38.112 55.848 39.648 55.8C41.664 55.752 42.952 55.728 43.512 55.728C43.768 55.728 43.896 55.744 43.896 55.776C43.896 55.84 43.696 55.92 43.296 56.016C42.608 56.208 41.936 56.52 41.28 56.952C40.704 57.304 40.352 57.608 40.224 57.864C40.144 58.056 39.976 58.176 39.72 58.224H39.408C38.352 58.192 37.288 58.16 36.216 58.128C34.152 58.032 32.784 57.816 32.112 57.48C31.408 57.08 30.512 56.664 29.424 56.232C28.288 55.752 27.48 55.584 27 55.728C26.536 55.84 26.216 56.024 26.04 56.28C25.96 56.408 25.864 56.456 25.752 56.424C25.656 56.392 25.56 56.288 25.464 56.112C25.208 55.664 25.064 55.328 25.032 55.104C24.936 54.8 24.992 54.624 25.2 54.576C25.456 54.512 25.664 54.48 25.824 54.48C26 54.432 26.232 54.272 26.52 54C26.824 53.712 26.952 53.288 26.904 52.728C26.856 52.168 26.656 51.736 26.304 51.432C25.984 51.16 25.688 50.992 25.416 50.928C25.192 50.88 25.08 50.76 25.08 50.568C25.08 50.344 25.168 49.92 25.344 49.296C25.472 48.8 25.512 48.528 25.464 48.48C25.448 48.464 25.424 48.464 25.392 48.48C25.2 48.544 24.936 48.712 24.6 48.984C24.168 49.256 23.88 49.392 23.736 49.392C23.544 49.392 23.336 49.112 23.112 48.552C22.92 48.008 22.824 47.656 22.824 47.496C22.824 47.416 22.848 47.368 22.896 47.352C22.944 47.336 23.016 47.352 23.112 47.4C23.368 47.48 23.872 47.4 24.624 47.16C25.36 46.952 25.856 46.736 26.112 46.512C26.304 46.32 26.648 46.504 27.144 47.064C27.592 47.608 27.68 47.952 27.408 48.096C27.152 48.24 26.864 48.488 26.544 48.84C26.224 49.176 26.016 49.544 25.92 49.944C25.856 50.2 25.856 50.368 25.92 50.448C25.952 50.496 26.008 50.512 26.088 50.496C26.312 50.448 26.712 50.544 27.288 50.784C27.88 51.056 28.248 51.456 28.392 51.984C28.536 52.496 28.456 52.824 28.152 52.968C27.864 53.064 27.488 53.504 27.024 54.288ZM36.888 45.456C35.752 45.984 35.136 46.288 35.04 46.368C34.896 46.432 34.696 46.288 34.44 45.936C34.312 45.76 34.24 45.624 34.224 45.528C34.208 45.416 34.24 45.352 34.32 45.336C34.448 45.272 34.92 45.104 35.736 44.832C36.552 44.528 37.04 44.28 37.2 44.088C37.376 43.88 37.768 44.032 38.376 44.544C38.984 45.04 39.208 45.36 39.048 45.504C38.68 46.208 38.304 46.912 37.92 47.616C37.68 48.176 37.416 48.68 37.128 49.128C37.432 49.32 37.736 49.512 38.04 49.704C39.32 50.552 39.984 51.056 40.032 51.216C40.096 51.424 40.144 51.904 40.176 52.656C40.144 53.312 39.992 53.744 39.72 53.952C39.4 54.144 39.168 54.016 39.024 53.568C38.912 53.168 38.552 52.608 37.944 51.888C37.528 51.424 36.992 50.896 36.336 50.304C35.536 51.328 34.576 52.152 33.456 52.776C32.816 53.112 32.304 53.28 31.92 53.28C31.776 53.28 31.696 53.256 31.68 53.208C31.68 53.144 31.76 53.056 31.92 52.944C32.56 52.496 33.128 52.056 33.624 51.624C34.264 51.064 34.872 50.376 35.448 49.56C34.968 49.176 34.488 48.816 34.008 48.48C33.8 48.352 33.68 48.152 33.648 47.88C33.632 47.736 33.64 47.632 33.672 47.568C33.704 47.504 33.776 47.48 33.888 47.496C34.72 47.848 35.448 48.192 36.072 48.528C36.248 48.256 36.416 47.904 36.576 47.472C37.072 46.224 37.176 45.552 36.888 45.456ZM36 38.904C36.048 38.776 36.16 38.712 36.336 38.712C36.544 38.712 36.84 38.808 37.224 39C37.608 39.176 37.872 39.328 38.016 39.456C38.176 39.584 38.24 39.72 38.208 39.864C38.096 40.088 37.416 40.472 36.168 41.016C35.416 41.336 34.664 41.656 33.912 41.976C34.328 42.344 34.536 42.64 34.536 42.864C34.536 43.168 34.328 44.04 33.912 45.48C33.512 46.92 32.848 48.4 31.92 49.92C30.944 51.44 30.128 52.408 29.472 52.824C29.12 53.048 28.912 53.152 28.848 53.136C28.784 53.104 28.864 52.952 29.088 52.68C29.536 52.12 30.144 51.104 30.912 49.632C31.616 48.256 32.176 46.912 32.592 45.6C32.944 44.4 33.096 43.56 33.048 43.08C33 42.744 32.952 42.488 32.904 42.312C32.856 42.328 32.808 42.336 32.76 42.336C32.584 42.336 32.368 42.136 32.112 41.736C31.968 41.544 31.88 41.392 31.848 41.28C31.832 41.2 31.848 41.16 31.896 41.16C31.96 41.16 32.264 41.096 32.808 40.968C33.288 40.824 33.912 40.512 34.68 40.032C35.464 39.52 35.904 39.144 36 38.904ZM25.752 42.912C24.984 42.336 24.52 41.992 24.36 41.88C24.296 41.832 24.304 41.768 24.384 41.688C24.48 41.592 24.632 41.496 24.84 41.4C25.112 41.224 25.408 41.136 25.728 41.136C25.872 41.136 25.976 41.144 26.04 41.16C26.392 41.256 26.792 41.544 27.24 42.024C27.688 42.536 27.824 43.016 27.648 43.464C27.568 43.72 27.488 43.888 27.408 43.968C27.328 44.048 27.248 44.056 27.168 43.992C27.056 43.896 26.584 43.536 25.752 42.912ZM52.8 45.912C52.96 45.96 53.184 46.112 53.472 46.368C53.776 46.608 53.872 46.832 53.76 47.04C53.312 47.456 52.744 47.84 52.056 48.192C52.056 49.552 51.904 50.712 51.6 51.672C52.816 51.032 53.656 50.544 54.12 50.208C54.28 50.128 54.384 50.12 54.432 50.184C54.496 50.248 54.464 50.36 54.336 50.52C53.888 50.952 53.16 51.592 52.152 52.44C51.192 53.304 50.344 54.088 49.608 54.792C48.6 55.848 48.016 56.376 47.856 56.376C47.712 56.376 47.544 55.992 47.352 55.224C47.096 54.488 46.984 54.056 47.016 53.928C47.016 53.8 47.12 53.712 47.328 53.664C48.256 53.44 49.312 52.968 50.496 52.248C50.4 52.088 50.376 51.712 50.424 51.12C50.456 50.64 50.472 49.912 50.472 48.936C49.816 49.224 49.368 49.392 49.128 49.44C48.936 49.488 48.776 49.376 48.648 49.104C48.504 48.752 48.392 48.392 48.312 48.024C48.2 47.544 48.256 47.304 48.48 47.304C48.64 47.304 48.896 47.264 49.248 47.184C49.376 47.168 49.76 47.056 50.4 46.848C50.368 46.448 50.32 45.88 50.256 45.144C50.176 44.984 50.088 44.824 49.992 44.664C49.912 44.488 49.944 44.296 50.088 44.088C49.464 44.248 49.04 44.232 48.816 44.04C48.528 43.688 48.328 43.304 48.216 42.888C48.056 42.504 48.032 42.256 48.144 42.144C48.192 42.096 48.256 42.072 48.336 42.072C48.528 42.072 49.248 41.944 50.496 41.688C51.408 41.448 51.952 41.28 52.128 41.184C52.32 41.072 52.64 41.192 53.088 41.544C53.52 41.864 53.688 42.152 53.592 42.408C53.48 42.616 53.208 42.848 52.776 43.104C52.44 43.296 51.736 43.576 50.664 43.944C51.176 44.072 51.56 44.312 51.816 44.664C51.992 44.936 52.08 45.2 52.08 45.456C52.08 45.68 52.072 45.896 52.056 46.104C52.424 45.928 52.672 45.864 52.8 45.912ZM60.24 39.816C60.288 39.752 60.36 39.72 60.456 39.72C60.696 39.72 61.08 39.888 61.608 40.224C62.344 40.672 62.688 41.2 62.64 41.808C62.608 42.288 62.576 43.512 62.544 45.48C62.528 47.288 62.36 48.784 62.04 49.968C61.704 51.088 61.416 51.736 61.176 51.912C61.048 51.992 60.936 51.984 60.84 51.888C60.712 51.76 60.616 51.552 60.552 51.264C60.392 50.672 60.36 50.272 60.456 50.064C60.552 49.792 60.672 48.84 60.816 47.208C60.912 45.432 60.92 44.032 60.84 43.008C60.712 41.824 60.632 41.2 60.6 41.136C60.552 41.024 60.384 41.016 60.096 41.112C59.728 41.24 59.12 41.496 58.272 41.88C57.68 42.088 57.304 42.24 57.144 42.336C57 42.384 56.84 42.28 56.664 42.024C56.568 41.8 56.488 41.6 56.424 41.424C56.376 41.232 56.44 41.12 56.616 41.088C56.744 41.056 57.256 40.912 58.152 40.656C59.176 40.336 59.872 40.056 60.24 39.816ZM68.952 54.768C68.968 55.04 68.752 55.36 68.304 55.728C67.84 56.144 66.8 56.448 65.184 56.64C63.616 56.832 62.264 56.8 61.128 56.544C60.04 56.256 59.312 55.776 58.944 55.104C58.592 54.432 58.48 53.744 58.608 53.04C58.704 52.368 58.72 51.936 58.656 51.744C58.56 51.568 58.6 51.44 58.776 51.36C58.968 51.28 59.184 51.296 59.424 51.408C59.68 51.552 59.84 51.688 59.904 51.816C59.968 51.944 59.952 52.096 59.856 52.272C59.728 52.448 59.64 52.808 59.592 53.352C59.544 53.944 59.624 54.416 59.832 54.768C60.056 55.104 60.632 55.328 61.56 55.44C62.52 55.536 63.504 55.472 64.512 55.248C65.264 55.072 65.912 54.888 66.456 54.696C66.68 54.552 66.864 54.296 67.008 53.928C67.12 53.464 67.184 53.096 67.2 52.824C67.2 52.744 67.208 52.68 67.224 52.632C67.24 52.568 67.264 52.544 67.296 52.56C67.344 52.576 67.392 52.64 67.44 52.752L67.728 53.52C67.856 53.792 68.072 54.008 68.376 54.168C68.68 54.312 68.872 54.512 68.952 54.768ZM54.864 55.824C54.4 56.272 53.92 56.64 53.424 56.928C53.024 57.152 52.752 57.264 52.608 57.264C52.576 57.264 52.552 57.232 52.536 57.168C52.536 57.12 52.584 57.048 52.68 56.952C53.16 56.568 53.696 55.968 54.288 55.152C55.184 53.904 55.896 52.728 56.424 51.624C57.064 50.2 57.512 48.832 57.768 47.52C57.976 46.336 58.048 45.608 57.984 45.336C57.92 45.112 57.84 44.896 57.744 44.688C57.648 44.56 57.632 44.48 57.696 44.448C57.728 44.432 57.776 44.424 57.84 44.424C57.952 44.424 58.136 44.408 58.392 44.376C58.584 44.328 58.792 44.504 59.016 44.904C59.176 45.336 59.256 45.672 59.256 45.912C59.256 46.152 59.184 46.776 59.04 47.784C58.768 49.112 58.272 50.504 57.552 51.96C56.672 53.64 55.776 54.928 54.864 55.824ZM55.992 50.736C55.944 50.976 55.848 51.096 55.704 51.096C55.576 51.096 55.4 50.96 55.176 50.688C54.984 50.448 54.912 50.192 54.96 49.92C55.024 49.552 55.08 48.488 55.128 46.728C55.224 44.92 55.176 43.8 54.984 43.368C54.84 42.984 54.72 42.728 54.624 42.6C54.528 42.456 54.592 42.344 54.816 42.264C55.072 42.2 55.264 42.224 55.392 42.336C55.632 42.496 55.824 42.64 55.968 42.768C56.144 42.96 56.24 43.632 56.256 44.784C56.256 46.352 56.24 47.576 56.208 48.456C56.128 49.768 56.056 50.528 55.992 50.736Z" fill="white"/>
<path d="M138.471 2.44991C140.919 1.61053 143.583 2.91433 144.423 5.36177C145.262 7.8096 143.959 10.4742 141.511 11.314C139.063 12.1537 136.398 10.85 135.559 8.40212C134.72 5.95429 136.023 3.28929 138.471 2.44991ZM139.093 8.7185L141.828 7.78069L140.89 5.04578L138.155 5.98359L139.093 8.7185Z" fill="url(#paint1_radial)"/>
<path d="M138.471 2.44991C140.919 1.61053 143.583 2.91433 144.423 5.36177C145.262 7.8096 143.959 10.4742 141.511 11.314C139.063 12.1537 136.398 10.85 135.559 8.40212C134.72 5.95429 136.023 3.28929 138.471 2.44991ZM139.093 8.7185L141.828 7.78069L140.89 5.04578L138.155 5.98359L139.093 8.7185Z" fill="url(#paint2_radial)"/>
<path d="M138.708 2.25463C141.156 1.41525 143.821 2.71904 144.66 5.16648C145.5 7.61432 144.196 10.2789 141.748 11.1187C139.3 11.9581 136.636 10.6543 135.796 8.20684C134.957 5.75901 136.26 3.09401 138.708 2.25463ZM139.33 8.52322L142.065 7.58541L141.127 4.8505L138.392 5.7883L139.33 8.52322Z" fill="url(#paint3_radial)"/>
<path opacity="0.5" d="M138.708 2.25463C141.156 1.41525 143.821 2.71904 144.66 5.16648C145.5 7.61432 144.196 10.2789 141.748 11.1187C139.3 11.9581 136.636 10.6543 135.796 8.20684C134.957 5.75901 136.26 3.09401 138.708 2.25463ZM139.33 8.52322L142.065 7.58541L141.127 4.8505L138.392 5.7883L139.33 8.52322Z" fill="url(#paint4_radial)"/>
<path d="M138.708 2.25463C141.156 1.41525 143.821 2.71904 144.66 5.16648C145.5 7.61432 144.196 10.2789 141.748 11.1187C139.3 11.9581 136.636 10.6543 135.796 8.20684C134.957 5.75901 136.26 3.09401 138.708 2.25463ZM141.544 10.5227C143.662 9.79615 144.791 7.48933 144.064 5.37076C143.338 3.2522 141.031 2.12378 138.912 2.85028C136.794 3.57678 135.665 5.88361 136.392 8.00217C137.119 10.1211 139.425 11.2495 141.544 10.5227Z" fill="url(#paint5_radial)"/>
<path d="M147.45 11.8168C145.002 10.9774 142.337 12.2812 141.498 14.7287C140.658 17.1765 141.962 19.8411 144.409 20.6809C146.857 21.5207 149.522 20.2169 150.362 17.769C151.201 15.3212 149.897 12.6562 147.45 11.8168ZM146.828 18.0854L144.093 17.1476L145.031 14.4127L147.766 15.3505L146.828 18.0854Z" fill="url(#paint6_radial)"/>
<path d="M147.45 11.8168C145.002 10.9774 142.337 12.2812 141.498 14.7287C140.658 17.1765 141.962 19.8411 144.409 20.6809C146.857 21.5207 149.522 20.2169 150.362 17.769C151.201 15.3212 149.897 12.6562 147.45 11.8168ZM146.828 18.0854L144.093 17.1476L145.031 14.4127L147.766 15.3505L146.828 18.0854Z" fill="url(#paint7_radial)"/>
<path d="M147.212 11.6215C144.765 10.7822 142.1 12.086 141.261 14.5334C140.421 16.9812 141.725 19.6458 144.172 20.4856C146.62 21.325 149.285 20.0212 150.125 17.5738C150.964 15.1259 149.66 12.4609 147.212 11.6215ZM146.591 17.8901L143.856 16.9523L144.794 14.2174L147.529 15.1552L146.591 17.8901Z" fill="url(#paint8_radial)"/>
<path opacity="0.5" d="M147.212 11.6215C144.765 10.7822 142.1 12.086 141.261 14.5334C140.421 16.9812 141.725 19.6458 144.172 20.4856C146.62 21.325 149.285 20.0212 150.125 17.5738C150.964 15.1259 149.66 12.4609 147.212 11.6215ZM146.591 17.8901L143.856 16.9523L144.794 14.2174L147.529 15.1552L146.591 17.8901Z" fill="url(#paint9_radial)"/>
<path d="M147.212 11.6215C144.765 10.7822 142.1 12.086 141.261 14.5334C140.421 16.9812 141.725 19.6458 144.172 20.4856C146.62 21.325 149.285 20.0212 150.125 17.5738C150.964 15.1259 149.66 12.4609 147.212 11.6215ZM144.377 19.8896C142.258 19.1631 141.13 16.8562 141.857 14.7377C142.583 12.6191 144.89 11.4907 147.008 12.2172C149.127 12.9437 150.255 15.2505 149.529 17.3691C148.802 19.488 146.496 20.6165 144.377 19.8896Z" fill="url(#paint10_radial)"/>
<path d="M144.421 63.066C144.208 64.1499 143.157 64.8564 142.073 64.644L113.77 59.0962C112.686 58.8837 111.979 57.8328 112.192 56.7488L119.539 19.2705C119.751 18.1866 120.802 17.4801 121.886 17.6926L150.188 23.2397C151.272 23.4522 151.979 24.5031 151.766 25.587L144.421 63.066Z" fill="url(#paint11_linear)"/>
<g filter="url(#filter1_d)">
<path d="M144.421 63.066C144.208 64.1499 143.157 64.8564 142.073 64.644L113.77 59.0962C112.686 58.8837 111.979 57.8328 112.192 56.7488L119.539 19.2705C119.751 18.1866 120.802 17.4801 121.886 17.6926L150.188 23.2397C151.272 23.4522 151.979 24.5031 151.766 25.587L144.421 63.066Z" fill="#D30D04"/>
</g>
<path d="M132.484 38.5946C123.584 36.8506 117.784 28.2214 119.528 19.3227L119.923 17.3079L152.151 23.6244L151.756 25.6391C150.011 34.5379 141.384 40.3387 132.484 38.5946Z" fill="url(#paint12_linear)"/>
<g filter="url(#filter2_d)">
<path d="M132.484 38.5946C123.584 36.8506 117.784 28.2214 119.528 19.3227L119.923 17.3079L152.151 23.6244L151.756 25.6391C150.011 34.5379 141.384 40.3387 132.484 38.5946Z" fill="#E30F04"/>
</g>
<path d="M137.627 32.5134C137.24 34.4912 135.322 35.7798 133.344 35.3927C131.366 35.0057 130.078 33.0879 130.465 31.1101C130.853 29.132 132.769 27.8436 134.747 28.2307C136.725 28.6188 138.014 30.5365 137.627 32.5134Z" fill="url(#paint13_radial)"/>
<path d="M137.627 32.5134C137.24 34.4912 135.322 35.7798 133.344 35.3927C131.366 35.0057 130.078 33.0879 130.465 31.1101C130.853 29.132 132.769 27.8436 134.747 28.2307C136.725 28.6188 138.014 30.5365 137.627 32.5134Z" fill="url(#paint14_radial)"/>
<path d="M137.447 32.2465C137.058 34.2246 135.142 35.5129 133.164 35.1258C131.186 34.7388 129.897 32.821 130.284 30.8431C130.672 28.8653 132.589 27.5767 134.567 27.9638C136.545 28.3509 137.834 30.2686 137.447 32.2465Z" fill="url(#paint15_radial)"/>
<defs>
<filter id="filter0_d" x="0" y="0" width="167" height="74" filterUnits="userSpaceOnUse" color-interpolation-filters="sRGB">
<feFlood flood-opacity="0" result="BackgroundImageFix"/>
<feColorMatrix in="SourceAlpha" type="matrix" values="0 0 0 0 0 0 0 0 0 0 0 0 0 0 0 0 0 0 127 0"/>
<feOffset dy="2"/>
<feGaussianBlur stdDeviation="1"/>
<feColorMatrix type="matrix" values="0 0 0 0 0 0 0 0 0 0 0 0 0 0 0 0 0 0 0.25 0"/>
<feBlend mode="normal" in2="BackgroundImageFix" result="effect1_dropShadow"/>
<feBlend mode="normal" in="SourceGraphic" in2="effect1_dropShadow" result="shape"/>
</filter>
<filter id="filter1_d" x="110.154" y="17.6549" width="43.6497" height="51.0268" filterUnits="userSpaceOnUse" color-interpolation-filters="sRGB">
<feFlood flood-opacity="0" result="BackgroundImageFix"/>
<feColorMatrix in="SourceAlpha" type="matrix" values="0 0 0 0 0 0 0 0 0 0 0 0 0 0 0 0 0 0 127 0"/>
<feOffset dy="2"/>
<feGaussianBlur stdDeviation="1"/>
<feColorMatrix type="matrix" values="0 0 0 0 0 0 0 0 0 0 0 0 0 0 0 0 0 0 0.25 0"/>
<feBlend mode="normal" in2="BackgroundImageFix" result="effect1_dropShadow"/>
<feBlend mode="normal" in="SourceGraphic" in2="effect1_dropShadow" result="shape"/>
</filter>
<filter id="filter2_d" x="111.219" y="17.3079" width="48.9323" height="37.5963" filterUnits="userSpaceOnUse" color-interpolation-filters="sRGB">
<feFlood flood-opacity="0" result="BackgroundImageFix"/>
<feColorMatrix in="SourceAlpha" type="matrix" values="0 0 0 0 0 0 0 0 0 0 0 0 0 0 0 0 0 0 127 0"/>
<feOffset dy="8"/>
<feGaussianBlur stdDeviation="4"/>
<feColorMatrix type="matrix" values="0 0 0 0 0 0 0 0 0 0 0 0 0 0 0 0 0 0 0.25 0"/>
<feBlend mode="normal" in2="BackgroundImageFix" result="effect1_dropShadow"/>
<feBlend mode="normal" in="SourceGraphic" in2="effect1_dropShadow" result="shape"/>
</filter>
<linearGradient id="paint0_linear" x1="165" y1="0" x2="-15" y2="0" gradientUnits="userSpaceOnUse">
<stop stop-color="#CF0EFF"/>
<stop offset="0.884156" stop-color="#FFE082"/>
</linearGradient>
<radialGradient id="paint1_radial" cx="0" cy="0" r="1" gradientUnits="userSpaceOnUse" gradientTransform="translate(136.994 5.02333) rotate(180) scale(9.45331)">
<stop stop-color="#F2B550"/>
<stop offset="0.2542" stop-color="#FDCA54"/>
<stop offset="0.3941" stop-color="#FDD84E"/>
<stop offset="0.4056" stop-color="#FDD853"/>
<stop offset="0.4516" stop-color="#FFDA65"/>
<stop offset="0.4855" stop-color="#FFDA6B"/>
<stop offset="0.6021" stop-color="#FFE8A4"/>
<stop offset="0.7783" stop-color="#FFD45D"/>
<stop offset="0.8016" stop-color="#FCC84D"/>
<stop offset="0.855" stop-color="#F5B12E"/>
<stop offset="0.9069" stop-color="#F1A017"/>
<stop offset="0.9562" stop-color="#EE960A"/>
<stop offset="1" stop-color="#ED9305"/>
</radialGradient>
<radialGradient id="paint2_radial" cx="0" cy="0" r="1" gradientUnits="userSpaceOnUse" gradientTransform="translate(136.994 5.02333) rotate(180) scale(9.45331)">
<stop stop-color="#F2B550"/>
<stop offset="0.2542" stop-color="#FDCA54"/>
<stop offset="0.3941" stop-color="#FDD84E"/>
<stop offset="0.4056" stop-color="#FDD853"/>
<stop offset="0.4516" stop-color="#FFDA65"/>
<stop offset="0.4855" stop-color="#FFDA6B"/>
<stop offset="0.6021" stop-color="#FFE8A4"/>
<stop offset="0.7783" stop-color="#FFD45D"/>
<stop offset="0.8016" stop-color="#FCC84D"/>
<stop offset="0.855" stop-color="#F5B12E"/>
<stop offset="0.9069" stop-color="#F1A017"/>
<stop offset="0.9562" stop-color="#EE960A"/>
<stop offset="1" stop-color="#ED9305"/>
</radialGradient>
<radialGradient id="paint3_radial" cx="0" cy="0" r="1" gradientUnits="userSpaceOnUse" gradientTransform="translate(136.994 5.02335) rotate(180) scale(9.45327)">
<stop stop-color="#F2B550"/>
<stop offset="0.2542" stop-color="#FDCA54"/>
<stop offset="0.3941" stop-color="#FDD84E"/>
<stop offset="0.4056" stop-color="#FDD853"/>
<stop offset="0.4516" stop-color="#FFDA65"/>
<stop offset="0.4855" stop-color="#FFDA6B"/>
<stop offset="0.6021" stop-color="#FFE8A4"/>
<stop offset="0.7783" stop-color="#FFD45D"/>
<stop offset="0.8016" stop-color="#FCC84D"/>
<stop offset="0.855" stop-color="#F5B12E"/>
<stop offset="0.9069" stop-color="#F1A017"/>
<stop offset="0.9562" stop-color="#EE960A"/>
<stop offset="1" stop-color="#ED9305"/>
</radialGradient>
<radialGradient id="paint4_radial" cx="0" cy="0" r="1" gradientUnits="userSpaceOnUse" gradientTransform="translate(140.467 6.19936) rotate(161.07) scale(4.68543)">
<stop offset="0.3158" stop-color="white"/>
<stop offset="0.4708" stop-color="#FFFDFC"/>
<stop offset="0.564" stop-color="#FEF8F4"/>
<stop offset="0.6408" stop-color="#FCEFE6"/>
<stop offset="0.7088" stop-color="#FAE3D1"/>
<stop offset="0.771" stop-color="#F7D3B7"/>
<stop offset="0.8289" stop-color="#F4BF97"/>
<stop offset="0.8835" stop-color="#EFA770"/>
<stop offset="0.9354" stop-color="#EA8C44"/>
<stop offset="0.9835" stop-color="#E56D13"/>
<stop offset="1" stop-color="#E36200"/>
</radialGradient>
<radialGradient id="paint5_radial" cx="0" cy="0" r="1" gradientUnits="userSpaceOnUse" gradientTransform="translate(136.994 5.02335) rotate(180) scale(9.45327)">
<stop stop-color="#F2B550"/>
<stop offset="0.2542" stop-color="#FDCA54"/>
<stop offset="0.3941" stop-color="#FDD84E"/>
<stop offset="0.4056" stop-color="#FDD853"/>
<stop offset="0.4516" stop-color="#FFDA65"/>
<stop offset="0.4855" stop-color="#FFDA6B"/>
<stop offset="0.6021" stop-color="#FFE8A4"/>
<stop offset="0.7783" stop-color="#FFD45D"/>
<stop offset="0.8016" stop-color="#FCC84D"/>
<stop offset="0.855" stop-color="#F5B12E"/>
<stop offset="0.9069" stop-color="#F1A017"/>
<stop offset="0.9562" stop-color="#EE960A"/>
<stop offset="1" stop-color="#ED9305"/>
</radialGradient>
<radialGradient id="paint6_radial" cx="0" cy="0" r="1" gradientUnits="userSpaceOnUse" gradientTransform="translate(148.926 14.3902) scale(9.45331)">
<stop stop-color="#F2B550"/>
<stop offset="0.2542" stop-color="#FDCA54"/>
<stop offset="0.3941" stop-color="#FDD84E"/>
<stop offset="0.4056" stop-color="#FDD853"/>
<stop offset="0.4516" stop-color="#FFDA65"/>
<stop offset="0.4855" stop-color="#FFDA6B"/>
<stop offset="0.6021" stop-color="#FFE8A4"/>
<stop offset="0.7783" stop-color="#FFD45D"/>
<stop offset="0.8016" stop-color="#FCC84D"/>
<stop offset="0.855" stop-color="#F5B12E"/>
<stop offset="0.9069" stop-color="#F1A017"/>
<stop offset="0.9562" stop-color="#EE960A"/>
<stop offset="1" stop-color="#ED9305"/>
</radialGradient>
<radialGradient id="paint7_radial" cx="0" cy="0" r="1" gradientUnits="userSpaceOnUse" gradientTransform="translate(148.926 14.3902) scale(9.45331)">
<stop stop-color="#F2B550"/>
<stop offset="0.2542" stop-color="#FDCA54"/>
<stop offset="0.3941" stop-color="#FDD84E"/>
<stop offset="0.4056" stop-color="#FDD853"/>
<stop offset="0.4516" stop-color="#FFDA65"/>
<stop offset="0.4855" stop-color="#FFDA6B"/>
<stop offset="0.6021" stop-color="#FFE8A4"/>
<stop offset="0.7783" stop-color="#FFD45D"/>
<stop offset="0.8016" stop-color="#FCC84D"/>
<stop offset="0.855" stop-color="#F5B12E"/>
<stop offset="0.9069" stop-color="#F1A017"/>
<stop offset="0.9562" stop-color="#EE960A"/>
<stop offset="1" stop-color="#ED9305"/>
</radialGradient>
<radialGradient id="paint8_radial" cx="0" cy="0" r="1" gradientUnits="userSpaceOnUse" gradientTransform="translate(148.926 14.3903) scale(9.45327)">
<stop stop-color="#F2B550"/>
<stop offset="0.2542" stop-color="#FDCA54"/>
<stop offset="0.3941" stop-color="#FDD84E"/>
<stop offset="0.4056" stop-color="#FDD853"/>
<stop offset="0.4516" stop-color="#FFDA65"/>
<stop offset="0.4855" stop-color="#FFDA6B"/>
<stop offset="0.6021" stop-color="#FFE8A4"/>
<stop offset="0.7783" stop-color="#FFD45D"/>
<stop offset="0.8016" stop-color="#FCC84D"/>
<stop offset="0.855" stop-color="#F5B12E"/>
<stop offset="0.9069" stop-color="#F1A017"/>
<stop offset="0.9562" stop-color="#EE960A"/>
<stop offset="1" stop-color="#ED9305"/>
</radialGradient>
<radialGradient id="paint9_radial" cx="0" cy="0" r="1" gradientUnits="userSpaceOnUse" gradientTransform="translate(145.454 15.5663) rotate(18.9302) scale(4.68543)">
<stop offset="0.3158" stop-color="white"/>
<stop offset="0.4708" stop-color="#FFFDFC"/>
<stop offset="0.564" stop-color="#FEF8F4"/>
<stop offset="0.6408" stop-color="#FCEFE6"/>
<stop offset="0.7088" stop-color="#FAE3D1"/>
<stop offset="0.771" stop-color="#F7D3B7"/>
<stop offset="0.8289" stop-color="#F4BF97"/>
<stop offset="0.8835" stop-color="#EFA770"/>
<stop offset="0.9354" stop-color="#EA8C44"/>
<stop offset="0.9835" stop-color="#E56D13"/>
<stop offset="1" stop-color="#E36200"/>
</radialGradient>
<radialGradient id="paint10_radial" cx="0" cy="0" r="1" gradientUnits="userSpaceOnUse" gradientTransform="translate(148.926 14.3903) scale(9.45327)">
<stop stop-color="#F2B550"/>
<stop offset="0.2542" stop-color="#FDCA54"/>
<stop offset="0.3941" stop-color="#FDD84E"/>
<stop offset="0.4056" stop-color="#FDD853"/>
<stop offset="0.4516" stop-color="#FFDA65"/>
<stop offset="0.4855" stop-color="#FFDA6B"/>
<stop offset="0.6021" stop-color="#FFE8A4"/>
<stop offset="0.7783" stop-color="#FFD45D"/>
<stop offset="0.8016" stop-color="#FCC84D"/>
<stop offset="0.855" stop-color="#F5B12E"/>
<stop offset="0.9069" stop-color="#F1A017"/>
<stop offset="0.9562" stop-color="#EE960A"/>
<stop offset="1" stop-color="#ED9305"/>
</radialGradient>
<linearGradient id="paint11_linear" x1="128.235" y1="60.2681" x2="138.704" y2="6.86484" gradientUnits="userSpaceOnUse">
<stop stop-color="#C20900"/>
<stop offset="0.8235" stop-color="#FF1308"/>
<stop offset="0.986" stop-color="#E60B00"/>
</linearGradient>
<linearGradient id="paint12_linear" x1="132.225" y1="39.9146" x2="136.206" y2="19.6048" gradientUnits="userSpaceOnUse">
<stop stop-color="#C20900"/>
<stop offset="0.604167" stop-color="#FF1308"/>
<stop offset="0.986" stop-color="#E60B00"/>
</linearGradient>
<radialGradient id="paint13_radial" cx="0" cy="0" r="1" gradientUnits="userSpaceOnUse" gradientTransform="translate(123.443 19.3218) rotate(11.091) scale(20.0628)">
<stop stop-color="#F2B550"/>
<stop offset="0.2542" stop-color="#FDCA54"/>
<stop offset="0.3941" stop-color="#FDD84E"/>
<stop offset="0.4056" stop-color="#FDD853"/>
<stop offset="0.4516" stop-color="#FFDA65"/>
<stop offset="0.4855" stop-color="#FFDA6B"/>
<stop offset="0.6021" stop-color="#FFE8A4"/>
<stop offset="0.7783" stop-color="#FFD45D"/>
<stop offset="0.8016" stop-color="#FCC84D"/>
<stop offset="0.855" stop-color="#F5B12E"/>
<stop offset="0.9069" stop-color="#F1A017"/>
<stop offset="0.9562" stop-color="#EE960A"/>
<stop offset="1" stop-color="#ED9305"/>
</radialGradient>
<radialGradient id="paint14_radial" cx="0" cy="0" r="1" gradientUnits="userSpaceOnUse" gradientTransform="translate(123.443 19.3218) rotate(11.091) scale(20.0628)">
<stop stop-color="#F2B550"/>
<stop offset="0.2542" stop-color="#FDCA54"/>
<stop offset="0.3941" stop-color="#FDD84E"/>
<stop offset="0.4056" stop-color="#FDD853"/>
<stop offset="0.4516" stop-color="#FFDA65"/>
<stop offset="0.4855" stop-color="#FFDA6B"/>
<stop offset="0.6021" stop-color="#FFE8A4"/>
<stop offset="0.7783" stop-color="#FFD45D"/>
<stop offset="0.8016" stop-color="#FCC84D"/>
<stop offset="0.855" stop-color="#F5B12E"/>
<stop offset="0.9069" stop-color="#F1A017"/>
<stop offset="0.9562" stop-color="#EE960A"/>
<stop offset="1" stop-color="#ED9305"/>
</radialGradient>
<radialGradient id="paint15_radial" cx="0" cy="0" r="1" gradientUnits="userSpaceOnUse" gradientTransform="translate(123.263 19.0542) rotate(11.091) scale(20.0628)">
<stop stop-color="#F2B550"/>
<stop offset="0.2542" stop-color="#FDCA54"/>
<stop offset="0.3941" stop-color="#FDD84E"/>
<stop offset="0.4056" stop-color="#FDD853"/>
<stop offset="0.4516" stop-color="#FFDA65"/>
<stop offset="0.4855" stop-color="#FFDA6B"/>
<stop offset="0.6021" stop-color="#FFE8A4"/>
<stop offset="0.7783" stop-color="#FFD45D"/>
<stop offset="0.8016" stop-color="#FCC84D"/>
<stop offset="0.855" stop-color="#F5B12E"/>
<stop offset="0.9069" stop-color="#F1A017"/>
<stop offset="0.9562" stop-color="#EE960A"/>
<stop offset="1" stop-color="#ED9305"/>
</radialGradient>
</defs>
</svg>
