<svg width="50" height="54" viewBox="0 0 50 54" fill="none" xmlns="http://www.w3.org/2000/svg">
<rect x="6" width="40" height="40" rx="4" fill="#FFF3E7"/>
<path d="M15.1328 49.1387V47.5273H14.5273C14.2897 47.5273 14.0521 47.555 13.8145 47.6104L13.6533 47.2393H16.1875L16.5635 46.7949L17.2812 47.4053L17.2129 47.5273H15.6504V49.1387H17.0908L17.5645 48.5869L18.3799 49.3096L18.3164 49.4219H15.6504V51.5605C15.6504 51.7005 15.6553 51.8991 15.665 52.1562C15.6715 52.2962 15.6748 52.4036 15.6748 52.4785C15.6748 52.7389 15.6113 52.9196 15.4844 53.0205C15.3607 53.1247 15.1182 53.1963 14.7568 53.2354C14.7471 53.0498 14.6722 52.9212 14.5322 52.8496C14.3955 52.778 14.1025 52.7178 13.6533 52.6689V52.4736H14.9131C15.0042 52.4736 15.0628 52.459 15.0889 52.4297C15.1182 52.4004 15.1328 52.3353 15.1328 52.2344V49.4219H13.6924C13.4515 49.4219 13.2106 49.4512 12.9697 49.5098L12.8086 49.1387H15.1328ZM18.5996 47.3223V47.4541C18.4043 47.4769 18.2708 47.5078 18.1992 47.5469C18.1276 47.5859 18.056 47.6673 17.9844 47.791C17.3138 47.2767 16.7816 46.7721 16.3877 46.2773C16.0524 45.8542 15.7578 45.3643 15.5039 44.8076C15.1751 45.4131 14.7845 45.9779 14.332 46.502C13.7819 47.1367 13.1341 47.7048 12.3887 48.2061L12.3057 48.0889C13.2269 47.2555 13.9821 46.3376 14.5713 45.335C14.8415 44.876 15.0352 44.4674 15.1523 44.1094L15.8115 44.373C15.9157 44.4121 15.9678 44.4626 15.9678 44.5244C15.9613 44.6416 15.862 44.7002 15.6699 44.7002H15.6553C15.9548 45.2178 16.3584 45.7109 16.8662 46.1797C17.387 46.6582 17.9648 47.0391 18.5996 47.3223ZM11.1436 47.498C11.3031 47.0814 11.4463 46.681 11.5732 46.2969C11.6644 46.0137 11.7832 45.5921 11.9297 45.0322H10.4844V53.167L9.9375 53.3135C9.94076 53.1833 9.94564 52.9717 9.95215 52.6787C9.96842 52.1188 9.97656 51.6924 9.97656 51.3994V45.457C9.97656 45.1087 9.96354 44.7458 9.9375 44.3682L10.6553 44.7441H11.8711L12.1787 44.3779L12.8135 44.832C12.8688 44.8711 12.8965 44.9134 12.8965 44.959C12.8965 45.0501 12.7842 45.1429 12.5596 45.2373C12.5335 45.2471 12.5156 45.2552 12.5059 45.2617C12.1803 46.0299 11.8141 46.7673 11.4072 47.4736C11.8467 47.8805 12.1608 48.2663 12.3496 48.6309C12.5221 48.9596 12.61 49.3633 12.6133 49.8418C12.6133 50.3138 12.5221 50.6621 12.3398 50.8867C12.1771 51.0853 11.9232 51.2188 11.5781 51.2871C11.5781 51.2741 11.5781 51.2611 11.5781 51.248C11.5781 51.1146 11.5244 51.0137 11.417 50.9453C11.3096 50.8737 11.124 50.8184 10.8604 50.7793V50.6377H11.5488C11.7441 50.6377 11.8841 50.5677 11.9688 50.4277C12.0566 50.2845 12.1006 50.0501 12.1006 49.7246C12.1006 48.9759 11.7816 48.2337 11.1436 47.498ZM16.4756 50.0469C17.1136 50.5124 17.5547 50.903 17.7988 51.2188C18.069 51.5638 18.2041 51.8682 18.2041 52.1318C18.2041 52.2425 18.1748 52.3337 18.1162 52.4053C18.0609 52.4801 17.9893 52.5176 17.9014 52.5176C17.807 52.5176 17.7337 52.4476 17.6816 52.3076C17.5124 51.8649 17.3285 51.4808 17.1299 51.1553C16.9313 50.8265 16.679 50.4928 16.373 50.1543L16.4756 50.0469ZM13.7461 49.8955L14.332 50.1787C14.4395 50.234 14.4932 50.2926 14.4932 50.3545C14.4932 50.4163 14.4671 50.4587 14.415 50.4814C14.3662 50.5042 14.2588 50.5205 14.0928 50.5303C13.8291 50.9958 13.5622 51.3896 13.292 51.7119C13.0251 52.0309 12.6768 52.3678 12.2471 52.7227L12.1299 52.6055C12.5075 52.1725 12.8411 51.7135 13.1309 51.2285C13.4206 50.7402 13.6257 50.2959 13.7461 49.8955ZM26.6709 49.7295H24.3027V50.999H27.2715L27.7598 50.3887L28.6289 51.1748L28.5654 51.2871H24.3027V51.7168C24.3027 51.9382 24.3076 52.2946 24.3174 52.7861C24.3239 52.9489 24.3271 53.0791 24.3271 53.1768L23.7266 53.3232L23.7363 52.8984C23.7493 52.3939 23.7559 52.0049 23.7559 51.7314V51.2871H20.3232C20.0563 51.2871 19.8203 51.3148 19.6152 51.3701L19.4297 50.999H23.7559V49.7295H21.3389V50.1738L20.7676 50.3398C20.7708 50.2454 20.7773 50.0697 20.7871 49.8125C20.8001 49.4772 20.8066 49.2152 20.8066 49.0264V47.3271C20.8066 47.0212 20.7936 46.7054 20.7676 46.3799L21.2998 46.6533H26.5488L26.8955 46.2871L27.4619 46.6875C27.5205 46.7298 27.5498 46.7738 27.5498 46.8193C27.5498 46.8714 27.5091 46.9251 27.4277 46.9805L27.208 47.1318V48.9531C27.208 49.1094 27.2161 49.3649 27.2324 49.7197C27.2357 49.8369 27.2389 49.9313 27.2422 50.0029L26.6709 50.1689V49.7295ZM26.6709 49.4414V48.2695H21.3389V49.4414H26.6709ZM21.3389 47.9961H26.6709V46.9414H21.3389V47.9961ZM25.7285 45.1543H27.1689L27.6572 44.5439L28.5166 45.3301L28.4531 45.4424H25.7285V45.6084C25.7285 45.7712 25.735 45.9827 25.748 46.2432L25.2012 46.3652C25.2044 46.3066 25.2077 46.2057 25.2109 46.0625C25.2207 45.8672 25.2256 45.7158 25.2256 45.6084V45.4424H22.6182V45.4961C22.6182 45.7044 22.623 45.9469 22.6328 46.2236L22.0908 46.3652C22.0941 46.3066 22.0973 46.2171 22.1006 46.0967C22.1071 45.8623 22.1104 45.6849 22.1104 45.5645V45.4424H20.4307C20.1898 45.4424 19.9521 45.4652 19.7178 45.5107L19.5566 45.1543H22.1104V44.8369C22.1104 44.6156 22.0957 44.391 22.0664 44.1631L22.8232 44.2803C22.9404 44.2998 22.999 44.347 22.999 44.4219C22.999 44.5033 22.9258 44.5749 22.7793 44.6367L22.6182 44.7051V45.1543H25.2256V44.8369C25.2256 44.6351 25.2093 44.4105 25.1768 44.1631L25.9336 44.2803C26.0508 44.2998 26.1094 44.347 26.1094 44.4219C26.1094 44.5033 26.0361 44.5749 25.8896 44.6367L25.7285 44.7051V45.1543ZM34.2881 45.4619V52.3271H37.2764L37.7012 51.7461L38.5752 52.4785L38.5068 52.625H30.2988C30.071 52.625 29.8333 52.6543 29.5859 52.7129L29.4199 52.3271H33.7412V45.4619H30.7285C30.4941 45.4619 30.2549 45.4912 30.0107 45.5498L29.8496 45.1641H36.8516L37.291 44.5977L38.1553 45.3203L38.082 45.4619H34.2881Z" fill="black"/>
<path d="M44 29.9654C44 31.6792 42.6102 33.0689 40.8965 33.0689C39.1828 33.0689 37.793 31.6792 37.793 29.9654C37.793 28.2517 39.1828 26.8619 40.8965 26.8619C42.6103 26.8619 44 28.2517 44 29.9654Z" fill="#535353"/>
<path d="M22.8964 29.9654C22.8964 32.0224 21.2292 33.6896 19.1722 33.6896C17.1152 33.6896 15.448 32.0224 15.448 29.9654C15.448 27.9084 17.1152 26.2412 19.1722 26.2412C21.2292 26.2412 22.8964 27.9084 22.8964 29.9654Z" fill="#535353"/>
<path d="M18.1024 26.3991L16.938 22.5172H12.626C12.1053 22.5172 11.6615 22.8934 11.5758 23.4067L10.6895 28.726C10.5808 29.3747 11.0811 29.9656 11.739 29.9656H15.4483C15.4483 28.281 16.5674 26.859 18.1024 26.3991Z" fill="#81C784"/>
<path d="M15.4222 17.5444L18.1024 26.3992C18.4413 26.2973 18.8001 26.2415 19.1725 26.2415C21.2289 26.2415 22.8967 27.9087 22.8967 29.9657H37.7934C37.7934 28.2513 39.1825 26.8622 40.8969 26.8622C41.5989 26.8622 42.2388 27.1037 42.759 27.4966V25.0001L41.3146 24.3577C34.7377 21.4348 25.9438 19.0166 17.9312 17.8671L15.4484 9.48275L14.7253 7H9.24138C8.55554 7 8 7.55554 8 8.24138C8 8.92665 8.55554 9.48275 9.24138 9.48275H12.9656L16.9368 22.5137" fill="#FFAB4E"/>
<path d="M38.8683 23.3349C36.4985 22.3983 33.9189 21.5299 31.2437 20.7565C31.0687 21.2072 30.9656 21.6938 30.9656 22.2065C30.9656 24.4348 32.7718 26.241 35.0001 26.241C36.8355 26.241 38.3798 25.0127 38.8683 23.3349Z" fill="#E47800"/>
<path d="M19.793 29.9654C19.793 30.3081 19.5149 30.5862 19.1723 30.5862C18.8296 30.5862 18.5515 30.3081 18.5515 29.9654C18.5515 29.6228 18.8296 29.3447 19.1723 29.3447C19.5149 29.3447 19.793 29.6228 19.793 29.9654Z" fill="#A4A4A4"/>
<path d="M41.5173 29.9864C41.5173 30.329 41.2392 30.6071 40.8965 30.6071C40.5539 30.6071 40.2758 30.329 40.2758 29.9864C40.2758 29.6437 40.5539 29.3657 40.8965 29.3657C41.2392 29.3657 41.5173 29.6437 41.5173 29.9864Z" fill="#A4A4A4"/>
<path d="M13.5861 24.3792H11.4136L11.21 25.6008C11.2442 25.6063 11.2746 25.6206 11.31 25.6206H13.5861C13.9293 25.6206 14.2068 25.3431 14.2068 24.9999C14.2068 24.6566 13.9293 24.3792 13.5861 24.3792Z" fill="#4CAF50"/>
<path d="M13.586 26.862H10.9996L10.796 28.0829C10.8302 28.0891 10.8612 28.1033 10.8966 28.1033H13.586C13.9293 28.1033 14.2068 27.8259 14.2068 27.4826C14.2067 27.1394 13.9292 26.862 13.586 26.862Z" fill="#4CAF50"/>
<path d="M16.3902 20.7425L16.7397 21.8963H16.7484L16.3958 20.7387C16.3939 20.74 16.392 20.7412 16.3902 20.7425Z" fill="#E47800"/>
<path d="M22.8982 20.655H16.6912C16.5826 20.655 16.4864 20.6897 16.3977 20.7388L16.7502 21.8964H22.8982C23.2415 21.8964 23.5189 21.6189 23.5189 21.2757C23.5189 20.9324 23.2414 20.655 22.8982 20.655Z" fill="#E47800"/>
<path d="M27.8619 25.6206H17.9309C17.9091 25.6206 17.8911 25.6305 17.8707 25.633L18.1022 26.3989C18.4417 26.2978 18.8005 26.2413 19.1723 26.2413C19.9333 26.2413 20.6396 26.4703 21.2293 26.862H27.8621C28.2053 26.862 28.4828 26.5846 28.4828 26.2413C28.4827 25.898 28.2052 25.6206 27.8619 25.6206Z" fill="#E47800"/>
<path d="M25.3792 23.1378H17.1153L17.4908 24.3792H25.3792C25.7225 24.3792 26 24.1017 26 23.7585C26 23.4152 25.7224 23.1378 25.3792 23.1378Z" fill="#E47800"/>
</svg>
