<svg width="50" height="51" viewBox="0 0 50 51" fill="none" xmlns="http://www.w3.org/2000/svg">
<rect x="6" width="40" height="40" rx="4" fill="#FFF3E7"/>
<path d="M22.5732 46.793H17.7637C17.6986 47.4701 17.5228 48.0771 17.2363 48.6143C16.9596 49.1318 16.4925 49.6917 15.835 50.2939L15.6836 50.1523C16.3542 49.3483 16.7952 48.611 17.0068 47.9404C17.1924 47.348 17.2852 46.5537 17.2852 45.5576V42.4277C17.2852 42.2454 17.277 41.9492 17.2607 41.5391C17.2575 41.4512 17.2559 41.3779 17.2559 41.3193L17.9395 41.7148H22.4316L22.7393 41.29L23.3301 41.7197C23.3984 41.7686 23.4326 41.8158 23.4326 41.8613C23.4326 41.9167 23.387 41.9818 23.2959 42.0566L23.1055 42.2178V47.8916C23.1055 48.0902 23.1104 48.4173 23.1201 48.873L23.125 49.0195C23.1283 49.153 23.1299 49.2572 23.1299 49.332C23.1299 49.5273 23.1152 49.6722 23.0859 49.7666C23.0566 49.8643 23.0029 49.9424 22.9248 50.001C22.8044 50.0921 22.526 50.1702 22.0898 50.2354C22.0898 50.2288 22.0898 50.2158 22.0898 50.1963C22.0898 50.0368 21.9971 49.9229 21.8115 49.8545C21.626 49.7861 21.2402 49.7259 20.6543 49.6738V49.4736H22.3242C22.4219 49.4736 22.487 49.4574 22.5195 49.4248C22.5553 49.3923 22.5732 49.332 22.5732 49.2441V46.793ZM17.8174 44.0537H22.5732V42.0127H17.8174V44.0537ZM22.5732 44.3564H17.8174V45.5967C17.8174 45.9027 17.8076 46.2005 17.7881 46.4902H22.5732V44.3564ZM33.1689 46.6367L33.501 46.2803L34.0674 46.7295C34.1357 46.7848 34.1699 46.8402 34.1699 46.8955C34.1699 46.9964 34.0234 47.0924 33.7305 47.1836C33.4538 47.5938 33.1722 47.9421 32.8857 48.2285C32.6416 48.4694 32.3617 48.6989 32.0459 48.917C32.7002 49.2165 33.5465 49.4215 34.585 49.5322L34.5898 49.6689C34.3913 49.7145 34.2529 49.7682 34.1748 49.8301C34.0999 49.8952 34.0462 50.001 34.0137 50.1475C33.0013 49.9066 32.1826 49.5973 31.5576 49.2197C31.0368 49.5127 30.4606 49.7503 29.8291 49.9326C29.4417 50.0465 28.9502 50.1654 28.3545 50.2891L28.3057 50.1084C29.5687 49.721 30.5241 49.3369 31.1719 48.9561C31.1165 48.917 31.0514 48.8665 30.9766 48.8047C30.6217 48.4987 30.3369 48.1797 30.1221 47.8477C29.9626 47.6003 29.7965 47.2926 29.624 46.9248C29.4645 46.9313 29.2708 46.9525 29.043 46.9883L28.8525 46.6367H31.3818V45.5576H29.6582V45.8604L29.1406 46.0508C29.1634 45.3965 29.1748 44.9163 29.1748 44.6104V42.9697V42.9355C29.1748 42.5384 29.1634 42.1624 29.1406 41.8076L29.7217 42.1494C30.0602 41.9541 30.3092 41.7523 30.4688 41.5439L30.9033 41.9736C30.9554 42.029 30.9814 42.0794 30.9814 42.125C30.9814 42.2096 30.9391 42.252 30.8545 42.252C30.8122 42.252 30.7194 42.221 30.5762 42.1592C30.3125 42.234 30.0065 42.2943 29.6582 42.3398V43.7266H30.0439L30.4248 43.2529L31.1133 43.8877L31.0498 44H29.6582V45.2744H31.3818V41.9199C31.3818 41.7865 31.3688 41.5781 31.3428 41.2949C31.3395 41.2298 31.3363 41.1777 31.333 41.1387L32.0996 41.2949C32.2005 41.3145 32.251 41.36 32.251 41.4316C32.251 41.5065 32.1875 41.5716 32.0605 41.627L31.875 41.7051V45.2744H33.6035V43.9951H33.0566C32.819 43.9951 32.5749 44.0179 32.3242 44.0635L32.1631 43.7217H33.6035V42.4912H32.9883C32.7474 42.4912 32.5033 42.5156 32.2559 42.5645L32.0947 42.208H33.4229L33.7402 41.7686L34.2969 42.1787C34.3815 42.2406 34.4238 42.2959 34.4238 42.3447C34.4238 42.4001 34.3766 42.4619 34.2822 42.5303L34.0869 42.667V44.6006C34.0869 44.8024 34.0951 45.141 34.1113 45.6162C34.1146 45.7171 34.1178 45.8018 34.1211 45.8701L33.6035 46.0361V45.5576H31.875V46.6367H33.1689ZM33.2275 46.9248H29.8584C30.3141 47.641 30.8252 48.1862 31.3916 48.5605L31.416 48.5801C31.4941 48.6289 31.5544 48.6647 31.5967 48.6875L31.6162 48.6729C32.0394 48.3799 32.3942 48.0576 32.6807 47.7061C32.8597 47.488 33.042 47.2275 33.2275 46.9248ZM27.9102 43.1895L28.2422 42.7695L28.7354 43.1162C28.833 43.1878 28.8818 43.248 28.8818 43.2969C28.8818 43.3522 28.8379 43.4206 28.75 43.502L28.5791 43.6582C28.4814 44.7194 28.3691 45.5251 28.2422 46.0752C28.1087 46.6351 27.9508 47.1217 27.7686 47.5352C27.8955 47.6296 28.0176 47.7256 28.1348 47.8232C28.5286 48.1618 28.7256 48.4515 28.7256 48.6924C28.7256 48.79 28.7028 48.873 28.6572 48.9414C28.6149 49.0065 28.5612 49.0391 28.4961 49.0391C28.418 49.0391 28.3317 48.9674 28.2373 48.8242C28.055 48.5443 27.876 48.3083 27.7002 48.1162C27.6383 48.0511 27.5928 48.0023 27.5635 47.9697C27.0719 48.9072 26.3525 49.6836 25.4053 50.2988L25.2979 50.1621C26.141 49.4329 26.7773 48.5947 27.207 47.6475C26.8587 47.3577 26.3932 47.0306 25.8105 46.666C26.0384 45.8978 26.2419 44.9635 26.4209 43.8633L26.4404 43.7363C26.4567 43.6322 26.4697 43.5492 26.4795 43.4873H26.2939C26.1117 43.4873 25.9066 43.5166 25.6787 43.5752L25.498 43.1895H26.5234C26.6374 42.3984 26.7041 41.7246 26.7236 41.168L27.3096 41.29C27.4854 41.3258 27.5732 41.3877 27.5732 41.4756C27.5732 41.5667 27.4756 41.6351 27.2803 41.6807C27.2575 41.6872 27.2396 41.6921 27.2266 41.6953C27.1452 42.2943 27.0671 42.7923 26.9922 43.1895H27.9102ZM28.0566 43.4873H26.9385C26.9157 43.6045 26.888 43.7461 26.8555 43.9121C26.709 44.6217 26.4632 45.5267 26.1182 46.627C26.6846 46.8906 27.0996 47.1055 27.3633 47.2715L27.373 47.2471C27.5098 46.8825 27.6286 46.4772 27.7295 46.0312C27.8271 45.5885 27.9036 45.1328 27.959 44.6641C27.9818 44.459 28.0078 44.1465 28.0371 43.7266C28.0469 43.6224 28.0534 43.5426 28.0566 43.4873Z" fill="black"/>
<path fill-rule="evenodd" clip-rule="evenodd" d="M37.0655 11.6241L37.6986 5.54764C37.845 4.15406 36.5522 3 35.151 3H32.6719C32.0559 9.02699 26.0614 7.69036 22.8161 7.55729C17.719 7.22266 15.9052 13.0329 19.6563 15.746C20.2855 15.1585 21.3521 14.7269 22.4853 14.9304L32.3639 16.6929L32.6263 10.5651L37.0655 11.6241Z" fill="#FFC27E"/>
<path fill-rule="evenodd" clip-rule="evenodd" d="M35.3753 36C37.5617 29.0414 35.8791 24.0488 32.6946 20.2766L20.4299 17.4666C19.7816 17.3183 19.2931 17.421 19.1257 17.1776C13.7168 20.4459 13.0704 28.2448 20.5478 31.0872C19.8824 32.0093 19.2169 34.3725 20.0154 36H35.3753ZM24.9587 24.5259L22.027 27.355L19.0934 24.5259C18.3482 23.8054 18.3273 22.6037 19.0478 21.8585C19.7684 21.1113 20.9681 21.0904 21.7152 21.8109L22.027 22.1114L22.3388 21.8109C23.0841 21.0904 24.2856 21.1113 25.0062 21.8585C25.7268 22.6038 25.7059 23.8054 24.9587 24.5259Z" fill="#FFC27E"/>
<path fill-rule="evenodd" clip-rule="evenodd" d="M24.9587 24.5259C25.7059 23.8054 25.7267 22.6037 25.0062 21.8585C24.2857 21.1113 23.0841 21.0904 22.3389 21.8109L22.027 22.1114L21.7152 21.8109C20.968 21.0904 19.7684 21.1113 19.0478 21.8585C18.3273 22.6038 18.3482 23.8054 19.0935 24.5259L22.027 27.355L24.9587 24.5259Z" fill="#FF951E"/>
<path fill-rule="evenodd" clip-rule="evenodd" d="M36.3906 18.0788L37.0656 11.6241L32.6263 10.565L32.3639 16.6928L22.4853 14.9303C21.3521 14.7269 20.2856 15.1585 19.6563 15.7459C19.3635 16.0216 19.1639 16.3315 19.1011 16.6281C19.0421 16.9057 19.0555 17.073 19.1258 17.1775C19.2931 17.4209 19.7817 17.3182 20.43 17.4665L32.6947 20.2766L33.4666 20.4534C34.8791 20.7767 36.21 19.8128 36.3906 18.0788Z" fill="#FFDCD5"/>
<path fill-rule="evenodd" clip-rule="evenodd" d="M22.816 7.55729C26.0614 7.69036 32.0559 9.02699 32.6719 3H27.2154C25.0252 6.69224 25.6507 7.61054 22.816 7.55729Z" fill="#FFDCD5"/>
</svg>
