<svg width="343" height="100" viewBox="0 0 343 100" fill="none" xmlns="http://www.w3.org/2000/svg">
<g filter="url(#filter0_d)">
<rect x="6" y="18" width="335" height="70" rx="27" fill="url(#paint0_linear)"/>
</g>
<path d="M236.11 28H243.414V28.8724C242.591 28.9142 241.818 29.3818 241.099 30.2751C240.383 31.1684 239.669 32.5084 238.962 34.2926L232.401 50.7883H231.529L223.448 31.536C222.982 30.3635 222.591 29.6354 222.275 29.3562C221.959 29.0771 221.335 28.9166 220.405 28.8724V28H229.943V28.8724H229.677C228.97 28.8724 228.426 29.0003 228.044 29.2539C227.665 29.5074 227.474 29.8564 227.474 30.2984C227.474 30.2681 227.509 30.4473 227.577 30.8381C227.647 31.2289 227.721 31.5267 227.805 31.7267L233.574 45.5309L237.726 35.0998C238.317 33.6529 238.615 32.4758 238.615 31.5639C238.615 30.7101 238.396 30.0448 237.957 29.5772C237.517 29.105 236.903 28.87 236.11 28.87V28ZM223.941 31.3126L231.72 49.9322C232.027 49.3623 232.18 48.9552 232.18 48.7133C232.18 48.4597 232.027 48.0061 231.72 47.3501L225.081 31.4406C224.794 30.752 224.546 30.2309 224.336 29.8704C224.125 29.5121 223.857 29.2446 223.527 29.0701C223.201 28.8956 222.74 28.7886 222.147 28.7468C222.538 28.8933 222.85 29.1492 223.082 29.5074C223.315 29.8657 223.601 30.4659 223.941 31.3126ZM240.848 28.8724H237.726C238.573 29.3586 239.027 30.1937 239.09 31.3755C239.552 30.2472 240.139 29.4121 240.848 28.8724Z" fill="url(#paint1_linear)"/>
<path d="M245.27 28H255.822V28.8724C254.829 28.8933 254.061 29.0236 253.517 29.2609C252.973 29.5005 252.68 29.9774 252.638 30.6962C252.617 31.1405 252.596 31.4895 252.573 31.75C252.552 32.0082 252.542 32.1222 252.542 32.092V46.7011C252.542 47.3245 252.608 47.82 252.74 48.1899C252.873 48.5598 253.061 48.8226 253.303 48.9831C253.545 49.1413 253.824 49.2483 254.143 49.3088C254.459 49.367 255.02 49.4251 255.822 49.4903V50.3626H245.27V49.4903C246.21 49.481 246.92 49.3833 247.401 49.1972C247.883 49.0111 248.195 48.7156 248.336 48.3085C248.478 47.9014 248.551 47.2547 248.551 46.3661V32.2153C248.551 31.3708 248.511 30.745 248.432 30.3379C248.353 29.9308 248.202 29.6377 247.981 29.4586C247.76 29.2795 247.459 29.1539 247.085 29.0841C246.71 29.0166 246.106 28.9445 245.27 28.8701V28ZM249.072 31.757V47.5408C249.072 48.0782 248.976 48.4737 248.785 48.7272C248.595 48.9831 248.269 49.2344 247.804 49.4879C248.49 49.467 249.044 49.353 249.467 49.1483C249.89 48.9413 250.102 48.49 250.102 47.7921V30.98C250.102 30.2612 249.953 29.7238 249.658 29.3632C249.362 29.005 248.776 28.8398 247.899 28.8724C248.702 29.2958 249.104 30.1007 249.104 31.2824C249.104 31.3662 249.102 31.4476 249.097 31.5197C249.09 31.5918 249.081 31.6732 249.072 31.757Z" fill="url(#paint2_linear)"/>
<path d="M265.537 40.2037V46.922C265.537 47.5548 265.63 48.0456 265.814 48.3876C265.998 48.7296 266.251 48.9715 266.568 49.1157C266.884 49.26 267.333 49.353 267.915 49.3926C268.496 49.4368 269.036 49.467 269.531 49.4879V50.3603H258.012V49.4879C258.868 49.467 259.51 49.4182 259.935 49.346C260.363 49.2716 260.703 49.1274 260.95 48.918C261.199 48.7086 261.366 48.4365 261.457 48.1038C261.545 47.7711 261.592 47.3129 261.592 46.7336V32.7712C261.592 31.6081 261.54 30.7846 261.44 30.2984C261.34 29.8145 261.038 29.454 260.538 29.2213C260.035 28.9864 259.193 28.8724 258.012 28.8724V28H268.915C269.399 28 270.562 28.0861 272.4 28.2536C272.99 28.3048 273.621 28.4816 274.293 28.777C274.963 29.0724 275.594 29.4772 276.18 29.989C276.766 30.5031 277.238 31.1079 277.597 31.8105C277.957 32.5154 278.136 33.276 278.136 34.1019C278.136 35.0208 277.955 35.8512 277.59 36.5887C277.227 37.3284 276.666 37.9658 275.91 38.5055C275.154 39.0452 274.202 39.4616 273.056 39.7571C271.911 40.0549 270.576 40.2014 269.054 40.2014H265.537V40.2037ZM262.096 32.5805V47.4757C262.096 48.4783 261.71 49.1506 260.94 49.4879H261.352C262.527 49.4879 263.111 48.9343 263.111 47.8246V33.3249C263.111 32.0245 263.101 31.1754 263.085 30.773C263.069 30.3705 263.001 30.0286 262.88 29.7447C262.759 29.4586 262.541 29.2492 262.229 29.119C261.92 28.9864 261.44 28.8933 260.796 28.8421C261.219 29.0445 261.515 29.2702 261.685 29.5237C261.852 29.775 261.964 30.1356 262.017 30.6008C262.071 31.0638 262.096 31.7244 262.096 32.5805ZM265.537 39.3314H267.754C269.096 39.3314 270.211 39.1709 271.099 38.8475C271.986 38.5265 272.667 37.9821 273.142 37.2168C273.616 36.4514 273.856 35.4232 273.856 34.1321C273.856 32.2013 273.207 30.752 271.906 29.7913C271.39 29.4121 270.867 29.1608 270.339 29.0469C269.808 28.9305 269.154 28.8724 268.373 28.8724C267.475 28.8724 266.828 29.0003 266.433 29.2539C266.035 29.5075 265.788 29.889 265.686 30.3938C265.588 30.9009 265.537 31.6523 265.537 32.6433V39.3314ZM271.606 39.1569C272.874 38.9661 273.819 38.4637 274.442 37.6518C275.066 36.8399 275.375 35.6861 275.375 34.1973C275.375 32.6224 275.059 31.4429 274.426 30.6567C273.793 29.8704 272.842 29.3446 271.574 29.0794C272.176 29.3865 272.688 29.7866 273.111 30.2821C273.532 30.7799 273.851 31.3592 274.061 32.0245C274.272 32.6898 274.377 33.4156 274.377 34.1949C274.379 36.7096 273.453 38.3636 271.606 39.1569Z" fill="url(#paint3_linear)"/>
<path d="M235.705 28.214H243.009V29.0841C242.186 29.1283 241.413 29.5958 240.697 30.4868C239.978 31.3801 239.264 32.7177 238.557 34.5043L231.997 51H231.124L223.043 31.7477C222.578 30.5752 222.189 29.8494 221.87 29.5702C221.552 29.2888 220.928 29.1283 220 29.0841V28.214H229.54V29.0841H229.27C228.563 29.0841 228.019 29.212 227.637 29.4656C227.258 29.7191 227.067 30.0681 227.067 30.5124C227.067 30.4798 227.102 30.6613 227.17 31.0498C227.237 31.4406 227.314 31.736 227.4 31.9384L233.169 45.7403L237.319 35.3138C237.912 33.8669 238.208 32.6898 238.208 31.7802C238.208 30.9241 237.989 30.2612 237.55 29.7912C237.11 29.3213 236.496 29.0841 235.702 29.0841V28.214H235.705ZM223.534 31.5267L231.313 50.1463C231.62 49.574 231.773 49.1692 231.773 48.9273C231.773 48.6737 231.62 48.2201 231.313 47.5641L224.676 31.6523C224.39 30.9637 224.143 30.4426 223.931 30.082C223.72 29.7238 223.45 29.4563 223.124 29.2818C222.796 29.1073 222.336 28.998 221.745 28.9561C222.136 29.1027 222.447 29.3586 222.68 29.7168C222.91 30.0797 223.194 30.6799 223.534 31.5267ZM240.441 29.0841H237.319C238.166 29.5726 238.62 30.4054 238.682 31.5895C239.148 30.4589 239.734 29.6237 240.441 29.0841Z" fill="url(#paint4_linear)"/>
<path d="M244.863 28.214H255.415V29.0841C254.424 29.105 253.654 29.2376 253.11 29.4725C252.566 29.7098 252.273 30.189 252.231 30.9055C252.21 31.3499 252.189 31.7011 252.168 31.9593C252.147 32.2176 252.138 32.3315 252.138 32.299V46.9081C252.138 47.5338 252.203 48.0293 252.335 48.3969C252.468 48.7668 252.654 49.032 252.898 49.1901C253.14 49.3483 253.419 49.4553 253.738 49.5135C254.055 49.5717 254.613 49.6321 255.418 49.695V50.5673H244.866V49.695C245.806 49.6856 246.515 49.5879 246.997 49.4018C247.478 49.2181 247.79 48.9203 247.932 48.5132C248.074 48.1061 248.146 47.4571 248.146 46.5707V32.4293C248.146 31.5825 248.106 30.959 248.027 30.5519C247.948 30.1472 247.797 29.8517 247.576 29.6726C247.352 29.4935 247.055 29.3702 246.68 29.3004C246.306 29.2306 245.701 29.1585 244.866 29.0841V28.214H244.863ZM248.667 31.971V47.7525C248.667 48.2922 248.571 48.6877 248.383 48.9412C248.192 49.1948 247.864 49.4484 247.399 49.7019C248.085 49.681 248.639 49.567 249.062 49.3623C249.486 49.1553 249.695 48.704 249.695 48.0061V31.194C249.695 30.4775 249.549 29.9378 249.253 29.5772C248.958 29.219 248.369 29.0538 247.494 29.0841C248.297 29.5074 248.699 30.3123 248.699 31.4941C248.699 31.5802 248.697 31.6593 248.692 31.7314C248.685 31.8058 248.676 31.8872 248.667 31.971Z" fill="url(#paint5_linear)"/>
<path d="M265.13 40.4154V47.1337C265.13 47.7688 265.223 48.2573 265.409 48.5993C265.593 48.9412 265.844 49.1855 266.16 49.3274C266.477 49.4693 266.926 49.5647 267.507 49.6042C268.089 49.6484 268.629 49.6787 269.124 49.6996V50.572H257.604V49.6996C258.46 49.6787 259.103 49.6321 259.531 49.5577C259.959 49.4833 260.296 49.3414 260.545 49.1297C260.794 48.918 260.961 48.6458 261.052 48.3155C261.143 47.9828 261.187 47.5245 261.187 46.9453V32.9852C261.187 31.8244 261.138 31.0009 261.038 30.5124C260.938 30.0262 260.638 29.6679 260.135 29.4353C259.635 29.2027 258.791 29.0864 257.609 29.0864V28.214H268.512C268.999 28.214 270.159 28.3001 271.999 28.4676C272.59 28.5211 273.221 28.6956 273.893 28.991C274.563 29.2864 275.191 29.6912 275.777 30.203C276.364 30.7148 276.836 31.3219 277.196 32.0245C277.557 32.727 277.736 33.4924 277.736 34.3135C277.736 35.2324 277.552 36.0629 277.189 36.8027C276.824 37.5401 276.266 38.1798 275.51 38.7195C274.756 39.2569 273.805 39.6756 272.658 39.9711C271.513 40.2665 270.18 40.4131 268.657 40.4131H265.13V40.4154ZM261.692 32.7945V47.6897C261.692 48.6947 261.306 49.3669 260.536 49.7019H260.947C262.12 49.7019 262.706 49.1483 262.706 48.0386V33.5389C262.706 32.2385 262.697 31.3894 262.683 30.987C262.666 30.5845 262.599 30.2425 262.476 29.9564C262.355 29.6703 262.138 29.4632 261.827 29.3306C261.517 29.198 261.038 29.105 260.394 29.0538C260.815 29.2539 261.112 29.4818 261.28 29.7354C261.447 29.989 261.561 30.3472 261.613 30.8125C261.666 31.2801 261.692 31.9384 261.692 32.7945ZM265.13 39.5454H267.349C268.691 39.5454 269.803 39.3849 270.692 39.0615C271.581 38.7381 272.26 38.1961 272.737 37.4284C273.211 36.6631 273.449 35.6372 273.449 34.3461C273.449 32.413 272.8 30.9637 271.499 30.0053C270.983 29.6237 270.459 29.3772 269.931 29.2585C269.401 29.1422 268.747 29.0841 267.966 29.0841C267.068 29.0841 266.421 29.212 266.026 29.4656C265.628 29.7191 265.381 30.1006 265.279 30.6078C265.179 31.1149 265.128 31.864 265.128 32.8573V39.5454H265.13ZM271.199 39.3686C272.467 39.1778 273.412 38.6777 274.035 37.8635C274.658 37.0516 274.97 35.9001 274.97 34.4089C274.97 32.8364 274.654 31.6546 274.021 30.866C273.386 30.0797 272.434 29.554 271.169 29.2888C271.771 29.5958 272.283 29.9983 272.707 30.4938C273.13 30.9893 273.444 31.5709 273.658 32.2362C273.87 32.9038 273.977 33.6273 273.977 34.4066C273.972 36.9236 273.049 38.58 271.199 39.3686Z" fill="url(#paint6_linear)"/>
<g filter="url(#filter1_d)">
<path d="M14.1994 54.2813C14.6103 55.669 13.8007 57.1664 12.4183 57.5757C11.0359 57.9851 9.54157 57.1698 9.13069 55.7822C8.71981 54.3946 9.52938 52.8971 10.9118 52.4878C12.2941 52.0785 13.7885 52.8937 14.1994 54.2813Z" fill="url(#paint7_linear)"/>
<path d="M93.3784 30.8361C93.7893 32.2237 92.9797 33.7212 91.5974 34.1305C90.215 34.5398 88.7206 33.7246 88.3097 32.3369C87.8988 30.9493 88.7084 29.4519 90.0908 29.0425C91.4732 28.6332 92.9675 29.4485 93.3784 30.8361Z" fill="url(#paint8_linear)"/>
<path d="M27.5381 38.6766C27.949 40.0643 27.1394 41.5617 25.7571 41.971C24.3747 42.3804 22.8803 41.5651 22.4694 40.1775C22.0585 38.7899 22.8681 37.2924 24.2505 36.8831C25.6329 36.4738 27.1272 37.289 27.5381 38.6766Z" fill="url(#paint9_linear)"/>
<path d="M73.8475 24.9642C74.2584 26.3519 73.4488 27.8493 72.0664 28.2587C70.684 28.668 69.1897 27.8527 68.7788 26.4651C68.3679 25.0775 69.1775 23.58 70.5599 23.1707C72.019 22.7386 73.4366 23.5766 73.8475 24.9642Z" fill="url(#paint10_linear)"/>
<path d="M47.2493 15.8186C47.9798 18.2855 46.5765 20.8811 44.119 21.6088C41.6614 22.3365 39.0712 20.9234 38.3407 18.4565C37.6871 15.9669 39.0903 13.3713 41.5479 12.6436C44.0054 11.9159 46.5189 13.3517 47.2493 15.8186Z" fill="url(#paint11_linear)"/>
<path d="M87.4379 67.4763L87.7141 64.4598L88.1316 60.2276L88.8669 51.7088L89.2843 47.4766L90.9749 31.4639L77.1502 51.0695L71.3671 25.6148L65.2362 52.5849L42.712 16.5751L43.521 57.6733L24.8813 39.2955L33.8899 63.7952L11.6194 54.8775L21.7558 67.3882L24.4103 70.7108L29.6652 77.4559L32.2429 80.8012L34.8206 84.1466C51.2723 75.6696 69.0978 70.1399 87.4379 67.4763Z" fill="url(#paint12_linear)"/>
<path d="M88.5026 68.2511L88.3281 70.4829C69.988 73.1464 52.1625 78.6762 35.7336 87.2302L33.5918 84.5104L31.7486 85.0562L31.8939 85.2647L34.4716 88.6101L37.0493 91.9554C53.5009 83.4785 71.3265 77.9487 89.6437 75.2081L89.92 72.1916L90.3374 67.9594L90.3458 67.7053L88.5026 68.2511Z" fill="url(#paint13_linear)"/>
<path d="M22.2261 48.3829C22.2261 48.3829 22.3257 48.4372 22.2261 48.3829C22.1201 50.8459 23.0331 53.9295 27.6989 56.992C27.6989 56.992 23.992 54.0648 23.0354 49.9879C23.3571 50.228 23.6021 50.4909 23.8781 50.5769C30.1545 54.0009 30.9428 60.8947 30.9428 60.8947C18.4063 59.7436 22.2261 48.3829 22.2261 48.3829Z" fill="url(#paint14_linear)"/>
<path d="M77.9422 32.3044C79.3721 34.3126 80.2852 37.3962 78.0391 42.5053C78.0391 42.5053 79.5545 38.0318 78.0604 34.1141C78.0209 34.545 77.9586 34.8989 77.7739 35.1213C74.3737 41.4106 77.4659 47.6222 77.4659 47.6222C87.3317 39.7538 77.9422 32.3044 77.9422 32.3044Z" fill="url(#paint15_linear)"/>
<path d="M37.0547 38.3742C36.9779 38.3969 37.0008 38.474 37.0547 38.3742C36.1434 40.6564 36.1889 43.9131 39.8001 48.2101C39.8001 48.2101 37.1395 44.3024 37.4033 40.1156C37.5175 40.5011 37.6856 40.7867 37.9305 41.0496C42.9593 46.1846 41.7218 53.0075 41.7218 53.0075C30.0926 48.1498 37.0547 38.3742 37.0547 38.3742Z" fill="url(#paint16_linear)"/>
<path d="M59.7102 31.6658C59.7102 31.6658 59.7331 31.7429 59.7102 31.6658C61.6405 33.1067 63.3755 35.863 62.7628 41.4108C62.7628 41.4108 62.8669 36.6844 60.366 33.3163C60.4034 33.7245 60.4179 34.0556 60.3556 34.4095C58.9334 41.4547 63.6862 46.5037 63.6862 46.5037C70.8725 36.0748 59.7102 31.6658 59.7102 31.6658Z" fill="url(#paint17_linear)"/>
</g>
<path d="M138.785 37.1055V45.4844C138.785 45.8516 138.965 46.0352 139.324 46.0352H142.559C142.84 46.0352 143.035 45.9766 143.145 45.8594C143.262 45.7344 143.391 45.4453 143.531 44.9922C143.852 43.9766 144.133 43.0039 144.375 42.0742H144.914C144.922 42.2539 144.938 42.5508 144.961 42.9648C144.977 43.5508 144.996 44 145.02 44.3125C145.051 44.8516 145.094 45.2109 145.148 45.3906C145.203 45.5703 145.324 45.7617 145.512 45.9648C145.809 46.293 145.957 46.6211 145.957 46.9492C145.957 47.5117 145.707 47.9492 145.207 48.2617C144.707 48.582 144.012 48.7422 143.121 48.7422H138.223C137.277 48.7422 136.613 48.582 136.23 48.2617C135.848 47.9492 135.656 47.4062 135.656 46.6328V37.7969C134.539 38.0234 133.648 38.1914 132.984 38.3008V40.3281C132.984 43.0625 132.062 45.1719 130.219 46.6562C128.938 47.6875 126.922 48.6055 124.172 49.4102L123.973 48.918C125.816 47.8398 127.207 46.7422 128.145 45.625C129.285 44.2656 129.855 42.4219 129.855 40.0938V38.8047C129.449 38.8672 128.824 38.9609 127.98 39.0859C127.855 39.4844 127.746 39.7422 127.652 39.8594C127.566 39.9688 127.434 40.0234 127.254 40.0234C127.098 40.0234 126.98 39.9766 126.902 39.8828C126.832 39.7812 126.754 39.5742 126.668 39.2617L125.824 36.1211H126.34C127.277 35.2148 128.016 34.4531 128.555 33.8359C129.078 33.25 129.738 32.4102 130.535 31.3164H126.281C125.711 31.3164 125.133 31.3984 124.547 31.5625L123.938 30.3906H134.18C133.969 30.2578 133.777 29.9922 133.605 29.5938C133.34 28.9531 133.117 28.4883 132.938 28.1992C132.766 27.9102 132.516 27.5859 132.188 27.2266L132.363 26.8633C132.488 26.8789 132.727 26.9102 133.078 26.957C134.312 27.1211 135.18 27.3203 135.68 27.5547C136.383 27.8672 136.734 28.3242 136.734 28.9258C136.711 29.6367 136.406 30.125 135.82 30.3906H141.504L143.203 28.293L146.215 30.9062L145.992 31.3164H135.445C134.562 32.1289 133.52 32.9219 132.316 33.6953C130.816 34.6797 129.406 35.4961 128.086 36.1445H128.426C131.777 36.1445 135.574 36.0781 139.816 35.9453C139.309 34.9922 138.582 33.9844 137.637 32.9219L138.023 32.5234C139.562 33.1875 140.816 33.8516 141.785 34.5156C143.262 35.5156 144 36.5508 144 37.6211C144 38.1758 143.84 38.6289 143.52 38.9805C143.207 39.3242 142.797 39.4961 142.289 39.4961C141.875 39.4961 141.578 39.4062 141.398 39.2266C141.219 39.0391 140.992 38.6016 140.719 37.9141C140.688 37.8281 140.66 37.7539 140.637 37.6914C140.504 37.3789 140.363 37.0625 140.215 36.7422C139.941 36.8125 139.5 36.9258 138.891 37.082L138.785 37.1055ZM155.965 47.4062V35.0312C155.965 33.9297 155.938 33.0156 155.883 32.2891L159.129 33.4141H160.172L160.242 30.8828H156.938C156.391 30.8828 155.816 30.9688 155.215 31.1406L154.605 29.9688H160.266L160.277 29.2422L160.289 28.9023C160.305 28.4961 160.312 28.1836 160.312 27.9648C160.312 27.5586 160.297 27.1992 160.266 26.8867L163.84 27.4609C164.098 27.5 164.227 27.6289 164.227 27.8477C164.227 27.9727 164.172 28.0781 164.062 28.1641C163.953 28.2422 163.703 28.3711 163.312 28.5508L163.254 29.9688H166.277L167.648 28.2109L170.32 30.543L170.168 30.8828H163.219L163.113 33.4141H164.637L165.645 32.1016L168.105 33.3555C168.332 33.4727 168.477 33.5625 168.539 33.625C168.602 33.6875 168.633 33.7734 168.633 33.8828C168.633 34.0391 168.512 34.25 168.27 34.5156L167.836 34.9961V47.2539L168.891 45.4727L170.602 47.9805L170.449 48.3203H156C155.445 48.3203 154.871 48.4023 154.277 48.5664L153.668 47.4062H155.965ZM158.977 47.4062H164.824V44.6055H158.977V47.4062ZM164.824 34.3047H158.977V36.8359H164.824V34.3047ZM164.824 37.7383H158.977V40.2695H164.824V37.7383ZM164.824 41.1719H158.977V43.7148H164.824V41.1719ZM152.613 33.6719L153.551 33.8242C153.934 33.8867 154.125 34.0234 154.125 34.2344C154.125 34.3359 154.062 34.4375 153.938 34.5391C153.82 34.6406 153.57 34.7969 153.188 35.0078V44.043C153.188 44.6602 153.199 45.6211 153.223 46.9258C153.238 47.7617 153.25 48.4023 153.258 48.8477L150.223 49.375L150.234 48.6719C150.273 46.6406 150.293 45.0508 150.293 43.9023V37.4219C149.551 38.4062 148.773 39.2852 147.961 40.0586L147.574 39.7891C148.512 37.6328 149.234 35.8242 149.742 34.3633C150.602 31.8555 151.184 29.8125 151.488 28.2344C151.59 27.7109 151.664 27.2227 151.711 26.7695L155.016 27.6719C155.453 27.7891 155.672 27.9648 155.672 28.1992C155.672 28.3789 155.602 28.5117 155.461 28.5977C155.328 28.6836 155.059 28.7695 154.652 28.8555C154.09 30.5039 153.41 32.1094 152.613 33.6719ZM177.914 32.4648H179.871L180.973 30.9648L183.551 32.5234C183.832 32.6953 183.973 32.8789 183.973 33.0742C183.973 33.3086 183.742 33.6172 183.281 34C183.188 34.0781 183.117 34.1406 183.07 34.1875C183.039 37.0391 182.984 39.3086 182.906 40.9961C182.805 43.2383 182.633 44.8125 182.391 45.7188C182.156 46.5938 181.863 47.2617 181.512 47.7227C181.16 48.1914 180.68 48.5391 180.07 48.7656C179.578 48.9531 178.906 49.0742 178.055 49.1289C178.062 48.9961 178.066 48.8633 178.066 48.7305C178.066 48.1367 177.914 47.6875 177.609 47.3828C177.305 47.0859 176.746 46.8359 175.934 46.6328V46H178.102C178.688 46 179.078 45.8242 179.273 45.4727C179.445 45.1602 179.582 44.5312 179.684 43.5859C180.02 40.5625 180.188 37.1719 180.188 33.4141H177.914C177.891 35.4844 177.82 37.1016 177.703 38.2656C177.594 39.4297 177.402 40.543 177.129 41.6055C176.277 44.7773 174.574 47.3672 172.02 49.375L171.68 49.0586C172.469 47.6367 173.082 46.2148 173.52 44.793C173.965 43.3633 174.305 41.7109 174.539 39.8359C174.75 38.0625 174.867 35.9219 174.891 33.4141H174.117C173.547 33.4141 172.965 33.5 172.371 33.6719L171.738 32.4648H174.902V29.4531C174.902 28.6719 174.859 27.832 174.773 26.9336L178.289 27.4375C178.68 27.4922 178.875 27.6484 178.875 27.9062C178.875 28.125 178.699 28.3242 178.348 28.5039L177.914 28.7266V32.4648ZM187.559 30.5078H189.973L191.039 28.9258L193.699 30.3672C194.043 30.5547 194.215 30.7344 194.215 30.9062C194.215 31.0625 194.098 31.2617 193.863 31.5039L193.277 32.1016V43.2461C193.277 43.957 193.301 45.0703 193.348 46.5859C193.371 47.3047 193.387 47.8633 193.395 48.2617L190.266 48.9648V46.6797H187.418V48.6016L184.266 49.2109C184.273 48.8516 184.293 48.1406 184.324 47.0781C184.379 45.2578 184.406 43.8398 184.406 42.8242V32.0195C184.406 31.3711 184.375 30.418 184.312 29.1602L187.559 30.5078ZM190.266 31.4219H187.418V45.7656H190.266V31.4219ZM208.172 32.6641C208.906 33.0781 209.418 33.4727 209.707 33.8477C209.996 34.2148 210.141 34.6562 210.141 35.1719C210.141 35.5625 210.066 35.8711 209.918 36.0977C209.777 36.3242 209.582 36.4375 209.332 36.4375C208.965 36.4375 208.758 36.1289 208.711 35.5117C208.648 34.5664 208.422 33.6719 208.031 32.8281L208.172 32.6641ZM206.309 38.9805L205.43 39.1562C205.438 38.9141 205.457 38.4727 205.488 37.832C205.535 36.7852 205.559 36.0312 205.559 35.5703V32.5C205.559 31.6328 205.535 30.8203 205.488 30.0625L205.465 29.7344L208.488 30.9766H212.238C212.527 29.4609 212.703 28.0625 212.766 26.7812L215.531 27.625C215.789 27.7109 215.961 27.7891 216.047 27.8594C216.133 27.9297 216.176 28.0312 216.176 28.1641C216.176 28.3125 216.125 28.4219 216.023 28.4922C215.922 28.5625 215.73 28.6211 215.449 28.668L215.262 28.7031C214.535 29.7266 213.895 30.4844 213.34 30.9766H214.594L215.637 29.6523L217.77 30.9766C218.09 31.1719 218.25 31.3555 218.25 31.5273C218.25 31.707 218.129 31.9062 217.887 32.125L217.312 32.6406V35.5C217.312 35.9141 217.344 36.875 217.406 38.3828L214.875 38.9688V38.2305H207.996V38.6289L206.391 38.957L209.461 40.2461H213.234L214.348 38.8398L216.914 40.1758C217.258 40.3555 217.43 40.5508 217.43 40.7617C217.43 40.9258 217.301 41.1289 217.043 41.3711L216.469 41.9219V45.7188C216.469 45.8672 216.473 46.0703 216.48 46.3281L216.574 48.7188L213.574 49.3398V47.8047H209.297V48.7422L206.297 49.3164L206.344 47.9102C206.383 46.918 206.402 46.1992 206.402 45.7539V41.7109V41.6641C206.402 40.9609 206.371 40.0664 206.309 38.9805ZM213.574 41.1602H209.297V43.5039H213.574V41.1602ZM213.574 44.418H209.297V46.8906H213.574V44.418ZM214.875 31.8906H212.52V37.3164H214.875V34.0703L214.828 34.082C214.352 34.9805 213.719 35.8555 212.93 36.707L212.637 36.543C213.098 34.9023 213.355 33.5547 213.41 32.5L214.875 33.1328V31.8906ZM210.258 31.8906H207.996V37.3164H210.258V31.8906ZM200.836 43.457C200.656 44.0508 200.418 44.6328 200.121 45.2031C199.27 46.7891 197.809 48.1758 195.738 49.3633L195.445 48.9062C196.875 47.4141 197.91 45.875 198.551 44.2891C199.168 42.7812 199.477 40.7305 199.477 38.1367V34.2812C199.477 33.5625 199.449 32.7148 199.395 31.7383L201.832 32.2539C202.066 32.3008 202.184 32.4258 202.184 32.6289C202.184 32.8086 202.059 32.9844 201.809 33.1562L201.41 33.4141V38.1836C201.402 40.1055 201.27 41.625 201.012 42.7422C202.277 43.3125 203.18 43.8555 203.719 44.3711C204.383 45.0273 204.715 45.6875 204.715 46.3516C204.715 46.8203 204.59 47.1953 204.34 47.4766C204.098 47.7578 203.777 47.8984 203.379 47.8984C202.832 47.8984 202.461 47.5078 202.266 46.7266C202 45.6875 201.695 44.8555 201.352 44.2305C201.188 43.9492 201.016 43.6914 200.836 43.457ZM198.762 29.2305H202.113L203.051 27.8477L205.043 29.207C205.285 29.3789 205.406 29.543 205.406 29.6992C205.406 29.8633 205.309 30.0469 205.113 30.25L204.551 30.8477V38.0898C204.551 38.3008 204.555 38.5938 204.562 38.9688L204.645 42.0273L202.441 42.6484V30.1562H198.492V42.707L196.289 43.2695C196.297 42.8789 196.312 42.207 196.336 41.2539C196.367 39.957 196.383 38.9531 196.383 38.2422V31.4922C196.383 30.4141 196.344 29.2266 196.266 27.9297L198.762 29.2305ZM207.152 26.9336C207.27 26.9648 207.484 27.0195 207.797 27.0977C208.781 27.3555 209.457 27.6133 209.824 27.8711C210.324 28.2305 210.574 28.7188 210.574 29.3359C210.574 29.7891 210.453 30.1523 210.211 30.4258C209.977 30.6992 209.66 30.8359 209.262 30.8359C208.699 30.8359 208.34 30.543 208.184 29.957C207.895 28.8477 207.484 27.9609 206.953 27.2969L207.152 26.9336Z" fill="url(#paint18_linear)"/>
<path d="M131.142 63.9785L131.415 63.9834L131.078 66.083H126.918C126.947 65.6468 126.99 65.305 127.045 65.0576C127.1 64.8102 127.188 64.5742 127.309 64.3496C127.458 64.0664 127.66 63.8174 127.914 63.6025C128.171 63.3844 128.599 63.0996 129.198 62.748C129.615 62.5007 129.918 62.2321 130.106 61.9424C130.295 61.6527 130.39 61.319 130.39 60.9414C130.39 60.4857 130.269 60.1309 130.028 59.877C129.817 59.6589 129.542 59.5498 129.203 59.5498C128.689 59.5498 128.31 59.7744 128.065 60.2236C127.965 60.4059 127.914 60.5492 127.914 60.6533C127.914 60.7054 127.932 60.7673 127.968 60.8389C128.02 60.9398 128.046 61.0309 128.046 61.1123C128.046 61.2458 127.997 61.3548 127.899 61.4395C127.802 61.5241 127.675 61.5664 127.519 61.5664C127.17 61.5664 126.996 61.3825 126.996 61.0146C126.996 60.6468 127.131 60.3001 127.401 59.9746C127.815 59.4798 128.428 59.2324 129.242 59.2324C129.936 59.2324 130.469 59.4147 130.844 59.7793C131.166 60.0951 131.327 60.515 131.327 61.0391C131.327 61.5111 131.197 61.9098 130.937 62.2354C130.705 62.5218 130.357 62.7741 129.892 62.9922C129.556 63.1484 129.28 63.2803 129.062 63.3877C128.547 63.6383 128.152 63.9818 127.875 64.418C127.732 64.6458 127.608 64.9486 127.504 65.3262H129.989C130.185 65.3262 130.328 65.3132 130.419 65.2871C130.513 65.2611 130.593 65.2106 130.658 65.1357C130.762 65.0251 130.883 64.7581 131.02 64.335C131.049 64.2438 131.09 64.125 131.142 63.9785ZM137.382 61.8301V59.8672H135.15C134.63 60.7298 133.941 61.5094 133.085 62.2061L132.953 62.0352C133.676 61.1009 134.218 60.1488 134.579 59.1787C134.745 58.736 134.851 58.3698 134.896 58.0801L135.893 58.373C136.036 58.4186 136.107 58.4788 136.107 58.5537C136.107 58.6644 135.992 58.7409 135.761 58.7832C135.731 58.7865 135.71 58.7897 135.697 58.793C135.577 59.0729 135.456 59.3219 135.336 59.54H140.019L140.6 58.8613L141.654 59.7305L141.576 59.8672H138.241V61.8301H139.833L140.346 61.21L141.361 62.0156L141.283 62.1523H138.241V64.3789H140.341L140.912 63.6611L141.957 64.5742L141.879 64.7158H138.241V65.6533C138.241 65.8682 138.248 66.2132 138.261 66.6885C138.267 66.9001 138.271 67.0677 138.271 67.1914L137.353 67.3721C137.356 67.2679 137.361 67.0791 137.367 66.8057C137.377 66.3109 137.382 65.9316 137.382 65.668V64.7158H133.598C133.363 64.7158 133.124 64.7484 132.88 64.8135L132.675 64.3789H134.35V62.5039C134.35 62.1621 134.338 61.7747 134.315 61.3418L135.321 61.8301H137.382ZM137.382 62.1523H135.194V64.3789H137.382V62.1523ZM143.368 61.4639H143.075L143.466 59.3398H147.943V59.9209C147.517 60.5719 147.188 61.1074 146.957 61.5273C146.446 62.4551 146.08 63.3438 145.858 64.1934C145.744 64.6393 145.676 65.082 145.653 65.5215C145.64 65.7689 145.614 65.9251 145.575 65.9902C145.491 66.127 145.326 66.1953 145.082 66.1953C144.757 66.1953 144.594 66.0521 144.594 65.7656C144.594 65.3522 144.773 64.6963 145.131 63.7979C145.342 63.264 145.6 62.7301 145.902 62.1963C146.208 61.6624 146.654 60.9658 147.24 60.1064H144.569C144.306 60.1064 144.115 60.1471 143.998 60.2285C143.884 60.3066 143.775 60.4727 143.671 60.7266L143.368 61.4639ZM148.949 62.4111H154.052V62.9482H148.949V62.4111ZM156.2 65.2773C156.2 65.4401 156.378 65.585 156.732 65.7119C156.983 65.8031 157.19 65.8486 157.353 65.8486C157.961 65.8486 158.388 65.5785 158.632 65.0381C158.736 64.8102 158.814 64.5433 158.866 64.2373C158.922 63.9281 158.97 63.4788 159.013 62.8896C158.772 63.1989 158.515 63.4235 158.241 63.5635C157.971 63.7002 157.65 63.7686 157.279 63.7686C156.589 63.7686 156.049 63.5423 155.658 63.0898C155.316 62.6992 155.146 62.1963 155.146 61.5811C155.146 60.8389 155.39 60.2448 155.878 59.7988C156.304 59.4147 156.835 59.2227 157.47 59.2227C158.326 59.2227 158.965 59.5596 159.389 60.2334C159.743 60.7998 159.921 61.5648 159.921 62.5283C159.921 63.6611 159.706 64.5628 159.276 65.2334C158.866 65.8682 158.217 66.1855 157.328 66.1855C156.723 66.1855 156.223 66.0456 155.829 65.7656C155.491 65.5215 155.321 65.2301 155.321 64.8916C155.321 64.7354 155.37 64.61 155.468 64.5156C155.569 64.418 155.701 64.3691 155.863 64.3691C156.033 64.3691 156.166 64.4115 156.264 64.4961C156.365 64.5775 156.415 64.6865 156.415 64.8232C156.415 64.973 156.363 65.0934 156.259 65.1846C156.22 65.2204 156.2 65.2513 156.2 65.2773ZM157.519 59.4961C157.242 59.4961 156.983 59.5791 156.742 59.7451C156.518 59.8981 156.342 60.1309 156.215 60.4434C156.091 60.7559 156.029 61.1107 156.029 61.5078C156.029 62.1133 156.174 62.5771 156.464 62.8994C156.718 63.1761 157.055 63.3145 157.475 63.3145C157.969 63.3145 158.349 63.1289 158.612 62.7578C158.843 62.4323 158.959 62.0026 158.959 61.4688C158.959 60.8665 158.804 60.375 158.495 59.9941C158.225 59.6621 157.899 59.4961 157.519 59.4961ZM166.02 61.9814C166.003 63.0003 165.893 63.8695 165.688 64.5889C165.349 65.7152 164.687 66.6445 163.7 67.377L163.583 67.25C164.241 66.3451 164.675 65.4873 164.887 64.6768C165.072 63.9606 165.165 62.9954 165.165 61.7812C165.165 61.5241 165.168 61.1497 165.175 60.6582C165.178 60.388 165.18 60.1829 165.18 60.043C165.18 59.5352 165.162 59.0957 165.126 58.7246L166.171 59.1592C167.056 58.9606 167.847 58.7018 168.544 58.3828C168.71 58.3047 168.879 58.2054 169.052 58.085L169.789 58.749C169.861 58.8174 169.896 58.8792 169.896 58.9346C169.896 59.0485 169.833 59.1055 169.706 59.1055C169.651 59.1055 169.547 59.0811 169.394 59.0322C169.371 59.0257 169.351 59.0192 169.335 59.0127C168.603 59.1657 167.87 59.2812 167.138 59.3594C166.786 59.3984 166.413 59.4294 166.02 59.4521V61.6396H168.788L169.354 60.9414L170.351 61.8398L170.277 61.9814H168.72V65.3115V65.3457C168.72 65.5996 168.725 66.0033 168.734 66.5566C168.738 66.8138 168.741 67.0156 168.744 67.1621L167.855 67.3135C167.859 67.1312 167.865 66.8203 167.875 66.3809C167.885 65.9219 167.89 65.5654 167.89 65.3115V61.9814H166.02ZM162.562 60.2334V59.1934C162.562 58.8223 162.548 58.4577 162.519 58.0996L163.578 58.3145C163.702 58.3372 163.764 58.3893 163.764 58.4707C163.764 58.5423 163.715 58.6042 163.617 58.6562L163.397 58.7783V60.2334H163.725L164.174 59.6621L164.989 60.4287L164.911 60.5703H163.397V62.7383C163.847 62.6178 164.309 62.4762 164.784 62.3135L164.862 62.46C164.374 62.7757 163.886 63.0524 163.397 63.29V65.1016C163.397 65.2676 163.401 65.502 163.407 65.8047C163.417 66.0553 163.422 66.2425 163.422 66.3662C163.422 66.7048 163.327 66.9342 163.139 67.0547C162.969 67.1654 162.663 67.2386 162.221 67.2744C162.221 67.0075 162.164 66.8236 162.05 66.7227C161.939 66.625 161.692 66.5387 161.308 66.4639V66.2686L162.343 66.2734C162.431 66.2734 162.489 66.2572 162.519 66.2246C162.548 66.1953 162.562 66.1351 162.562 66.0439V63.666C162.504 63.6888 162.408 63.7279 162.274 63.7832C162.167 63.8288 162.084 63.8646 162.025 63.8906L161.781 63.9883C161.775 64.125 161.76 64.2145 161.737 64.2568C161.718 64.2992 161.679 64.3203 161.62 64.3203C161.555 64.3203 161.5 64.2617 161.454 64.1445L161.117 63.2412C161.54 63.1761 162.022 63.0785 162.562 62.9482V60.5703H162.021C161.776 60.5703 161.534 60.5996 161.293 60.6582L161.088 60.2334H162.562ZM178.217 62.46V60.0869H178.983V62.46H181.073V62.9971H178.983V65.502H178.217V62.9971H175.971V62.46H178.217ZM189.73 59.7939L190.6 60.209C190.733 60.2741 190.8 60.3408 190.8 60.4092C190.8 60.5329 190.673 60.6012 190.419 60.6143C190.39 60.6143 190.367 60.6143 190.351 60.6143C189.501 61.8154 188.541 62.8408 187.47 63.6904C188.531 63.6253 189.535 63.5212 190.482 63.3779L190.551 63.5684C189.877 63.8646 188.996 64.1462 187.909 64.4131L187.606 64.4863C187.587 64.6361 187.566 64.7321 187.543 64.7744C187.52 64.8135 187.479 64.833 187.421 64.833C187.34 64.833 187.273 64.7712 187.221 64.6475L186.83 63.7197L187.055 63.71C187.842 62.8278 188.44 62.0677 188.847 61.4297C188.599 61.5176 188.21 61.6413 187.68 61.8008L187.499 61.8545C187.499 61.8643 187.496 61.8887 187.489 61.9277C187.463 62.0872 187.406 62.167 187.318 62.167C187.25 62.167 187.185 62.0905 187.123 61.9375L186.815 61.1562H186.962C187.239 60.7656 187.502 60.3229 187.753 59.8281C188.069 59.2064 188.295 58.6432 188.432 58.1387L189.35 58.4805C189.454 58.5195 189.519 58.5505 189.545 58.5732C189.574 58.596 189.589 58.6302 189.589 58.6758C189.589 58.7507 189.561 58.8011 189.506 58.8271C189.451 58.8499 189.325 58.8678 189.13 58.8809C188.498 59.8802 187.89 60.6387 187.304 61.1562C188.026 61.1432 188.612 61.1221 189.062 61.0928C189.328 60.6533 189.551 60.2204 189.73 59.7939ZM193.378 59.3105V66.4248H194.56L195.092 65.751L196.083 66.6006L196 66.7617H190.712C190.481 66.7617 190.242 66.7926 189.994 66.8545L189.794 66.4248H192.514V59.3105H191.288C191.054 59.3105 190.813 59.3415 190.565 59.4033L190.365 58.9736H194.389L194.916 58.334L195.902 59.1494L195.824 59.3105H193.378ZM186.894 65.8193C188.033 65.6077 188.827 65.4515 189.276 65.3506C189.729 65.2497 190.194 65.126 190.673 64.9795L190.751 65.165C190.36 65.4059 189.966 65.6175 189.569 65.7998C189.172 65.9788 188.524 66.2409 187.626 66.5859C187.61 66.7357 187.592 66.8317 187.572 66.874C187.553 66.9163 187.512 66.9375 187.45 66.9375C187.379 66.9375 187.315 66.8708 187.26 66.7373L186.894 65.8193ZM204.047 59.9893H199.257C199.127 60.2692 198.949 60.6012 198.725 60.9854L199.442 61.2979H201.522L201.884 60.8535L202.616 61.2686C202.701 61.3141 202.743 61.3695 202.743 61.4346C202.743 61.4964 202.706 61.5583 202.631 61.6201L202.421 61.8057V63.0068C202.421 63.1208 202.432 63.4382 202.455 63.959L201.625 64.1543V63.7051H199.384V66.0732C199.384 66.2067 199.413 66.2979 199.472 66.3467C199.534 66.3988 199.639 66.4248 199.789 66.4248H204.501C204.709 66.4248 204.849 66.3857 204.921 66.3076C204.993 66.2327 205.072 66.0374 205.16 65.7217C205.189 65.6273 205.232 65.4727 205.287 65.2578C205.336 65.082 205.373 64.9469 205.399 64.8525H205.6C205.6 64.9176 205.601 65.0299 205.604 65.1895C205.608 65.4792 205.614 65.7005 205.624 65.8535C205.634 66.0553 205.679 66.2067 205.761 66.3076C205.767 66.3174 205.78 66.3337 205.8 66.3564C205.881 66.4574 205.922 66.5436 205.922 66.6152C205.922 66.9375 205.538 67.0986 204.77 67.0986L199.564 67.1035C199.161 67.1035 198.891 67.0514 198.754 66.9473C198.617 66.8464 198.549 66.6429 198.549 66.3369V61.8691V61.8252C198.549 61.6234 198.544 61.4443 198.534 61.2881C198.111 61.9456 197.589 62.5658 196.967 63.1484L196.83 63.0264C197.393 62.1768 197.865 61.3044 198.246 60.4092C198.591 59.5921 198.834 58.8174 198.974 58.085L199.984 58.3682C200.157 58.417 200.243 58.487 200.243 58.5781C200.243 58.6562 200.212 58.71 200.15 58.7393C200.089 58.7686 199.97 58.7865 199.794 58.793C199.781 58.793 199.77 58.7946 199.76 58.7979C199.652 59.0811 199.537 59.3659 199.413 59.6523H203.871L204.296 59.0908L205.106 59.6084C205.204 59.6735 205.253 59.7386 205.253 59.8037C205.253 59.8786 205.131 60.012 204.887 60.2041C204.883 60.3669 204.88 60.6126 204.877 60.9414C204.864 61.8398 204.849 62.5153 204.833 62.9678C204.81 63.5179 204.774 63.9183 204.726 64.1689C204.68 64.4196 204.602 64.6133 204.491 64.75C204.299 64.9876 203.891 65.1357 203.266 65.1943V65.165C203.266 64.9079 203.176 64.7305 202.997 64.6328C202.896 64.5775 202.691 64.5303 202.382 64.4912C202.343 64.4847 202.31 64.4798 202.284 64.4766L202.289 64.2617H203.397C203.576 64.2617 203.703 64.2259 203.778 64.1543C203.856 64.0827 203.909 63.9492 203.935 63.7539C203.967 63.5228 203.992 63.111 204.008 62.5186C204.034 61.5615 204.047 60.7607 204.047 60.1162V59.9893ZM199.384 63.3779H201.625V61.625H199.384V63.3779ZM214.311 62.9873L214.628 62.5771L215.414 63.0947C215.499 63.1501 215.541 63.2087 215.541 63.2705C215.541 63.3649 215.412 63.4788 215.155 63.6123C214.953 64.1299 214.743 64.5628 214.525 64.9111C214.385 65.1357 214.223 65.3571 214.037 65.5752C214.516 65.9365 215.119 66.2376 215.849 66.4785V66.6445C215.644 66.6771 215.486 66.7373 215.375 66.8252C215.264 66.9131 215.168 67.0547 215.087 67.25C214.429 66.8659 213.904 66.4818 213.51 66.0977C213.018 66.5241 212.351 66.9212 211.508 67.2891L211.4 67.1328C212.126 66.6576 212.702 66.1644 213.129 65.6533C213.096 65.6143 213.048 65.5459 212.982 65.4482C212.621 64.9046 212.37 64.1901 212.23 63.3047C212.097 63.3112 211.924 63.3389 211.713 63.3877L211.498 62.9873H214.311ZM214.359 63.2998H212.46C212.691 64.0615 213.046 64.6735 213.524 65.1357C213.876 64.6214 214.154 64.0094 214.359 63.2998ZM211.195 62.167V65.2383C211.322 65.2155 211.524 65.1748 211.801 65.1162C211.863 65.1032 211.913 65.0918 211.952 65.082L212.001 65.2627C211.688 65.3896 211.42 65.4906 211.195 65.5654V65.8486C211.195 66.0407 211.199 66.3337 211.205 66.7275C211.212 66.9196 211.215 67.0661 211.215 67.167L210.355 67.3477C210.355 67.2142 210.359 66.9831 210.365 66.6543C210.375 66.3125 210.38 66.0472 210.38 65.8584V65.8242C210.295 65.847 210.157 65.8861 209.965 65.9414C209.376 66.1042 208.554 66.306 207.499 66.5469C207.486 66.6836 207.468 66.7715 207.445 66.8105C207.426 66.8529 207.388 66.874 207.333 66.874C207.268 66.874 207.214 66.8203 207.172 66.7129L206.845 65.8682C206.975 65.8551 207.187 65.8324 207.479 65.7998C207.662 65.777 207.803 65.7607 207.904 65.751V62.167H207.709C207.468 62.167 207.227 62.193 206.986 62.2451L206.781 61.8398H214.589L215.087 61.2441L216.015 62.0352L215.941 62.167H211.195ZM210.38 62.167H208.71V63.0312H210.38V62.167ZM208.71 65.6484C208.957 65.6126 209.205 65.5768 209.452 65.541C209.553 65.5247 209.717 65.4971 209.945 65.458C210.134 65.4287 210.279 65.4059 210.38 65.3896V64.5352H208.71V65.6484ZM208.71 64.2227H210.38V63.3438H208.71V64.2227ZM209.208 58.6318H213.51L213.9 58.1924L214.696 58.6074C214.807 58.6628 214.862 58.7279 214.862 58.8027C214.862 58.8613 214.818 58.9313 214.73 59.0127L214.506 59.2129V60.2676C214.509 60.4661 214.519 60.7575 214.535 61.1416L214.545 61.2783L213.666 61.4443V61.0439H209.052V61.3223L208.178 61.5029C208.201 61.0212 208.212 60.637 208.212 60.3506V59.2861C208.212 58.9801 208.204 58.666 208.188 58.3438L208.178 58.1924L209.208 58.6318ZM209.052 59.667H213.666V58.9492H209.052V59.667ZM213.666 59.9697H209.052V60.7266H213.666V59.9697ZM224.286 63.2412H221.464C221.177 63.4626 220.889 63.6676 220.6 63.8564C221.085 64.0518 221.423 64.252 221.615 64.457C221.739 64.5938 221.804 64.7549 221.811 64.9404C221.811 65.0804 221.762 65.2008 221.664 65.3018C221.57 65.3994 221.457 65.4482 221.327 65.4482C221.239 65.4482 221.166 65.4189 221.107 65.3604C221.052 65.3018 220.995 65.196 220.937 65.043C220.839 64.7956 220.738 64.5905 220.634 64.4277C220.562 64.3203 220.458 64.1868 220.321 64.0273C219.69 64.3952 218.84 64.7614 217.772 65.126L217.699 64.9551C219.587 64.0046 220.943 62.9385 221.767 61.7568L222.631 62.1523C222.735 62.1979 222.787 62.2467 222.787 62.2988C222.787 62.4062 222.707 62.4616 222.548 62.4648H222.519C222.486 62.4648 222.453 62.4648 222.421 62.4648H222.328C222.182 62.6113 222.022 62.7611 221.85 62.9141H224.276L224.774 62.4355L225.58 62.9873C225.665 63.0459 225.707 63.1077 225.707 63.1729C225.707 63.2607 225.621 63.3421 225.448 63.417C225.406 63.4333 225.329 63.4626 225.219 63.5049L225.199 63.5146C224.721 64.0876 224.258 64.5596 223.812 64.9307C223.37 65.2985 222.87 65.6257 222.313 65.9121C221.503 66.3288 220.492 66.6852 219.281 66.9814C218.839 67.0921 218.209 67.2061 217.392 67.3232L217.338 67.123C218.474 66.8073 219.377 66.5192 220.048 66.2588C220.891 65.9268 221.627 65.5492 222.255 65.126C222.994 64.6279 223.671 63.9997 224.286 63.2412ZM223.222 59.501H220.58C220.303 59.7581 220.04 59.9795 219.789 60.165C220.183 60.305 220.461 60.4434 220.624 60.5801C220.78 60.707 220.865 60.8682 220.878 61.0635C220.878 61.1937 220.834 61.3044 220.746 61.3955C220.661 61.4834 220.557 61.5273 220.434 61.5273C220.29 61.5273 220.185 61.4395 220.116 61.2637C220.028 61.0521 219.939 60.8763 219.848 60.7363C219.773 60.6224 219.67 60.4906 219.54 60.3408C218.954 60.7314 218.261 61.0944 217.46 61.4297L217.377 61.2881C218.122 60.8226 218.791 60.2871 219.384 59.6816C219.927 59.1283 220.333 58.5911 220.6 58.0703L221.566 58.4463C221.661 58.4854 221.708 58.5342 221.708 58.5928C221.708 58.6546 221.684 58.6969 221.635 58.7197C221.586 58.7393 221.474 58.7523 221.298 58.7588C221.129 58.9476 221 59.0859 220.912 59.1738H223.222L223.695 58.7197L224.525 59.2812C224.61 59.3366 224.652 59.3968 224.652 59.4619C224.652 59.5661 224.519 59.6605 224.252 59.7451L224.145 59.7793C223.741 60.2188 223.365 60.585 223.017 60.8779C222.668 61.1676 222.273 61.4476 221.83 61.7178C220.873 62.2972 219.766 62.7594 218.51 63.1045C218.158 63.1989 217.702 63.3079 217.143 63.4316L217.094 63.2363C217.605 63.0573 218.078 62.8799 218.515 62.7041C219.592 62.2581 220.5 61.7878 221.239 61.293C222.043 60.7559 222.704 60.1585 223.222 59.501ZM230.927 66.0928H227.323V65.79C227.434 65.7965 227.53 65.7998 227.611 65.7998C228.008 65.7998 228.288 65.7233 228.451 65.5703C228.614 65.4141 228.695 65.1471 228.695 64.7695V60.8291C228.695 60.4906 228.646 60.2643 228.549 60.1504C228.454 60.0365 228.262 59.9795 227.973 59.9795C227.911 59.9795 227.826 59.9811 227.719 59.9844V59.75L229.589 59.1836V64.7695C229.589 65.1797 229.688 65.4596 229.887 65.6094C230.053 65.7331 230.323 65.7949 230.697 65.7949C230.749 65.7949 230.826 65.7933 230.927 65.79V66.0928ZM235.048 59.2227C235.448 59.2227 235.81 59.3219 236.132 59.5205C236.428 59.7061 236.654 59.9502 236.811 60.2529C237.165 60.943 237.343 61.778 237.343 62.7578C237.343 63.6986 237.175 64.4977 236.84 65.1553C236.664 65.5003 236.402 65.7656 236.054 65.9512C235.748 66.1139 235.409 66.1953 235.038 66.1953C234.397 66.1953 233.889 65.9821 233.515 65.5557C233.287 65.2952 233.104 64.9209 232.968 64.4326C232.834 63.9411 232.768 63.4154 232.768 62.8555C232.768 61.8529 232.956 60.9935 233.334 60.2773C233.52 59.9258 233.777 59.6556 234.105 59.4668C234.395 59.304 234.709 59.2227 235.048 59.2227ZM235.062 59.5156C234.831 59.5156 234.63 59.6084 234.457 59.7939C234.242 60.0251 234.097 60.2773 234.022 60.5508C233.834 61.2344 233.739 62.0091 233.739 62.875C233.739 63.7897 233.863 64.5482 234.11 65.1504C234.198 65.3717 234.328 65.5475 234.501 65.6777C234.677 65.8079 234.869 65.873 235.077 65.873C235.315 65.873 235.515 65.7868 235.678 65.6143C235.88 65.3994 236.018 65.1536 236.093 64.877C236.269 64.2292 236.356 63.5016 236.356 62.6943C236.356 61.6885 236.229 60.8682 235.976 60.2334C235.888 60.0153 235.759 59.8411 235.59 59.7109C235.424 59.5807 235.248 59.5156 235.062 59.5156ZM241.415 59.2227C241.815 59.2227 242.177 59.3219 242.499 59.5205C242.795 59.7061 243.021 59.9502 243.178 60.2529C243.533 60.943 243.71 61.778 243.71 62.7578C243.71 63.6986 243.542 64.4977 243.207 65.1553C243.031 65.5003 242.769 65.7656 242.421 65.9512C242.115 66.1139 241.776 66.1953 241.405 66.1953C240.764 66.1953 240.256 65.9821 239.882 65.5557C239.654 65.2952 239.472 64.9209 239.335 64.4326C239.201 63.9411 239.135 63.4154 239.135 62.8555C239.135 61.8529 239.324 60.9935 239.701 60.2773C239.887 59.9258 240.144 59.6556 240.473 59.4668C240.762 59.304 241.076 59.2227 241.415 59.2227ZM241.43 59.5156C241.199 59.5156 240.997 59.6084 240.824 59.7939C240.609 60.0251 240.465 60.2773 240.39 60.5508C240.201 61.2344 240.106 62.0091 240.106 62.875C240.106 63.7897 240.23 64.5482 240.478 65.1504C240.565 65.3717 240.696 65.5475 240.868 65.6777C241.044 65.8079 241.236 65.873 241.444 65.873C241.682 65.873 241.882 65.7868 242.045 65.6143C242.247 65.3994 242.385 65.1536 242.46 64.877C242.636 64.2292 242.724 63.5016 242.724 62.6943C242.724 61.6885 242.597 60.8682 242.343 60.2334C242.255 60.0153 242.126 59.8411 241.957 59.7109C241.791 59.5807 241.615 59.5156 241.43 59.5156ZM250.819 64.7891C250.764 64.9453 250.696 65.0999 250.614 65.2529C250.328 65.7933 249.913 66.2344 249.369 66.5762C248.884 66.8822 248.24 67.1426 247.436 67.3574L247.362 67.1865C248.144 66.835 248.743 66.4655 249.159 66.0781C249.527 65.7428 249.797 65.3571 249.97 64.9209C249.973 64.9111 249.978 64.8965 249.984 64.877C250.001 64.8411 250.012 64.8118 250.019 64.7891H248.295C248.031 64.7891 247.779 64.8184 247.538 64.877L247.338 64.4766H250.106C250.168 64.1934 250.199 63.9183 250.199 63.6514C250.199 63.6188 250.198 63.5716 250.194 63.5098L251.112 63.6855C251.269 63.7148 251.347 63.7669 251.347 63.8418C251.347 63.8971 251.322 63.9395 251.273 63.9688C251.228 63.998 251.135 64.029 250.995 64.0615C250.966 64.2243 250.938 64.3626 250.912 64.4766H252.904L253.407 63.8662L254.286 64.6621L254.213 64.7891H251.127C251.449 65.1667 251.853 65.484 252.338 65.7412C252.823 65.9951 253.445 66.2181 254.203 66.4102V66.5957C253.975 66.6348 253.801 66.7064 253.681 66.8105C253.563 66.918 253.48 67.0742 253.432 67.2793C252.738 66.944 252.209 66.5973 251.845 66.2393C251.435 65.8324 251.107 65.349 250.863 64.7891H250.819ZM250.502 62.0889C250.258 62.4242 250.004 62.7074 249.74 62.9385C249.558 63.1012 249.33 63.2738 249.057 63.4561L248.959 63.3389C249.288 62.984 249.548 62.6536 249.74 62.3477C249.87 62.1426 250.002 61.9082 250.136 61.6445H249.823C249.608 61.6445 249.397 61.6673 249.188 61.7129L248.998 61.3418H250.502V60.5508C250.502 60.2643 250.489 59.9958 250.463 59.7451L251.308 59.8965C251.402 59.9128 251.449 59.9518 251.449 60.0137C251.449 60.0755 251.342 60.1602 251.127 60.2676V60.6973C251.127 60.9837 251.127 61.1986 251.127 61.3418H251.815L252.113 60.9707L252.738 61.5518L252.689 61.6445H251.127V61.835C251.583 61.9977 251.916 62.1475 252.128 62.2842C252.375 62.4469 252.506 62.639 252.519 62.8604C252.519 62.958 252.493 63.0378 252.44 63.0996C252.388 63.1582 252.32 63.1875 252.235 63.1875C252.134 63.1875 252.047 63.1273 251.972 63.0068C251.728 62.6064 251.446 62.2728 251.127 62.0059V62.084C251.127 62.2533 251.13 62.5202 251.137 62.8848C251.14 63.0573 251.142 63.1908 251.142 63.2852L250.482 63.4268L250.492 63.0898C250.499 62.7969 250.502 62.5706 250.502 62.4111V62.0889ZM248.842 59.5693V63.7441L248.031 63.9541C248.035 63.8141 248.043 63.5684 248.056 63.2168C248.069 62.8555 248.075 62.5739 248.075 62.3721V59.9941C248.075 59.5677 248.062 59.1624 248.036 58.7783L248.959 59.252H249.804C249.914 58.8092 249.976 58.4137 249.989 58.0654L250.971 58.2607C251.107 58.2868 251.176 58.3389 251.176 58.417C251.176 58.4723 251.153 58.513 251.107 58.5391C251.062 58.5651 250.959 58.5944 250.8 58.627C250.614 58.8678 250.43 59.0762 250.248 59.252H252.694L253.085 58.7734L253.822 59.2324C253.92 59.2943 253.969 59.3561 253.969 59.418C253.969 59.4863 253.922 59.5579 253.827 59.6328L253.607 59.8086V62.1865C253.607 62.4144 253.617 62.8148 253.637 63.3877L253.642 63.5928L252.841 63.7979V59.5693H248.842ZM245.595 58.3145C246.155 58.5065 246.568 58.6969 246.835 58.8857C247.131 59.0973 247.279 59.3285 247.279 59.5791C247.279 59.7061 247.24 59.8118 247.162 59.8965C247.087 59.9779 246.991 60.0186 246.874 60.0186C246.802 60.0186 246.742 59.9974 246.693 59.9551C246.648 59.9095 246.589 59.8184 246.518 59.6816C246.257 59.2031 245.924 58.7897 245.517 58.4414L245.595 58.3145ZM245.004 60.4971C245.486 60.6696 245.832 60.8242 246.044 60.9609C246.438 61.2148 246.635 61.4801 246.635 61.7568C246.635 61.8805 246.597 61.9863 246.522 62.0742C246.448 62.1621 246.355 62.2061 246.244 62.2061C246.166 62.2061 246.101 62.1816 246.049 62.1328C246 62.084 245.94 61.9863 245.868 61.8398C245.65 61.3874 245.338 60.9805 244.931 60.6191L245.004 60.4971ZM245.058 64.5107H245.478C245.618 64.5107 245.723 64.4847 245.795 64.4326C245.87 64.3773 245.948 64.2666 246.029 64.1006C246.309 63.5472 246.692 62.6553 247.177 61.4248C247.34 61.0049 247.47 60.6777 247.567 60.4434L247.758 60.502C247.527 61.4329 247.149 62.6846 246.625 64.2568C246.498 64.6344 246.435 64.8835 246.435 65.0039C246.435 65.1211 246.5 65.3913 246.63 65.8145C246.741 66.1693 246.796 66.4199 246.796 66.5664C246.796 66.7357 246.744 66.874 246.64 66.9814C246.535 67.0889 246.4 67.1426 246.234 67.1426C245.928 67.1426 245.775 66.9603 245.775 66.5957C245.775 66.5176 245.782 66.4036 245.795 66.2539C245.821 65.8893 245.834 65.6159 245.834 65.4336C245.834 65.1862 245.782 65.0137 245.678 64.916C245.577 64.8184 245.37 64.7467 245.058 64.7012V64.5107ZM249.223 60.1455L249.286 60.0576C249.634 60.1943 249.872 60.3148 249.999 60.4189C250.129 60.5231 250.194 60.6484 250.194 60.7949C250.194 60.8893 250.167 60.9658 250.111 61.0244C250.059 61.083 249.991 61.1123 249.906 61.1123C249.809 61.1123 249.727 61.0342 249.662 60.8779C249.548 60.585 249.402 60.3408 249.223 60.1455ZM251.845 60.043L252.401 60.3408C252.457 60.3701 252.484 60.4043 252.484 60.4434C252.484 60.5085 252.39 60.5426 252.201 60.5459C251.97 60.777 251.713 60.9805 251.43 61.1562L251.347 61.083C251.565 60.7412 251.731 60.3945 251.845 60.043ZM256.942 61.3271H259.154V59.5645C258.891 59.5872 258.443 59.6165 257.812 59.6523C257.047 59.6914 256.267 59.7191 255.473 59.7354L255.458 59.5205C256.89 59.3643 258.033 59.2145 258.886 59.0713C259.879 58.902 260.788 58.7148 261.615 58.5098C262.042 58.4023 262.403 58.2868 262.699 58.1631L263.319 58.832C263.394 58.9134 263.432 58.9801 263.432 59.0322C263.432 59.1331 263.38 59.1836 263.275 59.1836C263.217 59.1836 263.095 59.1331 262.909 59.0322C261.734 59.2536 260.8 59.4017 260.106 59.4766L260.019 59.4863V61.3271H262.235L262.631 60.8291L263.451 61.2734C263.552 61.3255 263.603 61.3841 263.603 61.4492C263.603 61.5078 263.56 61.5729 263.476 61.6445L263.256 61.8301V64.2617C263.256 64.3561 263.259 64.4814 263.266 64.6377C263.279 64.9176 263.285 65.1016 263.285 65.1895C263.285 65.401 263.246 65.5622 263.168 65.6729C263.093 65.7803 262.963 65.8649 262.777 65.9268C262.585 65.9919 262.312 66.0407 261.957 66.0732C261.954 65.8096 261.887 65.637 261.757 65.5557C261.633 65.4808 261.374 65.4189 260.98 65.3701V65.1553H262.104C262.234 65.1553 262.318 65.1374 262.357 65.1016C262.396 65.0625 262.416 64.9844 262.416 64.8672V61.6641H260.019L260.023 65.5898C260.027 66.0065 260.035 66.5355 260.048 67.1768L259.125 67.3525C259.145 66.389 259.154 65.8096 259.154 65.6143V61.6641H256.801V65.9902L255.927 66.21C255.93 66.0928 255.937 65.8991 255.946 65.6289C255.956 65.2871 255.961 65.0413 255.961 64.8916V61.6885V61.5811C255.961 61.3499 255.946 61.1139 255.917 60.873L256.942 61.3271ZM271.488 63.2363L272.182 63.3438C272.292 63.36 272.348 63.4072 272.348 63.4854C272.348 63.5505 272.296 63.6123 272.191 63.6709L272.021 63.7637V66.0391C272.021 66.1367 272.045 66.2035 272.094 66.2393C272.143 66.2751 272.237 66.293 272.377 66.293H272.899C273.108 66.2865 273.238 66.2279 273.29 66.1172C273.326 66.0423 273.383 65.8665 273.461 65.5898C273.539 65.3066 273.616 64.9876 273.69 64.6328H273.886V64.7012C273.882 64.9128 273.881 65.1178 273.881 65.3164C273.881 65.6061 273.894 65.8063 273.92 65.917C273.946 66.0244 274.006 66.1253 274.101 66.2197C274.172 66.2979 274.208 66.3825 274.208 66.4736C274.208 66.6592 274.097 66.8008 273.876 66.8984C273.674 66.9896 273.345 67.0352 272.89 67.0352H272.274C271.9 67.0352 271.643 66.9798 271.503 66.8691C271.363 66.7617 271.293 66.5615 271.293 66.2686V64.208C271.293 64.1331 271.291 64.0599 271.288 63.9883V63.9932C271.288 63.9964 271.286 63.9997 271.283 64.0029C271.221 64.1885 271.148 64.3691 271.063 64.5449C270.689 65.3099 270.087 65.9772 269.257 66.5469C268.948 66.7585 268.469 67.0189 267.821 67.3281L267.733 67.1572C268.707 66.4964 269.436 65.8063 269.921 65.0869C270.412 64.361 270.704 63.5439 270.795 62.6357C270.821 62.3851 270.834 62.1768 270.834 62.0107L270.829 60.9414C270.829 60.681 270.816 60.3587 270.79 59.9746L271.693 60.1162C271.859 60.1423 271.942 60.1927 271.942 60.2676C271.942 60.3327 271.889 60.3945 271.781 60.4531L271.591 60.5508V61.9863C271.568 62.5658 271.534 62.9824 271.488 63.2363ZM272.641 58.7441L273.012 58.251L273.803 58.7295C273.904 58.7913 273.954 58.8532 273.954 58.915C273.954 58.9736 273.91 59.0436 273.822 59.125L273.598 59.3301V62.2744C273.598 62.46 273.617 63.0085 273.656 63.9199L272.826 64.1104V59.0811H269.696V64.0811L268.876 64.3008L268.915 62.6992C268.918 62.5885 268.92 62.5072 268.92 62.4551L268.91 59.418C268.91 59.0046 268.9 58.6221 268.881 58.2705L269.813 58.7441H272.641ZM267.138 59.4229V61.8203H267.372L267.821 61.2539L268.559 62.0059L268.495 62.1475H267.138V64.8037C267.59 64.6898 268.082 64.5465 268.612 64.374L268.681 64.5205C267.909 65.0218 266.929 65.4922 265.741 65.9316C265.725 66.0814 265.707 66.1774 265.688 66.2197C265.668 66.262 265.631 66.2832 265.575 66.2832C265.513 66.2832 265.455 66.2165 265.399 66.083L265.038 65.2041C265.419 65.1618 265.842 65.0934 266.308 64.999V62.1475H265.99C265.743 62.1475 265.502 62.1751 265.268 62.2305L265.043 61.8203H266.308V59.4229H265.956C265.702 59.4229 265.456 59.4505 265.219 59.5059L265.004 59.0957H267.387L267.875 58.5L268.72 59.2861L268.646 59.4229H267.138ZM277.152 61.5762H280.648L281.107 61.0098L282.025 61.7666L281.947 61.9033H279.999V63.4072H282.177L282.738 62.7773L283.7 63.5977L283.627 63.7295H279.999V66.5566H282.606L283.192 65.8926L284.193 66.7471L284.12 66.8838H275.98C275.746 66.8838 275.508 66.9115 275.268 66.9668L275.072 66.5566H279.13V63.7295H276.522C276.291 63.7327 276.055 63.762 275.814 63.8174L275.619 63.4072H279.13V61.9033H278.017C277.785 61.9033 277.549 61.931 277.309 61.9863L277.118 61.6006C276.519 62.0368 275.834 62.4225 275.062 62.7578L274.97 62.6016L275.072 62.5283C275.72 62.0465 276.361 61.4867 276.996 60.8486C278.012 59.82 278.686 58.9053 279.018 58.1045L280.053 58.3926C280.173 58.4251 280.233 58.4772 280.233 58.5488C280.23 58.6465 280.129 58.7051 279.931 58.7246C280.321 59.1934 280.821 59.6328 281.43 60.043C282.227 60.5768 283.178 61.0244 284.281 61.3857L284.271 61.5811C284.008 61.6299 283.817 61.7064 283.7 61.8105C283.583 61.9115 283.479 62.0889 283.388 62.3428L283.29 62.2891C282.177 61.6445 281.278 60.9365 280.595 60.165C280.256 59.7777 279.968 59.3529 279.73 58.8906C279.2 59.6849 278.562 60.4059 277.816 61.0537C277.569 61.2588 277.348 61.4329 277.152 61.5762ZM280.727 66.3906C281.218 65.6094 281.584 64.8411 281.825 64.0859L282.777 64.4717C282.891 64.5205 282.948 64.5791 282.948 64.6475C282.948 64.7223 282.921 64.7728 282.865 64.7988C282.81 64.8216 282.694 64.8346 282.519 64.8379C282.021 65.4889 281.48 66.0293 280.897 66.459L280.727 66.3906ZM276.444 64.2178C277.05 64.5498 277.463 64.8167 277.685 65.0186C277.958 65.2692 278.095 65.5312 278.095 65.8047C278.095 65.9577 278.049 66.083 277.958 66.1807C277.867 66.2816 277.75 66.332 277.606 66.332C277.398 66.332 277.258 66.2051 277.187 65.9512C277.079 65.5573 276.967 65.2513 276.85 65.0332C276.736 64.8151 276.566 64.584 276.342 64.3398L276.444 64.2178Z" fill="#E7E7E7"/>
<defs>
<filter id="filter0_d" x="4" y="18" width="339" height="74" filterUnits="userSpaceOnUse" color-interpolation-filters="sRGB">
<feFlood flood-opacity="0" result="BackgroundImageFix"/>
<feColorMatrix in="SourceAlpha" type="matrix" values="0 0 0 0 0 0 0 0 0 0 0 0 0 0 0 0 0 0 127 0"/>
<feOffset dy="2"/>
<feGaussianBlur stdDeviation="1"/>
<feColorMatrix type="matrix" values="0 0 0 0 0 0 0 0 0 0 0 0 0 0 0 0 0 0 0.25 0"/>
<feBlend mode="normal" in2="BackgroundImageFix" result="effect1_dropShadow"/>
<feBlend mode="normal" in="SourceGraphic" in2="effect1_dropShadow" result="shape"/>
</filter>
<filter id="filter1_d" x="9.02363" y="12.4543" width="92.4619" height="87.5012" filterUnits="userSpaceOnUse" color-interpolation-filters="sRGB">
<feFlood flood-opacity="0" result="BackgroundImageFix"/>
<feColorMatrix in="SourceAlpha" type="matrix" values="0 0 0 0 0 0 0 0 0 0 0 0 0 0 0 0 0 0 127 0"/>
<feOffset dx="4" dy="4"/>
<feGaussianBlur stdDeviation="2"/>
<feColorMatrix type="matrix" values="0 0 0 0 0 0 0 0 0 0 0 0 0 0 0 0 0 0 0.25 0"/>
<feBlend mode="normal" in2="BackgroundImageFix" result="effect1_dropShadow"/>
<feBlend mode="normal" in="SourceGraphic" in2="effect1_dropShadow" result="shape"/>
</filter>
<linearGradient id="paint0_linear" x1="6" y1="18" x2="341" y2="18" gradientUnits="userSpaceOnUse">
<stop stop-color="#FF0EE7"/>
<stop offset="1" stop-color="#0E68FF"/>
</linearGradient>
<linearGradient id="paint1_linear" x1="222.099" y1="42.0595" x2="276.973" y2="8.08037" gradientUnits="userSpaceOnUse">
<stop stop-color="#FFEB85"/>
<stop offset="0.5484" stop-color="#FFD166"/>
<stop offset="1" stop-color="#3F2C10"/>
</linearGradient>
<linearGradient id="paint2_linear" x1="228.694" y1="52.7115" x2="283.57" y2="18.7313" gradientUnits="userSpaceOnUse">
<stop stop-color="#FFEC87"/>
<stop offset="0.5484" stop-color="#FFD166"/>
<stop offset="1" stop-color="#3F2C10"/>
</linearGradient>
<linearGradient id="paint3_linear" x1="232.359" y1="58.6298" x2="287.233" y2="24.6508" gradientUnits="userSpaceOnUse">
<stop stop-color="#7E5820"/>
<stop offset="0.5484" stop-color="#FFD166"/>
<stop offset="1" stop-color="#3F2C10"/>
</linearGradient>
<linearGradient id="paint4_linear" x1="220" y1="39.608" x2="243.009" y2="39.608" gradientUnits="userSpaceOnUse">
<stop stop-color="#7E5820"/>
<stop offset="0.5484" stop-color="#FFD166"/>
<stop offset="1" stop-color="#3F2C10"/>
</linearGradient>
<linearGradient id="paint5_linear" x1="244.864" y1="39.394" x2="255.416" y2="39.394" gradientUnits="userSpaceOnUse">
<stop stop-color="#7E5820"/>
<stop offset="0.5484" stop-color="#FFD166"/>
<stop offset="1" stop-color="#3F2C10"/>
</linearGradient>
<linearGradient id="paint6_linear" x1="257.604" y1="39.394" x2="277.728" y2="39.394" gradientUnits="userSpaceOnUse">
<stop stop-color="#FFEB86"/>
<stop offset="0.5484" stop-color="#FFD166"/>
<stop offset="1" stop-color="#3F2C10"/>
</linearGradient>
<linearGradient id="paint7_linear" x1="9.12484" y1="55.7596" x2="14.1651" y2="54.2672" gradientUnits="userSpaceOnUse">
<stop stop-color="#B47A1A"/>
<stop offset="0.0528" stop-color="#B9811E"/>
<stop offset="0.1288" stop-color="#C69429"/>
<stop offset="0.2187" stop-color="#DCB33C"/>
<stop offset="0.3185" stop-color="#FADE56"/>
<stop offset="0.3333" stop-color="#FFE55A"/>
<stop offset="0.5161" stop-color="#FFEC88"/>
<stop offset="0.6613" stop-color="#FFE55A"/>
<stop offset="1" stop-color="#B47A1A"/>
</linearGradient>
<linearGradient id="paint8_linear" x1="88.3269" y1="32.3075" x2="93.3672" y2="30.8151" gradientUnits="userSpaceOnUse">
<stop stop-color="#B47A1A"/>
<stop offset="0.0528" stop-color="#B9811E"/>
<stop offset="0.1288" stop-color="#C69429"/>
<stop offset="0.2187" stop-color="#DCB33C"/>
<stop offset="0.3185" stop-color="#FADE56"/>
<stop offset="0.3333" stop-color="#FFE55A"/>
<stop offset="0.5161" stop-color="#FFEC88"/>
<stop offset="0.6613" stop-color="#FFE55A"/>
<stop offset="1" stop-color="#B47A1A"/>
</linearGradient>
<linearGradient id="paint9_linear" x1="22.4673" y1="40.1563" x2="27.5068" y2="38.6641" gradientUnits="userSpaceOnUse">
<stop stop-color="#B47A1A"/>
<stop offset="0.0528" stop-color="#B9811E"/>
<stop offset="0.1288" stop-color="#C69429"/>
<stop offset="0.2187" stop-color="#DCB33C"/>
<stop offset="0.3185" stop-color="#FADE56"/>
<stop offset="0.3333" stop-color="#FFE55A"/>
<stop offset="0.5161" stop-color="#FFEC88"/>
<stop offset="0.6613" stop-color="#FFE55A"/>
<stop offset="1" stop-color="#B47A1A"/>
</linearGradient>
<linearGradient id="paint10_linear" x1="68.8351" y1="26.4266" x2="73.8753" y2="24.9342" gradientUnits="userSpaceOnUse">
<stop stop-color="#B47A1A"/>
<stop offset="0.0528" stop-color="#B9811E"/>
<stop offset="0.1288" stop-color="#C69429"/>
<stop offset="0.2187" stop-color="#DCB33C"/>
<stop offset="0.3185" stop-color="#FADE56"/>
<stop offset="0.3333" stop-color="#FFE55A"/>
<stop offset="0.5161" stop-color="#FFEC88"/>
<stop offset="0.6613" stop-color="#FFE55A"/>
<stop offset="1" stop-color="#B47A1A"/>
</linearGradient>
<linearGradient id="paint11_linear" x1="38.4124" y1="18.411" x2="47.2773" y2="15.786" gradientUnits="userSpaceOnUse">
<stop stop-color="#B47A1A"/>
<stop offset="0.0528" stop-color="#B9811E"/>
<stop offset="0.1288" stop-color="#C69429"/>
<stop offset="0.2187" stop-color="#DCB33C"/>
<stop offset="0.3185" stop-color="#FADE56"/>
<stop offset="0.3333" stop-color="#FFE55A"/>
<stop offset="0.5161" stop-color="#FFEC88"/>
<stop offset="0.6613" stop-color="#FFE55A"/>
<stop offset="1" stop-color="#B47A1A"/>
</linearGradient>
<linearGradient id="paint12_linear" x1="12.5718" y1="58.1448" x2="91.7747" y2="34.6925" gradientUnits="userSpaceOnUse">
<stop stop-color="#B47A1A"/>
<stop offset="0.0528" stop-color="#B9811E"/>
<stop offset="0.1288" stop-color="#C69429"/>
<stop offset="0.2187" stop-color="#DCB33C"/>
<stop offset="0.3185" stop-color="#FADE56"/>
<stop offset="0.3333" stop-color="#FFE55A"/>
<stop offset="0.5161" stop-color="#FFEC88"/>
<stop offset="0.6613" stop-color="#FFE55A"/>
<stop offset="1" stop-color="#B47A1A"/>
</linearGradient>
<linearGradient id="paint13_linear" x1="32.8879" y1="88.9038" x2="91.4958" y2="71.5497" gradientUnits="userSpaceOnUse">
<stop stop-color="#B47A1A"/>
<stop offset="0.0528" stop-color="#B9811E"/>
<stop offset="0.1288" stop-color="#C69429"/>
<stop offset="0.2187" stop-color="#DCB33C"/>
<stop offset="0.3185" stop-color="#FADE56"/>
<stop offset="0.3333" stop-color="#FFE55A"/>
<stop offset="0.5161" stop-color="#FFEC88"/>
<stop offset="0.6613" stop-color="#FFE55A"/>
<stop offset="1" stop-color="#B47A1A"/>
</linearGradient>
<linearGradient id="paint14_linear" x1="22.3839" y1="55.9094" x2="29.0285" y2="53.9419" gradientUnits="userSpaceOnUse">
<stop stop-color="#B47A1A"/>
<stop offset="0.0528" stop-color="#B9811E"/>
<stop offset="0.1288" stop-color="#C69429"/>
<stop offset="0.2187" stop-color="#DCB33C"/>
<stop offset="0.3185" stop-color="#FADE56"/>
<stop offset="0.3333" stop-color="#FFE55A"/>
<stop offset="0.5161" stop-color="#FFEC88"/>
<stop offset="0.6613" stop-color="#FFE55A"/>
<stop offset="1" stop-color="#B47A1A"/>
</linearGradient>
<linearGradient id="paint15_linear" x1="75.2949" y1="40.6372" x2="81.9395" y2="38.6697" gradientUnits="userSpaceOnUse">
<stop stop-color="#B47A1A"/>
<stop offset="0.0528" stop-color="#B9811E"/>
<stop offset="0.1288" stop-color="#C69429"/>
<stop offset="0.2187" stop-color="#DCB33C"/>
<stop offset="0.3185" stop-color="#FADE56"/>
<stop offset="0.3333" stop-color="#FFE55A"/>
<stop offset="0.5161" stop-color="#FFEC88"/>
<stop offset="0.6613" stop-color="#FFE55A"/>
<stop offset="1" stop-color="#B47A1A"/>
</linearGradient>
<linearGradient id="paint16_linear" x1="35.2792" y1="46.8723" x2="40.8409" y2="45.2255" gradientUnits="userSpaceOnUse">
<stop stop-color="#B47A1A"/>
<stop offset="0.0528" stop-color="#B9811E"/>
<stop offset="0.1288" stop-color="#C69429"/>
<stop offset="0.2187" stop-color="#DCB33C"/>
<stop offset="0.3185" stop-color="#FADE56"/>
<stop offset="0.3333" stop-color="#FFE55A"/>
<stop offset="0.5161" stop-color="#FFEC88"/>
<stop offset="0.6613" stop-color="#FFE55A"/>
<stop offset="1" stop-color="#B47A1A"/>
</linearGradient>
<linearGradient id="paint17_linear" x1="60.2371" y1="39.4822" x2="65.8035" y2="37.834" gradientUnits="userSpaceOnUse">
<stop stop-color="#B47A1A"/>
<stop offset="0.0528" stop-color="#B9811E"/>
<stop offset="0.1288" stop-color="#C69429"/>
<stop offset="0.2187" stop-color="#DCB33C"/>
<stop offset="0.3185" stop-color="#FADE56"/>
<stop offset="0.3333" stop-color="#FFE55A"/>
<stop offset="0.5161" stop-color="#FFEC88"/>
<stop offset="0.6613" stop-color="#FFE55A"/>
<stop offset="1" stop-color="#B47A1A"/>
</linearGradient>
<linearGradient id="paint18_linear" x1="172" y1="27" x2="120.148" y2="27" gradientUnits="userSpaceOnUse">
<stop stop-color="#CFA131"/>
<stop offset="1" stop-color="#FFEB84"/>
</linearGradient>
</defs>
</svg>
