<svg width="50" height="55" viewBox="0 0 50 55" fill="none" xmlns="http://www.w3.org/2000/svg">
<rect x="5" width="40" height="40" rx="4" fill="#FFF3E7"/>
<path d="M13.1895 47.3701C13.502 47.6143 13.7217 47.8275 13.8486 48.0098C13.9788 48.1888 14.0439 48.376 14.0439 48.5713C14.0439 48.7894 13.9691 48.8984 13.8193 48.8984C13.7607 48.8984 13.7168 48.8789 13.6875 48.8399C13.6615 48.7975 13.6338 48.7096 13.6045 48.5762C13.5101 48.1563 13.349 47.7803 13.1211 47.4482L13.1895 47.3701ZM14.332 49.6211H12.9307V49.8018C12.9307 51.068 12.8444 52.0202 12.6719 52.6582C12.5156 53.2181 12.234 53.7666 11.8271 54.3037L11.7002 54.2354C11.9867 53.6592 12.1836 53.0521 12.291 52.4141C12.3984 51.776 12.4521 50.8939 12.4521 49.7676V49.6406C12.3545 49.6537 12.2715 49.6634 12.2031 49.6699L12.042 49.3379H12.4521V47.2481C12.4521 46.9551 12.4408 46.597 12.418 46.1738L13.0332 46.501H13.1602C13.3034 45.9476 13.3831 45.4935 13.3994 45.1387L14.0342 45.2998C14.1416 45.3291 14.1953 45.3731 14.1953 45.4316C14.1953 45.4772 14.1742 45.5114 14.1318 45.5342C14.0895 45.5537 14.0016 45.5749 13.8682 45.5977C13.7087 45.959 13.5459 46.2601 13.3799 46.501H14.1758L14.4785 46.1152L15.0596 46.501C15.1051 46.5335 15.1279 46.5791 15.1279 46.6377C15.1279 46.693 15.0856 46.7549 15.001 46.8232L14.8105 46.9844L14.8154 52.3555C14.8154 52.4369 14.8171 52.5606 14.8203 52.7266C14.8301 53.0553 14.835 53.3027 14.835 53.4688C14.835 53.7194 14.7878 53.8968 14.6934 54.001C14.6022 54.1084 14.4313 54.1816 14.1807 54.2207C14.1807 54.2012 14.1807 54.1833 14.1807 54.167C14.1807 54.0368 14.1204 53.9359 14 53.8643C13.8796 53.7927 13.6533 53.7243 13.3213 53.6592C13.2985 53.6527 13.2773 53.6478 13.2578 53.6445V53.4834H14.0781C14.179 53.4834 14.2458 53.4671 14.2783 53.4346C14.3141 53.4053 14.332 53.3467 14.332 53.2588V49.6211ZM14.332 49.3379V46.7891H12.9307V49.3379H14.332ZM15.2354 49.9385L15.0693 49.582H17.418L17.7207 49.2402L18.292 49.6504C18.3538 49.696 18.3848 49.7399 18.3848 49.7822C18.3848 49.8669 18.2513 49.9662 17.9844 50.0801C17.6784 51.1185 17.3301 51.9356 16.9395 52.5313C17.138 52.7624 17.3691 52.9675 17.6328 53.1465C17.8704 53.3093 18.1878 53.4688 18.585 53.625V53.7617C18.3929 53.7715 18.2464 53.804 18.1455 53.8594C18.0479 53.918 17.9632 54.0205 17.8916 54.167C17.3708 53.7666 16.9525 53.3548 16.6367 52.9316C16.4414 53.166 16.2363 53.3727 16.0215 53.5518C15.722 53.7992 15.3395 54.0466 14.874 54.294L14.8203 54.1963C15.5104 53.6397 16.0394 53.1009 16.4072 52.5801C16.0199 51.9388 15.7464 51.0387 15.5869 49.8799C15.4697 49.8962 15.3525 49.9157 15.2354 49.9385ZM16.6611 52.1748C17.0029 51.5726 17.2861 50.8027 17.5107 49.8652H15.9531C15.8717 49.8652 15.8034 49.8669 15.748 49.8701C15.8555 50.3486 15.971 50.7523 16.0947 51.0811C16.2412 51.4652 16.43 51.8298 16.6611 52.1748ZM11.0947 47.2481H11.3047L11.6514 46.7647L12.3252 47.4336L12.2617 47.5508H11.0947V49.6016C11.1403 49.5853 11.2103 49.556 11.3047 49.5137L11.334 49.499C11.5033 49.4274 11.7067 49.3298 11.9443 49.2061L12.0176 49.3135C11.7214 49.5544 11.4137 49.7774 11.0947 49.9824V52.2871C11.0947 52.3457 11.098 52.5166 11.1045 52.7998L11.1094 52.9609C11.1094 53.0358 11.111 53.096 11.1143 53.1416C11.1175 53.2816 11.1191 53.3955 11.1191 53.4834C11.1191 53.7471 11.0622 53.9294 10.9482 54.0303C10.8376 54.1344 10.6178 54.2061 10.2891 54.2451C10.2891 54.0335 10.2435 53.8919 10.1523 53.8203C10.0612 53.752 9.8431 53.6852 9.49805 53.6201V53.4834H10.3672C10.4746 53.4834 10.543 53.4688 10.5723 53.4395C10.6016 53.4134 10.6162 53.3451 10.6162 53.2344V50.2754C10.4827 50.3503 10.2826 50.4609 10.0156 50.6074C10.0156 50.7441 10.0091 50.8337 9.99609 50.876C9.98307 50.915 9.95378 50.9346 9.9082 50.9346C9.85938 50.9346 9.80404 50.8744 9.74219 50.7539L9.4541 50.1729C9.58757 50.1403 9.74056 50.0964 9.91309 50.041C10.0531 49.9955 10.2712 49.919 10.5674 49.8115L10.6162 49.792V47.5508H10.3086C10.0579 47.5508 9.82031 47.5736 9.5957 47.6191L9.41504 47.2481H10.6162V46.1055C10.6162 45.7572 10.5999 45.443 10.5674 45.1631L11.2949 45.3486C11.3828 45.3714 11.4268 45.4154 11.4268 45.4805C11.4268 45.5488 11.3828 45.6058 11.2949 45.6514L11.0947 45.7588V47.2481ZM16.2754 45.8027H17.0762L17.335 45.4561L17.8477 45.8027C17.8997 45.8385 17.9258 45.8776 17.9258 45.9199C17.9258 45.9753 17.8997 46.0225 17.8477 46.0615L17.6523 46.2178V48.2295C17.6523 48.3695 17.7549 48.4395 17.96 48.4395C18.0706 48.4395 18.1797 48.4232 18.2871 48.3906C18.3229 48.3809 18.349 48.376 18.3652 48.376C18.4206 48.376 18.4775 48.4183 18.5361 48.5029C18.5752 48.568 18.5947 48.6266 18.5947 48.6787C18.5947 48.8122 18.3685 48.8789 17.916 48.8789C17.6393 48.8789 17.4456 48.8366 17.335 48.752C17.2275 48.6673 17.1738 48.5143 17.1738 48.293V46.0908H16.1582V46.0957C16.1582 46.6361 16.1468 47.0251 16.124 47.2627C16.1045 47.5003 16.0605 47.7233 15.9922 47.9316C15.8457 48.3906 15.5348 48.8187 15.0596 49.2158L14.9766 49.1426C15.2598 48.7487 15.4453 48.376 15.5332 48.0244C15.6211 47.6696 15.665 47.1178 15.665 46.3691C15.665 46.0208 15.6536 45.7149 15.6309 45.4512L16.2754 45.8027ZM13.2285 50.3779C13.8014 50.8467 14.0879 51.2829 14.0879 51.6865C14.0879 51.9242 14.0016 52.043 13.8291 52.043C13.764 52.043 13.7184 52.0202 13.6924 51.9746C13.6663 51.929 13.6403 51.8298 13.6143 51.6768C13.5426 51.2634 13.3864 50.8581 13.1455 50.4609L13.2285 50.3779ZM27.1104 51.3057C26.8304 50.8532 26.4463 50.391 25.958 49.919L26.041 49.8262C26.7311 50.2331 27.2536 50.6432 27.6084 51.0566C27.9176 51.418 28.0723 51.7516 28.0723 52.0576C28.0723 52.318 27.9795 52.4482 27.7939 52.4482C27.6865 52.4482 27.6003 52.3604 27.5352 52.1846C27.444 51.9404 27.3398 51.7109 27.2227 51.4961C26.9134 51.5807 26.5846 51.6589 26.2363 51.7305C25.9499 51.7891 25.5967 51.8574 25.1768 51.9356C24.874 51.9909 24.402 52.069 23.7607 52.1699C23.5394 52.2025 23.3669 52.2285 23.2432 52.2481C23.2399 52.2578 23.2367 52.2822 23.2334 52.3213C23.2204 52.4743 23.1732 52.5508 23.0918 52.5508C23.0332 52.5508 22.9779 52.4889 22.9258 52.3652L22.6621 51.7451C22.6784 51.7451 22.7044 51.7435 22.7402 51.7402C22.8118 51.737 22.8656 51.7337 22.9014 51.7305C23.5068 50.8483 24.0358 49.7936 24.4883 48.5664H23.0283C22.7842 48.5664 22.5449 48.5908 22.3105 48.6397L22.1201 48.2686H27.0908L27.6035 47.6533L28.4727 48.4395L28.4043 48.5664H25.1963C24.6917 49.709 24.0195 50.7572 23.1797 51.7109C23.9251 51.6589 24.5534 51.6084 25.0645 51.5596C25.6862 51.4977 26.3682 51.4131 27.1104 51.3057ZM20.9092 48.6055L21.207 48.2002L21.7832 48.6055C21.8548 48.6543 21.8906 48.7064 21.8906 48.7617C21.8906 48.804 21.8451 48.861 21.7539 48.9326L21.5781 49.0645V52.6143C21.5846 52.6208 21.5911 52.6273 21.5977 52.6338C21.6042 52.6403 21.6107 52.6452 21.6172 52.6484C22.0892 53.0553 22.5921 53.2979 23.126 53.376C23.3213 53.4053 23.8177 53.4199 24.6152 53.4199C26.3405 53.4199 27.6719 53.3955 28.6094 53.3467V53.4883C28.4238 53.5241 28.292 53.5762 28.2139 53.6445C28.1357 53.7162 28.0967 53.8154 28.0967 53.9424H24.2979C23.5231 53.9391 22.929 53.861 22.5156 53.708C22.3268 53.6364 22.1608 53.5469 22.0176 53.4395C21.8776 53.3353 21.7165 53.1758 21.5342 52.9609C21.4268 52.834 21.3405 52.7705 21.2754 52.7705C21.2038 52.7705 21.0768 52.8698 20.8945 53.0684C20.696 53.2832 20.4909 53.5257 20.2793 53.7959C20.2826 53.8154 20.2874 53.8529 20.2939 53.9082C20.307 53.9798 20.3135 54.0352 20.3135 54.0742C20.3135 54.1621 20.2712 54.2061 20.1865 54.2061C20.1312 54.2061 20.0726 54.1621 20.0107 54.0742L19.5713 53.4883C19.7666 53.3711 20.0775 53.166 20.5039 52.8731C20.5267 52.8568 20.5625 52.8324 20.6113 52.7998C20.8034 52.6663 20.9531 52.5736 21.0605 52.5215V48.8936H20.3721C20.1279 48.8936 19.8887 48.9163 19.6543 48.9619L19.5029 48.6055H20.9092ZM22.8818 45.8662H26.2949L26.7295 45.2998L27.5986 46.0274L27.5303 46.1543H23.79C23.5492 46.1543 23.3115 46.1787 23.0771 46.2275L22.8818 45.8662ZM20.0303 45.3926C20.6423 45.7832 21.0703 46.1201 21.3145 46.4033C21.5228 46.6475 21.627 46.8835 21.627 47.1113C21.627 47.222 21.5977 47.3132 21.5391 47.3848C21.4805 47.4531 21.4072 47.4873 21.3193 47.4873C21.2087 47.4873 21.1143 47.4043 21.0361 47.2383C20.8343 46.8086 20.6553 46.4749 20.499 46.2373C20.346 45.9997 20.1507 45.7555 19.9131 45.5049L20.0303 45.3926ZM34.2881 46.4619V53.3272H37.2764L37.7012 52.7461L38.5752 53.4785L38.5068 53.625H30.2988C30.071 53.625 29.8333 53.6543 29.5859 53.7129L29.4199 53.3272H33.7412V46.4619H30.7285C30.4941 46.4619 30.2549 46.4912 30.0107 46.5498L29.8496 46.1641H36.8516L37.291 45.5977L38.1553 46.3203L38.082 46.4619H34.2881Z" fill="black"/>
<path d="M43 25C43 26.0609 42.5786 27.0783 41.8284 27.8284C41.0783 28.5786 40.0609 29 39 29H11C9.93913 29 8.92172 28.5786 8.17157 27.8284C7.42143 27.0783 7 26.0609 7 25V22C7 20.9391 7.42143 19.9217 8.17157 19.1716C8.92172 18.4214 9.93913 18 11 18H39C40.0609 18 41.0783 18.4214 41.8284 19.1716C42.5786 19.9217 43 20.9391 43 22V25Z" fill="#FFC27E"/>
<path d="M26 11L25.021 10H14.146C11 10 10 12 10 12L7 17.959V23H26V11Z" fill="#FFAB4E"/>
<path d="M16 18H9.00003L11 14C11 14 12 12 14 12H16V18Z" fill="#FFE8CF"/>
<path d="M16 33C18.2091 33 20 31.2091 20 29C20 26.7909 18.2091 25 16 25C13.7909 25 12 26.7909 12 29C12 31.2091 13.7909 33 16 33Z" fill="#8B9BA6"/>
<path d="M16 31C17.1045 31 18 30.1046 18 29C18 27.8954 17.1045 27 16 27C14.8954 27 14 27.8954 14 29C14 30.1046 14.8954 31 16 31Z" fill="#E97B00"/>
<path d="M34 33C36.2092 33 38 31.2091 38 29C38 26.7909 36.2092 25 34 25C31.7909 25 30 26.7909 30 29C30 31.2091 31.7909 33 34 33Z" fill="#8B9BA6"/>
<path d="M34 31C35.1045 31 36 30.1046 36 29C36 27.8954 35.1045 27 34 27C32.8954 27 32 27.8954 32 29C32 30.1046 32.8954 31 34 31Z" fill="#E97B00"/>
<path d="M39 6H24C22.9391 6 21.9217 6.42143 21.1716 7.17157C20.4214 7.92172 20 8.93913 20 10V23H43V10C43 8.93913 42.5786 7.92172 41.8284 7.17157C41.0783 6.42143 40.0609 6 39 6Z" fill="#E97B00"/>
</svg>
