<svg width="11" height="12" viewBox="0 0 11 12" fill="none" xmlns="http://www.w3.org/2000/svg">
<path d="M11 9.72836L10.8745 9.61762C10.5184 9.30039 10.2068 8.9366 9.94799 8.53607C9.66532 7.98332 9.4959 7.37968 9.44966 6.76057V4.93708C9.45211 3.96466 9.09937 3.02481 8.45772 2.29412C7.81608 1.56343 6.92969 1.0922 5.9651 0.96896V0.492785C5.9651 0.36209 5.91318 0.236749 5.82077 0.144333C5.72835 0.0519183 5.60301 0 5.47232 0C5.34162 0 5.21628 0.0519183 5.12386 0.144333C5.03145 0.236749 4.97953 0.36209 4.97953 0.492785V0.976342C4.02358 1.10846 3.14791 1.58254 2.51469 2.31078C1.88147 3.03901 1.53363 3.97205 1.53557 4.93708V6.76057C1.48934 7.37968 1.31992 7.98332 1.03725 8.53607C0.782876 8.9356 0.476246 9.29933 0.125503 9.61762L0 9.72836V10.7693H11V9.72836Z" fill="#FFFFFF"/>
<path d="M4.52921 11.1569C4.56157 11.3908 4.67752 11.6052 4.85562 11.7604C5.03372 11.9155 5.26195 12.001 5.49817 12.001C5.73438 12.001 5.96261 11.9155 6.14071 11.7604C6.31881 11.6052 6.43476 11.3908 6.46712 11.1569H4.52921Z" fill="#FF8D0E"/>
</svg>
