<svg width="50" height="54" viewBox="0 0 50 54" fill="none" xmlns="http://www.w3.org/2000/svg">
<rect x="6" width="40" height="40" rx="4" fill="#FFF3E7"/>
<path d="M13.3008 52.4004C14.1309 52.2734 14.9609 52.1172 15.791 51.9316L15.8057 51.9268L15.874 52.0635C15.5518 52.1969 15.2165 52.3223 14.8682 52.4395C14.3701 52.612 13.8363 52.7829 13.2666 52.9521L13.125 52.9912L13.1201 53.0498C13.1071 53.2126 13.0615 53.2939 12.9834 53.2939C12.9313 53.2939 12.8857 53.2451 12.8467 53.1475L12.5586 52.4883C12.6562 52.4818 12.7295 52.4753 12.7783 52.4688V51.248C12.1077 51.5898 11.3574 51.86 10.5273 52.0586L10.4736 51.9072L10.5566 51.873C11.6309 51.4629 12.5895 50.9583 13.4326 50.3594C13.7939 50.1022 14.0902 49.863 14.3213 49.6416H11.3574C11.1263 49.6416 10.8919 49.6644 10.6543 49.71L10.498 49.3535H18.208L18.6914 48.8164L19.5557 49.5293L19.4922 49.6416H15.21C15.5778 50.2666 16.0531 50.7956 16.6357 51.2285C17.0426 50.9909 17.3568 50.7891 17.5781 50.623C17.8125 50.4473 18.0371 50.2487 18.252 50.0273L18.3105 49.9688L18.8037 50.5156C18.8395 50.5579 18.8574 50.5954 18.8574 50.6279C18.8574 50.7093 18.8151 50.75 18.7305 50.75C18.6719 50.75 18.5645 50.7109 18.4082 50.6328C17.8451 50.9583 17.3161 51.2025 16.8213 51.3652C17.5081 51.8405 18.3838 52.223 19.4482 52.5127V52.6543C19.2171 52.6803 19.0592 52.7161 18.9746 52.7617C18.8932 52.8105 18.8135 52.9066 18.7354 53.0498C18.1624 52.7959 17.6725 52.5322 17.2656 52.2588C16.8587 51.9886 16.4697 51.668 16.0986 51.2969C15.8024 50.9909 15.5632 50.6849 15.3809 50.3789C15.2702 50.1901 15.1497 49.9443 15.0195 49.6416H15.0049C14.3994 50.2145 13.8314 50.6523 13.3008 50.9551V52.4004ZM16.8213 45.6084H18.1299L18.584 45.0811L19.3652 45.7744L19.3018 45.8965H16.8213V47.708H17.8564L18.2617 47.166L19.0625 47.8691L18.9941 47.9961H15.3174C15.083 47.9961 14.8486 48.0189 14.6143 48.0645L14.4238 47.708H16.3037V45.8965H14.873C14.6387 45.8965 14.4043 45.9209 14.1699 45.9697L13.9746 45.6084H16.3037V45.0469C16.3037 44.9329 16.2972 44.7539 16.2842 44.5098C16.2809 44.3828 16.2712 44.2673 16.2549 44.1631L17.0215 44.2852C17.1289 44.3014 17.1826 44.3503 17.1826 44.4316C17.1826 44.5098 17.1257 44.5732 17.0117 44.6221L16.8213 44.7051V45.6084ZM12.9248 46.7656C12.5993 47 12.334 47.1807 12.1289 47.3076C11.9141 47.4411 11.6227 47.6087 11.2549 47.8105L11.1963 47.8447V47.9424C11.1963 47.9554 11.1979 47.9766 11.2012 48.0059C11.2012 48.0254 11.2012 48.0368 11.2012 48.04C11.2012 48.167 11.1621 48.2305 11.084 48.2305C11.0254 48.2305 10.9652 48.18 10.9033 48.0791L10.5566 47.498C10.6934 47.459 10.8398 47.4118 10.9961 47.3564C11.7025 47.0993 12.3454 46.8161 12.9248 46.5068V45.0713V44.9541C12.9248 44.609 12.9102 44.3421 12.8809 44.1533L13.6328 44.2852C13.7402 44.3047 13.7939 44.3519 13.7939 44.4268C13.7939 44.4951 13.7419 44.5537 13.6377 44.6025L13.4326 44.6953V47.2197C13.4326 47.4606 13.4408 47.8675 13.457 48.4404L12.8906 48.6455C12.8939 48.5316 12.8988 48.3411 12.9053 48.0742C12.9183 47.7064 12.9248 47.4215 12.9248 47.2197V46.7656ZM10.9229 44.6904C11.4079 44.8988 11.7676 45.1217 12.002 45.3594C12.1842 45.5384 12.2754 45.7109 12.2754 45.877C12.2754 45.9779 12.2493 46.0625 12.1973 46.1309C12.1484 46.1992 12.085 46.2334 12.0068 46.2334C11.9482 46.2334 11.9027 46.2155 11.8701 46.1797C11.8376 46.1439 11.7806 46.0462 11.6992 45.8867C11.4941 45.4863 11.2093 45.1266 10.8447 44.8076L10.9229 44.6904ZM14.2822 48.1426C14.2855 48.1458 14.292 48.1491 14.3018 48.1523C14.3083 48.1556 14.3148 48.1572 14.3213 48.1572C14.7184 48.2907 14.9984 48.4323 15.1611 48.582C15.2946 48.7025 15.3613 48.8376 15.3613 48.9873C15.3613 49.0785 15.3369 49.1533 15.2881 49.2119C15.2393 49.2705 15.1758 49.2998 15.0977 49.2998C15.0293 49.2998 14.9756 49.2819 14.9365 49.2461C14.9007 49.2103 14.8568 49.1338 14.8047 49.0166C14.681 48.7334 14.4857 48.4746 14.2188 48.2402L14.2822 48.1426ZM23.7842 47.4492L23.6719 47.3369C24.6257 46.2139 25.2214 45.151 25.459 44.1484L26.1084 44.3633C26.1963 44.3958 26.2402 44.4414 26.2402 44.5C26.2402 44.6009 26.1328 44.6611 25.918 44.6807C25.8919 44.6839 25.8724 44.6872 25.8594 44.6904C25.7552 44.9118 25.6722 45.0811 25.6104 45.1982H27.9004L28.2471 44.832L28.8281 45.3105C28.8965 45.3691 28.9307 45.4229 28.9307 45.4717C28.9307 45.5693 28.7907 45.654 28.5107 45.7256C28.4782 45.7354 28.457 45.7419 28.4473 45.7451C28.0371 46.4222 27.5798 46.9919 27.0752 47.4541C27.7751 47.8447 28.6247 48.1133 29.624 48.2598V48.4355C29.3213 48.4746 29.1309 48.6064 29.0527 48.8311C28.0013 48.4795 27.2184 48.123 26.7041 47.7617C26.6618 47.7943 26.5934 47.8431 26.499 47.9082L26.4844 47.918C25.8138 48.3802 24.8747 48.7741 23.667 49.0996L23.5986 48.9287C24.7705 48.4925 25.6885 48.0107 26.3525 47.4834C25.9131 47.0895 25.5078 46.585 25.1367 45.9697C24.7786 46.4938 24.3278 46.987 23.7842 47.4492ZM26.6699 47.2051C27.1289 46.7852 27.5505 46.2106 27.9346 45.4814H25.4492C25.3711 45.6117 25.306 45.7174 25.2539 45.7988C25.6738 46.3783 26.1458 46.847 26.6699 47.2051ZM21.958 46.7559L22.2607 46.8242C22.3714 46.8503 22.4268 46.8991 22.4268 46.9707C22.4268 47.013 22.4023 47.0521 22.3535 47.0879C22.3047 47.1204 22.2054 47.1676 22.0557 47.2295V51.7314C22.0557 51.917 22.0605 52.2018 22.0703 52.5859C22.0768 52.8366 22.0817 53.0254 22.085 53.1523L21.5234 53.3184C21.5267 53.2142 21.5316 53.0189 21.5381 52.7324C21.5544 52.2246 21.5625 51.8324 21.5625 51.5557V47.5908C21.2695 48.1507 20.9066 48.6927 20.4736 49.2168L20.3564 49.1338C20.861 48.2972 21.2842 47.3825 21.626 46.3896C21.9222 45.527 22.098 44.7767 22.1533 44.1387L22.8662 44.3193C22.9704 44.3454 23.0225 44.391 23.0225 44.4561C23.0225 44.5081 22.9997 44.5472 22.9541 44.5732C22.9085 44.5993 22.8206 44.6221 22.6904 44.6416C22.4854 45.3643 22.2412 46.069 21.958 46.7559ZM22.8955 45.7842L23.6523 45.9307C23.7467 45.9502 23.7939 45.9941 23.7939 46.0625C23.7939 46.1471 23.6654 46.2415 23.4082 46.3457V50.7402C23.4082 50.9258 23.4147 51.2106 23.4277 51.5947C23.4342 51.8454 23.4375 52.0358 23.4375 52.166L22.9053 52.3271C22.9085 52.2262 22.9134 52.0309 22.9199 51.7412C22.9329 51.2367 22.9395 50.846 22.9395 50.5693V46.6973C22.9395 46.4954 22.9248 46.1911 22.8955 45.7842ZM28.0322 49.4219L28.5254 49.8418C28.5742 49.8841 28.5986 49.9264 28.5986 49.9688C28.5986 50.0566 28.5498 50.1006 28.4521 50.1006C28.3936 50.1006 28.2959 50.0811 28.1592 50.042C27.5179 50.4912 26.9189 50.8281 26.3623 51.0527C25.8057 51.2773 25.1009 51.4678 24.248 51.624L24.2041 51.4482C25.9294 50.9795 27.2054 50.304 28.0322 49.4219ZM28.9551 50.6084L29.4287 51.043C29.4808 51.0885 29.5068 51.1309 29.5068 51.1699C29.5068 51.2513 29.4596 51.292 29.3652 51.292C29.3132 51.292 29.2139 51.2757 29.0674 51.2432C28.2568 51.8193 27.4398 52.2507 26.6162 52.5371C25.8936 52.791 24.9642 53.0059 23.8281 53.1816L23.7891 53.0156C26.1198 52.5306 27.8418 51.7282 28.9551 50.6084ZM27.0898 48.3721L27.5439 48.7627C27.609 48.818 27.6416 48.862 27.6416 48.8945C27.6416 48.9824 27.5944 49.0264 27.5 49.0264C27.4609 49.0264 27.3568 49.0052 27.1875 48.9629C26.6862 49.2949 26.2207 49.5472 25.791 49.7197C25.3646 49.8923 24.8307 50.042 24.1895 50.1689L24.1553 50.0225C24.764 49.8239 25.3239 49.5879 25.835 49.3145C26.4176 49.002 26.8359 48.6878 27.0898 48.3721ZM35.2881 45.4619V52.3271H38.2764L38.7012 51.7461L39.5752 52.4785L39.5068 52.625H31.2988C31.071 52.625 30.8333 52.6543 30.5859 52.7129L30.4199 52.3271H34.7412V45.4619H31.7285C31.4941 45.4619 31.2549 45.4912 31.0107 45.5498L30.8496 45.1641H37.8516L38.291 44.5977L39.1553 45.3203L39.082 45.4619H35.2881Z" fill="black"/>
<path d="M37.9351 9.27214H9.38872L10.2645 29.2043C10.2578 29.2676 10.2511 29.3342 10.2511 29.3975C10.2511 31.9448 16.2548 34.0092 23.6602 34.0092C31.0657 34.0092 37.0694 31.9448 37.0694 29.3975C37.0694 29.3342 37.0627 29.2676 37.056 29.2043L37.9351 9.27214Z" fill="#FFBB6E"/>
<path opacity="0.5" d="M10.2678 29.2043C10.2611 29.2676 10.2545 29.3342 10.2545 29.3975C10.2545 31.8748 15.9384 33.896 23.0675 34.0026C28.9413 30.0834 33.0936 20.4902 33.0936 9.27214H9.38872L10.2678 29.2043Z" fill="#FFE1BF"/>
<path d="M23.6603 5.313C15.4756 5.313 8.84264 7.28424 8.84264 9.71833V11.9926C8.84264 14.5332 15.4756 16.591 23.6603 16.591C31.8449 16.591 38.4779 14.5299 38.4779 11.9926V9.72166C38.4779 7.28757 31.8449 5.313 23.6603 5.313Z" fill="#FFBB6E"/>
<path d="M23.6602 5C15.4789 5 8.84595 6.97124 8.84595 9.40533V11.6763C8.84595 14.2169 15.4789 16.2747 23.6636 16.2747C31.8482 16.2747 38.4812 14.2136 38.4812 11.6763V9.40533C38.4779 6.97124 31.8449 5 23.6602 5Z" fill="#FFE1BF"/>
<path d="M37.9351 9.27214C37.9351 6.99788 31.5452 5.1565 23.6636 5.1565C15.7819 5.1565 9.39204 6.99788 9.39204 9.27214C9.39204 11.5464 15.7819 13.3878 23.6636 13.3878C31.5452 13.3878 37.9351 11.5464 37.9351 9.27214Z" fill="#FFBB6E"/>
<path d="M30.3898 5.64266C25.0155 6.70819 21.1962 9.41199 21.1962 12.582C21.1962 12.835 21.2195 13.0848 21.2695 13.3312C22.0486 13.3678 22.8478 13.3911 23.6636 13.3911C31.5452 13.3911 37.9351 11.5497 37.9351 9.27547C37.9351 7.70048 34.8784 6.33526 30.3898 5.64266Z" fill="#FFBB6E"/>
<path d="M30.3365 5.64266C24.9922 6.68489 21.1962 9.32875 21.1962 12.4255C21.1962 12.6719 21.2195 12.9149 21.2695 13.158C22.0453 13.1946 22.8378 13.2146 23.6503 13.2146C31.4886 13.2146 37.8385 11.4132 37.8385 9.19223C37.8352 7.65386 34.7984 6.32194 30.3365 5.64266Z" fill="#FFE1BF"/>
<path d="M10.4809 10.8538C12.6286 12.3422 17.7199 13.3911 23.6602 13.3911C29.6006 13.3911 34.6919 12.3455 36.8396 10.8538C34.6419 9.15559 29.5706 7.96685 23.6602 7.96685C17.7498 7.96685 12.6785 9.15559 10.4809 10.8538Z" fill="#C56800"/>
<path d="M16.3147 12.8017C18.4624 13.1747 20.9731 13.3878 23.6636 13.3878C29.6039 13.3878 34.6952 12.3422 36.8429 10.8505C35.9772 10.1812 34.6652 9.5918 33.0303 9.1223C32.2145 9.08234 31.3787 9.05903 30.523 9.05903C23.0809 9.05903 16.9707 10.704 16.3147 12.8017Z" fill="#FF951E"/>
<path d="M34.8584 13.6974C34.7152 13.3911 34.4055 13.3545 34.1558 13.3245C34.1092 13.3178 34.0592 13.3112 34.0126 13.3045C33.8528 13.2779 33.6996 13.3944 33.6763 13.5676C33.653 13.7407 33.7629 13.9006 33.9227 13.9272C33.976 13.9372 34.0326 13.9439 34.0892 13.9505C34.1658 13.9605 34.2756 13.9738 34.3256 13.9938C34.3223 14.0604 34.2856 14.2735 33.9793 14.8229C32.2411 17.9296 28.0689 20.7699 23.0908 22.2317C19.4614 23.3006 15.8519 23.5204 12.925 22.8511C10.0647 22.1984 8.21995 20.7833 7.72048 18.862C7.29094 17.1971 7.93692 15.2591 9.53855 13.3844C9.38205 13.2313 9.24886 13.0748 9.14231 12.9116C7.37085 14.9694 6.66161 17.1338 7.15109 19.0285C7.70716 21.1862 9.71503 22.7612 12.7984 23.4671C13.9472 23.7301 15.1959 23.86 16.5078 23.86C18.6422 23.86 20.9431 23.517 23.244 22.8378C28.3652 21.3327 32.6707 18.3825 34.4854 15.1426C34.8917 14.42 34.9982 14.0005 34.8584 13.6974Z" fill="#7B9599"/>
<path d="M34.7285 13.9605C34.6419 13.7774 34.4588 13.7407 34.1824 13.7074C34.1358 13.7008 34.0858 13.6974 34.0259 13.6875C33.9826 13.6875 33.946 13.7208 33.9393 13.7674C33.9327 13.8173 33.966 13.8673 34.0126 13.8739C34.0659 13.8839 34.1158 13.8906 34.1791 13.8972C34.2923 13.9106 34.3855 13.9239 34.4521 13.9472L34.5953 14.0005L34.5886 14.1636C34.582 14.3468 34.4555 14.6631 34.2124 15.0993C32.4476 18.2526 28.2287 21.1296 23.2007 22.608C20.9598 23.2673 18.6689 23.6136 16.5678 23.6136C15.2725 23.6136 14.0504 23.4837 12.9349 23.2307C9.99806 22.5647 8.09675 21.0929 7.5773 19.0884C7.12111 17.3303 7.80372 15.2958 9.49526 13.3445C9.45197 13.3012 9.41202 13.2546 9.37206 13.2113C7.6339 15.2125 6.93464 17.3136 7.40748 19.1383C7.94357 21.2128 9.89484 22.7345 12.8983 23.4171C14.0238 23.6735 15.2591 23.8034 16.5644 23.8034C18.6822 23.8034 20.9931 23.4538 23.2473 22.7911C28.3186 21.2994 32.5774 18.3891 34.3655 15.1959C34.7185 14.5632 34.8317 14.1836 34.7285 13.9605Z" fill="#476166"/>
<path d="M34.6419 13.6975C34.5454 13.4843 34.3389 13.4444 34.0492 13.4111C34.0026 13.4044 33.956 13.3978 33.8861 13.3911C33.8128 13.3911 33.7495 13.4477 33.7396 13.5243C33.7262 13.6109 33.7828 13.6908 33.8628 13.7041C33.916 13.7141 33.9693 13.7208 34.0326 13.7274C34.1391 13.7407 34.2324 13.7541 34.2923 13.7774L34.3955 13.814L34.3922 13.9305C34.3855 14.1004 34.259 14.4134 34.0259 14.8362C32.2678 17.9729 28.0622 20.8399 23.0476 22.315C20.8133 22.9709 18.5257 23.3206 16.4312 23.3206C15.1426 23.3206 13.9239 23.1907 12.8117 22.9376C9.89817 22.2717 8.01017 20.8166 7.49739 18.8353C7.05119 17.1105 7.71382 15.1159 9.35874 13.1947C9.28882 13.1147 9.22555 13.0315 9.16895 12.9482C7.43079 14.9661 6.73486 17.0772 7.21102 18.9186C7.75378 21.0164 9.71836 22.5547 12.7485 23.244C13.8806 23.5037 15.116 23.6336 16.4279 23.6336C18.5523 23.6336 20.8699 23.2839 23.1241 22.618C28.2087 21.1229 32.4809 18.2027 34.2757 14.9961C34.6486 14.3334 34.7585 13.9439 34.6419 13.6975Z" fill="#B8C9CC"/>
<path d="M7.49739 19.5446C7.1744 18.7954 7.2077 18.0428 7.30094 17.9995C7.39084 17.9563 7.36753 18.7055 7.69052 19.4547C8.01351 20.2039 8.56626 20.67 8.47303 20.7133C8.38645 20.7566 7.82371 20.2938 7.49739 19.5446Z" fill="white"/>
<path d="M27.9257 20.6834C26.2508 21.5924 24.7491 22.012 24.7025 21.9187C24.6559 21.8255 26.1609 21.386 27.8358 20.4802C29.5107 19.5745 30.7228 18.5356 30.766 18.6322C30.8127 18.7221 29.5973 19.7743 27.9257 20.6834Z" fill="white"/>
<path d="M37.3784 29.8244C37.751 32.5713 38.2645 34.7726 38.5212 34.7377C38.778 34.7029 38.687 32.4479 38.3139 29.6975C37.9413 26.9506 37.4278 24.7493 37.171 24.7842C36.9148 24.8225 37.0057 27.0775 37.3784 29.8244Z" fill="#E6AC00"/>
<path d="M37.4021 25.1397C37.2202 25.5154 37.3378 27.7023 37.6932 30.3226C37.9499 32.2148 38.2656 33.8554 38.5249 34.7372C38.7793 34.6848 38.6857 32.4373 38.3145 29.701C38.0361 27.6219 37.6756 25.8619 37.4021 25.1397Z" fill="#FFCA8F"/>
<path d="M37.9692 29.7443C38.3418 32.4911 38.8554 34.6924 39.1121 34.6576C39.3724 34.6223 39.2779 32.3678 38.9048 29.6173C38.5322 26.8704 38.0222 24.6687 37.7619 24.704C37.5056 24.7424 37.5966 26.9974 37.9692 29.7443Z" fill="#E6AC00"/>
<path d="M37.9929 25.0595C37.8111 25.4352 37.9286 27.6221 38.2841 30.2424C38.5408 32.1346 38.8565 33.7753 39.1158 34.6571C39.3701 34.6047 39.2766 32.3572 38.9054 29.6208C38.6269 27.5417 38.2664 25.7818 37.9929 25.0595Z" fill="#FFCA8F"/>
<path d="M38.5602 29.6641C38.9329 32.411 39.4464 34.6122 39.7066 34.5769C39.9669 34.5416 39.8724 32.2871 39.4993 29.5367C39.1267 26.7898 38.6132 24.5885 38.3564 24.6234C38.0966 24.6622 38.1876 26.9172 38.5602 29.6641Z" fill="#E6AC00"/>
<path d="M38.5833 24.9794C38.4015 25.3551 38.5191 27.542 38.8745 30.1623C39.1312 32.0546 39.4469 33.6952 39.7062 34.577C39.9605 34.5246 39.867 32.2771 39.4958 29.5408C39.2174 27.4616 38.8568 25.7017 38.5833 24.9794Z" fill="#FFCA8F"/>
<path d="M39.1511 29.5839C39.5238 32.3308 40.0373 34.5321 40.294 34.4972C40.5543 34.4619 40.4598 32.2074 40.0867 29.457C39.7141 26.7101 39.2041 24.5084 38.9438 24.5437C38.6875 24.582 38.7785 26.837 39.1511 29.5839Z" fill="#E6AC00"/>
<path d="M39.1747 24.8992C38.9929 25.2749 39.1104 27.4618 39.4659 30.0821C39.7225 31.9743 40.0382 33.615 40.2975 34.4968C40.5519 34.4444 40.4584 32.1969 40.0872 29.4605C39.8052 27.3819 39.4482 25.6215 39.1747 24.8992Z" fill="#FFCA8F"/>
<path d="M39.742 29.5038C40.1146 32.2507 40.6282 34.4519 40.8849 34.4171C41.1452 34.3818 41.0507 32.1273 40.6776 29.3769C40.305 26.63 39.795 24.4282 39.5347 24.4635C39.2749 24.5024 39.3694 26.7569 39.742 29.5038Z" fill="#E6AC00"/>
<path d="M39.7656 24.8191C39.5837 25.1947 39.7013 27.3817 40.0567 30.0019C40.3134 31.8942 40.6291 33.5348 40.8884 34.4166C41.1428 34.3642 41.0493 32.1167 40.6781 29.3804C40.3961 27.3017 40.0356 25.5418 39.7656 24.8191Z" fill="#FFCA8F"/>
<path d="M40.3329 29.4236C40.7055 32.1705 41.219 34.3718 41.4758 34.3369C41.7361 34.3016 41.6416 32.0471 41.2685 29.2967C40.8958 26.5498 40.3823 24.3486 40.1256 24.3834C39.8658 24.4222 39.9603 26.6767 40.3329 29.4236Z" fill="#E6AC00"/>
<path d="M40.3565 24.7389C40.1746 25.1146 40.2922 27.3015 40.6476 29.9218C40.9043 31.814 41.22 33.4547 41.4793 34.3365C41.7337 34.284 41.6401 32.0366 41.2689 29.3002C40.987 27.2216 40.6264 25.4616 40.3565 24.7389Z" fill="#FFCA8F"/>
<path d="M40.9238 29.3435C41.2964 32.0904 41.8099 34.2916 42.0667 34.2568C42.327 34.2215 42.2325 31.967 41.8594 29.2165C41.4867 26.4696 40.9732 24.2684 40.7165 24.3032C40.4567 24.342 40.5512 26.5966 40.9238 29.3435Z" fill="#E6AC00"/>
<path d="M40.9474 24.6587C40.7655 25.0344 40.8831 27.2213 41.2385 29.8416C41.4952 31.7339 41.8109 33.3745 42.0702 34.2563C42.3246 34.2039 42.231 31.9564 41.8598 29.2201C41.5779 27.1414 41.2173 25.3815 40.9474 24.6587Z" fill="#FFCA8F"/>
<path d="M41.5107 29.2639C41.8833 32.0107 42.3968 34.212 42.6536 34.1772C42.9138 34.1419 42.8193 31.8874 42.4462 29.1369C42.0736 26.39 41.5601 24.1888 41.3034 24.2236C41.0471 24.262 41.1381 26.517 41.5107 29.2639Z" fill="#E6AC00"/>
<path d="M41.5383 24.5786C41.3564 24.9543 41.474 27.1412 41.8294 29.7615C42.0861 31.6537 42.4018 33.2944 42.6611 34.1762C42.9155 34.1237 42.8219 31.8763 42.4507 29.1399C42.1688 27.0613 41.8082 25.3013 41.5383 24.5786Z" fill="#FFCA8F"/>
<path d="M42.102 29.1836C42.4746 31.9305 42.9881 34.1318 43.2484 34.0965C43.5052 34.0617 43.4142 31.8067 43.0411 29.0563C42.6685 26.3094 42.1549 24.1081 41.8982 24.1429C41.6384 24.1818 41.7294 26.4367 42.102 29.1836Z" fill="#E6AC00"/>
<path d="M42.1256 24.4989C41.9437 24.8746 42.0613 27.0615 42.4167 29.6818C42.6734 31.574 42.9891 33.2147 43.2484 34.0965C43.5028 34.0441 43.4127 31.7961 43.0416 29.0598C42.7596 26.9811 42.3991 25.2212 42.1256 24.4989Z" fill="#FFCA8F"/>
<path d="M42.6929 29.1035C43.0656 31.8504 43.5791 34.0516 43.8393 34.0163C44.0996 33.981 44.0051 31.7265 43.632 28.9761C43.2594 26.2292 42.7494 24.0275 42.4891 24.0628C42.2293 24.1016 42.3203 26.3566 42.6929 29.1035Z" fill="#E6AC00"/>
<path d="M42.716 24.4188C42.5342 24.7945 42.6517 26.9814 43.0072 29.6017C43.2639 31.4939 43.5796 33.1346 43.8389 34.0164C44.0932 33.964 43.9997 31.7165 43.6285 28.9802C43.35 26.901 42.9895 25.1411 42.716 24.4188Z" fill="#FFCA8F"/>
<path d="M43.2833 29.0234C43.6559 31.7703 44.1695 33.9715 44.4262 33.9367C44.683 33.9019 44.592 31.6469 44.2189 28.8965C43.8463 26.1496 43.3328 23.9483 43.076 23.9831C42.8192 24.018 42.9107 26.2765 43.2833 29.0234Z" fill="#E6AC00"/>
<path d="M43.3074 24.3386C43.1255 24.7143 43.2431 26.9012 43.5985 29.5215C43.8552 31.4137 44.1709 33.0544 44.4302 33.9362C44.6881 33.8833 44.5946 31.6358 44.2234 28.8994C43.9414 26.8208 43.5809 25.0609 43.3074 24.3386Z" fill="#FFCA8F"/>
<path d="M37.7768 29.4372C38.1251 32.0048 38.6111 34.0557 38.8573 34.0223C39.107 33.9885 39.0255 31.8826 38.6772 29.3151C38.3294 26.7511 37.8465 24.6961 37.5968 24.73C37.3505 24.7634 37.4285 26.8697 37.7768 29.4372Z" fill="#E6AC00"/>
<path d="M37.8208 25.0578C37.6431 25.4114 37.7481 27.4532 38.0797 29.8976C38.3192 31.6632 38.6166 33.1953 38.8648 34.0213C39.1086 33.9703 39.0276 31.868 38.6812 29.3146C38.4183 27.3766 38.0771 25.7323 37.8208 25.0578Z" fill="#FFCA8F"/>
<path d="M38.3471 29.3599C38.6953 31.9274 39.1778 33.9788 39.4275 33.945C39.6772 33.9111 39.5957 31.8053 39.2474 29.2377C38.8996 26.6737 38.4167 24.6188 38.167 24.6526C37.9173 24.6865 37.9988 26.7924 38.3471 29.3599Z" fill="#E6AC00"/>
<path d="M38.387 24.981C38.2129 25.3341 38.3144 27.3764 38.646 29.8208C38.8855 31.5864 39.1829 33.1185 39.431 33.9445C39.6748 33.8935 39.5938 31.7912 39.2474 29.2377C38.9846 27.2998 38.6433 25.6554 38.387 24.981Z" fill="#FFCA8F"/>
<path d="M38.9129 29.2831C39.2611 31.8507 39.7436 33.9021 39.9933 33.8682C40.243 33.8344 40.1615 31.7285 39.8133 29.161C39.4654 26.597 38.979 24.5425 38.7328 24.5759C38.4866 24.6093 38.5646 26.7156 38.9129 29.2831Z" fill="#E6AC00"/>
<path d="M38.9533 24.9042C38.7757 25.2578 38.8807 27.2996 39.2123 29.744C39.4518 31.5096 39.7492 33.0417 39.9973 33.8677C40.2411 33.8167 40.1636 31.7139 39.8173 29.1604C39.5544 27.2225 39.2131 25.5781 38.9533 24.9042Z" fill="#FFCA8F"/>
<path d="M39.4831 29.2058C39.8314 31.7733 40.3138 33.8247 40.5635 33.7909C40.8133 33.757 40.7318 31.6512 40.3835 29.0836C40.0357 26.5196 39.5527 24.4647 39.303 24.4985C39.0533 24.5324 39.1348 26.6382 39.4831 29.2058Z" fill="#E6AC00"/>
<path d="M39.5231 24.8269C39.3454 25.1805 39.4504 27.2223 39.782 29.6667C40.0215 31.4323 40.3189 32.9644 40.5671 33.7904C40.8109 33.7394 40.7299 31.6371 40.3835 29.0836C40.1206 27.1457 39.7793 25.5013 39.5231 24.8269Z" fill="#FFCA8F"/>
<path d="M40.0494 29.129C40.3976 31.6965 40.8801 33.7479 41.1298 33.7141C41.3795 33.6802 41.298 31.5744 40.9497 29.0068C40.6019 26.4428 40.119 24.3879 39.8693 24.4217C39.6196 24.4556 39.7011 26.5614 40.0494 29.129Z" fill="#E6AC00"/>
<path d="M40.0893 24.7501C39.9117 25.1037 40.0167 27.1455 40.3483 29.5899C40.5878 31.3555 40.8852 32.8876 41.1333 33.7136C41.3771 33.6626 41.2961 31.5603 40.9497 29.0068C40.6869 27.0689 40.3491 25.424 40.0893 24.7501Z" fill="#FFCA8F"/>
<path d="M40.6151 29.0522C40.9634 31.6197 41.4459 33.6712 41.6956 33.6373C41.9453 33.6034 41.8638 31.4976 41.5155 28.9301C41.1677 26.3661 40.6848 24.3111 40.4351 24.345C40.1889 24.3784 40.2668 26.4847 40.6151 29.0522Z" fill="#E6AC00"/>
<path d="M40.6556 24.6733C40.4779 25.0269 40.5829 27.0686 40.9145 29.5131C41.154 31.2787 41.4514 32.8108 41.6996 33.6368C41.9469 33.5853 41.8659 31.483 41.5195 28.9295C41.2566 26.9916 40.9154 25.3472 40.6556 24.6733Z" fill="#FFCA8F"/>
<path d="M41.1854 28.9749C41.5337 31.5424 42.0162 33.5938 42.2659 33.5599C42.5156 33.5261 42.4341 31.4202 42.0858 28.8527C41.738 26.2887 41.2551 24.2337 41.0054 24.2676C40.7556 24.3015 40.8371 26.4073 41.1854 28.9749Z" fill="#E6AC00"/>
<path d="M41.2254 24.596C41.0477 24.9496 41.1528 26.9913 41.4844 29.4358C41.7239 31.2014 42.0212 32.7335 42.2694 33.5595C42.5132 33.5085 42.4322 31.4062 42.0858 28.8527C41.8229 26.9148 41.4817 25.2704 41.2254 24.596Z" fill="#FFCA8F"/>
<path d="M41.7517 28.898C42.1 31.4656 42.5824 33.517 42.8321 33.4831C43.0818 33.4493 43.0003 31.3434 42.6521 28.7759C42.3042 26.2119 41.8213 24.1569 41.5716 24.1908C41.3219 24.2247 41.4034 26.3305 41.7517 28.898Z" fill="#E6AC00"/>
<path d="M41.7917 24.5191C41.614 24.8728 41.719 26.9145 42.0506 29.359C42.2901 31.1246 42.5875 32.6567 42.8356 33.4827C43.0795 33.4317 42.9984 31.3294 42.6521 28.7759C42.3892 26.8379 42.0514 25.1931 41.7917 24.5191Z" fill="#FFCA8F"/>
<path d="M42.3174 28.8213C42.6657 31.3888 43.1517 33.4398 43.3979 33.4064C43.6476 33.3725 43.5661 31.2667 43.2178 28.6992C42.87 26.1351 42.3871 24.0802 42.1374 24.1141C41.8912 24.1475 41.9691 26.2538 42.3174 28.8213Z" fill="#E6AC00"/>
<path d="M42.3579 24.4423C42.1802 24.796 42.2852 26.8377 42.6168 29.2821C42.8563 31.0478 43.1537 32.5799 43.4019 33.4058C43.6492 33.3544 43.5682 31.2521 43.2218 28.6986C42.9589 26.7607 42.6177 25.1163 42.3579 24.4423Z" fill="#FFCA8F"/>
<path d="M42.8877 28.7439C43.236 31.3115 43.7185 33.3629 43.9682 33.329C44.2179 33.2952 44.1364 31.1893 43.7881 28.6218C43.4403 26.0578 42.9539 24.0033 42.7077 24.0367C42.4579 24.0706 42.5394 26.1764 42.8877 28.7439Z" fill="#E6AC00"/>
<path d="M42.9277 24.365C42.7535 24.7182 42.8551 26.7604 43.1866 29.2048C43.4261 30.9705 43.7235 32.5026 43.9717 33.3286C44.2155 33.2776 44.1345 31.1753 43.7881 28.6218C43.5252 26.6838 43.184 25.0395 42.9277 24.365Z" fill="#FFCA8F"/>
<path d="M36.6033 24.8755C36.5875 24.7594 36.6691 24.6481 36.7887 24.6319L43.408 23.7339C43.5276 23.7177 43.6354 23.7998 43.6517 23.9194L44.2375 28.2385C44.2533 28.3545 44.1717 28.4659 44.0521 28.4821L37.4293 29.3805C37.3132 29.3962 37.2019 29.3146 37.1856 29.1951L36.5998 24.876L36.6033 24.8755Z" fill="#7B9599"/>
<path d="M43.4629 24.1384L37.6964 25.329C37.5768 25.3452 37.4947 25.4531 37.5109 25.5726L37.7458 29.3376L44.0521 28.4821C44.1717 28.4659 44.2538 28.358 44.2375 28.2385L43.706 24.3203C43.6903 24.2043 43.5825 24.1222 43.4629 24.1384Z" fill="#B8C9CC"/>
<path d="M37.3086 27.4877C37.3325 27.6636 38.7396 27.3688 40.4911 27.1312C42.2462 26.8932 43.6814 26.8059 43.6571 26.6265C43.6333 26.4507 42.2242 26.7314 40.4692 26.9694C38.7176 27.207 37.2843 27.3084 37.3086 27.4877Z" fill="#7B9599"/>
<path d="M37.0701 25.7292C37.094 25.905 38.5011 25.6103 40.2526 25.3727C42.0077 25.1346 43.4429 25.0473 43.4186 24.868C43.3947 24.6921 41.9857 24.9728 40.2306 25.2109C38.4791 25.4485 37.0462 25.5533 37.0701 25.7292Z" fill="#7B9599"/>
<path d="M43.4648 23.7298C43.4648 23.7298 43.3255 22.7028 43.2792 22.3617C43.1651 21.5211 41.0884 21.3156 40.9744 20.475C40.6786 18.2944 40.4325 10.4333 40.4325 10.4333C40.1892 8.63957 37.8326 7.47992 37.8326 7.47992C37.8326 7.47992 35.8701 9.22546 36.1134 11.0192C36.1134 11.0192 37.9704 18.6618 38.2662 20.8424C38.3802 21.683 36.4368 22.4338 36.5509 23.2744C36.5971 23.6155 36.7364 24.6425 36.7364 24.6425L43.4648 23.7298ZM38.1345 9.57376C38.1803 9.56756 38.2234 9.56887 38.2666 9.57018C38.3942 9.69256 38.4839 9.85232 38.5092 10.0387C38.5689 10.4784 38.2618 10.8818 37.8222 10.9414C37.7765 10.9476 37.7333 10.9463 37.6901 10.945C37.5625 10.8226 37.4728 10.6629 37.4475 10.4765C37.3843 10.0373 37.6949 9.6334 38.1345 9.57376Z" fill="#B3A78F"/>
<path d="M43.4371 23.5258C43.4371 23.5258 43.3488 22.8752 43.2935 22.4672C43.1962 21.7497 41.5548 21.5318 41.2245 20.8924C41.0893 20.7675 40.9959 20.6333 40.9739 20.4715C40.7139 18.5547 40.4894 12.2524 40.4403 10.7546C40.1073 9.14498 38.1883 8.14806 38.1883 8.14806C38.1883 8.14806 36.3522 9.55766 36.5759 11.2072C36.5759 11.2072 38.3958 19.0518 38.6687 21.0636C38.7742 21.8409 36.9803 22.532 37.0852 23.3058C37.1282 23.6223 37.2288 24.3644 37.2288 24.3644L43.4366 23.5223L43.4371 23.5258ZM38.1345 9.57377C38.1803 9.56757 38.2234 9.56888 38.2666 9.57019C38.3942 9.69257 38.4839 9.85233 38.5092 10.0387C38.5689 10.4784 38.2618 10.8818 37.8222 10.9414C37.7765 10.9476 37.7333 10.9463 37.6901 10.945C37.5625 10.8226 37.4728 10.6629 37.4475 10.4765C37.3843 10.0373 37.6949 9.63341 38.1345 9.57377Z" fill="#C56800"/>
<path d="M38.5092 10.0387C38.5689 10.4784 38.2618 10.8818 37.8222 10.9414C37.7694 10.9486 37.7157 10.9487 37.662 10.9488C37.8345 11.1117 38.0763 11.2043 38.3331 11.1694C38.7833 11.1084 39.0964 10.697 39.0353 10.2468C38.98 9.83877 38.6322 9.54567 38.2301 9.53931C38.3759 9.66282 38.4816 9.83474 38.5092 10.0387Z" fill="#B3A78F"/>
<path d="M40.0305 10.4838C40.0305 10.4838 40.2767 18.3448 40.5725 20.5255C40.6865 21.3661 42.7597 21.572 42.8737 22.4126C42.92 22.7537 43.0593 23.7807 43.0593 23.7807L43.4603 23.7264C43.4603 23.7264 43.3209 22.6993 43.2747 22.3582C43.1606 21.5176 41.0839 21.3122 40.9699 20.4716C40.6741 18.2909 40.428 10.4298 40.428 10.4298C40.1847 8.6361 37.8281 7.47645 37.8281 7.47645C37.8281 7.47645 37.7578 7.53971 37.6476 7.65137C38.2421 7.9934 39.8335 9.03117 40.0305 10.4838Z" fill="#F3E7CF"/>
</svg>
