<svg width="10" height="10" viewBox="0 0 10 10" fill="none" xmlns="http://www.w3.org/2000/svg">
<path d="M5 3.33332C4.07917 3.33332 3.33334 4.07916 3.33334 4.99999C3.33334 5.92082 4.07917 6.66666 5 6.66666C5.92084 6.66666 6.66667 5.92082 6.66667 4.99999C6.66667 4.07916 5.92084 3.33332 5 3.33332ZM8.725 4.58332C8.63062 3.73837 8.25173 2.95063 7.65055 2.34945C7.04936 1.74826 6.26162 1.36937 5.41667 1.27499V0.416656H4.58334V1.27499C3.73839 1.36937 2.95065 1.74826 2.34946 2.34945C1.74828 2.95063 1.36939 3.73837 1.275 4.58332H0.416672V5.41666H1.275C1.36939 6.26161 1.74828 7.04935 2.34946 7.65053C2.95065 8.25172 3.73839 8.63061 4.58334 8.72499V9.58332H5.41667V8.72499C6.26162 8.63061 7.04936 8.25172 7.65055 7.65053C8.25173 7.04935 8.63062 6.26161 8.725 5.41666H9.58334V4.58332H8.725ZM5 7.91666C3.3875 7.91666 2.08334 6.61249 2.08334 4.99999C2.08334 3.38749 3.3875 2.08332 5 2.08332C6.6125 2.08332 7.91667 3.38749 7.91667 4.99999C7.91667 6.61249 6.6125 7.91666 5 7.91666Z" fill="#FEA23B"/>
</svg>
