<svg width="9" height="9" viewBox="0 0 9 9" fill="none" xmlns="http://www.w3.org/2000/svg">
<path d="M8.30417 5.15541C8.18868 5.11942 8.06365 5.13054 7.95634 5.18634C7.84902 5.24215 7.76811 5.33812 7.73125 5.45333C7.51472 6.11538 7.09259 6.69107 6.52628 7.09664C5.95996 7.50221 5.27901 7.7165 4.5825 7.70833C3.72099 7.71812 2.89076 7.38587 2.27386 6.78444C1.65696 6.183 1.30375 5.36147 1.29167 4.5C1.30375 3.63852 1.65696 2.81699 2.27386 2.21555C2.89076 1.61412 3.72099 1.28187 4.5825 1.29166C5.36056 1.28978 6.11467 1.56062 6.71375 2.05708L5.71917 1.89208C5.65956 1.88227 5.5986 1.88434 5.5398 1.89818C5.48099 1.91201 5.4255 1.93733 5.37652 1.97268C5.32754 2.00804 5.28603 2.05273 5.25437 2.10418C5.22272 2.15563 5.20155 2.21283 5.19208 2.2725C5.18228 2.3321 5.18435 2.39306 5.19818 2.45187C5.21201 2.51067 5.23734 2.56616 5.27269 2.61514C5.30804 2.66413 5.35273 2.70564 5.40418 2.73729C5.45564 2.76894 5.51284 2.79011 5.5725 2.79958L7.51583 3.12041H7.59375C7.6469 3.12035 7.69963 3.11104 7.74958 3.09291C7.76637 3.08654 7.78189 3.07723 7.79542 3.06541C7.82828 3.05319 7.85917 3.03621 7.88708 3.015L7.92833 2.96458C7.92833 2.94166 7.96958 2.92333 7.98792 2.89583C8.00625 2.86833 7.98792 2.85 8.01083 2.83166C8.0235 2.80497 8.03422 2.7774 8.04292 2.74916L8.38667 0.915829C8.3981 0.85564 8.39757 0.793788 8.3851 0.733804C8.37264 0.67382 8.34847 0.616879 8.314 0.566233C8.27953 0.515586 8.23542 0.472225 8.18419 0.438627C8.13295 0.405028 8.07561 0.381849 8.01542 0.370413C7.95523 0.358977 7.89338 0.359508 7.83339 0.371976C7.77341 0.384444 7.71647 0.408604 7.66582 0.443078C7.56353 0.512701 7.4931 0.620105 7.47 0.741663L7.34625 1.40625C6.57899 0.741315 5.59779 0.375193 4.5825 0.374996C3.47789 0.365219 2.41451 0.794048 1.6257 1.56739C0.836896 2.34073 0.387096 3.39541 0.375 4.5C0.387096 5.60459 0.836896 6.65927 1.6257 7.4326C2.41451 8.20594 3.47789 8.63477 4.5825 8.625C5.47769 8.63875 6.35364 8.36472 7.08139 7.84325C7.80914 7.32177 8.35023 6.58042 8.625 5.72833C8.64239 5.66965 8.64784 5.60808 8.64105 5.54726C8.63426 5.48643 8.61535 5.42759 8.58545 5.37419C8.55554 5.32079 8.51525 5.27392 8.46694 5.23634C8.41863 5.19877 8.36328 5.17125 8.30417 5.15541Z" fill="#FFB879"/>
</svg>
