<svg width="50" height="54" viewBox="0 0 50 54" fill="none" xmlns="http://www.w3.org/2000/svg">
<rect x="5" width="40" height="40" rx="4" fill="#FFF3E7"/>
<path d="M9.69336 47.293C9.94727 46.9316 10.2044 46.4906 10.4648 45.9697C10.8034 45.2861 11.0345 44.7002 11.1582 44.2119L11.7881 44.4609C11.8923 44.5033 11.9574 44.5358 11.9834 44.5586C12.0094 44.5781 12.0225 44.6074 12.0225 44.6465C12.0225 44.7604 11.9036 44.8206 11.666 44.8271C11.64 44.8271 11.6204 44.8271 11.6074 44.8271C11.002 45.9111 10.4453 46.7331 9.9375 47.293L10.167 47.2881C10.8311 47.2751 11.3356 47.2507 11.6807 47.2148C11.902 46.8145 12.0745 46.4303 12.1982 46.0625L12.8232 46.3604C12.9469 46.4189 13.0088 46.4775 13.0088 46.5361C13.0088 46.6468 12.8883 46.7103 12.6475 46.7266C12.6214 46.7266 12.6019 46.7282 12.5889 46.7314C11.9508 47.8154 11.1826 48.7952 10.2842 49.6709C10.1833 49.7718 10.1068 49.8434 10.0547 49.8857C10.8978 49.8369 11.749 49.7214 12.6084 49.5391L12.667 49.6953C12.068 49.946 11.2445 50.1885 10.1963 50.4229C10.1833 50.5661 10.167 50.6572 10.1475 50.6963C10.1312 50.7354 10.0954 50.7549 10.04 50.7549C9.97493 50.7549 9.91634 50.7012 9.86426 50.5938L9.55664 49.915C9.61849 49.9118 9.68197 49.9085 9.74707 49.9053C10.473 49.0459 11.0703 48.2288 11.5391 47.4541C11.1745 47.555 10.7269 47.6576 10.1963 47.7617L10.1035 47.7812C10.1003 47.7943 10.097 47.8171 10.0938 47.8496C10.0742 48.0059 10.027 48.084 9.95215 48.084C9.8903 48.084 9.83008 48.0075 9.77148 47.8545L9.55176 47.2979L9.69336 47.293ZM14.1562 46.1357H17.2178L17.7012 45.5791L18.5312 46.3018L18.4629 46.4238H16.5V48.1328H17.1641L17.6475 47.5908L18.4482 48.3086L18.3799 48.4209H16.5V50.1543H17.1641L17.6475 49.6123L18.4482 50.3301L18.3799 50.4424H16.5V52.2979H17.2764L17.7598 51.7363L18.585 52.4688L18.5215 52.5811H14.0928V53.1768L13.5215 53.3184C13.5247 53.2109 13.5312 53.027 13.541 52.7666C13.5605 52.2848 13.5703 51.9154 13.5703 51.6582V47.293C13.2871 47.7682 12.9453 48.2581 12.5449 48.7627L12.3838 48.6455C13.3929 46.9919 13.9951 45.5173 14.1904 44.2217L14.9326 44.4854C15.0335 44.5179 15.084 44.5635 15.084 44.6221C15.084 44.7132 14.9619 44.7637 14.7178 44.7734C14.708 44.7734 14.6999 44.7751 14.6934 44.7783C14.5143 45.2731 14.3353 45.7256 14.1562 46.1357ZM14.0928 46.4238V48.1328H15.9775V46.4238H14.0928ZM14.0928 48.4209V50.1543H15.9775V48.4209H14.0928ZM14.0928 50.4424V52.2979H15.9775V50.4424H14.0928ZM9.60547 51.9658C10.9954 51.7119 12.0615 51.4645 12.8037 51.2236L12.8623 51.3848C12.5335 51.5671 12.1982 51.7282 11.8564 51.8682C11.5179 52.0049 10.9548 52.2116 10.167 52.4883C10.167 52.4915 10.1654 52.516 10.1621 52.5615C10.1523 52.7275 10.1084 52.8105 10.0303 52.8105C9.97168 52.8105 9.91797 52.7503 9.86914 52.6299L9.60547 51.9658ZM15.5186 44.1729C15.8929 44.4105 16.1484 44.5928 16.2852 44.7197C16.5391 44.9541 16.666 45.182 16.666 45.4033C16.666 45.501 16.6351 45.584 16.5732 45.6523C16.5146 45.7207 16.4414 45.7549 16.3535 45.7549C16.2917 45.7549 16.2396 45.7272 16.1973 45.6719C16.1549 45.6133 16.1045 45.501 16.0459 45.335C15.9255 45.0062 15.7155 44.6562 15.416 44.2852L15.5186 44.1729ZM22.7842 47.4492L22.6719 47.3369C23.6257 46.2139 24.2214 45.151 24.459 44.1484L25.1084 44.3633C25.1963 44.3958 25.2402 44.4414 25.2402 44.5C25.2402 44.6009 25.1328 44.6611 24.918 44.6807C24.8919 44.6839 24.8724 44.6872 24.8594 44.6904C24.7552 44.9118 24.6722 45.0811 24.6104 45.1982H26.9004L27.2471 44.832L27.8281 45.3105C27.8965 45.3691 27.9307 45.4229 27.9307 45.4717C27.9307 45.5693 27.7907 45.654 27.5107 45.7256C27.4782 45.7354 27.457 45.7419 27.4473 45.7451C27.0371 46.4222 26.5798 46.9919 26.0752 47.4541C26.7751 47.8447 27.6247 48.1133 28.624 48.2598V48.4355C28.3213 48.4746 28.1309 48.6064 28.0527 48.8311C27.0013 48.4795 26.2184 48.123 25.7041 47.7617C25.6618 47.7943 25.5934 47.8431 25.499 47.9082L25.4844 47.918C24.8138 48.3802 23.8747 48.7741 22.667 49.0996L22.5986 48.9287C23.7705 48.4925 24.6885 48.0107 25.3525 47.4834C24.9131 47.0895 24.5078 46.585 24.1367 45.9697C23.7786 46.4938 23.3278 46.987 22.7842 47.4492ZM25.6699 47.2051C26.1289 46.7852 26.5505 46.2106 26.9346 45.4814H24.4492C24.3711 45.6117 24.306 45.7174 24.2539 45.7988C24.6738 46.3783 25.1458 46.847 25.6699 47.2051ZM20.958 46.7559L21.2607 46.8242C21.3714 46.8503 21.4268 46.8991 21.4268 46.9707C21.4268 47.013 21.4023 47.0521 21.3535 47.0879C21.3047 47.1204 21.2054 47.1676 21.0557 47.2295V51.7314C21.0557 51.917 21.0605 52.2018 21.0703 52.5859C21.0768 52.8366 21.0817 53.0254 21.085 53.1523L20.5234 53.3184C20.5267 53.2142 20.5316 53.0189 20.5381 52.7324C20.5544 52.2246 20.5625 51.8324 20.5625 51.5557V47.5908C20.2695 48.1507 19.9066 48.6927 19.4736 49.2168L19.3564 49.1338C19.861 48.2972 20.2842 47.3825 20.626 46.3896C20.9222 45.527 21.098 44.7767 21.1533 44.1387L21.8662 44.3193C21.9704 44.3454 22.0225 44.391 22.0225 44.4561C22.0225 44.5081 21.9997 44.5472 21.9541 44.5732C21.9085 44.5993 21.8206 44.6221 21.6904 44.6416C21.4854 45.3643 21.2412 46.069 20.958 46.7559ZM21.8955 45.7842L22.6523 45.9307C22.7467 45.9502 22.7939 45.9941 22.7939 46.0625C22.7939 46.1471 22.6654 46.2415 22.4082 46.3457V50.7402C22.4082 50.9258 22.4147 51.2106 22.4277 51.5947C22.4342 51.8454 22.4375 52.0358 22.4375 52.166L21.9053 52.3271C21.9085 52.2262 21.9134 52.0309 21.9199 51.7412C21.9329 51.2367 21.9395 50.846 21.9395 50.5693V46.6973C21.9395 46.4954 21.9248 46.1911 21.8955 45.7842ZM27.0322 49.4219L27.5254 49.8418C27.5742 49.8841 27.5986 49.9264 27.5986 49.9688C27.5986 50.0566 27.5498 50.1006 27.4521 50.1006C27.3936 50.1006 27.2959 50.0811 27.1592 50.042C26.5179 50.4912 25.9189 50.8281 25.3623 51.0527C24.8057 51.2773 24.1009 51.4678 23.248 51.624L23.2041 51.4482C24.9294 50.9795 26.2054 50.304 27.0322 49.4219ZM27.9551 50.6084L28.4287 51.043C28.4808 51.0885 28.5068 51.1309 28.5068 51.1699C28.5068 51.2513 28.4596 51.292 28.3652 51.292C28.3132 51.292 28.2139 51.2757 28.0674 51.2432C27.2568 51.8193 26.4398 52.2507 25.6162 52.5371C24.8936 52.791 23.9642 53.0059 22.8281 53.1816L22.7891 53.0156C25.1198 52.5306 26.8418 51.7282 27.9551 50.6084ZM26.0898 48.3721L26.5439 48.7627C26.609 48.818 26.6416 48.862 26.6416 48.8945C26.6416 48.9824 26.5944 49.0264 26.5 49.0264C26.4609 49.0264 26.3568 49.0052 26.1875 48.9629C25.6862 49.2949 25.2207 49.5472 24.791 49.7197C24.3646 49.8923 23.8307 50.042 23.1895 50.1689L23.1553 50.0225C23.764 49.8239 24.3239 49.5879 24.835 49.3145C25.4176 49.002 25.8359 48.6878 26.0898 48.3721ZM34.2881 45.4619V52.3271H37.2764L37.7012 51.7461L38.5752 52.4785L38.5068 52.625H30.2988C30.071 52.625 29.8333 52.6543 29.5859 52.7129L29.4199 52.3271H33.7412V45.4619H30.7285C30.4941 45.4619 30.2549 45.4912 30.0107 45.5498L29.8496 45.1641H36.8516L37.291 44.5977L38.1553 45.3203L38.082 45.4619H34.2881Z" fill="black"/>
<path fill-rule="evenodd" clip-rule="evenodd" d="M9 5.99559L10.989 4.00664L17.1169 8.38234C17.375 8.56655 17.5853 8.80979 17.7302 9.09176C17.8752 9.37374 17.9507 9.68629 17.9503 10.0033V10.1426C17.9501 10.4041 18.0015 10.6631 18.1015 10.9047C18.2015 11.1463 18.3481 11.3659 18.5331 11.5508L29.884 22.9017L31.702 22.2951C32.0524 22.1785 32.4283 22.1618 32.7877 22.2468C33.147 22.3318 33.4756 22.5152 33.7367 22.7764L40.4116 29.4514C40.7845 29.8243 40.9939 30.3302 40.9939 30.8576C40.9939 31.385 40.7845 31.8908 40.4116 32.2637L37.2571 35.4182C36.8841 35.7911 36.3783 36.0006 35.8509 36.0006C35.3235 36.0006 34.8177 35.7911 34.4447 35.4182L27.7698 28.7433C27.5086 28.4823 27.3252 28.1537 27.2402 27.7943C27.1552 27.4349 27.1719 27.059 27.2885 26.7086L27.8951 24.8907L16.5441 13.5397C16.1712 13.1667 15.6654 12.9571 15.1379 12.9569H14.9967C14.68 12.957 14.3678 12.8814 14.0862 12.7364C13.8046 12.5915 13.5617 12.3814 13.3777 12.1236L9 5.99559ZM31.5826 25.1811C31.3959 24.9943 31.1426 24.8894 30.8785 24.8894C30.6144 24.8894 30.3612 24.9943 30.1744 25.1811C29.9877 25.3678 29.8828 25.6211 29.8828 25.8852C29.8828 26.1492 29.9877 26.4025 30.1744 26.5893L36.1413 32.5561C36.328 32.7429 36.5813 32.8478 36.8454 32.8478C37.1095 32.8478 37.3627 32.7429 37.5495 32.5561C37.7362 32.3694 37.8411 32.1161 37.8411 31.852C37.8411 31.5879 37.7362 31.3347 37.5495 31.1479L31.5826 25.1811Z" fill="#FFBB6E"/>
<path fill-rule="evenodd" clip-rule="evenodd" d="M40.6206 8.42752C40.8904 9.43996 40.8892 10.5056 40.617 11.5174C40.3448 12.5292 39.8112 13.4516 39.0698 14.192C38.3284 14.9324 37.4053 15.4647 36.3931 15.7355C35.3809 16.0063 34.3153 16.0062 33.3032 15.7349L20.6913 28.1719C21.0671 29.4441 21.0084 30.8052 20.5242 32.0402C20.0401 33.2753 19.1582 34.3138 18.018 34.9916C16.8777 35.6695 15.5441 35.948 14.2278 35.7833C12.9116 35.6185 11.6877 35.0198 10.7497 34.0818C9.81172 33.1438 9.21304 31.92 9.04827 30.6037C8.88351 29.2875 9.16206 27.9538 9.83991 26.8136C10.5178 25.6733 11.5563 24.7914 12.7913 24.3073C14.0263 23.8232 15.3875 23.7644 16.6597 24.1403L29.0946 11.5283C28.82 10.5154 28.8174 9.44804 29.087 8.43383C29.3566 7.41961 29.889 6.49445 30.6303 5.75168C31.3717 5.0089 32.2958 4.47479 33.3095 4.20323C34.3232 3.93167 35.3906 3.93227 36.404 4.20497L32.1437 8.46531L32.8677 11.9619L36.3623 12.6859L40.6206 8.42752ZM14.0283 26.3659L14.969 25.8846L15.9058 26.3659L16.958 26.4176L17.5288 27.3027L18.4139 27.8736L18.4656 28.9257L18.945 29.8625L18.4636 30.7993L18.4119 31.8515L17.5268 32.4223L16.956 33.3074L15.9038 33.3591L14.967 33.8404L14.0303 33.3591L12.9781 33.3074L12.4073 32.4223L11.5222 31.8515L11.4705 30.7993L10.9891 29.8625L11.4705 28.9257L11.5222 27.8736L12.4073 27.3027L12.9781 26.4176L14.0303 26.3659H14.0283Z" fill="#FF951E"/>
</svg>
