<svg width="167" height="94" viewBox="0 0 167 94" fill="none" xmlns="http://www.w3.org/2000/svg">
<g filter="url(#filter0_d)">
<rect x="2" width="162.5" height="90" rx="8" fill="url(#paint0_linear)"/>
</g>
<path d="M60.9069 39.3575C61.7497 39.3575 62.4331 40.0384 62.4331 40.878H59.3823C59.3807 40.0384 60.0641 39.3575 60.9069 39.3575Z" fill="#FBFBFB"/>
<path d="M65.2259 38.0956C66.7686 38.0956 68.0188 39.3411 68.0188 40.878H62.4315C62.4331 39.3411 63.6833 38.0956 65.2259 38.0956Z" fill="#FBFBFB"/>
<path d="M96.9951 53.368C97.8379 53.368 98.5213 54.0489 98.5213 54.8885H95.4706C95.4706 54.0472 96.154 53.368 96.9951 53.368Z" fill="#FBFBFB"/>
<path d="M101.314 52.1044C102.857 52.1044 104.107 53.35 104.107 54.8869H98.5214C98.5214 53.35 99.7716 52.1044 101.314 52.1044Z" fill="#FBFBFB"/>
<path d="M111.902 48.9717C112.745 48.9717 113.428 49.6526 113.428 50.4922H110.378C110.378 49.6526 111.061 48.9717 111.902 48.9717Z" fill="#FBFBFB"/>
<path d="M116.221 47.7081C117.764 47.7081 119.014 48.9537 119.014 50.4906H113.427C113.428 48.9537 114.679 47.7081 116.221 47.7081Z" fill="#FBFBFB"/>
<path d="M143.45 85.0897V81.6345H141.077L130.019 67.0348C129.394 66.2082 127.016 65.5535 124.697 65.5535H41.7579C39.4382 65.5535 37.0611 66.2082 36.4351 67.0348L25.3772 81.6345H23V85.2485H23.0049C23.0838 86.2158 24.6281 86.9196 27.0644 86.9196H139.392C141.958 86.9196 143.537 86.1389 143.45 85.0897Z" fill="#3C3C3C"/>
<path d="M36.4351 63.4012L23.3187 80.7163C22.2607 82.1157 23.9216 83.286 27.0644 83.286H139.392C142.535 83.286 144.196 82.1157 143.136 80.7179L130.019 63.4028C129.394 62.5763 127.016 61.9216 124.697 61.9216H41.7579C39.4382 61.92 37.0611 62.5746 36.4351 63.4012Z" fill="#424242"/>
<path d="M131.166 82.2189H35.2884L47.0084 62.5157H119.446L131.166 82.2189Z" fill="#FAFAFA"/>
<path d="M59.4431 68.025L58.0237 71.9859H73.4795L74.1548 67.1166H62.1653C61.7907 67.5716 60.7032 67.9366 59.4431 68.025Z" fill="#EDE8E4"/>
<path d="M74.7922 62.5157H61.4162L60.2284 65.8302C61.3899 65.912 62.2162 66.259 62.2984 66.7025H74.2123L74.7922 62.5157Z" fill="#EDE8E4"/>
<path d="M61.178 66.9088C61.3078 66.5225 60.5751 66.2132 59.545 66.2132C58.5149 66.2132 57.5539 66.5241 57.4011 66.9088C57.2466 67.2999 57.9761 67.6207 59.0291 67.6207C60.0822 67.6207 61.0465 67.2999 61.178 66.9088Z" fill="#039BE5"/>
<path d="M65.8814 65.1755C65.952 64.9152 65.428 64.7057 64.715 64.7057C64.0003 64.7057 63.3547 64.9152 63.2726 65.1755C63.1904 65.4373 63.7128 65.6517 64.4373 65.6517C65.1618 65.6517 65.8107 65.4373 65.8814 65.1755Z" fill="#70B773"/>
<path d="M56.6503 72.4688H41.0877L39.665 74.8601H55.7517L56.6503 72.4688Z" fill="#EDE8E4"/>
<path d="M75.3179 66.7025H91.9615L91.3996 62.5157H75.8255L75.3179 66.7025Z" fill="#EDE8E4"/>
<path d="M92.7353 72.4688H57.8529L55.3065 79.5771H93.6898L92.7353 72.4688Z" fill="#70B773"/>
<path d="M113.563 62.5157H102.812L105.86 71.9859H118.28L113.563 62.5157Z" fill="#039BE5"/>
<path d="M44.2715 67.1166L41.3752 71.9859H56.831L58.3178 68.025C57.1234 67.9383 56.302 67.5733 56.261 67.1166H44.2715Z" fill="#EDE8E4"/>
<path d="M60.3828 62.5157H47.0068L44.5163 66.7042H56.4301C56.8376 66.259 57.9186 65.9136 59.1408 65.8318L60.3828 62.5157Z" fill="#EDE8E4"/>
<path d="M92.0173 67.1166H75.267L74.6755 71.9859H92.6712L92.0173 67.1166Z" fill="#EDE8E4"/>
<path d="M55.0929 80.1713L54.3602 82.2189H94.0446L93.7702 80.1713H55.0929Z" fill="#EDE8E4"/>
<path d="M93.9395 72.4688L95.4131 82.2189H107.782L104.812 72.4688H93.9395Z" fill="#EDE8E4"/>
<path d="M39.3529 75.3838L35.2885 82.2189H52.9917L55.5562 75.3838H39.3529Z" fill="#EDE8E4"/>
<path d="M106.014 72.4688L109.151 82.2189H123.377L118.521 72.4688H106.014Z" fill="#039BE5"/>
<path d="M124.746 82.2189H131.166L129.006 78.5869H122.876L124.746 82.2189Z" fill="#EDE8E4"/>
<path d="M122.582 78.0173H128.667L125.367 72.4688H119.724L122.582 78.0173Z" fill="#EDE8E4"/>
<path d="M119.474 71.9859H125.079L119.446 62.5157H114.596L119.474 71.9859Z" fill="#EDE8E4"/>
<path d="M103.056 66.7025L101.779 62.5157H92.4346L93.0671 66.7025H103.056Z" fill="#EDE8E4"/>
<path d="M103.18 67.1166H93.1295L93.8655 71.9859H104.664L103.18 67.1166Z" fill="#EDE8E4"/>
<path d="M119.187 73.806H106.445L106.014 72.4688H118.521L119.187 73.806Z" fill="#0288D1"/>
<path d="M44.6329 69.2477C44.3241 69.2477 44.0185 69.3442 43.9495 69.4637C43.8805 69.5832 44.0744 69.6814 44.3849 69.6814C44.6954 69.6814 45.0009 69.5832 45.0683 69.4637C45.1356 69.3442 44.9401 69.2477 44.6329 69.2477Z" fill="#70B773"/>
<path d="M46.951 69.2477C46.6422 69.2477 46.3399 69.3442 46.2758 69.4637C46.2101 69.5832 46.4089 69.6814 46.7194 69.6814C47.0299 69.6814 47.3321 69.5832 47.3962 69.4637C47.4586 69.3442 47.2599 69.2477 46.951 69.2477Z" fill="#70B773"/>
<path d="M49.2707 69.2477C48.9618 69.2477 48.6628 69.3442 48.6021 69.4637C48.5413 69.5832 48.7417 69.6814 49.0522 69.6814C49.3627 69.6814 49.6617 69.5832 49.7208 69.4637C49.7816 69.3442 49.5796 69.2477 49.2707 69.2477Z" fill="#70B773"/>
<path d="M51.5904 69.2477C51.2815 69.2477 50.9858 69.3442 50.93 69.4637C50.8725 69.5832 51.0778 69.6814 51.3883 69.6814C51.6988 69.6814 51.9945 69.5832 52.0504 69.4637C52.1029 69.3442 51.8976 69.2477 51.5904 69.2477Z" fill="#70B773"/>
<path d="M53.9101 69.2477C53.6012 69.2477 53.3088 69.3442 53.2562 69.4637C53.2037 69.5832 53.4123 69.6814 53.7212 69.6814C54.0317 69.6814 54.3241 69.5832 54.375 69.4637C54.4259 69.3442 54.2173 69.2477 53.9101 69.2477Z" fill="#70B773"/>
<path d="M56.2281 69.2477C55.9192 69.2477 55.6318 69.3442 55.5825 69.4637C55.5332 69.5832 55.7451 69.6814 56.0556 69.6814C56.3661 69.6814 56.6552 69.5832 56.7012 69.4637C56.7489 69.3442 56.537 69.2477 56.2281 69.2477Z" fill="#70B773"/>
<path d="M119.474 71.9859H125.079L122.484 67.6207H117.227L119.474 71.9859Z" fill="#70B773"/>
<path d="M41.1041 74.3789L41.9452 72.9254H55.3492L54.7808 74.3789H41.1041Z" fill="#DBD1C8"/>
<path d="M83.9789 66.3228L83.9395 62.8529H90.4747L90.8854 66.3228H83.9789Z" fill="#DBD1C8"/>
<path d="M75.837 71.5407L76.2641 67.5062H81.0727L80.9413 71.5407H75.837Z" fill="#DBD1C8"/>
<path d="M67.3715 71.5407L68.2866 67.5062H73.0574L72.4347 71.5407H67.3715Z" fill="#DBD1C8"/>
<path d="M96.5927 81.6362L95.6908 76.2365H104.777L106.336 81.6362H96.5927Z" fill="#DBD1C8"/>
<path d="M95.4607 74.8601L95.1979 73.2904H103.926L104.38 74.8601H95.4607Z" fill="#DBD1C8"/>
<path d="M36.9017 81.6362L40.235 75.8798H54.1926L51.9436 81.6362H36.9017Z" fill="#DBD1C8"/>
<path d="M125.714 81.6362L124.381 79.127H128.099L129.551 81.6362H125.714Z" fill="#DBD1C8"/>
<path d="M123.514 77.4936L121.089 72.9254H124.509L127.154 77.4936H123.514Z" fill="#DBD1C8"/>
<path d="M117.669 66.4849L115.74 62.8529H118.677L120.78 66.4849H117.669Z" fill="#DBD1C8"/>
<path d="M94.0347 66.3228L93.7374 64.5388H101.4L101.914 66.3228H94.0347Z" fill="#DBD1C8"/>
<path d="M94.9055 71.5407L94.3913 68.4588H102.532L103.422 71.5407H94.9055Z" fill="#DBD1C8"/>
<path d="M42.747 71.5408H55.8897L56.4335 70.1479H43.5536L42.747 71.5408Z" fill="#DBD1C8"/>
<path d="M54.3191 67.5062H45.0831L44.3389 68.7926H53.754L54.3191 67.5062Z" fill="#DBD1C8"/>
<path d="M63.7621 67.5062L60.2333 68.7926L59.9294 69.6814H65.9438L66.4958 67.5062H63.7621Z" fill="#DBD1C8"/>
<path d="M52.6105 65.2933L53.7852 62.8529H59.287L58.3326 65.2933H52.6105Z" fill="#DBD1C8"/>
<path d="M51.1797 62.8529H47.7773L45.7681 66.3228H49.3643L51.1797 62.8529Z" fill="#DBD1C8"/>
<path d="M62.2672 62.8529L61.8564 64.051H68.0105L67.4552 66.3228H73.2397L73.7752 62.8529H62.2672Z" fill="#DBD1C8"/>
<path d="M59.292 71.5408L59.7684 70.1479H65.8255L65.4723 71.5408H59.292Z" fill="#DBD1C8"/>
<path d="M129.242 69.6814C131.076 69.6814 132.983 70.2641 133.514 70.9957C134.056 71.7437 132.959 72.3624 131.054 72.3624C129.15 72.3624 127.217 71.7437 126.747 70.9957C126.289 70.2624 127.409 69.6814 129.242 69.6814Z" fill="#616161"/>
<path d="M36.514 68.9203L33.5421 73.202C33.34 73.4934 33.7557 73.7323 34.4719 73.7323C35.1882 73.7323 35.9275 73.4934 36.1197 73.202L38.9372 68.9203C39.1064 68.665 38.7022 68.4587 38.0385 68.4587C37.3732 68.4587 36.6931 68.665 36.514 68.9203Z" fill="#616161"/>
<path opacity="0.2" d="M51.1796 73.3117C53.9288 73.3117 56.1574 72.7262 56.1574 72.0039C56.1574 71.2817 53.9288 70.6962 51.1796 70.6962C48.4305 70.6962 46.2018 71.2817 46.2018 72.0039C46.2018 72.7262 48.4305 73.3117 51.1796 73.3117Z" fill="#424242"/>
<path d="M51.1796 52.3859C46.836 52.3859 43.3137 55.8951 43.3137 60.2227C43.3137 64.5502 51.1796 72.0039 51.1796 72.0039C51.1796 72.0039 59.0455 64.5502 59.0455 60.2227C59.0455 55.8951 55.5233 52.3859 51.1796 52.3859ZM51.1796 64.6206C48.7416 64.6206 46.767 62.6516 46.767 60.2243C46.767 57.7954 48.7433 55.828 51.1796 55.828C53.6176 55.828 55.5923 57.797 55.5923 60.2243C55.5923 62.6516 53.6176 64.6206 51.1796 64.6206Z" fill="#EF5350"/>
<path d="M51.1796 54.972C48.2685 54.972 45.9094 57.3223 45.9094 60.2227C45.9094 63.123 48.2685 65.4733 51.1796 65.4733C54.0907 65.4733 56.4499 63.123 56.4499 60.2227C56.4499 57.3223 54.0907 54.972 51.1796 54.972ZM51.1796 63.7629C49.2181 63.7629 47.6262 62.1786 47.6262 60.2227C47.6262 58.2667 49.2164 56.6824 51.1796 56.6824C53.1412 56.6824 54.7331 58.2667 54.7331 60.2227C54.7331 62.1786 53.1428 63.7629 51.1796 63.7629Z" fill="#E53935"/>
<path opacity="0.2" d="M111.344 81.5134C111.344 82.0306 109.749 82.448 107.782 82.448C105.816 82.448 104.22 82.029 104.22 81.5134C104.22 80.9962 105.816 80.5788 107.782 80.5788C109.75 80.5772 111.344 80.9962 111.344 81.5134Z" fill="#424242"/>
<path d="M107.782 67.4767C104.674 67.4767 102.154 69.9875 102.154 73.0842C102.154 76.1809 107.782 81.5134 107.782 81.5134C107.782 81.5134 113.41 76.1809 113.41 73.0842C113.41 69.9875 110.89 67.4767 107.782 67.4767ZM107.782 76.23C106.037 76.23 104.624 74.8208 104.624 73.0842C104.624 71.346 106.039 69.9384 107.782 69.9384C109.527 69.9384 110.94 71.3476 110.94 73.0842C110.94 74.8208 109.527 76.23 107.782 76.23Z" fill="#EF5350"/>
<path d="M107.782 69.3262C105.699 69.3262 104.01 71.0088 104.01 73.0842C104.01 75.1596 105.699 76.8422 107.782 76.8422C109.865 76.8422 111.554 75.1596 111.554 73.0842C111.554 71.0088 109.865 69.3262 107.782 69.3262ZM107.782 75.6162C106.377 75.6162 105.241 74.482 105.241 73.0842C105.241 71.6848 106.379 70.5522 107.782 70.5522C109.185 70.5522 110.324 71.6864 110.324 73.0842C110.325 74.482 109.187 75.6162 107.782 75.6162Z" fill="#E53935"/>
<path opacity="0.2" d="M81.2879 68.4882C86.8707 68.4882 91.3963 67.2996 91.3963 65.8334C91.3963 64.3672 86.8707 63.1786 81.2879 63.1786C75.7052 63.1786 71.1796 64.3672 71.1796 65.8334C71.1796 67.2996 75.7052 68.4882 81.2879 68.4882Z" fill="#424242"/>
<path d="M81.2879 26C72.4675 26 65.3163 33.1247 65.3163 41.9124C65.3163 50.7001 81.2879 65.8351 81.2879 65.8351C81.2879 65.8351 97.2596 50.7017 97.2596 41.9124C97.2596 33.1247 90.1083 26 81.2879 26ZM81.2879 50.8392C76.3381 50.8392 72.3263 46.8423 72.3263 41.9108C72.3263 36.9793 76.3381 32.9823 81.2879 32.9823C86.2378 32.9823 90.2496 36.9793 90.2496 41.9108C90.2496 46.8423 86.2378 50.8392 81.2879 50.8392Z" fill="#EF5350"/>
<path d="M81.2879 31.249C75.377 31.249 70.5848 36.0234 70.5848 41.9124C70.5848 47.8014 75.377 52.5758 81.2879 52.5758C87.1989 52.5758 91.991 47.8014 91.991 41.9124C91.991 36.0234 87.1989 31.249 81.2879 31.249ZM81.2879 49.0993C77.304 49.0993 74.0726 45.8815 74.0726 41.9108C74.0726 37.9417 77.3024 34.7222 81.2879 34.7222C85.2718 34.7222 88.5033 37.94 88.5033 41.9108C88.5033 45.8815 85.2718 49.0993 81.2879 49.0993Z" fill="#E53935"/>
<path d="M98.4326 41.0057C96.2837 41.0057 94.5423 42.7406 94.5423 44.8815H102.321C102.321 42.7406 100.58 41.0057 98.4326 41.0057Z" fill="#FBFBFB"/>
<path d="M80.4862 42.4804C79.1555 42.4804 78.0762 43.5557 78.0762 44.8815H82.8963C82.8979 43.5557 81.8186 42.4804 80.4862 42.4804Z" fill="#FBFBFB"/>
<path d="M88.7201 39.0809C85.5051 39.0809 82.8979 41.6784 82.8979 44.8815H94.5424C94.5424 41.6784 91.9352 39.0809 88.7201 39.0809Z" fill="#FBFBFB"/>
<path d="M51.7004 43.8159C50.7623 43.8159 50.0034 44.5738 50.0034 45.5067H53.3991C53.3991 44.5738 52.6385 43.8159 51.7004 43.8159Z" fill="#FBFBFB"/>
<path d="M46.8934 42.41C45.1767 42.41 43.7852 43.7963 43.7852 45.5067H50.0033C50.0033 43.7963 48.6119 42.41 46.8934 42.41Z" fill="#FBFBFB"/>
<path d="M62.4018 32.655C61.4637 32.655 60.7048 33.4128 60.7048 34.3458H64.1005C64.0989 33.4128 63.3382 32.655 62.4018 32.655Z" fill="#FBFBFB"/>
<path d="M57.5949 31.249C55.8781 31.249 54.4866 32.6353 54.4866 34.3457H60.7048C60.7031 32.6353 59.3117 31.249 57.5949 31.249Z" fill="#FBFBFB"/>
<path d="M102.006 27.4059C101.068 27.4059 100.309 28.1638 100.309 29.0967H103.704C103.704 28.1638 102.944 27.4059 102.006 27.4059Z" fill="#FBFBFB"/>
<path d="M97.1988 26C95.4821 26 94.0906 27.3863 94.0906 29.0967H100.309C100.309 27.3863 98.9156 26 97.1988 26Z" fill="#FBFBFB"/>
<path d="M63.3071 50.0928C62.5843 50.0928 61.9961 50.6772 61.9961 51.399H64.6165C64.6165 50.6788 64.03 50.0928 63.3071 50.0928Z" fill="#FBFBFB"/>
<path d="M59.5959 49.0077C58.2701 49.0077 57.1957 50.0781 57.1957 51.399H61.9944C61.9961 50.0781 60.9217 49.0077 59.5959 49.0077Z" fill="#FBFBFB"/>
<path d="M114.288 38.778C113.35 38.778 112.591 39.5358 112.591 40.4688H115.985C115.985 39.5342 115.224 38.778 114.288 38.778Z" fill="#FBFBFB"/>
<path d="M109.481 37.3721C107.764 37.3721 106.372 38.7584 106.372 40.4688H112.591C112.589 38.7584 111.197 37.3721 109.481 37.3721Z" fill="#FBFBFB"/>
<path d="M59.9277 45.402H59.7027V45.1777C59.7027 45.1188 59.655 45.0713 59.5959 45.0713C59.5368 45.0713 59.4891 45.1188 59.4891 45.1777V45.402H59.264C59.2049 45.402 59.1573 45.4494 59.1573 45.5083C59.1573 45.5673 59.2049 45.6147 59.264 45.6147H59.4891V45.839C59.4891 45.8979 59.5368 45.9454 59.5959 45.9454C59.655 45.9454 59.7027 45.8979 59.7027 45.839V45.6147H59.9277C59.9869 45.6147 60.0345 45.5673 60.0345 45.5083C60.0345 45.4494 59.9869 45.402 59.9277 45.402Z" fill="#FBFBFB"/>
<path d="M65.3869 48.0535H65.1618V47.8293C65.1618 47.7703 65.1142 47.7229 65.055 47.7229C64.9959 47.7229 64.9482 47.7703 64.9482 47.8293V48.0535H64.7232C64.664 48.0535 64.6164 48.101 64.6164 48.1599C64.6164 48.2188 64.664 48.2663 64.7232 48.2663H64.9482V48.4905C64.9482 48.5494 64.9959 48.5969 65.055 48.5969C65.1142 48.5969 65.1618 48.5494 65.1618 48.4905V48.2663H65.3869C65.446 48.2663 65.4937 48.2188 65.4937 48.1599C65.492 48.1026 65.4444 48.0535 65.3869 48.0535Z" fill="#FBFBFB"/>
<path d="M78.4081 38.4245H78.183V38.2003C78.183 38.1414 78.1353 38.0939 78.0762 38.0939C78.0171 38.0939 77.9694 38.1414 77.9694 38.2003V38.4245H77.7443C77.6852 38.4245 77.6376 38.472 77.6376 38.5309C77.6376 38.5898 77.6852 38.6373 77.7443 38.6373H77.9694V38.8615C77.9694 38.9205 78.0171 38.9679 78.0762 38.9679C78.1353 38.9679 78.183 38.9205 78.183 38.8615V38.6373H78.4081C78.4672 38.6373 78.5148 38.5898 78.5148 38.5309C78.5148 38.472 78.4672 38.4245 78.4081 38.4245Z" fill="#FBFBFB"/>
<path d="M83.5583 39.5751H83.3333V39.3509C83.3333 39.292 83.2856 39.2445 83.2265 39.2445C83.1673 39.2445 83.1197 39.292 83.1197 39.3509V39.5751H82.8946C82.8355 39.5751 82.7878 39.6226 82.7878 39.6815C82.7878 39.7405 82.8355 39.7879 82.8946 39.7879H83.1197V40.0122C83.1197 40.0711 83.1673 40.1185 83.2265 40.1185C83.2856 40.1185 83.3333 40.0711 83.3333 40.0122V39.7879H83.5583C83.6175 39.7879 83.6651 39.7405 83.6651 39.6815C83.6651 39.6226 83.6175 39.5751 83.5583 39.5751Z" fill="#FBFBFB"/>
<path d="M100.121 37.9891H99.8964V37.7649C99.8964 37.706 99.8488 37.6585 99.7896 37.6585C99.7305 37.6585 99.6828 37.706 99.6828 37.7649V37.9891H99.4578C99.3986 37.9891 99.351 38.0366 99.351 38.0955C99.351 38.1545 99.3986 38.2019 99.4578 38.2019H99.6828V38.4262C99.6828 38.4851 99.7305 38.5325 99.7896 38.5325C99.8488 38.5325 99.8964 38.4851 99.8964 38.4262V38.2019H100.121C100.181 38.2019 100.228 38.1545 100.228 38.0955C100.228 38.0366 100.181 37.9891 100.121 37.9891Z" fill="#FBFBFB"/>
<path d="M105.572 35.9629H105.347V35.7386C105.347 35.6797 105.3 35.6322 105.241 35.6322C105.181 35.6322 105.134 35.6797 105.134 35.7386V35.9629H104.909C104.85 35.9629 104.802 36.0103 104.802 36.0692C104.802 36.1282 104.85 36.1756 104.909 36.1756H105.134V36.3999C105.134 36.4588 105.181 36.5063 105.241 36.5063C105.3 36.5063 105.347 36.4588 105.347 36.3999V36.1756H105.572C105.632 36.1756 105.679 36.1282 105.679 36.0692C105.679 36.0103 105.63 35.9629 105.572 35.9629Z" fill="#FBFBFB"/>
<path d="M96.4596 31.5796H96.2345V31.3554C96.2345 31.2965 96.1869 31.249 96.1277 31.249C96.0686 31.249 96.0209 31.2965 96.0209 31.3554V31.5796H95.7959C95.7367 31.5796 95.6891 31.6271 95.6891 31.686C95.6891 31.745 95.7367 31.7924 95.7959 31.7924H96.0209V32.0167C96.0209 32.0756 96.0686 32.123 96.1277 32.123C96.1869 32.123 96.2345 32.0756 96.2345 32.0167V31.7924H96.4596C96.5187 31.7924 96.5664 31.745 96.5664 31.686C96.5664 31.6271 96.5187 31.5796 96.4596 31.5796Z" fill="#FBFBFB"/>
<path d="M101.345 33.9824H101.12V33.7582C101.12 33.6992 101.073 33.6518 101.013 33.6518C100.954 33.6518 100.907 33.6992 100.907 33.7582V33.9824H100.682C100.623 33.9824 100.575 34.0299 100.575 34.0888C100.575 34.1477 100.623 34.1952 100.682 34.1952H100.907V34.4194C100.907 34.4783 100.954 34.5258 101.013 34.5258C101.073 34.5258 101.12 34.4783 101.12 34.4194V34.1952H101.345C101.404 34.1952 101.452 34.1477 101.452 34.0888C101.452 34.0299 101.404 33.9824 101.345 33.9824Z" fill="#FBFBFB"/>
<path d="M112.234 33.547H112.009V33.3228C112.009 33.2639 111.961 33.2164 111.902 33.2164C111.843 33.2164 111.795 33.2639 111.795 33.3228V33.547H111.57C111.511 33.547 111.464 33.5945 111.464 33.6534C111.464 33.7123 111.511 33.7598 111.57 33.7598H111.795V33.984C111.795 34.043 111.843 34.0904 111.902 34.0904C111.961 34.0904 112.009 34.043 112.009 33.984V33.7582H112.234C112.293 33.7582 112.341 33.7107 112.341 33.6518C112.341 33.5929 112.293 33.547 112.234 33.547Z" fill="#FBFBFB"/>
<path d="M99.2377 48.993H99.0126V48.7687C99.0126 48.7098 98.9649 48.6624 98.9058 48.6624C98.8467 48.6624 98.799 48.7098 98.799 48.7687V48.993H98.5739C98.5148 48.993 98.4672 49.0404 98.4672 49.0994C98.4672 49.1583 98.5148 49.2058 98.5739 49.2058H98.799V49.43C98.799 49.4889 98.8467 49.5364 98.9058 49.5364C98.9649 49.5364 99.0126 49.4889 99.0126 49.43V49.2058H99.2377C99.2968 49.2058 99.3444 49.1583 99.3444 49.0994C99.3444 49.0404 99.2968 48.993 99.2377 48.993Z" fill="#FBFBFB"/>
<path d="M104.344 47.6181H104.118V47.3939C104.118 47.3349 104.071 47.2875 104.012 47.2875C103.953 47.2875 103.905 47.3349 103.905 47.3939V47.6181H103.68C103.621 47.6181 103.573 47.6656 103.573 47.7245C103.573 47.7834 103.621 47.8309 103.68 47.8309H103.905V48.0551C103.905 48.114 103.953 48.1615 104.012 48.1615C104.071 48.1615 104.118 48.114 104.118 48.0551V47.8309H104.344C104.403 47.8309 104.45 47.7834 104.45 47.7245C104.449 47.6656 104.401 47.6181 104.344 47.6181Z" fill="#FBFBFB"/>
<path d="M93.003 56.5776H92.778V56.3534C92.778 56.2945 92.7303 56.247 92.6712 56.247C92.612 56.247 92.5644 56.2945 92.5644 56.3534V56.5776H92.3393C92.2802 56.5776 92.2325 56.6251 92.2325 56.684C92.2325 56.7429 92.2802 56.7904 92.3393 56.7904H92.5644V57.0146C92.5644 57.0736 92.612 57.121 92.6712 57.121C92.7303 57.121 92.778 57.0736 92.778 57.0146V56.7904H93.003C93.0622 56.7904 93.1098 56.7429 93.1098 56.684C93.1098 56.6251 93.0622 56.5776 93.003 56.5776Z" fill="#FBFBFB"/>
<path d="M107.675 53.2616H107.45V53.0374C107.45 52.9785 107.403 52.931 107.343 52.931C107.284 52.931 107.237 52.9785 107.237 53.0374V53.2616H107.012C106.952 53.2616 106.905 53.3091 106.905 53.368C106.905 53.4269 106.952 53.4744 107.012 53.4744H107.237V53.6986C107.237 53.7575 107.284 53.805 107.343 53.805C107.403 53.805 107.45 53.7575 107.45 53.6986V53.4744H107.675C107.734 53.4744 107.782 53.4269 107.782 53.368C107.782 53.3091 107.734 53.2616 107.675 53.2616Z" fill="#FBFBFB"/>
<path d="M109.374 44.7751H109.149V44.5508C109.149 44.4919 109.101 44.4445 109.042 44.4445C108.983 44.4445 108.935 44.4919 108.935 44.5508V44.7751H108.71C108.651 44.7751 108.603 44.8225 108.603 44.8815C108.603 44.9404 108.651 44.9879 108.71 44.9879H108.935V45.2121C108.935 45.271 108.983 45.3185 109.042 45.3185C109.101 45.3185 109.149 45.271 109.149 45.2121V44.9879H109.374C109.433 44.9879 109.481 44.9404 109.481 44.8815C109.481 44.8225 109.433 44.7751 109.374 44.7751Z" fill="#FBFBFB"/>
<path d="M57.0396 40.0122H56.8146V39.7879C56.8146 39.729 56.7669 39.6815 56.7078 39.6815C56.6486 39.6815 56.601 39.729 56.601 39.7879V40.0122H56.3759C56.3168 40.0122 56.2691 40.0596 56.2691 40.1185C56.2691 40.1775 56.3168 40.2249 56.3759 40.2249H56.601V40.4492C56.601 40.5081 56.6486 40.5556 56.7078 40.5556C56.7669 40.5556 56.8146 40.5081 56.8146 40.4492V40.2249H57.0396C57.0988 40.2249 57.1464 40.1775 57.1464 40.1185C57.1464 40.0596 57.0988 40.0122 57.0396 40.0122Z" fill="#FBFBFB"/>
<path d="M64.9483 30.7056H64.7232V30.4814C64.7232 30.4225 64.6755 30.375 64.6164 30.375C64.5573 30.375 64.5096 30.4225 64.5096 30.4814V30.7056H64.2846C64.2254 30.7056 64.1778 30.7531 64.1778 30.812C64.1778 30.8709 64.2254 30.9184 64.2846 30.9184H64.5096V31.1426C64.5096 31.2016 64.5573 31.249 64.6164 31.249C64.6755 31.249 64.7232 31.2016 64.7232 31.1426V30.9184H64.9483C65.0074 30.9184 65.055 30.8709 65.055 30.812C65.055 30.7531 65.0074 30.7056 64.9483 30.7056Z" fill="#FBFBFB"/>
<path d="M50.1775 37.2657H49.9524V37.0415C49.9524 36.9826 49.9048 36.9351 49.8456 36.9351C49.7865 36.9351 49.7388 36.9826 49.7388 37.0415V37.2657H49.5138C49.4546 37.2657 49.407 37.3132 49.407 37.3721C49.407 37.431 49.4546 37.4785 49.5138 37.4785H49.7388V37.7027C49.7388 37.7616 49.7865 37.8091 49.8456 37.8091C49.9048 37.8091 49.9524 37.7616 49.9524 37.7027V37.4785H50.1775C50.2366 37.4785 50.2843 37.431 50.2843 37.3721C50.2843 37.3132 50.2366 37.2657 50.1775 37.2657Z" fill="#FBFBFB"/>
<path d="M54.0168 47.6017H53.7918V47.3775C53.7918 47.3186 53.7441 47.2711 53.685 47.2711C53.6258 47.2711 53.5782 47.3186 53.5782 47.3775V47.6017H53.3531C53.294 47.6017 53.2463 47.6492 53.2463 47.7081C53.2463 47.7671 53.294 47.8145 53.3531 47.8145H53.5782V48.0387C53.5782 48.0977 53.6258 48.1451 53.685 48.1451C53.7441 48.1451 53.7918 48.0977 53.7918 48.0387V47.8145H54.0168C54.076 47.8145 54.1236 47.7671 54.1236 47.7081C54.1236 47.6492 54.076 47.6017 54.0168 47.6017Z" fill="#FBFBFB"/>
<path d="M47.958 49.6247H47.733V49.4005C47.733 49.3416 47.6853 49.2941 47.6262 49.2941C47.567 49.2941 47.5194 49.3416 47.5194 49.4005V49.6247H47.2943C47.2352 49.6247 47.1875 49.6722 47.1875 49.7311C47.1875 49.79 47.2352 49.8375 47.2943 49.8375H47.5194V50.0617C47.5194 50.1207 47.567 50.1681 47.6262 50.1681C47.6853 50.1681 47.733 50.1207 47.733 50.0617V49.8375H47.958C48.0172 49.8375 48.0648 49.79 48.0648 49.7311C48.0648 49.6722 48.0172 49.6247 47.958 49.6247Z" fill="#FBFBFB"/>
<path d="M63.5436 54.8656H63.3186V54.6414C63.3186 54.5824 63.2709 54.535 63.2118 54.535C63.1527 54.535 63.105 54.5824 63.105 54.6414V54.8656H62.8799C62.8208 54.8656 62.7732 54.9131 62.7732 54.972C62.7732 55.0309 62.8208 55.0784 62.8799 55.0784H63.105V55.3026C63.105 55.3615 63.1527 55.409 63.2118 55.409C63.2709 55.409 63.3186 55.3615 63.3186 55.3026V55.0784H63.5436C63.6028 55.0784 63.6504 55.0309 63.6504 54.972C63.6504 54.9131 63.6028 54.8656 63.5436 54.8656Z" fill="#FBFBFB"/>
<path d="M11.5 9.18V9.34L11.52 9.48H14.1H16.7V9.32V9.16H17.14H17.58V12.9C17.58 15.38 17.5667 16.6733 17.54 16.78C17.5133 16.8867 17.4867 16.9733 17.46 17.04C17.4333 17.1067 17.3867 17.1767 17.32 17.25C17.2533 17.3233 17.1833 17.3767 17.11 17.41C17.0367 17.4433 16.9533 17.46 16.86 17.46H16.7V13.68V9.88H14.1H11.5V13.32C11.5 15.6267 11.49 16.84 11.47 16.96C11.45 17.08 11.42 17.18 11.38 17.26C11.34 17.34 11.28 17.42 11.2 17.5C11.12 17.5667 11.04 17.6133 10.96 17.64C10.88 17.6667 10.8133 17.6733 10.76 17.66H10.66L10.64 13.42V9.16L11.06 9.18H11.5ZM16.44 11L16.46 11.18V11.38H14.06H11.66V11.2C11.66 11.08 11.6667 11.0133 11.68 11C11.6933 11 12.4933 11 14.08 11H16.44ZM13 12.14V12.24V12.36H14.02H15.06V12.24V12.14H15.4H15.76L15.74 13.42C15.74 14.2867 15.7233 14.77 15.69 14.87C15.6567 14.97 15.6167 15.05 15.57 15.11C15.5233 15.17 15.4733 15.2233 15.42 15.27C15.3667 15.3167 15.2933 15.34 15.2 15.34L15.06 15.36V15.04V14.74H14.02H12.96L12.92 14.88C12.88 14.9733 12.8533 15.04 12.84 15.08C12.8133 15.12 12.7833 15.16 12.75 15.2C12.7167 15.24 12.6667 15.2733 12.6 15.3C12.5333 15.3267 12.4667 15.34 12.4 15.34H12.3V13.74V12.14H12.64H13ZM13 14.34H15.06V12.74H13V14.34ZM25.8841 9.14C26.1508 9.14 26.2908 9.14667 26.3041 9.16C26.3175 9.17333 26.3575 9.43333 26.4241 9.94C26.4908 10.4333 26.5241 10.6933 26.5241 10.72C26.5241 10.7333 26.8308 10.74 27.4441 10.74H28.3641V10.94V11.12H27.4841H26.5841V11.18C26.5841 11.22 26.6441 11.7 26.7641 12.62C26.8841 13.54 26.9508 14.0067 26.9641 14.02C26.9641 14.02 26.9708 14.0067 26.9841 13.98C26.9975 13.9533 27.0141 13.92 27.0341 13.88C27.0541 13.84 27.0708 13.7933 27.0841 13.74C27.1775 13.54 27.2641 13.3133 27.3441 13.06C27.4241 12.8067 27.4841 12.6133 27.5241 12.48L27.5641 12.28H28.0241C28.3175 12.2933 28.4675 12.3033 28.4741 12.31C28.4808 12.3167 28.4641 12.3933 28.4241 12.54C28.3975 12.6733 28.3441 12.8467 28.2641 13.06C28.1975 13.26 28.1041 13.4733 27.9841 13.7C27.8775 13.9267 27.7775 14.1133 27.6841 14.26C27.6041 14.4067 27.4908 14.5867 27.3441 14.8L27.1241 15.12L27.1841 15.32C27.2375 15.48 27.2841 15.62 27.3241 15.74C27.3775 15.8733 27.4375 16.0133 27.5041 16.16C27.5841 16.32 27.6641 16.46 27.7441 16.58C27.8241 16.7 27.9375 16.8333 28.0841 16.98C28.2175 17.1133 28.3375 17.2067 28.4441 17.26C28.5375 17.3133 28.5875 17.3433 28.5941 17.35C28.6008 17.3567 28.5775 17.3867 28.5241 17.44L28.4641 17.54L28.2841 17.48C28.1775 17.44 28.0575 17.3867 27.9241 17.32C27.7908 17.2533 27.6641 17.18 27.5441 17.1C27.4241 17.0333 27.3008 16.9367 27.1741 16.81C27.0475 16.6833 26.9375 16.56 26.8441 16.44C26.7375 16.2933 26.6508 16.1667 26.5841 16.06C26.5708 16.0333 26.5541 16.0033 26.5341 15.97C26.5141 15.9367 26.5008 15.9133 26.4941 15.9C26.4875 15.8867 26.4841 15.88 26.4841 15.88C26.4708 15.8667 26.3975 15.9333 26.2641 16.08C26.1041 16.2267 25.9508 16.36 25.8041 16.48C25.6441 16.6 25.4708 16.7267 25.2841 16.86C25.1108 16.98 24.9441 17.0867 24.7841 17.18C24.5841 17.2867 24.3841 17.3867 24.1841 17.48C23.9441 17.6 23.8208 17.66 23.8141 17.66C23.8075 17.66 23.8041 17.6267 23.8041 17.56C23.8041 17.4933 23.8441 17.44 23.9241 17.4C24.0441 17.3467 24.1508 17.2867 24.2441 17.22C24.3775 17.14 24.5341 17.0333 24.7141 16.9C24.8941 16.7667 25.1175 16.5667 25.3841 16.3C25.6508 16.0467 25.8441 15.8333 25.9641 15.66C25.9908 15.6333 26.0241 15.5933 26.0641 15.54C26.1041 15.4867 26.1341 15.4467 26.1541 15.42C26.1741 15.3933 26.1908 15.3733 26.2041 15.36L26.2441 15.28L26.2241 15.06C26.1975 14.94 26.1308 14.48 26.0241 13.68C25.9175 12.8133 25.8375 12.1933 25.7841 11.82L25.7041 11.14H24.7641L23.8041 11.12V11.9L23.8241 12.7H24.2641H24.7241L24.7441 12.56V12.46H25.1841H25.6241V13.86V15.3L25.5641 15.48C25.5241 15.6 25.4808 15.6933 25.4341 15.76C25.3875 15.8267 25.3241 15.8933 25.2441 15.96C25.1641 16.04 25.0908 16.0933 25.0241 16.12C24.9575 16.16 24.8908 16.1867 24.8241 16.2L24.7441 16.22V16.04V15.88H24.4441H24.1441V15.68V15.5H24.4441H24.7241L24.7441 14.28V13.06L24.2841 13.08H23.8241L23.8041 14C23.7908 14.6 23.7708 14.9667 23.7441 15.1C23.7308 15.2067 23.6975 15.3333 23.6441 15.48C23.6041 15.5867 23.5508 15.72 23.4841 15.88C23.4175 16.0133 23.3441 16.1467 23.2641 16.28C23.1708 16.4133 23.0641 16.5467 22.9441 16.68C22.8908 16.7333 22.8275 16.7933 22.7541 16.86C22.6808 16.9267 22.6175 16.98 22.5641 17.02C22.4175 17.1267 22.2708 17.22 22.1241 17.3C21.9641 17.38 21.8741 17.42 21.8541 17.42C21.8341 17.42 21.8241 17.3667 21.8241 17.26V17.12L21.9441 17.04C22.0108 16.9867 22.0908 16.92 22.1841 16.84C22.2775 16.7467 22.3708 16.64 22.4641 16.52C22.5575 16.4 22.6375 16.2733 22.7041 16.14C22.7708 15.9933 22.8241 15.8467 22.8641 15.7L22.9241 15.48L22.9441 13.1V10.74H24.3041C25.1975 10.74 25.6441 10.73 25.6441 10.71C25.6441 10.69 25.6175 10.4333 25.5641 9.94C25.4975 9.46 25.4641 9.20667 25.4641 9.18C25.4641 9.15333 25.6041 9.14 25.8841 9.14ZM28.0641 9.26V9.42C28.0641 9.52667 28.0508 9.62333 28.0241 9.71C27.9975 9.79667 27.9641 9.87667 27.9241 9.95C27.8841 10.0233 27.8308 10.0867 27.7641 10.14C27.6975 10.2067 27.6241 10.2533 27.5441 10.28C27.4641 10.3067 27.3908 10.3133 27.3241 10.3H27.2241L27.2041 9.78V9.26H27.6441H28.0641ZM21.9841 9.34V10.36V11.36H22.3641H22.7641V11.54V11.74H22.3641H21.9841L21.9641 13.04C21.9641 13.92 21.9508 14.4033 21.9241 14.49C21.8975 14.5767 21.8641 14.6667 21.8241 14.76C21.7708 14.8667 21.7108 14.9533 21.6441 15.02L21.5641 15.12H22.1641H22.7641V15.32V15.5H21.4241H20.1041V15.32V15.12H20.6041H21.0841V13.44V11.76L20.6041 11.74H20.1041V11.54V11.36H20.6041H21.0841V10.36V9.34H21.5441H21.9841ZM33.1683 8.92L33.1483 8.98C33.1349 9.02 33.1083 9.11333 33.0683 9.26C33.0149 9.42 32.9483 9.59333 32.8683 9.78C32.7616 9.99333 32.6816 10.1533 32.6283 10.26L32.5483 10.42V13.76C32.5483 14.4667 32.5483 15.0333 32.5483 15.46C32.5483 15.8867 32.5449 16.23 32.5383 16.49C32.5316 16.75 32.5283 16.9333 32.5283 17.04C32.5283 17.1467 32.5216 17.2133 32.5083 17.24C32.4949 17.3467 32.4683 17.4333 32.4283 17.5C32.3883 17.58 32.3483 17.64 32.3083 17.68C32.2683 17.7333 32.2016 17.78 32.1083 17.82C32.0283 17.8733 31.9349 17.9 31.8283 17.9H31.6683V14.76C31.6683 12.6667 31.6649 11.62 31.6583 11.62C31.6516 11.62 31.5949 11.6733 31.4883 11.78C31.3683 11.8867 31.2549 11.98 31.1483 12.06C31.0149 12.14 30.8883 12.2067 30.7683 12.26C30.6349 12.3267 30.5483 12.3633 30.5083 12.37C30.4683 12.3767 30.4483 12.3667 30.4483 12.34C30.4483 12.3133 30.4749 12.26 30.5283 12.18C30.5949 12.1 30.7149 11.9267 30.8883 11.66C31.0616 11.3933 31.2083 11.16 31.3283 10.96C31.4349 10.7733 31.5483 10.5467 31.6683 10.28C31.8016 10.0267 31.8949 9.81333 31.9483 9.64C32.0149 9.44 32.0616 9.27333 32.0883 9.14L32.1483 8.92H32.6483H33.1683ZM34.4283 9.34V9.44L34.4483 9.56L35.7083 9.54H36.9483L36.9683 9.44V9.32H37.4083H37.8283V10.46C37.8283 11.22 37.8216 11.64 37.8083 11.72C37.7949 11.8 37.7616 11.8967 37.7083 12.01C37.6549 12.1233 37.5816 12.2267 37.4883 12.32C37.3949 12.4133 37.2949 12.48 37.1883 12.52C37.0816 12.5867 37.0183 12.62 36.9983 12.62C36.9783 12.62 36.9683 12.54 36.9683 12.38V12.14H35.6083H34.2483L34.0883 12.3C33.9816 12.4067 33.8749 12.4867 33.7683 12.54C33.6616 12.5933 33.5983 12.62 33.5783 12.62C33.5583 12.62 33.5483 12.0667 33.5483 10.96V9.32L33.9883 9.34H34.4283ZM34.4483 9.94L34.4283 10.8C34.4283 11.3733 34.4216 11.6733 34.4083 11.7L34.6083 11.74C34.7416 11.74 35.0949 11.74 35.6683 11.74H36.9683V10.84V9.94H35.7083H34.4483ZM36.2483 12.54V13.2L36.2683 13.88H37.5083H38.7483V14.08V14.28H37.5083H36.2683L36.2483 15.64C36.2483 16.32 36.2449 16.7233 36.2383 16.85C36.2316 16.9767 36.2149 17.0733 36.1883 17.14C36.1616 17.2467 36.1283 17.3267 36.0883 17.38C36.0349 17.4467 35.9683 17.5167 35.8883 17.59C35.8083 17.6633 35.7216 17.72 35.6283 17.76C35.5349 17.8133 35.4683 17.84 35.4283 17.84L35.3683 17.86V16.06V14.28H34.0883H32.7883L32.8083 14.08V13.9H34.0883L35.3683 13.88V13.22C35.3683 12.7667 35.3749 12.5367 35.3883 12.53C35.4016 12.5233 35.5483 12.52 35.8283 12.52L36.2483 12.54ZM34.5883 14.54V15.7C34.5883 16.1533 34.5883 16.4667 34.5883 16.64C34.5883 16.8133 34.5816 16.9333 34.5683 17C34.5416 17.1067 34.5049 17.2067 34.4583 17.3C34.4116 17.3933 34.3349 17.4867 34.2283 17.58C34.1349 17.6733 34.0416 17.7467 33.9483 17.8C33.8416 17.8533 33.7749 17.88 33.7483 17.88C33.7216 17.88 33.7083 17.3267 33.7083 16.22V14.54H34.1483H34.5883ZM37.8283 14.56V15.76C37.8283 16.5733 37.8083 17.0267 37.7683 17.12C37.7416 17.2 37.7016 17.28 37.6483 17.36C37.6083 17.4267 37.5483 17.5 37.4683 17.58C37.3883 17.6467 37.3016 17.7067 37.2083 17.76C37.1283 17.8 37.0683 17.8267 37.0283 17.84L36.9683 17.86V16.2V14.54L37.3883 14.56H37.8283ZM42.3924 9.16C42.4058 9.16 42.5458 9.18 42.8124 9.22C42.9058 9.23333 42.9758 9.24333 43.0224 9.25C43.0691 9.25667 43.1091 9.26333 43.1424 9.27C43.1758 9.27667 43.1958 9.28 43.2024 9.28C43.2091 9.28 43.2124 9.28667 43.2124 9.3C43.1991 9.32667 43.1191 9.62 42.9724 10.18C42.8391 10.74 42.7724 11.0333 42.7724 11.06C42.7724 11.0733 43.0124 11.08 43.4924 11.08H44.2324L44.2124 11.4C44.2124 11.6 44.1924 11.7933 44.1524 11.98C44.1124 12.1667 44.0658 12.3533 44.0124 12.54C43.9591 12.6867 43.8991 12.8667 43.8324 13.08C43.7658 13.2667 43.6591 13.5067 43.5124 13.8C43.3791 14.0667 43.2791 14.26 43.2124 14.38L43.1324 14.52L43.3124 14.66C43.4324 14.74 43.5724 14.8533 43.7324 15C43.8791 15.1467 43.9991 15.28 44.0924 15.4C44.1991 15.5333 44.2591 15.6133 44.2724 15.64C44.2991 15.6933 44.3124 15.7233 44.3124 15.73C44.3124 15.7367 44.2791 15.76 44.2124 15.8C44.1458 15.84 44.0658 15.9 43.9724 15.98C43.8924 16.0467 43.8191 16.1267 43.7524 16.22C43.6858 16.3133 43.6491 16.36 43.6424 16.36C43.6358 16.36 43.6124 16.3067 43.5724 16.2C43.5324 16.1067 43.4658 15.9933 43.3724 15.86C43.2791 15.7267 43.1591 15.5867 43.0124 15.44C42.8658 15.2933 42.7791 15.2067 42.7524 15.18C42.7258 15.1667 42.6724 15.2133 42.5924 15.32C42.5124 15.4267 42.3991 15.5667 42.2524 15.74C42.1058 15.9267 41.9258 16.1267 41.7124 16.34C41.4991 16.5667 41.3058 16.7533 41.1324 16.9C40.9858 17.0333 40.8324 17.16 40.6724 17.28C40.5391 17.3867 40.4658 17.44 40.4524 17.44C40.4391 17.44 40.4324 17.4133 40.4324 17.36C40.4324 17.3067 40.4658 17.2533 40.5324 17.2C40.5858 17.16 40.7124 17.04 40.9124 16.84C41.1124 16.6267 41.2791 16.4367 41.4124 16.27C41.5458 16.1033 41.6591 15.9467 41.7524 15.8C41.8858 15.6 41.9724 15.4667 42.0124 15.4C42.1058 15.2267 42.1658 15.1067 42.1924 15.04C42.2591 14.9467 42.2924 14.8933 42.2924 14.88C42.2924 14.8667 42.2191 14.8133 42.0724 14.72C41.9258 14.64 41.7724 14.56 41.6124 14.48C41.4791 14.4133 41.3458 14.3467 41.2124 14.28C41.1458 14.2533 41.1024 14.2333 41.0824 14.22C41.0624 14.2067 41.0591 14.1933 41.0724 14.18C41.0724 14.1667 41.1724 13.78 41.3724 13.02C41.5324 12.4067 41.6458 11.9733 41.7124 11.72C41.7524 11.5867 41.7724 11.5133 41.7724 11.5L41.6924 11.48C41.6391 11.48 41.5058 11.48 41.2924 11.48H40.8124V11.28V11.08H41.3324C41.6924 11.08 41.8791 11.06 41.8924 11.02C41.9191 10.98 42.0058 10.6667 42.1524 10.08C42.3124 9.46667 42.3924 9.16 42.3924 9.16ZM43.4124 11.48C43.4124 11.48 43.2858 11.48 43.0324 11.48C42.7791 11.48 42.6524 11.4867 42.6524 11.5C42.6258 11.5667 42.5258 11.94 42.3524 12.62C42.3124 12.7667 42.2658 12.9467 42.2124 13.16C42.1591 13.3733 42.1191 13.5367 42.0924 13.65C42.0658 13.7633 42.0458 13.8333 42.0324 13.86C42.0058 13.9667 41.9958 14.0267 42.0024 14.04C42.0091 14.0533 42.0258 14.06 42.0524 14.06C42.0791 14.06 42.1724 14.0933 42.3324 14.16C42.5058 14.2133 42.5924 14.2333 42.5924 14.22C42.5924 14.22 42.6258 14.1467 42.6924 14C42.7458 13.8667 42.7991 13.7133 42.8524 13.54C42.9058 13.3933 42.9658 13.2133 43.0324 13C43.0858 12.8133 43.1458 12.5867 43.2124 12.32C43.2791 12.08 43.3258 11.88 43.3524 11.72C43.3924 11.5733 43.4124 11.4933 43.4124 11.48ZM45.6124 9.52V9.66V9.78H46.5524H47.4924V9.66V9.52H47.9324H48.3724V11.08L48.3924 12.64L48.8324 12.66H49.2724V12.84V13.02H48.8324L48.3924 13.04L48.3724 14V14.96H48.6524H48.9324V15.16V15.34L48.6524 15.36H48.3924L48.3724 16.14C48.3724 16.6733 48.3524 16.9867 48.3124 17.08C48.2724 17.1867 48.2258 17.2733 48.1724 17.34C48.1191 17.42 48.0591 17.4867 47.9924 17.54C47.9258 17.58 47.8658 17.6133 47.8124 17.64C47.7591 17.6533 47.6924 17.6533 47.6124 17.64H47.4924V16.5V15.34L46.5324 15.36H45.5924L45.5524 15.5C45.5124 15.58 45.4791 15.6467 45.4524 15.7C45.4124 15.7667 45.3658 15.8233 45.3124 15.87C45.2591 15.9167 45.1991 15.9567 45.1324 15.99C45.0658 16.0233 44.9791 16.04 44.8724 16.04H44.7324V14.52V13.02H44.4724H44.2324V12.84V12.66H44.4724H44.7324V11.1C44.7324 10.06 44.7358 9.53333 44.7424 9.52C44.7491 9.50667 44.8924 9.50667 45.1724 9.52H45.6124ZM46.5724 13.02C45.9591 13.02 45.6458 13.0267 45.6324 13.04C45.6191 13.04 45.6124 13.36 45.6124 14V14.96H46.5524H47.4924V14V13.02H46.5724ZM45.9324 10.82C46.0258 10.8333 46.1258 10.8533 46.2324 10.88C46.3391 10.9067 46.4524 10.94 46.5724 10.98C46.6658 11.02 46.7458 11.06 46.8124 11.1C46.8791 11.14 46.9658 11.2067 47.0724 11.3C47.1658 11.3933 47.2124 11.4533 47.2124 11.48C47.2124 11.5067 47.1391 11.58 46.9924 11.7C46.8324 11.8333 46.7458 11.9 46.7324 11.9C46.7191 11.9133 46.6924 11.8733 46.6524 11.78C46.6258 11.7 46.5791 11.6133 46.5124 11.52C46.4591 11.44 46.3824 11.35 46.2824 11.25C46.1824 11.15 46.0791 11.0667 45.9724 11C45.8791 10.9333 45.8258 10.88 45.8124 10.84C45.8124 10.8133 45.8524 10.8067 45.9324 10.82ZM45.8924 13.76C45.9324 13.76 46.0124 13.7667 46.1324 13.78C46.2658 13.8067 46.3924 13.84 46.5124 13.88C46.6191 13.92 46.7124 13.9667 46.7924 14.02C46.8591 14.0467 46.9258 14.0867 46.9924 14.14C47.0458 14.1933 47.0991 14.2467 47.1524 14.3C47.1924 14.3667 47.2124 14.4067 47.2124 14.42C47.2124 14.4333 47.1324 14.5067 46.9724 14.64L46.7324 14.86L46.6124 14.64C46.5458 14.4933 46.4524 14.3567 46.3324 14.23C46.2124 14.1033 46.0924 14 45.9724 13.92C45.8658 13.8533 45.8124 13.81 45.8124 13.79C45.8124 13.77 45.8391 13.76 45.8924 13.76ZM45.6124 11.4L45.6324 12.64L46.5524 12.66H47.4924V10.18H45.6124V11.4ZM56.6566 9.44V9.54V9.62H58.1366H59.6366V9.54V9.44H60.0566H60.4766V12.76C60.4766 14.96 60.4699 16.1067 60.4566 16.2C60.4432 16.28 60.4132 16.3667 60.3666 16.46C60.3199 16.5533 60.2599 16.6333 60.1866 16.7C60.1132 16.7667 60.0166 16.8267 59.8966 16.88C59.8032 16.9333 59.7366 16.9667 59.6966 16.98L59.6566 16.84C59.6566 16.7467 59.6499 16.3133 59.6366 15.54V14.1H58.1366H56.6566L56.6366 14.5C56.6366 14.78 56.6166 14.9933 56.5766 15.14C56.5499 15.2733 56.5166 15.4 56.4766 15.52C56.4366 15.64 56.3932 15.75 56.3466 15.85C56.2999 15.95 56.2499 16.0433 56.1966 16.13C56.1432 16.2167 56.0699 16.3267 55.9766 16.46C55.8832 16.58 55.7766 16.6933 55.6566 16.8C55.5632 16.8933 55.4632 16.9733 55.3566 17.04C55.2766 17.1067 55.1499 17.1867 54.9766 17.28C54.8166 17.36 54.7332 17.4 54.7266 17.4C54.7199 17.4 54.7166 17.3467 54.7166 17.24V17.06L54.7966 17.02C54.8499 16.9933 54.9566 16.9 55.1166 16.74C55.2766 16.58 55.3899 16.44 55.4566 16.32C55.5366 16.1867 55.5966 16.0667 55.6366 15.96C55.6899 15.8267 55.7299 15.7067 55.7566 15.6C55.7832 15.4933 55.7966 14.44 55.7966 12.44L55.8166 9.44H56.2366H56.6566ZM56.6566 11.62H59.6366V10.08H56.6566V11.62ZM56.6566 13.64H59.6366V12.06H56.6566V13.64ZM64.7407 8.98C64.994 8.98 65.1407 8.98667 65.1807 9L65.2207 9.02V10.18V11.36H65.9607H66.7207V11.54C66.7207 11.6733 66.704 11.74 66.6707 11.74C66.6374 11.74 66.6207 12.2667 66.6207 13.32C66.6207 14.3867 66.6074 14.9867 66.5807 15.12C66.554 15.2667 66.514 15.42 66.4607 15.58C66.4207 15.7267 66.3607 15.8767 66.2807 16.03C66.2007 16.1833 66.114 16.3267 66.0207 16.46L65.8607 16.64L65.9807 16.78C66.0607 16.8733 66.174 16.9867 66.3207 17.12C66.4674 17.2667 66.584 17.3733 66.6707 17.44C66.7574 17.5067 66.8007 17.5667 66.8007 17.62C66.8007 17.66 66.7974 17.6833 66.7907 17.69C66.784 17.6967 66.774 17.6933 66.7607 17.68C66.7207 17.6667 66.634 17.6333 66.5007 17.58C66.3807 17.54 66.2474 17.4733 66.1007 17.38C65.9407 17.3 65.8107 17.22 65.7107 17.14C65.6107 17.06 65.554 17.0133 65.5407 17C65.5274 16.9867 65.4674 17.02 65.3607 17.1C65.254 17.18 65.1274 17.26 64.9807 17.34C64.8474 17.42 64.7007 17.4933 64.5407 17.56C64.4074 17.6133 64.2474 17.6667 64.0607 17.72C63.9274 17.76 63.8207 17.7933 63.7407 17.82C63.714 17.82 63.6974 17.8167 63.6907 17.81C63.684 17.8033 63.6807 17.78 63.6807 17.74C63.6807 17.6867 63.714 17.6333 63.7807 17.58C63.8874 17.5267 63.9874 17.4667 64.0807 17.4C64.2274 17.3067 64.3607 17.2067 64.4807 17.1C64.6274 16.9933 64.7674 16.8733 64.9007 16.74L65.1007 16.54L65.0007 16.42C64.934 16.3267 64.8674 16.2267 64.8007 16.12C64.7207 15.9867 64.654 15.8533 64.6007 15.72C64.534 15.5733 64.4874 15.4533 64.4607 15.36C64.4207 15.2533 64.394 15.1533 64.3807 15.06C64.354 14.9667 64.3407 14.3867 64.3407 13.32V11.74H64.0607H63.7607V11.54V11.36H64.0407L64.3207 11.34L64.3407 10.2C64.3407 9.42667 64.3474 9.03333 64.3607 9.02C64.3607 8.99333 64.4874 8.98 64.7407 8.98ZM65.2207 11.74V13.52C65.2207 14.72 65.2407 15.38 65.2807 15.5C65.3074 15.62 65.3407 15.7333 65.3807 15.84C65.4207 15.9333 65.4474 15.9867 65.4607 16C65.474 16.0133 65.5074 15.9633 65.5607 15.85C65.614 15.7367 65.6574 15.62 65.6907 15.5C65.724 15.38 65.7407 14.72 65.7407 13.52V11.74H65.4807H65.2207ZM70.0207 9.02V9.64C70.034 9.98667 70.0407 10.6667 70.0407 11.68V13.12H70.5807H71.1207V12.64V12.18H70.7607H70.4007V11.98V11.78H70.7607H71.1207V11.12V10.46H70.7607H70.4007V10.28V10.08H70.7607L71.1007 10.06V9.98L71.1207 9.9H71.5407H71.9807V11.4C71.994 12.4 71.9907 12.9633 71.9707 13.09C71.9507 13.2167 71.9207 13.32 71.8807 13.4C71.8407 13.48 71.794 13.55 71.7407 13.61C71.6874 13.67 71.6207 13.72 71.5407 13.76C71.4607 13.8 71.3674 13.82 71.2607 13.82H71.1207V13.66V13.5H70.5807H70.0407V13.7C70.0407 13.8333 70.0274 13.96 70.0007 14.08C69.9607 14.2 69.924 14.2933 69.8907 14.36C69.8574 14.4267 69.8407 14.4633 69.8407 14.47C69.8407 14.4767 70.154 14.48 70.7807 14.48H71.7007V14.6C71.7007 14.68 71.694 14.7667 71.6807 14.86C71.6674 14.9533 71.6407 15.0467 71.6007 15.14C71.574 15.2333 71.5274 15.3467 71.4607 15.48C71.394 15.6133 71.3107 15.7433 71.2107 15.87C71.1107 15.9967 71.014 16.1033 70.9207 16.19C70.8274 16.2767 70.7074 16.3733 70.5607 16.48C70.4007 16.6 70.3007 16.6667 70.2607 16.68C70.2207 16.7067 70.2007 16.7267 70.2007 16.74C70.2007 16.7533 70.3074 16.8133 70.5207 16.92C70.7607 17.04 70.9474 17.1267 71.0807 17.18C71.254 17.2467 71.4474 17.3133 71.6607 17.38L72.0007 17.48V17.56C72.0007 17.6267 71.9974 17.66 71.9907 17.66C71.984 17.66 71.854 17.6333 71.6007 17.58C71.374 17.5267 71.1474 17.4667 70.9207 17.4C70.7074 17.3333 70.554 17.2867 70.4607 17.26C70.394 17.2333 70.254 17.18 70.0407 17.1L69.7407 16.98L69.5207 17.08C69.3607 17.16 69.2007 17.2333 69.0407 17.3C68.894 17.3533 68.724 17.41 68.5307 17.47C68.3374 17.53 68.1807 17.58 68.0607 17.62C67.914 17.66 67.7474 17.7 67.5607 17.74C67.3074 17.7933 67.1807 17.82 67.1807 17.82L67.1007 17.84V17.66C67.1007 17.5533 67.1007 17.5 67.1007 17.5C67.114 17.5 67.2207 17.4667 67.4207 17.4C67.6207 17.3467 67.8507 17.2667 68.1107 17.16C68.3707 17.0533 68.5807 16.96 68.7407 16.88C68.9274 16.7867 69.0407 16.7267 69.0807 16.7C69.1074 16.6733 69.094 16.64 69.0407 16.6C69.0274 16.5867 69.0074 16.5733 68.9807 16.56C68.874 16.4933 68.7674 16.4133 68.6607 16.32C68.5407 16.2267 68.4407 16.1333 68.3607 16.04C68.254 15.92 68.1674 15.8133 68.1007 15.72C68.0207 15.6133 67.954 15.5 67.9007 15.38C67.8607 15.26 67.8274 15.1467 67.8007 15.04L67.7607 14.86H67.5207H67.2807V14.68V14.48H68.2207C68.834 14.48 69.144 14.4733 69.1507 14.46C69.1574 14.4467 69.1607 14.2867 69.1607 13.98L69.1407 13.5H68.5407H67.9607L67.8807 13.58C67.8274 13.6333 67.7607 13.68 67.6807 13.72C67.614 13.76 67.534 13.78 67.4407 13.78H67.2807V12.78C67.2674 12.14 67.2607 11.6867 67.2607 11.42C67.2607 11.18 67.254 11.06 67.2407 11.06C67.2274 11.06 67.204 11.07 67.1707 11.09C67.1374 11.11 67.1074 11.12 67.0807 11.12C67.0674 11.12 67.0607 11.0733 67.0607 10.98C67.0607 10.8867 67.0807 10.8267 67.1207 10.8C67.174 10.76 67.2674 10.6733 67.4007 10.54C67.5607 10.3933 67.6874 10.26 67.7807 10.14C67.8874 10.02 67.9674 9.88667 68.0207 9.74L68.1007 9.54H68.5207C68.8007 9.54 68.9407 9.54 68.9407 9.54C68.9407 9.54 68.9074 9.6 68.8407 9.72C68.774 9.82667 68.724 9.91667 68.6907 9.99C68.6574 10.0633 68.594 10.14 68.5007 10.22C68.394 10.3267 68.314 10.4 68.2607 10.44L68.1407 10.52V11.16V11.78H68.4807H68.8407V11.98V12.18H68.4807H68.1407V12.56C68.1407 12.8133 68.1407 12.9667 68.1407 13.02L68.1207 13.12H68.6407H69.1607V11.06V9L69.5807 9.02H70.0207ZM70.5007 15.5C70.5807 15.3933 70.6607 15.27 70.7407 15.13C70.8207 14.99 70.8607 14.91 70.8607 14.89C70.8607 14.87 70.484 14.86 69.7307 14.86C68.9774 14.86 68.6007 14.8633 68.6007 14.87C68.6007 14.8767 68.6207 14.9333 68.6607 15.04C68.7007 15.1333 68.7474 15.2333 68.8007 15.34C68.8674 15.46 68.934 15.5733 69.0007 15.68C69.0674 15.7867 69.1607 15.9 69.2807 16.02C69.4007 16.1533 69.4874 16.24 69.5407 16.28L69.6207 16.36L69.8607 16.16C70.0074 16.04 70.134 15.9267 70.2407 15.82C70.3207 15.7267 70.4074 15.62 70.5007 15.5ZM81.3248 9.16V9.22C81.3248 9.24667 81.3115 9.31333 81.2848 9.42C81.2715 9.51333 81.2448 9.58667 81.2048 9.64C81.1782 9.70667 81.1382 9.77333 81.0848 9.84C81.0315 9.89333 80.9682 9.94 80.8948 9.98C80.8215 10.02 80.7315 10.04 80.6248 10.04H80.4848V9.6V9.16H80.9048H81.3248ZM84.5648 10.18V10.36V10.54H82.0848H79.6048L79.4648 10.76C79.3848 10.9067 79.2582 11.1267 79.0848 11.42C78.9248 11.7133 78.8448 11.86 78.8448 11.86C78.8448 11.8733 79.4815 11.88 80.7548 11.88C82.0282 11.88 82.6648 11.8667 82.6648 11.84C82.6648 11.8133 82.6515 11.7533 82.6248 11.66C82.5982 11.5533 82.5382 11.4067 82.4448 11.22C82.3515 11.0333 82.3048 10.92 82.3048 10.88L82.3248 10.82L82.4448 10.9C82.5382 10.9533 82.6382 11.0133 82.7448 11.08C82.8382 11.1733 82.9315 11.2733 83.0248 11.38C83.1182 11.5 83.1782 11.5867 83.2048 11.64C83.2448 11.7067 83.2915 11.7833 83.3448 11.87C83.3982 11.9567 83.4582 12.08 83.5248 12.24C83.5915 12.4 83.6248 12.4867 83.6248 12.5C83.6248 12.5267 83.6248 12.54 83.6248 12.54C83.6248 12.54 83.5015 12.5567 83.2548 12.59C83.0082 12.6233 82.8815 12.64 82.8748 12.64C82.8682 12.64 82.8648 13.3133 82.8648 14.66C82.8648 15.1267 82.8648 15.5167 82.8648 15.83C82.8648 16.1433 82.8648 16.3833 82.8648 16.55C82.8648 16.7167 82.8582 16.82 82.8448 16.86C82.8315 16.94 82.8115 17.0267 82.7848 17.12C82.7448 17.1867 82.6982 17.26 82.6448 17.34C82.5782 17.3933 82.5115 17.4467 82.4448 17.5C82.3915 17.54 82.3248 17.5733 82.2448 17.6L82.1248 17.66V16.64V15.64H80.5248H78.9048V16.22C78.9048 16.5933 78.8915 16.8333 78.8648 16.94C78.8515 17.0467 78.8115 17.1467 78.7448 17.24C78.6915 17.32 78.6248 17.3933 78.5448 17.46C78.4648 17.5133 78.3982 17.5533 78.3448 17.58C78.2782 17.6067 78.2315 17.62 78.2048 17.62C78.1782 17.62 78.1648 16.7933 78.1648 15.14V12.66H78.5248H78.9048V12.8V12.92H80.5248H82.1248V12.8V12.66H82.4448L82.7448 12.64L82.7648 12.52C82.7648 12.4267 82.7582 12.36 82.7448 12.32V12.24H80.2448H77.7448V12.06V11.88H77.8448H77.9448L78.3448 11.22C78.5982 10.78 78.7248 10.5567 78.7248 10.55C78.7248 10.5433 78.3715 10.54 77.6648 10.54H76.6048V10.36V10.18H80.5848H84.5648ZM78.9048 14.1H82.1248V13.32H78.9048V14.1ZM78.9048 15.26H82.1248V14.48H78.9048V15.26ZM92.189 9.16V12.76L92.169 16.36L92.129 16.5C92.089 16.58 92.069 16.6267 92.069 16.64C92.069 16.6533 92.449 16.66 93.209 16.66H94.329V16.12V15.58H94.649H94.969V15.92C94.969 16.1467 94.9623 16.2967 94.949 16.37C94.9357 16.4433 94.9123 16.5233 94.879 16.61C94.8457 16.6967 94.7957 16.7767 94.729 16.85C94.6623 16.9233 94.589 16.98 94.509 17.02L94.409 17.06H92.849L91.309 17.04V13.1L91.289 9.16H91.749H92.189ZM89.809 9.26V11.84C89.809 13.56 89.799 14.47 89.779 14.57C89.759 14.67 89.7357 14.7667 89.709 14.86C89.669 14.9667 89.619 15.0833 89.559 15.21C89.499 15.3367 89.4223 15.4667 89.329 15.6C89.2357 15.7333 89.1323 15.87 89.019 16.01C88.9057 16.15 88.7623 16.3 88.589 16.46C88.429 16.6067 88.2823 16.7267 88.149 16.82C88.0023 16.9267 87.849 17.0333 87.689 17.14C87.529 17.2333 87.3357 17.34 87.109 17.46C86.8957 17.5667 86.769 17.6267 86.729 17.64C86.7023 17.64 86.6857 17.6367 86.679 17.63C86.6723 17.6233 86.669 17.6067 86.669 17.58C86.669 17.5267 86.7157 17.4667 86.809 17.4C86.9157 17.32 87.0557 17.2133 87.229 17.08C87.429 16.92 87.6423 16.7267 87.869 16.5C88.0957 16.2867 88.2623 16.1133 88.369 15.98C88.4623 15.8733 88.5557 15.7467 88.649 15.6C88.729 15.4667 88.8023 15.3333 88.869 15.2L88.929 15.02L88.949 12.14V9.26H89.389H89.809ZM97.9731 8.98C98.2265 8.98 98.3731 8.98667 98.4131 9L98.4531 9.02V10.18V11.36H99.1931H99.9531V11.54C99.9531 11.6733 99.9365 11.74 99.9031 11.74C99.8698 11.74 99.8531 12.2667 99.8531 13.32C99.8531 14.3867 99.8398 14.9867 99.8131 15.12C99.7865 15.2667 99.7465 15.42 99.6931 15.58C99.6531 15.7267 99.5931 15.8767 99.5131 16.03C99.4331 16.1833 99.3465 16.3267 99.2531 16.46L99.0931 16.64L99.2131 16.78C99.2931 16.8733 99.4065 16.9867 99.5531 17.12C99.6998 17.2667 99.8165 17.3733 99.9031 17.44C99.9898 17.5067 100.033 17.5667 100.033 17.62C100.033 17.66 100.03 17.6833 100.023 17.69C100.016 17.6967 100.006 17.6933 99.9931 17.68C99.9531 17.6667 99.8665 17.6333 99.7331 17.58C99.6131 17.54 99.4798 17.4733 99.3331 17.38C99.1731 17.3 99.0431 17.22 98.9431 17.14C98.8431 17.06 98.7865 17.0133 98.7731 17C98.7598 16.9867 98.6998 17.02 98.5931 17.1C98.4865 17.18 98.3598 17.26 98.2131 17.34C98.0798 17.42 97.9331 17.4933 97.7731 17.56C97.6398 17.6133 97.4798 17.6667 97.2931 17.72C97.1598 17.76 97.0531 17.7933 96.9731 17.82C96.9465 17.82 96.9298 17.8167 96.9231 17.81C96.9165 17.8033 96.9131 17.78 96.9131 17.74C96.9131 17.6867 96.9465 17.6333 97.0131 17.58C97.1198 17.5267 97.2198 17.4667 97.3131 17.4C97.4598 17.3067 97.5931 17.2067 97.7131 17.1C97.8598 16.9933 97.9998 16.8733 98.1331 16.74L98.3331 16.54L98.2331 16.42C98.1665 16.3267 98.0998 16.2267 98.0331 16.12C97.9531 15.9867 97.8865 15.8533 97.8331 15.72C97.7665 15.5733 97.7198 15.4533 97.6931 15.36C97.6531 15.2533 97.6265 15.1533 97.6131 15.06C97.5865 14.9667 97.5731 14.3867 97.5731 13.32V11.74H97.2931H96.9931V11.54V11.36H97.2731L97.5531 11.34L97.5731 10.2C97.5731 9.42667 97.5798 9.03333 97.5931 9.02C97.5931 8.99333 97.7198 8.98 97.9731 8.98ZM98.4531 11.74V13.52C98.4531 14.72 98.4731 15.38 98.5131 15.5C98.5398 15.62 98.5731 15.7333 98.6131 15.84C98.6531 15.9333 98.6798 15.9867 98.6931 16C98.7065 16.0133 98.7398 15.9633 98.7931 15.85C98.8465 15.7367 98.8898 15.62 98.9231 15.5C98.9565 15.38 98.9731 14.72 98.9731 13.52V11.74H98.7131H98.4531ZM103.253 9.02V9.64C103.266 9.98667 103.273 10.6667 103.273 11.68V13.12H103.813H104.353V12.64V12.18H103.993H103.633V11.98V11.78H103.993H104.353V11.12V10.46H103.993H103.633V10.28V10.08H103.993L104.333 10.06V9.98L104.353 9.9H104.773H105.213V11.4C105.226 12.4 105.223 12.9633 105.203 13.09C105.183 13.2167 105.153 13.32 105.113 13.4C105.073 13.48 105.026 13.55 104.973 13.61C104.92 13.67 104.853 13.72 104.773 13.76C104.693 13.8 104.6 13.82 104.493 13.82H104.353V13.66V13.5H103.813H103.273V13.7C103.273 13.8333 103.26 13.96 103.233 14.08C103.193 14.2 103.156 14.2933 103.123 14.36C103.09 14.4267 103.073 14.4633 103.073 14.47C103.073 14.4767 103.386 14.48 104.013 14.48H104.933V14.6C104.933 14.68 104.926 14.7667 104.913 14.86C104.9 14.9533 104.873 15.0467 104.833 15.14C104.806 15.2333 104.76 15.3467 104.693 15.48C104.626 15.6133 104.543 15.7433 104.443 15.87C104.343 15.9967 104.246 16.1033 104.153 16.19C104.06 16.2767 103.94 16.3733 103.793 16.48C103.633 16.6 103.533 16.6667 103.493 16.68C103.453 16.7067 103.433 16.7267 103.433 16.74C103.433 16.7533 103.54 16.8133 103.753 16.92C103.993 17.04 104.18 17.1267 104.313 17.18C104.486 17.2467 104.68 17.3133 104.893 17.38L105.233 17.48V17.56C105.233 17.6267 105.23 17.66 105.223 17.66C105.216 17.66 105.086 17.6333 104.833 17.58C104.606 17.5267 104.38 17.4667 104.153 17.4C103.94 17.3333 103.786 17.2867 103.693 17.26C103.626 17.2333 103.486 17.18 103.273 17.1L102.973 16.98L102.753 17.08C102.593 17.16 102.433 17.2333 102.273 17.3C102.126 17.3533 101.956 17.41 101.763 17.47C101.57 17.53 101.413 17.58 101.293 17.62C101.146 17.66 100.98 17.7 100.793 17.74C100.54 17.7933 100.413 17.82 100.413 17.82L100.333 17.84V17.66C100.333 17.5533 100.333 17.5 100.333 17.5C100.346 17.5 100.453 17.4667 100.653 17.4C100.853 17.3467 101.083 17.2667 101.343 17.16C101.603 17.0533 101.813 16.96 101.973 16.88C102.16 16.7867 102.273 16.7267 102.313 16.7C102.34 16.6733 102.326 16.64 102.273 16.6C102.26 16.5867 102.24 16.5733 102.213 16.56C102.106 16.4933 102 16.4133 101.893 16.32C101.773 16.2267 101.673 16.1333 101.593 16.04C101.486 15.92 101.4 15.8133 101.333 15.72C101.253 15.6133 101.186 15.5 101.133 15.38C101.093 15.26 101.06 15.1467 101.033 15.04L100.993 14.86H100.753H100.513V14.68V14.48H101.453C102.066 14.48 102.376 14.4733 102.383 14.46C102.39 14.4467 102.393 14.2867 102.393 13.98L102.373 13.5H101.773H101.193L101.113 13.58C101.06 13.6333 100.993 13.68 100.913 13.72C100.846 13.76 100.766 13.78 100.673 13.78H100.513V12.78C100.5 12.14 100.493 11.6867 100.493 11.42C100.493 11.18 100.486 11.06 100.473 11.06C100.46 11.06 100.436 11.07 100.403 11.09C100.37 11.11 100.34 11.12 100.313 11.12C100.3 11.12 100.293 11.0733 100.293 10.98C100.293 10.8867 100.313 10.8267 100.353 10.8C100.406 10.76 100.5 10.6733 100.633 10.54C100.793 10.3933 100.92 10.26 101.013 10.14C101.12 10.02 101.2 9.88667 101.253 9.74L101.333 9.54H101.753C102.033 9.54 102.173 9.54 102.173 9.54C102.173 9.54 102.14 9.6 102.073 9.72C102.006 9.82667 101.956 9.91667 101.923 9.99C101.89 10.0633 101.826 10.14 101.733 10.22C101.626 10.3267 101.546 10.4 101.493 10.44L101.373 10.52V11.16V11.78H101.713H102.073V11.98V12.18H101.713H101.373V12.56C101.373 12.8133 101.373 12.9667 101.373 13.02L101.353 13.12H101.873H102.393V11.06V9L102.813 9.02H103.253ZM103.733 15.5C103.813 15.3933 103.893 15.27 103.973 15.13C104.053 14.99 104.093 14.91 104.093 14.89C104.093 14.87 103.716 14.86 102.963 14.86C102.21 14.86 101.833 14.8633 101.833 14.87C101.833 14.8767 101.853 14.9333 101.893 15.04C101.933 15.1333 101.98 15.2333 102.033 15.34C102.1 15.46 102.166 15.5733 102.233 15.68C102.3 15.7867 102.393 15.9 102.513 16.02C102.633 16.1533 102.72 16.24 102.773 16.28L102.853 16.36L103.093 16.16C103.24 16.04 103.366 15.9267 103.473 15.82C103.553 15.7267 103.64 15.62 103.733 15.5Z" fill="#5B5B5B"/>
<path d="M14.076 21.322C14.412 21.322 14.583 21.328 14.589 21.34C14.595 21.352 14.484 21.523 14.256 21.853C14.028 22.183 13.914 22.354 13.914 22.366C13.914 22.378 14.496 22.384 15.66 22.384H17.424L17.406 22.564V22.726L15.516 22.744H13.644L13.608 22.798C13.572 22.846 13.416 23.068 13.14 23.464C12.852 23.884 12.69 24.13 12.654 24.202L12.6 24.31V25.912C12.6 26.98 12.588 27.553 12.564 27.631C12.54 27.709 12.51 27.784 12.474 27.856C12.438 27.916 12.39 27.976 12.33 28.036C12.258 28.096 12.189 28.138 12.123 28.162C12.057 28.186 11.988 28.198 11.916 28.198H11.808V26.722C11.808 25.738 11.805 25.246 11.799 25.246C11.793 25.246 11.748 25.276 11.664 25.336C11.568 25.42 11.472 25.498 11.376 25.57C11.28 25.642 11.16 25.726 11.016 25.822C10.872 25.918 10.746 25.996 10.638 26.056C10.53 26.116 10.404 26.188 10.26 26.272L10.044 26.38L9.918 26.344C9.834 26.332 9.789 26.323 9.783 26.317C9.777 26.311 9.942 26.14 10.278 25.804C10.602 25.468 10.86 25.192 11.052 24.976C11.232 24.772 11.388 24.592 11.52 24.436C11.64 24.268 11.736 24.136 11.808 24.04C11.904 23.92 12.066 23.674 12.294 23.302L12.654 22.744H11.754L10.854 22.726V22.564V22.384H11.862H12.888L13.122 21.988C13.254 21.784 13.368 21.604 13.464 21.448L13.554 21.322H14.076ZM15.552 23.176L15.57 24.04V24.904H16.38H17.19V25.084L17.172 25.246L16.38 25.264H15.57V26.164C15.558 26.764 15.54 27.1 15.516 27.172C15.492 27.244 15.468 27.31 15.444 27.37C15.408 27.43 15.39 27.46 15.39 27.46C15.39 27.472 15.726 27.478 16.398 27.478H17.424V27.658V27.82H15.21H12.996V27.658V27.478H13.878H14.76V26.362V25.264H13.986L13.194 25.246V25.084V24.904H13.986H14.76V24.04V23.158L15.156 23.176H15.552ZM20.9377 21.07C21.0217 21.106 21.0817 21.136 21.1177 21.16C21.1537 21.184 21.1717 21.202 21.1717 21.214C21.1717 21.238 21.0097 21.532 20.6857 22.096C20.5897 22.252 20.4577 22.477 20.2897 22.771C20.1217 23.065 20.0197 23.242 19.9837 23.302C19.8397 23.566 19.7677 23.704 19.7677 23.716C19.7677 23.716 19.7707 23.719 19.7767 23.725C19.7827 23.731 19.8037 23.734 19.8397 23.734C19.8757 23.734 19.9207 23.734 19.9747 23.734C20.0287 23.734 20.1037 23.734 20.1997 23.734H20.6497L21.0277 23.212C21.2557 22.876 21.3877 22.678 21.4237 22.618L21.4777 22.564L21.7117 22.69C21.8557 22.762 21.9277 22.804 21.9277 22.816C21.9277 22.828 21.7717 23.068 21.4597 23.536C21.3637 23.68 21.2017 23.917 20.9737 24.247C20.7457 24.577 20.5897 24.802 20.5057 24.922L20.0557 25.606H20.8837H21.7117V25.786V25.966H20.7577C20.1217 25.966 19.7947 25.978 19.7767 26.002C19.7587 26.026 19.7437 26.038 19.7317 26.038C19.7197 26.026 19.6537 25.96 19.5337 25.84L19.3537 25.642L19.6417 25.21C19.9777 24.718 20.1517 24.466 20.1637 24.454C20.3077 24.238 20.3827 24.124 20.3887 24.112C20.3947 24.1 20.2537 24.094 19.9657 24.094H19.5337L19.4977 24.166C19.4737 24.214 19.4557 24.238 19.4437 24.238C19.4437 24.238 19.3777 24.169 19.2457 24.031C19.1137 23.893 19.0597 23.818 19.0837 23.806C19.0837 23.794 19.3477 23.326 19.8757 22.402C20.2957 21.658 20.5597 21.19 20.6677 20.998L20.7037 20.944L20.9377 21.07ZM23.7097 20.962V21.16C23.7097 21.304 23.7037 21.622 23.6917 22.114C23.6917 22.606 23.6977 22.852 23.7097 22.852C23.7817 22.828 24.0037 22.768 24.3757 22.672C24.4477 22.648 24.5707 22.612 24.7447 22.564C24.9187 22.516 25.0717 22.474 25.2037 22.438C25.3357 22.402 25.4497 22.372 25.5457 22.348C25.9057 22.252 26.0947 22.204 26.1127 22.204C26.1307 22.204 26.1547 22.252 26.1847 22.348C26.2147 22.444 26.2237 22.498 26.2117 22.51C26.1997 22.522 25.7797 22.642 24.9517 22.87C24.1237 23.098 23.7067 23.215 23.7007 23.221C23.6947 23.227 23.6977 23.35 23.7097 23.59C23.7337 23.794 23.7577 24.004 23.7817 24.22C23.7937 24.4 23.8057 24.49 23.8177 24.49C23.8177 24.502 23.9977 24.46 24.3577 24.364C24.8497 24.22 25.2817 24.094 25.6537 23.986C26.1817 23.83 26.4517 23.755 26.4637 23.761C26.4757 23.767 26.4937 23.824 26.5177 23.932C26.5417 24.028 26.5507 24.079 26.5447 24.085C26.5387 24.091 26.1037 24.22 25.2397 24.472C24.3757 24.712 23.9317 24.838 23.9077 24.85C23.8837 24.85 23.8717 24.856 23.8717 24.868C23.8717 24.892 23.8837 24.988 23.9077 25.156C23.9437 25.324 23.9857 25.468 24.0337 25.588C24.0817 25.708 24.1177 25.798 24.1417 25.858C24.1657 25.906 24.1837 25.93 24.1957 25.93C24.2077 25.93 24.2617 25.888 24.3577 25.804C24.5137 25.684 24.6697 25.552 24.8257 25.408C25.0537 25.204 25.1857 25.084 25.2217 25.048C25.2697 25 25.2997 24.976 25.3117 24.976C25.3237 24.976 25.4077 25.03 25.5637 25.138C25.7197 25.234 25.7977 25.288 25.7977 25.3C25.7977 25.312 25.6297 25.456 25.2937 25.732C24.9697 26.008 24.7537 26.194 24.6457 26.29C24.5377 26.374 24.4837 26.425 24.4837 26.443C24.4837 26.461 24.5227 26.524 24.6007 26.632C24.6787 26.74 24.7657 26.851 24.8617 26.965C24.9577 27.079 25.0777 27.208 25.2217 27.352C25.3657 27.508 25.5037 27.64 25.6357 27.748C25.7797 27.868 25.9117 27.97 26.0317 28.054C26.1397 28.15 26.2597 28.24 26.3917 28.324C26.5117 28.408 26.5717 28.468 26.5717 28.504C26.5717 28.54 26.5657 28.561 26.5537 28.567C26.5417 28.573 26.4277 28.54 26.2117 28.468C25.9957 28.384 25.7797 28.288 25.5637 28.18C25.3597 28.084 25.1857 27.988 25.0417 27.892C24.9097 27.796 24.7837 27.7 24.6637 27.604C24.5317 27.496 24.4237 27.394 24.3397 27.298C24.2557 27.202 24.1777 27.1 24.1057 26.992C24.0217 26.872 23.9767 26.812 23.9707 26.812C23.9647 26.812 23.8837 26.872 23.7277 26.992C23.5717 27.112 23.3917 27.244 23.1877 27.388C22.9837 27.52 22.7797 27.646 22.5757 27.766C22.3717 27.886 22.1677 28 21.9637 28.108C21.7597 28.204 21.5917 28.282 21.4597 28.342C21.3157 28.39 21.2377 28.411 21.2257 28.405C21.2137 28.399 21.2077 28.372 21.2077 28.324C21.1957 28.288 21.2047 28.255 21.2347 28.225C21.2647 28.195 21.3637 28.12 21.5317 28C21.7117 27.868 22.0357 27.628 22.5037 27.28C22.9237 26.956 23.2297 26.716 23.4217 26.56C23.6257 26.404 23.7277 26.32 23.7277 26.308C23.7277 26.296 23.7037 26.242 23.6557 26.146C23.6197 26.05 23.5777 25.918 23.5297 25.75C23.4697 25.582 23.4217 25.426 23.3857 25.282C23.3497 25.114 23.3317 25.03 23.3317 25.03C23.3197 25.018 23.1277 25.066 22.7557 25.174C22.3837 25.282 22.1917 25.336 22.1797 25.336C22.1797 25.324 22.1677 25.27 22.1437 25.174C22.1077 25.078 22.0957 25.024 22.1077 25.012C22.1197 25 22.3117 24.94 22.6837 24.832C23.0557 24.724 23.2447 24.67 23.2507 24.67C23.2567 24.67 23.2417 24.55 23.2057 24.31C23.1697 24.058 23.1397 23.848 23.1157 23.68C23.1037 23.5 23.0917 23.407 23.0797 23.401C23.0677 23.395 22.9177 23.428 22.6297 23.5C22.3417 23.584 22.1917 23.62 22.1797 23.608C22.1677 23.596 22.1527 23.542 22.1347 23.446C22.1167 23.35 22.1077 23.302 22.1077 23.302C22.1077 23.29 22.2637 23.242 22.5757 23.158L23.0617 23.032L23.0437 22.276C23.0437 21.736 23.0497 21.388 23.0617 21.232V20.944L23.3857 20.962H23.7097ZM25.4017 21.376V21.43C25.4017 21.454 25.3897 21.514 25.3657 21.61C25.3417 21.694 25.3117 21.778 25.2757 21.862C25.2277 21.946 25.1797 22.009 25.1317 22.051C25.0837 22.093 25.0237 22.129 24.9517 22.159C24.8797 22.189 24.8077 22.204 24.7357 22.204L24.6277 22.186V21.808C24.6277 21.556 24.6307 21.421 24.6367 21.403C24.6427 21.385 24.7717 21.376 25.0237 21.376H25.4017ZM21.5857 26.704C21.5977 26.704 21.6217 26.752 21.6577 26.848L21.7117 27.01L21.6397 27.046C21.5197 27.094 21.3397 27.16 21.0997 27.244C21.0517 27.268 20.9587 27.304 20.8207 27.352C20.6827 27.4 20.5477 27.448 20.4157 27.496C20.2837 27.544 20.1757 27.586 20.0917 27.622C19.7197 27.766 19.5217 27.844 19.4977 27.856C19.4737 27.856 19.4437 27.802 19.4077 27.694C19.3717 27.586 19.3657 27.526 19.3897 27.514C19.4017 27.514 19.7677 27.376 20.4877 27.1C21.1957 26.836 21.5617 26.704 21.5857 26.704ZM33.0375 20.944V23.482C33.0375 25.174 33.0255 26.08 33.0015 26.2C32.9895 26.332 32.9595 26.476 32.9115 26.632C32.8635 26.776 32.8035 26.914 32.7315 27.046C32.6715 27.178 32.5935 27.304 32.4975 27.424C32.4015 27.544 32.2965 27.658 32.1825 27.766C32.0685 27.874 31.9515 27.97 31.8315 28.054C31.7115 28.126 31.5975 28.192 31.4895 28.252C31.3815 28.312 31.3185 28.342 31.3005 28.342C31.2825 28.342 31.2735 28.294 31.2735 28.198V28.054L31.3995 27.982C31.4715 27.934 31.5615 27.856 31.6695 27.748C31.7655 27.652 31.8555 27.544 31.9395 27.424C31.9995 27.316 32.0505 27.214 32.0925 27.118C32.1345 27.022 32.1735 26.92 32.2095 26.812L32.2455 26.65L32.2635 23.788V20.944H32.6595H33.0375ZM34.4235 20.944V24.166V27.388L34.8195 27.406C35.0955 27.406 35.2725 27.421 35.3505 27.451C35.4285 27.481 35.5035 27.532 35.5755 27.604C35.6475 27.664 35.6955 27.73 35.7195 27.802C35.7555 27.862 35.7735 27.934 35.7735 28.018V28.144L34.8015 28.162C34.2135 28.162 33.8595 28.162 33.7395 28.162L33.6315 28.144V24.544V20.944H34.0275H34.4235ZM29.9775 20.962L29.9955 21.862V22.744H30.3555L30.6975 22.762V22.924V23.104H30.3375H29.9775V23.95C29.9775 24.514 29.9835 24.796 29.9955 24.796C30.0075 24.796 30.1095 24.742 30.3015 24.634C30.4935 24.526 30.5955 24.472 30.6075 24.472C30.6195 24.472 30.6255 24.556 30.6255 24.724V24.994L30.3375 25.138C30.1335 25.246 30.0255 25.3 30.0135 25.3C29.9895 25.312 29.9775 25.714 29.9775 26.506C29.9775 26.974 29.9775 27.295 29.9775 27.469C29.9775 27.643 29.9715 27.754 29.9595 27.802C29.9355 27.898 29.9055 27.988 29.8695 28.072C29.8215 28.168 29.7645 28.252 29.6985 28.324C29.6325 28.396 29.5455 28.456 29.4375 28.504C29.3535 28.552 29.2875 28.582 29.2395 28.594H29.1855V27.172C29.1855 26.908 29.1855 26.665 29.1855 26.443C29.1855 26.221 29.1825 26.047 29.1765 25.921C29.1705 25.795 29.1675 25.732 29.1675 25.732C29.1675 25.732 29.1525 25.741 29.1225 25.759C29.0925 25.777 29.0565 25.795 29.0145 25.813C28.9725 25.831 28.9275 25.852 28.8795 25.876C28.6755 25.984 28.5615 26.044 28.5375 26.056C28.4895 26.092 28.4595 26.11 28.4475 26.11C28.4355 26.11 28.4295 26.026 28.4295 25.858V25.606L28.8075 25.426L29.1675 25.228L29.1855 24.166V23.104H28.7355H28.3035V22.924V22.762H28.7355H29.1855V21.862V20.962H29.5815H29.9775ZM35.1255 22.762C35.2455 22.654 35.3535 22.561 35.4495 22.483C35.5455 22.405 35.5995 22.366 35.6115 22.366C35.6235 22.366 35.6295 22.486 35.6295 22.726V23.068L35.4855 23.14C35.3895 23.176 35.2875 23.236 35.1795 23.32C35.0475 23.404 34.9155 23.509 34.7835 23.635C34.6515 23.761 34.5825 23.824 34.5765 23.824C34.5705 23.824 34.5675 23.77 34.5675 23.662C34.5675 23.542 34.5915 23.44 34.6395 23.356C34.6875 23.272 34.7475 23.182 34.8195 23.086C34.9035 22.99 35.0055 22.882 35.1255 22.762ZM30.8775 22.708C30.9015 22.72 30.9855 22.786 31.1295 22.906C31.2855 23.038 31.4355 23.17 31.5795 23.302C31.7235 23.458 31.8315 23.578 31.9035 23.662C31.9635 23.758 32.0175 23.848 32.0655 23.932C32.1015 24.016 32.1255 24.118 32.1375 24.238C32.1375 24.358 32.1345 24.43 32.1285 24.454C32.1225 24.478 32.0775 24.445 31.9935 24.355C31.9095 24.265 31.8165 24.175 31.7145 24.085C31.6125 23.995 31.5075 23.914 31.3995 23.842C31.2795 23.77 31.1595 23.704 31.0395 23.644L30.8415 23.554V23.122C30.8535 22.846 30.8655 22.708 30.8775 22.708ZM34.5855 24.67C34.5855 24.67 34.6635 24.73 34.8195 24.85C34.9635 24.97 35.1555 25.12 35.3955 25.3L35.7735 25.57V25.93C35.7615 26.158 35.7495 26.272 35.7375 26.272C35.7135 26.26 35.5635 26.11 35.2875 25.822C35.0235 25.558 34.8495 25.372 34.7655 25.264C34.7055 25.18 34.6575 25.102 34.6215 25.03C34.5855 24.958 34.5675 24.88 34.5675 24.796C34.5675 24.712 34.5735 24.67 34.5855 24.67ZM32.1195 24.958C32.1315 24.958 32.1375 24.964 32.1375 24.976C32.1375 24.988 32.1375 25.006 32.1375 25.03C32.1375 25.054 32.1375 25.078 32.1375 25.102C32.1375 25.21 32.1165 25.294 32.0745 25.354C32.0325 25.414 31.9395 25.498 31.7955 25.606C31.6635 25.726 31.4835 25.858 31.2555 26.002C31.0275 26.158 30.8775 26.254 30.8055 26.29L30.6975 26.344V26.002V25.642L30.8955 25.588C31.0035 25.552 31.1235 25.504 31.2555 25.444C31.3635 25.396 31.4835 25.336 31.6155 25.264C31.7475 25.192 31.8555 25.126 31.9395 25.066C32.0475 24.994 32.1075 24.958 32.1195 24.958ZM40.9432 21.376C40.9672 21.292 40.9792 21.25 40.9792 21.25C40.9792 21.25 41.0872 21.304 41.3032 21.412C41.5192 21.52 41.6332 21.574 41.6452 21.574C41.6572 21.586 41.5702 21.772 41.3842 22.132C41.1982 22.492 41.1052 22.675 41.1052 22.681C41.1052 22.687 41.2372 22.69 41.5012 22.69H41.8972V22.006C41.8972 21.55 41.8972 21.316 41.8972 21.304C41.8972 21.28 42.0292 21.268 42.2932 21.268L42.6892 21.25V21.97L42.7072 22.69H43.4632H44.2192V22.852V23.032H43.4452H42.6892V23.446C42.6892 23.71 42.6832 23.89 42.6712 23.986C42.6472 24.07 42.6232 24.148 42.5992 24.22L42.5452 24.292H43.6972H44.8312V24.472V24.652H44.0752C43.5592 24.652 43.2982 24.658 43.2922 24.67C43.2862 24.682 43.2832 25.036 43.2832 25.732V26.758H43.6612H44.0572V26.596V26.452H44.4532H44.8672V26.596C44.8672 26.704 44.8552 26.794 44.8312 26.866C44.8072 26.938 44.7682 27.004 44.7142 27.064C44.6602 27.124 44.5912 27.175 44.5072 27.217C44.4232 27.259 44.3272 27.28 44.2192 27.28H44.0572V27.19L44.0392 27.1H43.5712H43.0852L43.0312 27.154C42.9952 27.19 42.9412 27.226 42.8692 27.262C42.8092 27.298 42.7312 27.316 42.6352 27.316H42.5092V25.984V24.652H42.0772H41.6452V24.904C41.6452 25.06 41.6362 25.198 41.6182 25.318C41.6002 25.438 41.5732 25.552 41.5372 25.66C41.5012 25.768 41.4442 25.897 41.3662 26.047C41.2882 26.197 41.2072 26.332 41.1232 26.452C41.0392 26.56 40.9372 26.674 40.8172 26.794C40.6972 26.914 40.5832 27.016 40.4752 27.1C40.3552 27.184 40.2112 27.268 40.0432 27.352L39.7912 27.478V27.406C39.7792 27.346 39.8092 27.286 39.8812 27.226C39.9532 27.178 40.0432 27.1 40.1512 26.992C40.2472 26.884 40.3312 26.782 40.4032 26.686C40.4752 26.59 40.5412 26.494 40.6012 26.398C40.6492 26.314 40.6972 26.212 40.7452 26.092C40.7932 25.972 40.8292 25.858 40.8532 25.75C40.8772 25.618 40.8892 25.402 40.8892 25.102V24.652H40.3312H39.7732V24.472V24.292H40.8352H41.8972V23.662V23.032H41.3752H40.8712L40.7092 23.266C40.6252 23.398 40.5112 23.56 40.3672 23.752C40.2472 23.92 40.1752 24.004 40.1512 24.004C40.1272 24.004 40.0912 23.998 40.0432 23.986L39.9892 23.968L40.0432 23.86C40.0552 23.836 40.1212 23.686 40.2412 23.41C40.3492 23.17 40.4362 22.963 40.5022 22.789C40.5682 22.615 40.6492 22.354 40.7452 22.006C40.8532 21.658 40.9192 21.448 40.9432 21.376ZM39.0712 24.202L39.0532 25.66C39.0532 26.632 39.0412 27.142 39.0172 27.19C39.0052 27.238 39.0172 27.289 39.0532 27.343C39.0892 27.397 39.1522 27.469 39.2422 27.559C39.3322 27.649 39.4252 27.724 39.5212 27.784C39.6172 27.832 39.7192 27.874 39.8272 27.91L39.9892 27.964H42.5272H45.0832V28.126V28.306L42.4732 28.288C40.7332 28.288 39.8092 28.276 39.7012 28.252C39.5932 28.228 39.4972 28.204 39.4132 28.18C39.3052 28.144 39.2152 28.102 39.1432 28.054C39.0472 28.006 38.9632 27.946 38.8912 27.874C38.8192 27.814 38.7772 27.766 38.7652 27.73C38.7412 27.706 38.7052 27.718 38.6572 27.766C38.6092 27.802 38.5432 27.85 38.4592 27.91C38.3872 27.958 38.2882 28.003 38.1622 28.045C38.0362 28.087 37.9072 28.12 37.7752 28.144C37.6432 28.18 37.5472 28.198 37.4872 28.198H37.4152V28.018L37.4332 27.838L37.5772 27.82C37.6732 27.796 37.7572 27.766 37.8292 27.73C37.9012 27.694 37.9612 27.646 38.0092 27.586C38.0572 27.538 38.0992 27.472 38.1352 27.388C38.1712 27.304 38.2012 27.22 38.2252 27.136C38.2492 27.052 38.2672 26.602 38.2792 25.786V24.544H37.9552H37.6312V24.364V24.202H38.3512H39.0712ZM38.9812 22.24L38.9632 22.42H37.5232V22.078H38.9812V22.24Z" fill="#5B5B5B"/>
<defs>
<filter id="filter0_d" x="0" y="0" width="166.5" height="94" filterUnits="userSpaceOnUse" color-interpolation-filters="sRGB">
<feFlood flood-opacity="0" result="BackgroundImageFix"/>
<feColorMatrix in="SourceAlpha" type="matrix" values="0 0 0 0 0 0 0 0 0 0 0 0 0 0 0 0 0 0 127 0"/>
<feOffset dy="2"/>
<feGaussianBlur stdDeviation="1"/>
<feColorMatrix type="matrix" values="0 0 0 0 0 0 0 0 0 0 0 0 0 0 0 0 0 0 0.25 0"/>
<feBlend mode="normal" in2="BackgroundImageFix" result="effect1_dropShadow"/>
<feBlend mode="normal" in="SourceGraphic" in2="effect1_dropShadow" result="shape"/>
</filter>
<linearGradient id="paint0_linear" x1="2" y1="0" x2="165" y2="0" gradientUnits="userSpaceOnUse">
<stop stop-color="#F9FF0E"/>
<stop offset="1" stop-color="#FFC107"/>
</linearGradient>
</defs>
</svg>
