<svg width="11" height="11" viewBox="0 0 11 11" fill="none" xmlns="http://www.w3.org/2000/svg">
<path d="M10.5455 7.91017C10.5453 8.63125 10.2988 9.33063 9.84687 9.89252C9.39495 10.4544 8.7647 10.8451 8.06045 11L7.72404 9.9908C8.0321 9.94006 8.32506 9.82162 8.58181 9.644C8.83857 9.46639 9.05273 9.23403 9.20885 8.96367H7.90912C7.62943 8.96367 7.36121 8.85256 7.16344 8.6548C6.96567 8.45703 6.85457 8.1888 6.85457 7.90912V5.80002C6.85457 5.52034 6.96567 5.25211 7.16344 5.05434C7.36121 4.85657 7.62943 4.74547 7.90912 4.74547H9.45825C9.32958 3.72619 8.83339 2.7889 8.06278 2.10945C7.29217 1.43001 6.30011 1.05512 5.27275 1.05512C4.24538 1.05512 3.25332 1.43001 2.48271 2.10945C1.7121 2.7889 1.21591 3.72619 1.08724 4.74547H2.63637C2.91606 4.74547 3.18428 4.85657 3.38205 5.05434C3.57982 5.25211 3.69092 5.52034 3.69092 5.80002V7.90912C3.69092 8.1888 3.57982 8.45703 3.38205 8.6548C3.18428 8.85256 2.91606 8.96367 2.63637 8.96367H1.05455C0.774865 8.96367 0.506637 8.85256 0.30887 8.6548C0.111104 8.45703 0 8.1888 0 7.90912V5.27275C0 2.36061 2.36061 0 5.27275 0C8.18488 0 10.5455 2.36061 10.5455 5.27275V7.91017Z" fill="#FF8D0E"/>
</svg>
