<svg width="6" height="10" viewBox="0 0 6 10" fill="none" xmlns="http://www.w3.org/2000/svg">
<path d="M5.12231 5.54673C6.29256 4.27953 6.29256 2.21762 5.12231 0.950419C3.95207 -0.316806 2.04795 -0.316806 0.877685 0.950419C-0.292562 2.21762 -0.292562 4.27953 0.877685 5.54673C1.37304 6.08313 1.99988 6.39239 2.64687 6.4747V7.5628H1.94067C1.74566 7.5628 1.58757 7.73399 1.58757 7.94516C1.58757 8.15632 1.74566 8.32752 1.94067 8.32752H2.64687V9.40462C2.64689 9.61579 2.80497 9.78699 3.00001 9.78699C3.19503 9.78699 3.35311 9.61579 3.35311 9.40462V8.32752H4.05933C4.25434 8.32752 4.41243 8.15632 4.41243 7.94516C4.41243 7.73399 4.25434 7.5628 4.05933 7.5628H3.35311V6.47472C4.00012 6.39239 4.62696 6.08313 5.12231 5.54673ZM1.37706 5.00598C0.482162 4.03694 0.482162 2.4602 1.37706 1.49115C2.27194 0.522142 3.72802 0.522085 4.62296 1.49115C5.51786 2.4602 5.51786 4.03694 4.62296 5.00598C3.72806 5.97501 2.27196 5.97501 1.37706 5.00598Z" fill="#FF8D0E"/>
</svg>
