<svg width="8" height="11" viewBox="0 0 8 11" fill="none" xmlns="http://www.w3.org/2000/svg">
<path d="M0 5.40704C0 6.08185 0.137715 6.68091 0.413146 7.20423C0.692019 7.72754 1.07934 8.14757 1.57512 8.46432C2.07089 8.77762 2.64757 8.96182 3.30516 9.0169V10.2202H1.3892C1.27903 10.2202 1.18607 10.2581 1.11033 10.3338C1.03459 10.4095 0.996714 10.5025 0.996714 10.6127C0.996714 10.7194 1.03459 10.8106 1.11033 10.8864C1.18607 10.9621 1.27903 11 1.3892 11H6.00094C6.11111 11 6.20407 10.9621 6.27981 10.8864C6.35556 10.8106 6.39343 10.7194 6.39343 10.6127C6.39343 10.5025 6.35556 10.4095 6.27981 10.3338C6.20407 10.2581 6.11111 10.2202 6.00094 10.2202H4.08498V9.0169C4.74257 8.96182 5.31925 8.77762 5.81502 8.46432C6.3108 8.14757 6.6964 7.72754 6.97183 7.20423C7.2507 6.68091 7.39014 6.08185 7.39014 5.40704V4.35869C7.39014 4.25196 7.35227 4.16072 7.27653 4.08498C7.20078 4.00923 7.10955 3.97136 7.00282 3.97136C6.89264 3.97136 6.79969 4.00923 6.72394 4.08498C6.6482 4.16072 6.61033 4.25196 6.61033 4.35869V5.37606C6.61033 5.96135 6.48983 6.47434 6.24883 6.91502C6.00782 7.35571 5.6687 7.69828 5.23146 7.94272C4.79765 8.18372 4.28639 8.30422 3.69765 8.30422C3.10892 8.30422 2.59593 8.18372 2.15869 7.94272C1.72144 7.69828 1.38232 7.35571 1.14131 6.91502C0.900313 6.47434 0.779812 5.96135 0.779812 5.37606V4.35869C0.779812 4.25196 0.741941 4.16072 0.666197 4.08498C0.590454 4.00923 0.497496 3.97136 0.387324 3.97136C0.280595 3.97136 0.189358 4.00923 0.113615 4.08498C0.0378717 4.16072 0 4.25196 0 4.35869V5.40704ZM3.69765 7.1939C4.0385 7.1939 4.33803 7.11471 4.59624 6.95634C4.8579 6.79797 5.05931 6.57934 5.20047 6.30047C5.34507 6.01815 5.41737 5.6928 5.41737 5.32441V1.86948C5.41737 1.5011 5.34507 1.17746 5.20047 0.898592C5.05931 0.616275 4.8579 0.395931 4.59624 0.237559C4.33803 0.0791862 4.0385 0 3.69765 0C3.35336 0 3.05211 0.0791862 2.7939 0.237559C2.53568 0.395931 2.33427 0.616275 2.18967 0.898592C2.04507 1.17746 1.97277 1.5011 1.97277 1.86948V5.32441C1.97277 5.6928 2.04507 6.01815 2.18967 6.30047C2.33427 6.57934 2.53568 6.79797 2.7939 6.95634C3.05211 7.11471 3.35336 7.1939 3.69765 7.1939Z" fill="#8E8E93"/>
</svg>
