<svg width="11" height="11" viewBox="0 0 11 11" fill="none" xmlns="http://www.w3.org/2000/svg">
<path d="M4.44976 8.89953C5.41031 8.89953 6.30721 8.58706 7.0363 8.06628L9.77906 10.809C9.90637 10.9363 10.0742 11 10.2478 11C10.6239 11 10.8958 10.7107 10.8958 10.3403C10.8958 10.1668 10.838 10.0047 10.7107 9.87743L7.98527 7.14624C8.55813 6.394 8.89953 5.46239 8.89953 4.44976C8.89953 2.0021 6.89742 0 4.44976 0C1.99632 0 0 2.0021 0 4.44976C0 6.89742 1.99632 8.89953 4.44976 8.89953ZM4.44976 7.93898C2.53446 7.93898 0.960547 6.35928 0.960547 4.44976C0.960547 2.54024 2.53446 0.960547 4.44976 0.960547C6.35928 0.960547 7.93898 2.54024 7.93898 4.44976C7.93898 6.35928 6.35928 7.93898 4.44976 7.93898Z" fill="#8E8E93"/>
</svg>
