<svg width="19" height="18" viewBox="0 0 19 18" fill="none" xmlns="http://www.w3.org/2000/svg">
<path d="M7.06344 7.94636C6.75441 8.46729 6.49836 9.0412 6.34826 9.65042C3.97318 9.85349 1.67757 10.966 1.67757 11.4781V12.4493H6.35709C6.50719 13.0497 6.75441 13.6148 7.06344 14.1269H0V11.4781C0 9.12949 4.70601 7.94636 7.06344 7.94636ZM7.06344 0C8.0001 0 8.89841 0.37209 9.56074 1.03442C10.2231 1.69674 10.5952 2.59505 10.5952 3.53172C10.5952 4.33518 10.3214 5.07684 9.87115 5.67724C9.11183 5.95977 8.43198 6.41007 7.8669 6.97514L7.06344 7.06344C6.12677 7.06344 5.22846 6.69135 4.56613 6.02902C3.90381 5.36669 3.53172 4.46839 3.53172 3.53172C3.53172 2.59505 3.90381 1.69674 4.56613 1.03442C5.22846 0.37209 6.12677 0 7.06344 0ZM7.06344 1.67757C6.57168 1.67757 6.10007 1.87291 5.75235 2.22063C5.40463 2.56836 5.20928 3.03997 5.20928 3.53172C5.20928 4.02347 5.40463 4.49508 5.75235 4.8428C6.10007 5.19052 6.57168 5.38587 7.06344 5.38587C7.55519 5.38587 8.0268 5.19052 8.37452 4.8428C8.72224 4.49508 8.91759 4.02347 8.91759 3.53172C8.91759 3.03997 8.72224 2.56836 8.37452 2.22063C8.0268 1.87291 7.55519 1.67757 7.06344 1.67757ZM11.9195 7.06344C14.1269 7.06344 15.8927 8.82929 15.8927 11.0366C15.8927 11.8136 15.672 12.5464 15.2835 13.1556L18.0029 15.8927L16.7757 17.12L14.0209 14.4094C13.4117 14.7891 12.6877 15.0098 11.9195 15.0098C9.71222 15.0098 7.94636 13.2439 7.94636 11.0366C7.94636 8.82929 9.71222 7.06344 11.9195 7.06344ZM11.9195 8.82929C11.3341 8.82929 10.7727 9.06185 10.3587 9.4758C9.94478 9.88976 9.71222 10.4512 9.71222 11.0366C9.71222 11.622 9.94478 12.1835 10.3587 12.5974C10.7727 13.0114 11.3341 13.2439 11.9195 13.2439C12.505 13.2439 13.0664 13.0114 13.4804 12.5974C13.8943 12.1835 14.1269 11.622 14.1269 11.0366C14.1269 10.4512 13.8943 9.88976 13.4804 9.4758C13.0664 9.06185 12.505 8.82929 11.9195 8.82929Z" fill="black"/>
</svg>
