<svg width="24" height="12" viewBox="0 0 24 12" fill="none" xmlns="http://www.w3.org/2000/svg">
<path d="M5.36719 4.45117H8.18555L8.83008 3.6543L10.2363 4.39258C10.3809 4.4707 10.4531 4.56055 10.4531 4.66211C10.4531 4.75977 10.3887 4.87109 10.2598 4.99609L9.97266 5.26562V9.15039C9.97266 9.46289 9.98828 9.94922 10.0195 10.6094C10.0312 10.9258 10.0391 11.1699 10.043 11.3418L8.38477 11.6582V10.6738H3.64453V11.4004L1.98047 11.6699C1.98438 11.5059 1.99414 11.2441 2.00977 10.8848C2.03711 10.1934 2.05078 9.66797 2.05078 9.30859V5.24805C2.05078 4.9082 2.04688 4.64062 2.03906 4.44531L2.02148 4.08203C2.01758 4.00391 2.01172 3.90039 2.00391 3.77148L3.86133 4.45117H4.43555L4.5 3.95312C4.55078 3.52344 4.58984 3.1875 4.61719 2.94531H1.58789C1.32617 2.94531 1.04688 2.98828 0.75 3.07422L0.433594 2.48828H3.99609C3.85547 2.42578 3.73242 2.2793 3.62695 2.04883C3.36133 1.42383 3.07617 0.949219 2.77148 0.625L2.87695 0.4375C2.96289 0.457031 3.10156 0.484375 3.29297 0.519531C3.94141 0.652344 4.38477 0.783203 4.62305 0.912109C4.95117 1.09961 5.11523 1.35742 5.11523 1.68555C5.10352 2.09961 4.92578 2.36719 4.58203 2.48828H6.78516C7 1.67188 7.13086 0.964844 7.17773 0.367188L9.05273 0.8125C9.16211 0.839844 9.23242 0.869141 9.26367 0.900391C9.29883 0.927734 9.31641 0.974609 9.31641 1.04102C9.31641 1.13086 9.2832 1.19531 9.2168 1.23438C9.1543 1.26953 9.02344 1.29883 8.82422 1.32227C8.42969 1.74805 7.9707 2.13672 7.44727 2.48828H9.32812L10.1367 1.48633L11.625 2.74023L11.5137 2.94531H6.69727C6.45898 3.28516 6.25391 3.55273 6.08203 3.74805C5.88281 3.9707 5.64453 4.20508 5.36719 4.45117ZM3.64453 10.2168H8.38477V8.72266H3.64453V10.2168ZM3.64453 8.27734H8.38477V6.77734H3.64453V8.27734ZM3.64453 6.33203H8.38477V4.91406H3.64453V6.33203ZM18.2754 8.82227C17.8184 9.75586 16.9824 10.4629 15.7676 10.9434C15.1426 11.1895 14.1855 11.4355 12.8965 11.6816L12.8086 11.4121C13.9805 10.9004 14.8672 10.4238 15.4688 9.98242C16.1055 9.52148 16.5547 9.01172 16.8164 8.45312C17.0664 7.92188 17.1914 7.24805 17.1914 6.43164V5.28906C17.1914 5.05078 17.1797 4.76758 17.1562 4.43945L18.9023 4.7207C19.0703 4.74805 19.1543 4.81641 19.1543 4.92578C19.1543 5.01172 19.084 5.08984 18.9434 5.16016L18.7266 5.25977V6.54297C18.7031 7.22656 18.6348 7.76367 18.5215 8.1543C18.4902 8.26758 18.4492 8.39453 18.3984 8.53516L18.6738 8.58789C19.4707 8.74805 20.0664 8.87695 20.4609 8.97461C20.9531 9.0957 21.3828 9.23438 21.75 9.39062C22.3477 9.65234 22.6465 10.0352 22.6465 10.5391C22.6465 10.8555 22.5586 11.1133 22.3828 11.3125C22.2305 11.4844 22.0449 11.5703 21.8262 11.5703C21.6895 11.5703 21.5605 11.5273 21.4395 11.4414C21.3223 11.3594 21.1445 11.1914 20.9062 10.9375C20.5703 10.5703 20.2617 10.2676 19.9805 10.0293C19.6445 9.74805 19.3477 9.51758 19.0898 9.33789C18.9062 9.2168 18.6348 9.04492 18.2754 8.82227ZM18.832 1.7793C18.2969 2.5293 17.8613 3.06641 17.5254 3.39062H20.209L20.7773 2.68164L22.1895 3.39648C22.3496 3.47852 22.4297 3.56836 22.4297 3.66602C22.4297 3.74805 22.3691 3.84961 22.248 3.9707L21.9727 4.25781V6.66602C21.9727 6.87695 21.9844 7.28516 22.0078 7.89062C22.0195 8.18359 22.0273 8.42188 22.0312 8.60547L20.4082 8.89844V3.84766H15.5918V8.98633L13.9746 9.25586L14.0273 7.16992C14.0312 7.0332 14.0332 6.92969 14.0332 6.85938V4.03516C14.0332 3.57812 14.0156 3.1582 13.9805 2.77539L15.8379 3.39062H16.5352C16.625 2.81641 16.6797 2.2793 16.6992 1.7793H13.7871H13.582C13.3086 1.7793 13.0234 1.82031 12.7266 1.90234L12.4219 1.32227H21.2871L22.0898 0.373047L23.5547 1.57422L23.4434 1.7793H18.832Z" fill="#FF8D0E"/>
</svg>
