<svg width="19" height="18" viewBox="0 0 19 18" fill="none" xmlns="http://www.w3.org/2000/svg">
<path d="M17.7508 8.42257L10.0251 0.700844L9.50727 0.182996C9.38928 0.0657841 9.22972 0 9.06341 0C8.89709 0 8.73753 0.0657841 8.61954 0.182996L0.375972 8.42257C0.25507 8.543 0.159519 8.68643 0.0949591 8.84439C0.0303994 9.00236 -0.00186071 9.17166 8.28749e-05 9.34229C0.00808051 10.0461 0.593907 10.6079 1.2977 10.6079H2.14745V17.12H15.9794V10.6079H16.8471C17.189 10.6079 17.5109 10.474 17.7528 10.232C17.872 10.1133 17.9663 9.9721 18.0305 9.81662C18.0947 9.66115 18.1274 9.4945 18.1267 9.3263C18.1267 8.9864 17.9928 8.66449 17.7508 8.42257ZM10.1831 15.6804H7.94374V11.6016H10.1831V15.6804ZM14.5398 9.16835V15.6804H11.4627V11.1218C11.4627 10.6799 11.1048 10.322 10.6629 10.322H7.46388C7.02201 10.322 6.66411 10.6799 6.66411 11.1218V15.6804H3.58702V9.16835H1.66759L9.0654 1.77653L9.52727 2.23839L16.4612 9.16835H14.5398Z" fill="black"/>
</svg>
