<svg width="14" height="18" viewBox="0 0 14 18" fill="none" xmlns="http://www.w3.org/2000/svg">
<path d="M12.3644 0H0.951111C0.698861 0 0.456942 0.100206 0.278574 0.278574C0.100206 0.456942 0 0.698861 0 0.951111V16.1689C0 16.4211 0.100206 16.6631 0.278574 16.8414C0.456942 17.0198 0.698861 17.12 0.951111 17.12H12.3644C12.6167 17.12 12.8586 17.0198 13.037 16.8414C13.2154 16.6631 13.3156 16.4211 13.3156 16.1689V0.951111C13.3156 0.698861 13.2154 0.456942 13.037 0.278574C12.8586 0.100206 12.6167 0 12.3644 0ZM11.4133 15.2178H1.90222V1.90222H11.4133V15.2178ZM9.51111 3.80444H3.80444V5.70667H9.51111V3.80444ZM9.51111 11.4133H3.80444V13.3156H9.51111V11.4133ZM9.51111 7.60889H3.80444V9.51111H9.51111V7.60889Z" fill="black"/>
</svg>
