<svg width="24" height="12" viewBox="0 0 24 12" fill="none" xmlns="http://www.w3.org/2000/svg">
<path d="M1.80469 4.42773L2.41406 3.61328L3.75 4.33984C3.90234 4.42578 3.97852 4.50977 3.97852 4.5918C3.97852 4.67383 3.91406 4.77734 3.78516 4.90234L3.5625 5.11914V9.01562C4.13281 8.77344 4.73438 8.48438 5.36719 8.14844L5.53125 8.32422C5.19531 8.80859 4.85742 9.23047 4.51758 9.58984C4.17773 9.94922 3.71484 10.377 3.12891 10.873C3.12891 10.8848 3.12891 10.9062 3.12891 10.9375C3.12891 10.9609 3.12891 10.9805 3.12891 10.9961C3.12891 11 3.12891 11.0078 3.12891 11.0195C3.12891 11.0273 3.12891 11.0332 3.12891 11.0371C3.12891 11.1777 3.11133 11.2734 3.07617 11.3242C3.04102 11.3789 2.97656 11.4062 2.88281 11.4062C2.82031 11.4062 2.76562 11.3828 2.71875 11.3359C2.67188 11.2891 2.60352 11.1914 2.51367 11.043L1.71094 9.73633C1.74219 9.72461 1.79297 9.70508 1.86328 9.67773C1.92188 9.6582 1.9668 9.64258 1.99805 9.63086V4.89062H1.44727C1.18164 4.89062 0.919922 4.92969 0.662109 5.00781L0.380859 4.42773H1.80469ZM7.64062 2.03711H5.48438C5.20312 2.03711 4.91406 2.08008 4.61719 2.16602L4.30664 1.5625H9.39258L10.1953 0.572266L11.7012 1.82031L11.5898 2.03711H9.23438V8.68164C9.23438 8.79102 9.23828 8.96875 9.24609 9.21484L9.25781 9.73633C9.26172 9.9043 9.26367 10.0508 9.26367 10.1758C9.26367 10.4805 9.22461 10.7148 9.14648 10.8789C9.06836 11.043 8.92969 11.1836 8.73047 11.3008C8.42578 11.4844 7.88867 11.5938 7.11914 11.6289C7.12305 11.5859 7.125 11.543 7.125 11.5C7.125 11.1562 7.00195 10.8906 6.75586 10.7031C6.50977 10.5195 6.11523 10.3984 5.57227 10.3398V10.0293H7.25391C7.42188 10.0293 7.52734 10.0059 7.57031 9.95898C7.61719 9.91211 7.64062 9.80273 7.64062 9.63086V2.03711ZM1.38867 0.566406C2.05273 0.734375 2.58594 0.917969 2.98828 1.11719C3.48047 1.36328 3.72656 1.69727 3.72656 2.11914C3.72656 2.41602 3.62695 2.65625 3.42773 2.83984C3.25586 3 3.04492 3.08008 2.79492 3.08008C2.60352 3.08008 2.46094 3.03906 2.36719 2.95703C2.27734 2.87109 2.19727 2.70898 2.12695 2.4707C1.93555 1.83398 1.64648 1.25977 1.25977 0.748047L1.38867 0.566406ZM19.4004 2.65234H20.6543L21.3047 1.89648L22.5996 2.63477C22.7715 2.73242 22.8574 2.82812 22.8574 2.92188C22.8574 3.00391 22.791 3.10547 22.6582 3.22656L22.3359 3.51953V5.60547C22.3359 5.85547 22.3496 6.27344 22.377 6.85938C22.3848 7.04688 22.3906 7.19922 22.3945 7.31641L20.8301 7.63281V7.04688H18.832V8.55273H21.3516L22.1777 7.58008L23.6484 8.81641L23.5254 9.00977H18.832V9.19141C18.832 9.79297 18.8418 10.5527 18.8613 11.4707L17.168 11.7051C17.1719 11.5215 17.1797 11.1816 17.1914 10.6855C17.207 10.0332 17.2148 9.52539 17.2148 9.16211V9.00977H13.6113C13.3262 9.00977 13.0332 9.05469 12.7324 9.14453L12.4277 8.55273H17.2148V7.04688H15.2227V7.51562L13.6465 7.79102C13.6504 7.63867 13.6621 7.35742 13.6816 6.94727C13.7051 6.4043 13.7168 5.98047 13.7168 5.67578V3.37891C13.7168 3.10156 13.7031 2.6875 13.6758 2.13672L13.6641 1.94922L15.4922 2.65234H18.791C19.0059 1.83203 19.1387 1.08203 19.1895 0.402344L21.0879 0.865234C21.2598 0.908203 21.3457 0.986328 21.3457 1.09961C21.3457 1.19727 21.3125 1.26562 21.2461 1.30469C21.1797 1.33984 21.043 1.36719 20.8359 1.38672C20.3828 1.89844 19.9043 2.32031 19.4004 2.65234ZM20.8301 6.58984V5.03711H18.7676V6.58984H20.8301ZM20.8301 4.58008V3.11523H18.7676V4.58008H20.8301ZM15.2227 3.11523V4.58008H17.2559V3.11523H15.2227ZM15.2227 5.03711V6.58984H17.2559V5.03711H15.2227ZM15.1465 0.472656C15.2246 0.492187 15.3477 0.519531 15.5156 0.554688C16.1406 0.691406 16.5742 0.826172 16.8164 0.958984C17.1602 1.1543 17.332 1.41406 17.332 1.73828C17.332 1.98047 17.2539 2.17773 17.0977 2.33008C16.9453 2.48242 16.7461 2.55859 16.5 2.55859C16.3281 2.55859 16.1953 2.52539 16.1016 2.45898C16.0078 2.38867 15.9238 2.26367 15.8496 2.08398C15.6074 1.48633 15.3379 1.01172 15.041 0.660156L15.1465 0.472656Z" fill="#FF8D0E"/>
</svg>
