<svg width="24" height="12" viewBox="0 0 24 12" fill="none" xmlns="http://www.w3.org/2000/svg">
<path d="M2.98828 6.73633V4.65625H1.57617C1.33008 4.65625 1.03906 4.70117 0.703125 4.79102L0.380859 4.19922H2.98828V2.54688C2.35156 2.63281 1.61914 2.71289 0.791016 2.78711L0.714844 2.53516C2.40625 1.95703 3.82227 1.29102 4.96289 0.537109L5.98242 1.66211C6.04492 1.72852 6.07617 1.79102 6.07617 1.84961C6.07617 1.97852 6.00391 2.04297 5.85938 2.04297C5.78906 2.04297 5.67578 2.01562 5.51953 1.96094C5.13672 2.07031 4.8125 2.1582 4.54688 2.22461L4.55273 4.19922H6.63867C6.60352 3.75 6.57617 3.08789 6.55664 2.21289C6.54102 1.32617 6.51758 0.753906 6.48633 0.496094L8.25 0.8125C8.39453 0.835938 8.4668 0.904297 8.4668 1.01758C8.4668 1.12695 8.32617 1.24023 8.04492 1.35742C8.04492 1.68945 8.04492 1.9375 8.04492 2.10156C8.04492 2.94531 8.06055 3.64453 8.0918 4.19922H9.41602L10.084 3.35547C10.0527 3.35938 10.0215 3.36133 9.99023 3.36133C9.68555 3.36133 9.48242 3.18555 9.38086 2.83398C9.2793 2.48633 9.18359 2.2168 9.09375 2.02539C9.00391 1.83008 8.86719 1.60742 8.68359 1.35742L8.80078 1.18164C8.86328 1.20117 8.98438 1.23438 9.16406 1.28125C9.74219 1.4375 10.1406 1.58984 10.3594 1.73828C10.6602 1.94141 10.8105 2.20508 10.8105 2.5293C10.7949 2.94336 10.6152 3.20703 10.2715 3.32031L11.5957 4.45703L11.4844 4.65625H8.12695L8.14453 4.79688C8.15625 4.92188 8.16602 5.01562 8.17383 5.07812C8.26758 5.85156 8.41797 6.54883 8.625 7.16992C9.08203 6.47852 9.41406 5.84766 9.62109 5.27734L10.916 5.99219C11.1309 6.10938 11.2383 6.21484 11.2383 6.30859C11.2383 6.46094 11.0879 6.53711 10.7871 6.53711H10.6992C10.1484 7.36133 9.64844 7.98828 9.19922 8.41797C9.24219 8.48047 9.29297 8.55859 9.35156 8.65234C9.75391 9.24219 10.0488 9.53711 10.2363 9.53711C10.291 9.53711 10.3613 9.4707 10.4473 9.33789C10.5645 9.1543 10.7715 8.73633 11.0684 8.08398C11.0957 8.02148 11.1152 7.97656 11.127 7.94922L11.2383 7.70898L11.5195 7.78516C11.4766 8.07422 11.4102 8.46094 11.3203 8.94531L11.3086 9.02734C11.2227 9.5 11.1797 9.80273 11.1797 9.93555C11.1797 10.084 11.2383 10.2891 11.3555 10.5508C11.4297 10.7148 11.4668 10.8594 11.4668 10.9844C11.4668 11.168 11.4023 11.3145 11.2734 11.4238C11.1484 11.5332 10.9824 11.5879 10.7754 11.5879C10.416 11.5879 10.0176 11.4434 9.58008 11.1543C9.14648 10.8691 8.73438 10.4805 8.34375 9.98828C8.20703 9.8125 8.08008 9.63281 7.96289 9.44922C7.30273 9.92188 6.35547 10.4121 5.12109 10.9199L4.99805 10.668C6.03711 9.94531 6.87109 9.25 7.5 8.58203C7.21484 7.95312 6.99805 7.19727 6.84961 6.31445C6.7832 5.87305 6.72266 5.32031 6.66797 4.65625H4.55273L4.55859 6.47266C4.98828 6.39062 5.54883 6.27539 6.24023 6.12695L6.35742 6.37891C5.79883 6.68359 5.19922 6.97656 4.55859 7.25781L4.56445 9.0332C4.56445 9.5293 4.56836 9.93945 4.57617 10.2637C4.57617 10.3301 4.57617 10.3789 4.57617 10.4102C4.57617 10.918 4.33789 11.2559 3.86133 11.4238C3.62695 11.502 3.20312 11.5605 2.58984 11.5996C2.57812 11.1973 2.48047 10.9121 2.29688 10.7441C2.11719 10.5762 1.78125 10.4609 1.28906 10.3984V10.1172H2.72461C2.82227 10.1133 2.89062 10.0918 2.92969 10.0527C2.96875 10.0137 2.98828 9.93945 2.98828 9.83008V7.87891C2.60156 8.01562 2.19141 8.15625 1.75781 8.30078L1.38867 8.42383C1.37305 8.59961 1.34961 8.7168 1.31836 8.77539C1.29102 8.83008 1.23828 8.85742 1.16016 8.85742C1.06641 8.85742 0.998047 8.78906 0.955078 8.65234L0.457031 7.04688C1.46094 6.94922 2.30469 6.8457 2.98828 6.73633ZM19.6992 2.51758H21.5332L22.0664 1.82617L23.3262 2.54102C23.4941 2.63477 23.5781 2.72656 23.5781 2.81641C23.5781 2.91406 23.5137 3.0332 23.3848 3.17383L23.1504 3.42578C23.1504 3.94922 23.1426 4.59375 23.127 5.35938C23.1113 6.10938 23.0859 6.91016 23.0508 7.76172C23.0078 8.80078 22.9531 9.48828 22.8867 9.82422C22.7773 10.4023 22.5527 10.8223 22.2129 11.084C21.834 11.373 21.2383 11.5352 20.4258 11.5703C20.4297 11.5352 20.4316 11.4961 20.4316 11.4531C20.4316 11.0469 20.2578 10.7617 19.9102 10.5977C19.7578 10.5273 19.418 10.4395 18.8906 10.334V10.0176L20.5254 10.0293H20.5605C20.9355 10.0293 21.1758 9.96094 21.2812 9.82422C21.375 9.70703 21.4473 9.45117 21.498 9.05664C21.5801 8.4043 21.6348 7.50586 21.6621 6.36133C21.6816 5.61133 21.6973 4.48438 21.709 2.98047H19.4824C19.1543 3.60937 18.8223 4.15234 18.4863 4.60938C18.2246 4.96484 17.9023 5.35547 17.5195 5.78125L17.2969 5.64062V8.60547C17.2969 8.91406 17.3086 9.39453 17.332 10.0469C17.3398 10.2695 17.3457 10.4453 17.3496 10.5742L15.8965 10.8848V9.98242H14.3555V11.0195L12.8906 11.3066C12.8945 11.1348 12.9043 10.8555 12.9199 10.4688C12.9473 9.73438 12.9609 9.17383 12.9609 8.78711L12.9551 3.90625C12.9551 3.38281 12.9414 2.78125 12.9141 2.10156L14.2793 2.69922C14.416 1.88672 14.4844 1.18359 14.4844 0.589844C14.4844 0.554688 14.4844 0.501953 14.4844 0.431641L16.1719 0.818359C16.3398 0.853516 16.4238 0.927734 16.4238 1.04102C16.4238 1.20508 16.2617 1.30859 15.9375 1.35156C15.6055 1.89844 15.2344 2.37305 14.8242 2.77539H15.8086L16.377 2.08398L17.5078 2.73438C17.6602 2.82031 17.7363 2.91406 17.7363 3.01562C17.7363 3.10938 17.6758 3.21484 17.5547 3.33203L17.2969 3.57812V5.62305C18.0352 3.83398 18.457 2.10937 18.5625 0.449219L20.3555 0.841797C20.4688 0.865234 20.5449 0.894531 20.584 0.929688C20.627 0.964844 20.6484 1.01953 20.6484 1.09375C20.6484 1.1875 20.6152 1.25586 20.5488 1.29883C20.4824 1.3418 20.3418 1.38477 20.127 1.42773C19.9863 1.81836 19.8438 2.18164 19.6992 2.51758ZM15.8965 9.51953V6.47852H14.3555V9.51953H15.8965ZM15.8965 6.01562V3.23828H14.3555V6.01562H15.8965ZM18.3926 5.03711L18.5566 4.85547C19.3926 5.23047 19.9668 5.57617 20.2793 5.89258C20.5527 6.16992 20.6895 6.48242 20.6895 6.83008C20.6895 7.11133 20.5996 7.3457 20.4199 7.5332C20.2637 7.68945 20.0781 7.76758 19.8633 7.76758C19.6367 7.76758 19.4766 7.67773 19.3828 7.49805C19.3438 7.41992 19.2852 7.22461 19.207 6.91211C19.0586 6.29102 18.7871 5.66602 18.3926 5.03711Z" fill="#FF8D0E"/>
</svg>
